<?xml version="1.0" encoding="utf-8" standalone="no"?>
<!DOCTYPE svg PUBLIC "-//W3C//DTD SVG 1.1//EN"
  "http://www.w3.org/Graphics/SVG/1.1/DTD/svg11.dtd">
<!-- Created with matplotlib (http://matplotlib.org/) -->
<svg height="288pt" version="1.1" viewBox="0 0 432 288" width="432pt" xmlns="http://www.w3.org/2000/svg" xmlns:xlink="http://www.w3.org/1999/xlink">
 <defs>
  <style type="text/css">
*{stroke-linecap:butt;stroke-linejoin:round;stroke-miterlimit:100000;}
  </style>
 </defs>
 <g id="figure_1">
  <g id="patch_1">
   <path d="M 0 288 
L 432 288 
L 432 0 
L 0 0 
z
" style="fill:#ffffff;"/>
  </g>
  <g id="axes_1">
   <g id="patch_2">
    <path d="M 54 252 
L 388.8 252 
L 388.8 28.8 
L 54 28.8 
z
" style="fill:#ffffff;"/>
   </g>
   <g id="PathCollection_1">
    <defs>
     <path d="M 0 1.581139 
C 0.419323 1.581139 0.821528 1.41454 1.118034 1.118034 
C 1.41454 0.821528 1.581139 0.419323 1.581139 0 
C 1.581139 -0.419323 1.41454 -0.821528 1.118034 -1.118034 
C 0.821528 -1.41454 0.419323 -1.581139 0 -1.581139 
C -0.419323 -1.581139 -0.821528 -1.41454 -1.118034 -1.118034 
C -1.41454 -0.821528 -1.581139 -0.419323 -1.581139 0 
C -1.581139 0.419323 -1.41454 0.821528 -1.118034 1.118034 
C -0.821528 1.41454 -0.419323 1.581139 0 1.581139 
z
" id="m8dd337667c"/>
    </defs>
    <g clip-path="url(#pcf09028567)">
     <use style="fill:#0000ff;" x="53.4410684474" xlink:href="#m8dd337667c" y="78.4"/>
     <use style="fill:#0000ff;" x="54.5589315526" xlink:href="#m8dd337667c" y="243.733333333"/>
     <use style="fill:#0000ff;" x="55.6767946578" xlink:href="#m8dd337667c" y="78.4"/>
     <use style="fill:#0000ff;" x="56.7946577629" xlink:href="#m8dd337667c" y="78.4"/>
     <use style="fill:#0000ff;" x="57.9125208681" xlink:href="#m8dd337667c" y="78.4"/>
     <use style="fill:#0000ff;" x="59.0303839733" xlink:href="#m8dd337667c" y="78.4"/>
     <use style="fill:#0000ff;" x="60.1482470785" xlink:href="#m8dd337667c" y="78.4"/>
     <use style="fill:#0000ff;" x="61.2661101836" xlink:href="#m8dd337667c" y="78.4"/>
     <use style="fill:#0000ff;" x="62.3839732888" xlink:href="#m8dd337667c" y="78.4"/>
     <use style="fill:#0000ff;" x="63.501836394" xlink:href="#m8dd337667c" y="78.4"/>
     <use style="fill:#0000ff;" x="64.6196994992" xlink:href="#m8dd337667c" y="78.4"/>
     <use style="fill:#0000ff;" x="65.7375626043" xlink:href="#m8dd337667c" y="78.4"/>
     <use style="fill:#0000ff;" x="66.8554257095" xlink:href="#m8dd337667c" y="78.4"/>
     <use style="fill:#0000ff;" x="67.9732888147" xlink:href="#m8dd337667c" y="78.4"/>
     <use style="fill:#0000ff;" x="69.0911519199" xlink:href="#m8dd337667c" y="78.4"/>
     <use style="fill:#0000ff;" x="70.209015025" xlink:href="#m8dd337667c" y="78.4"/>
     <use style="fill:#0000ff;" x="71.3268781302" xlink:href="#m8dd337667c" y="78.4"/>
     <use style="fill:#0000ff;" x="72.4447412354" xlink:href="#m8dd337667c" y="78.4"/>
     <use style="fill:#0000ff;" x="73.5626043406" xlink:href="#m8dd337667c" y="78.4"/>
     <use style="fill:#0000ff;" x="74.6804674457" xlink:href="#m8dd337667c" y="78.4"/>
     <use style="fill:#0000ff;" x="75.7983305509" xlink:href="#m8dd337667c" y="78.4"/>
     <use style="fill:#0000ff;" x="76.9161936561" xlink:href="#m8dd337667c" y="78.4"/>
     <use style="fill:#0000ff;" x="78.0340567613" xlink:href="#m8dd337667c" y="78.4"/>
     <use style="fill:#0000ff;" x="79.1519198664" xlink:href="#m8dd337667c" y="78.4"/>
     <use style="fill:#0000ff;" x="80.2697829716" xlink:href="#m8dd337667c" y="78.4"/>
     <use style="fill:#0000ff;" x="81.3876460768" xlink:href="#m8dd337667c" y="78.4"/>
     <use style="fill:#0000ff;" x="82.505509182" xlink:href="#m8dd337667c" y="78.4"/>
     <use style="fill:#0000ff;" x="83.6233722871" xlink:href="#m8dd337667c" y="78.4"/>
     <use style="fill:#0000ff;" x="84.7412353923" xlink:href="#m8dd337667c" y="78.4"/>
     <use style="fill:#0000ff;" x="85.8590984975" xlink:href="#m8dd337667c" y="78.4"/>
     <use style="fill:#0000ff;" x="86.9769616027" xlink:href="#m8dd337667c" y="243.733333333"/>
     <use style="fill:#0000ff;" x="88.0948247078" xlink:href="#m8dd337667c" y="78.4"/>
     <use style="fill:#0000ff;" x="89.212687813" xlink:href="#m8dd337667c" y="78.4"/>
     <use style="fill:#0000ff;" x="90.3305509182" xlink:href="#m8dd337667c" y="78.4"/>
     <use style="fill:#0000ff;" x="91.4484140234" xlink:href="#m8dd337667c" y="78.4"/>
     <use style="fill:#0000ff;" x="92.5662771285" xlink:href="#m8dd337667c" y="78.4"/>
     <use style="fill:#0000ff;" x="93.6841402337" xlink:href="#m8dd337667c" y="78.4"/>
     <use style="fill:#0000ff;" x="94.8020033389" xlink:href="#m8dd337667c" y="78.4"/>
     <use style="fill:#0000ff;" x="95.9198664441" xlink:href="#m8dd337667c" y="243.733333333"/>
     <use style="fill:#0000ff;" x="97.0377295492" xlink:href="#m8dd337667c" y="78.4"/>
     <use style="fill:#0000ff;" x="98.1555926544" xlink:href="#m8dd337667c" y="78.4"/>
     <use style="fill:#0000ff;" x="99.2734557596" xlink:href="#m8dd337667c" y="78.4"/>
     <use style="fill:#0000ff;" x="100.391318865" xlink:href="#m8dd337667c" y="78.4"/>
     <use style="fill:#0000ff;" x="101.50918197" xlink:href="#m8dd337667c" y="78.4"/>
     <use style="fill:#0000ff;" x="102.627045075" xlink:href="#m8dd337667c" y="78.4"/>
     <use style="fill:#0000ff;" x="103.74490818" xlink:href="#m8dd337667c" y="78.4"/>
     <use style="fill:#0000ff;" x="104.862771285" xlink:href="#m8dd337667c" y="78.4"/>
     <use style="fill:#0000ff;" x="105.980634391" xlink:href="#m8dd337667c" y="243.733333333"/>
     <use style="fill:#0000ff;" x="107.098497496" xlink:href="#m8dd337667c" y="243.733333333"/>
     <use style="fill:#0000ff;" x="108.216360601" xlink:href="#m8dd337667c" y="78.4"/>
     <use style="fill:#0000ff;" x="109.334223706" xlink:href="#m8dd337667c" y="78.4"/>
     <use style="fill:#0000ff;" x="110.452086811" xlink:href="#m8dd337667c" y="78.4"/>
     <use style="fill:#0000ff;" x="111.569949917" xlink:href="#m8dd337667c" y="78.4"/>
     <use style="fill:#0000ff;" x="112.687813022" xlink:href="#m8dd337667c" y="78.4"/>
     <use style="fill:#0000ff;" x="113.805676127" xlink:href="#m8dd337667c" y="78.4"/>
     <use style="fill:#0000ff;" x="114.923539232" xlink:href="#m8dd337667c" y="243.733333333"/>
     <use style="fill:#0000ff;" x="116.041402337" xlink:href="#m8dd337667c" y="78.4"/>
     <use style="fill:#0000ff;" x="117.159265442" xlink:href="#m8dd337667c" y="78.4"/>
     <use style="fill:#0000ff;" x="118.277128548" xlink:href="#m8dd337667c" y="243.733333333"/>
     <use style="fill:#0000ff;" x="119.394991653" xlink:href="#m8dd337667c" y="243.733333333"/>
     <use style="fill:#0000ff;" x="120.512854758" xlink:href="#m8dd337667c" y="78.4"/>
     <use style="fill:#0000ff;" x="121.630717863" xlink:href="#m8dd337667c" y="243.733333333"/>
     <use style="fill:#0000ff;" x="122.748580968" xlink:href="#m8dd337667c" y="78.4"/>
     <use style="fill:#0000ff;" x="123.866444073" xlink:href="#m8dd337667c" y="78.4"/>
     <use style="fill:#0000ff;" x="124.984307179" xlink:href="#m8dd337667c" y="243.733333333"/>
     <use style="fill:#0000ff;" x="126.102170284" xlink:href="#m8dd337667c" y="243.733333333"/>
     <use style="fill:#0000ff;" x="127.220033389" xlink:href="#m8dd337667c" y="78.4"/>
     <use style="fill:#0000ff;" x="128.337896494" xlink:href="#m8dd337667c" y="78.4"/>
     <use style="fill:#0000ff;" x="129.455759599" xlink:href="#m8dd337667c" y="243.733333333"/>
     <use style="fill:#0000ff;" x="130.573622705" xlink:href="#m8dd337667c" y="78.4"/>
     <use style="fill:#0000ff;" x="131.69148581" xlink:href="#m8dd337667c" y="78.4"/>
     <use style="fill:#0000ff;" x="132.809348915" xlink:href="#m8dd337667c" y="243.733333333"/>
     <use style="fill:#0000ff;" x="133.92721202" xlink:href="#m8dd337667c" y="78.4"/>
     <use style="fill:#0000ff;" x="135.045075125" xlink:href="#m8dd337667c" y="243.733333333"/>
     <use style="fill:#0000ff;" x="136.16293823" xlink:href="#m8dd337667c" y="78.4"/>
     <use style="fill:#0000ff;" x="137.280801336" xlink:href="#m8dd337667c" y="243.733333333"/>
     <use style="fill:#0000ff;" x="138.398664441" xlink:href="#m8dd337667c" y="78.4"/>
     <use style="fill:#0000ff;" x="139.516527546" xlink:href="#m8dd337667c" y="78.4"/>
     <use style="fill:#0000ff;" x="140.634390651" xlink:href="#m8dd337667c" y="78.4"/>
     <use style="fill:#0000ff;" x="141.752253756" xlink:href="#m8dd337667c" y="78.4"/>
     <use style="fill:#0000ff;" x="142.870116861" xlink:href="#m8dd337667c" y="243.733333333"/>
     <use style="fill:#0000ff;" x="143.987979967" xlink:href="#m8dd337667c" y="78.4"/>
     <use style="fill:#0000ff;" x="145.105843072" xlink:href="#m8dd337667c" y="78.4"/>
     <use style="fill:#0000ff;" x="146.223706177" xlink:href="#m8dd337667c" y="78.4"/>
     <use style="fill:#0000ff;" x="147.341569282" xlink:href="#m8dd337667c" y="78.4"/>
     <use style="fill:#0000ff;" x="148.459432387" xlink:href="#m8dd337667c" y="78.4"/>
     <use style="fill:#0000ff;" x="149.577295492" xlink:href="#m8dd337667c" y="78.4"/>
     <use style="fill:#0000ff;" x="150.695158598" xlink:href="#m8dd337667c" y="78.4"/>
     <use style="fill:#0000ff;" x="151.813021703" xlink:href="#m8dd337667c" y="243.733333333"/>
     <use style="fill:#0000ff;" x="152.930884808" xlink:href="#m8dd337667c" y="78.4"/>
     <use style="fill:#0000ff;" x="154.048747913" xlink:href="#m8dd337667c" y="78.4"/>
     <use style="fill:#0000ff;" x="155.166611018" xlink:href="#m8dd337667c" y="78.4"/>
     <use style="fill:#0000ff;" x="156.284474124" xlink:href="#m8dd337667c" y="78.4"/>
     <use style="fill:#0000ff;" x="157.402337229" xlink:href="#m8dd337667c" y="243.733333333"/>
     <use style="fill:#0000ff;" x="158.520200334" xlink:href="#m8dd337667c" y="78.4"/>
     <use style="fill:#0000ff;" x="159.638063439" xlink:href="#m8dd337667c" y="243.733333333"/>
     <use style="fill:#0000ff;" x="160.755926544" xlink:href="#m8dd337667c" y="78.4"/>
     <use style="fill:#0000ff;" x="161.873789649" xlink:href="#m8dd337667c" y="243.733333333"/>
     <use style="fill:#0000ff;" x="162.991652755" xlink:href="#m8dd337667c" y="243.733333333"/>
     <use style="fill:#0000ff;" x="164.10951586" xlink:href="#m8dd337667c" y="243.733333333"/>
     <use style="fill:#0000ff;" x="165.227378965" xlink:href="#m8dd337667c" y="78.4"/>
     <use style="fill:#0000ff;" x="166.34524207" xlink:href="#m8dd337667c" y="78.4"/>
     <use style="fill:#0000ff;" x="167.463105175" xlink:href="#m8dd337667c" y="243.733333333"/>
     <use style="fill:#0000ff;" x="168.58096828" xlink:href="#m8dd337667c" y="243.733333333"/>
     <use style="fill:#0000ff;" x="169.698831386" xlink:href="#m8dd337667c" y="243.733333333"/>
     <use style="fill:#0000ff;" x="170.816694491" xlink:href="#m8dd337667c" y="78.4"/>
     <use style="fill:#0000ff;" x="171.934557596" xlink:href="#m8dd337667c" y="78.4"/>
     <use style="fill:#0000ff;" x="173.052420701" xlink:href="#m8dd337667c" y="243.733333333"/>
     <use style="fill:#0000ff;" x="174.170283806" xlink:href="#m8dd337667c" y="78.4"/>
     <use style="fill:#0000ff;" x="175.288146912" xlink:href="#m8dd337667c" y="78.4"/>
     <use style="fill:#0000ff;" x="176.406010017" xlink:href="#m8dd337667c" y="78.4"/>
     <use style="fill:#0000ff;" x="177.523873122" xlink:href="#m8dd337667c" y="243.733333333"/>
     <use style="fill:#0000ff;" x="178.641736227" xlink:href="#m8dd337667c" y="78.4"/>
     <use style="fill:#0000ff;" x="179.759599332" xlink:href="#m8dd337667c" y="78.4"/>
     <use style="fill:#0000ff;" x="180.877462437" xlink:href="#m8dd337667c" y="243.733333333"/>
     <use style="fill:#0000ff;" x="181.995325543" xlink:href="#m8dd337667c" y="78.4"/>
     <use style="fill:#0000ff;" x="183.113188648" xlink:href="#m8dd337667c" y="78.4"/>
     <use style="fill:#0000ff;" x="184.231051753" xlink:href="#m8dd337667c" y="243.733333333"/>
     <use style="fill:#0000ff;" x="185.348914858" xlink:href="#m8dd337667c" y="78.4"/>
     <use style="fill:#0000ff;" x="186.466777963" xlink:href="#m8dd337667c" y="243.733333333"/>
     <use style="fill:#0000ff;" x="187.584641068" xlink:href="#m8dd337667c" y="243.733333333"/>
     <use style="fill:#0000ff;" x="188.702504174" xlink:href="#m8dd337667c" y="243.733333333"/>
     <use style="fill:#0000ff;" x="189.820367279" xlink:href="#m8dd337667c" y="78.4"/>
     <use style="fill:#0000ff;" x="190.938230384" xlink:href="#m8dd337667c" y="243.733333333"/>
     <use style="fill:#0000ff;" x="192.056093489" xlink:href="#m8dd337667c" y="243.733333333"/>
     <use style="fill:#0000ff;" x="193.173956594" xlink:href="#m8dd337667c" y="243.733333333"/>
     <use style="fill:#0000ff;" x="194.291819699" xlink:href="#m8dd337667c" y="243.733333333"/>
     <use style="fill:#0000ff;" x="195.409682805" xlink:href="#m8dd337667c" y="243.733333333"/>
     <use style="fill:#0000ff;" x="196.52754591" xlink:href="#m8dd337667c" y="78.4"/>
     <use style="fill:#0000ff;" x="197.645409015" xlink:href="#m8dd337667c" y="78.4"/>
     <use style="fill:#0000ff;" x="198.76327212" xlink:href="#m8dd337667c" y="78.4"/>
     <use style="fill:#0000ff;" x="199.881135225" xlink:href="#m8dd337667c" y="243.733333333"/>
     <use style="fill:#0000ff;" x="200.998998331" xlink:href="#m8dd337667c" y="78.4"/>
     <use style="fill:#0000ff;" x="202.116861436" xlink:href="#m8dd337667c" y="78.4"/>
     <use style="fill:#0000ff;" x="203.234724541" xlink:href="#m8dd337667c" y="243.733333333"/>
     <use style="fill:#0000ff;" x="204.352587646" xlink:href="#m8dd337667c" y="243.733333333"/>
     <use style="fill:#0000ff;" x="205.470450751" xlink:href="#m8dd337667c" y="243.733333333"/>
     <use style="fill:#0000ff;" x="206.588313856" xlink:href="#m8dd337667c" y="78.4"/>
     <use style="fill:#0000ff;" x="207.706176962" xlink:href="#m8dd337667c" y="243.733333333"/>
     <use style="fill:#0000ff;" x="208.824040067" xlink:href="#m8dd337667c" y="78.4"/>
     <use style="fill:#0000ff;" x="209.941903172" xlink:href="#m8dd337667c" y="78.4"/>
     <use style="fill:#0000ff;" x="211.059766277" xlink:href="#m8dd337667c" y="243.733333333"/>
     <use style="fill:#0000ff;" x="212.177629382" xlink:href="#m8dd337667c" y="243.733333333"/>
     <use style="fill:#0000ff;" x="213.295492487" xlink:href="#m8dd337667c" y="243.733333333"/>
     <use style="fill:#0000ff;" x="214.413355593" xlink:href="#m8dd337667c" y="78.4"/>
     <use style="fill:#0000ff;" x="215.531218698" xlink:href="#m8dd337667c" y="243.733333333"/>
     <use style="fill:#0000ff;" x="216.649081803" xlink:href="#m8dd337667c" y="78.4"/>
     <use style="fill:#0000ff;" x="217.766944908" xlink:href="#m8dd337667c" y="243.733333333"/>
     <use style="fill:#0000ff;" x="218.884808013" xlink:href="#m8dd337667c" y="78.4"/>
     <use style="fill:#0000ff;" x="220.002671119" xlink:href="#m8dd337667c" y="78.4"/>
     <use style="fill:#0000ff;" x="221.120534224" xlink:href="#m8dd337667c" y="243.733333333"/>
     <use style="fill:#0000ff;" x="222.238397329" xlink:href="#m8dd337667c" y="243.733333333"/>
     <use style="fill:#0000ff;" x="223.356260434" xlink:href="#m8dd337667c" y="78.4"/>
     <use style="fill:#0000ff;" x="224.474123539" xlink:href="#m8dd337667c" y="78.4"/>
     <use style="fill:#0000ff;" x="225.591986644" xlink:href="#m8dd337667c" y="78.4"/>
     <use style="fill:#0000ff;" x="226.70984975" xlink:href="#m8dd337667c" y="78.4"/>
     <use style="fill:#0000ff;" x="227.827712855" xlink:href="#m8dd337667c" y="243.733333333"/>
     <use style="fill:#0000ff;" x="228.94557596" xlink:href="#m8dd337667c" y="243.733333333"/>
     <use style="fill:#0000ff;" x="230.063439065" xlink:href="#m8dd337667c" y="78.4"/>
     <use style="fill:#0000ff;" x="231.18130217" xlink:href="#m8dd337667c" y="243.733333333"/>
     <use style="fill:#0000ff;" x="232.299165275" xlink:href="#m8dd337667c" y="78.4"/>
     <use style="fill:#0000ff;" x="233.417028381" xlink:href="#m8dd337667c" y="243.733333333"/>
     <use style="fill:#0000ff;" x="234.534891486" xlink:href="#m8dd337667c" y="243.733333333"/>
     <use style="fill:#0000ff;" x="235.652754591" xlink:href="#m8dd337667c" y="78.4"/>
     <use style="fill:#0000ff;" x="236.770617696" xlink:href="#m8dd337667c" y="78.4"/>
     <use style="fill:#0000ff;" x="237.888480801" xlink:href="#m8dd337667c" y="78.4"/>
     <use style="fill:#0000ff;" x="239.006343907" xlink:href="#m8dd337667c" y="78.4"/>
     <use style="fill:#0000ff;" x="240.124207012" xlink:href="#m8dd337667c" y="78.4"/>
     <use style="fill:#0000ff;" x="241.242070117" xlink:href="#m8dd337667c" y="78.4"/>
     <use style="fill:#0000ff;" x="242.359933222" xlink:href="#m8dd337667c" y="78.4"/>
     <use style="fill:#0000ff;" x="243.477796327" xlink:href="#m8dd337667c" y="78.4"/>
     <use style="fill:#0000ff;" x="244.595659432" xlink:href="#m8dd337667c" y="243.733333333"/>
     <use style="fill:#0000ff;" x="245.713522538" xlink:href="#m8dd337667c" y="78.4"/>
     <use style="fill:#0000ff;" x="246.831385643" xlink:href="#m8dd337667c" y="78.4"/>
     <use style="fill:#0000ff;" x="247.949248748" xlink:href="#m8dd337667c" y="243.733333333"/>
     <use style="fill:#0000ff;" x="249.067111853" xlink:href="#m8dd337667c" y="243.733333333"/>
     <use style="fill:#0000ff;" x="250.184974958" xlink:href="#m8dd337667c" y="243.733333333"/>
     <use style="fill:#0000ff;" x="251.302838063" xlink:href="#m8dd337667c" y="243.733333333"/>
     <use style="fill:#0000ff;" x="252.420701169" xlink:href="#m8dd337667c" y="78.4"/>
     <use style="fill:#0000ff;" x="253.538564274" xlink:href="#m8dd337667c" y="243.733333333"/>
     <use style="fill:#0000ff;" x="254.656427379" xlink:href="#m8dd337667c" y="78.4"/>
     <use style="fill:#0000ff;" x="255.774290484" xlink:href="#m8dd337667c" y="78.4"/>
     <use style="fill:#0000ff;" x="256.892153589" xlink:href="#m8dd337667c" y="78.4"/>
     <use style="fill:#0000ff;" x="258.010016694" xlink:href="#m8dd337667c" y="78.4"/>
     <use style="fill:#0000ff;" x="259.1278798" xlink:href="#m8dd337667c" y="78.4"/>
     <use style="fill:#0000ff;" x="260.245742905" xlink:href="#m8dd337667c" y="243.733333333"/>
     <use style="fill:#0000ff;" x="261.36360601" xlink:href="#m8dd337667c" y="243.733333333"/>
     <use style="fill:#0000ff;" x="262.481469115" xlink:href="#m8dd337667c" y="78.4"/>
     <use style="fill:#0000ff;" x="263.59933222" xlink:href="#m8dd337667c" y="243.733333333"/>
     <use style="fill:#0000ff;" x="264.717195326" xlink:href="#m8dd337667c" y="243.733333333"/>
     <use style="fill:#0000ff;" x="265.835058431" xlink:href="#m8dd337667c" y="78.4"/>
     <use style="fill:#0000ff;" x="266.952921536" xlink:href="#m8dd337667c" y="78.4"/>
     <use style="fill:#0000ff;" x="268.070784641" xlink:href="#m8dd337667c" y="78.4"/>
     <use style="fill:#0000ff;" x="269.188647746" xlink:href="#m8dd337667c" y="78.4"/>
     <use style="fill:#0000ff;" x="270.306510851" xlink:href="#m8dd337667c" y="78.4"/>
     <use style="fill:#0000ff;" x="271.424373957" xlink:href="#m8dd337667c" y="243.733333333"/>
     <use style="fill:#0000ff;" x="272.542237062" xlink:href="#m8dd337667c" y="78.4"/>
     <use style="fill:#0000ff;" x="273.660100167" xlink:href="#m8dd337667c" y="243.733333333"/>
     <use style="fill:#0000ff;" x="274.777963272" xlink:href="#m8dd337667c" y="78.4"/>
     <use style="fill:#0000ff;" x="275.895826377" xlink:href="#m8dd337667c" y="78.4"/>
     <use style="fill:#0000ff;" x="277.013689482" xlink:href="#m8dd337667c" y="78.4"/>
     <use style="fill:#0000ff;" x="278.131552588" xlink:href="#m8dd337667c" y="243.733333333"/>
     <use style="fill:#0000ff;" x="279.249415693" xlink:href="#m8dd337667c" y="243.733333333"/>
     <use style="fill:#0000ff;" x="280.367278798" xlink:href="#m8dd337667c" y="243.733333333"/>
     <use style="fill:#0000ff;" x="281.485141903" xlink:href="#m8dd337667c" y="243.733333333"/>
     <use style="fill:#0000ff;" x="282.603005008" xlink:href="#m8dd337667c" y="243.733333333"/>
     <use style="fill:#0000ff;" x="283.720868114" xlink:href="#m8dd337667c" y="78.4"/>
     <use style="fill:#0000ff;" x="284.838731219" xlink:href="#m8dd337667c" y="78.4"/>
     <use style="fill:#0000ff;" x="285.956594324" xlink:href="#m8dd337667c" y="78.4"/>
     <use style="fill:#0000ff;" x="287.074457429" xlink:href="#m8dd337667c" y="243.733333333"/>
     <use style="fill:#0000ff;" x="288.192320534" xlink:href="#m8dd337667c" y="243.733333333"/>
     <use style="fill:#0000ff;" x="289.310183639" xlink:href="#m8dd337667c" y="243.733333333"/>
     <use style="fill:#0000ff;" x="290.428046745" xlink:href="#m8dd337667c" y="78.4"/>
     <use style="fill:#0000ff;" x="291.54590985" xlink:href="#m8dd337667c" y="78.4"/>
     <use style="fill:#0000ff;" x="292.663772955" xlink:href="#m8dd337667c" y="243.733333333"/>
     <use style="fill:#0000ff;" x="293.78163606" xlink:href="#m8dd337667c" y="243.733333333"/>
     <use style="fill:#0000ff;" x="294.899499165" xlink:href="#m8dd337667c" y="78.4"/>
     <use style="fill:#0000ff;" x="296.01736227" xlink:href="#m8dd337667c" y="243.733333333"/>
     <use style="fill:#0000ff;" x="297.135225376" xlink:href="#m8dd337667c" y="243.733333333"/>
     <use style="fill:#0000ff;" x="298.253088481" xlink:href="#m8dd337667c" y="243.733333333"/>
     <use style="fill:#0000ff;" x="299.370951586" xlink:href="#m8dd337667c" y="243.733333333"/>
     <use style="fill:#0000ff;" x="300.488814691" xlink:href="#m8dd337667c" y="78.4"/>
     <use style="fill:#0000ff;" x="301.606677796" xlink:href="#m8dd337667c" y="78.4"/>
     <use style="fill:#0000ff;" x="302.724540902" xlink:href="#m8dd337667c" y="243.733333333"/>
     <use style="fill:#0000ff;" x="303.842404007" xlink:href="#m8dd337667c" y="243.733333333"/>
     <use style="fill:#0000ff;" x="304.960267112" xlink:href="#m8dd337667c" y="243.733333333"/>
     <use style="fill:#0000ff;" x="306.078130217" xlink:href="#m8dd337667c" y="243.733333333"/>
     <use style="fill:#0000ff;" x="307.195993322" xlink:href="#m8dd337667c" y="243.733333333"/>
     <use style="fill:#0000ff;" x="308.313856427" xlink:href="#m8dd337667c" y="78.4"/>
     <use style="fill:#0000ff;" x="309.431719533" xlink:href="#m8dd337667c" y="78.4"/>
     <use style="fill:#0000ff;" x="310.549582638" xlink:href="#m8dd337667c" y="243.733333333"/>
     <use style="fill:#0000ff;" x="311.667445743" xlink:href="#m8dd337667c" y="243.733333333"/>
     <use style="fill:#0000ff;" x="312.785308848" xlink:href="#m8dd337667c" y="243.733333333"/>
     <use style="fill:#0000ff;" x="313.903171953" xlink:href="#m8dd337667c" y="243.733333333"/>
     <use style="fill:#0000ff;" x="315.021035058" xlink:href="#m8dd337667c" y="243.733333333"/>
     <use style="fill:#0000ff;" x="316.138898164" xlink:href="#m8dd337667c" y="243.733333333"/>
     <use style="fill:#0000ff;" x="317.256761269" xlink:href="#m8dd337667c" y="78.4"/>
     <use style="fill:#0000ff;" x="318.374624374" xlink:href="#m8dd337667c" y="243.733333333"/>
     <use style="fill:#0000ff;" x="319.492487479" xlink:href="#m8dd337667c" y="78.4"/>
     <use style="fill:#0000ff;" x="320.610350584" xlink:href="#m8dd337667c" y="243.733333333"/>
     <use style="fill:#0000ff;" x="321.728213689" xlink:href="#m8dd337667c" y="243.733333333"/>
     <use style="fill:#0000ff;" x="322.846076795" xlink:href="#m8dd337667c" y="243.733333333"/>
     <use style="fill:#0000ff;" x="323.9639399" xlink:href="#m8dd337667c" y="78.4"/>
     <use style="fill:#0000ff;" x="325.081803005" xlink:href="#m8dd337667c" y="243.733333333"/>
     <use style="fill:#0000ff;" x="326.19966611" xlink:href="#m8dd337667c" y="243.733333333"/>
     <use style="fill:#0000ff;" x="327.317529215" xlink:href="#m8dd337667c" y="78.4"/>
     <use style="fill:#0000ff;" x="328.435392321" xlink:href="#m8dd337667c" y="243.733333333"/>
     <use style="fill:#0000ff;" x="329.553255426" xlink:href="#m8dd337667c" y="243.733333333"/>
     <use style="fill:#0000ff;" x="330.671118531" xlink:href="#m8dd337667c" y="78.4"/>
     <use style="fill:#0000ff;" x="331.788981636" xlink:href="#m8dd337667c" y="243.733333333"/>
     <use style="fill:#0000ff;" x="332.906844741" xlink:href="#m8dd337667c" y="243.733333333"/>
     <use style="fill:#0000ff;" x="334.024707846" xlink:href="#m8dd337667c" y="243.733333333"/>
     <use style="fill:#0000ff;" x="335.142570952" xlink:href="#m8dd337667c" y="78.4"/>
     <use style="fill:#0000ff;" x="336.260434057" xlink:href="#m8dd337667c" y="78.4"/>
     <use style="fill:#0000ff;" x="337.378297162" xlink:href="#m8dd337667c" y="78.4"/>
     <use style="fill:#0000ff;" x="338.496160267" xlink:href="#m8dd337667c" y="243.733333333"/>
     <use style="fill:#0000ff;" x="339.614023372" xlink:href="#m8dd337667c" y="243.733333333"/>
     <use style="fill:#0000ff;" x="340.731886477" xlink:href="#m8dd337667c" y="243.733333333"/>
     <use style="fill:#0000ff;" x="341.849749583" xlink:href="#m8dd337667c" y="243.733333333"/>
     <use style="fill:#0000ff;" x="342.967612688" xlink:href="#m8dd337667c" y="243.733333333"/>
     <use style="fill:#0000ff;" x="344.085475793" xlink:href="#m8dd337667c" y="78.4"/>
     <use style="fill:#0000ff;" x="345.203338898" xlink:href="#m8dd337667c" y="243.733333333"/>
     <use style="fill:#0000ff;" x="346.321202003" xlink:href="#m8dd337667c" y="243.733333333"/>
     <use style="fill:#0000ff;" x="347.439065109" xlink:href="#m8dd337667c" y="243.733333333"/>
     <use style="fill:#0000ff;" x="348.556928214" xlink:href="#m8dd337667c" y="78.4"/>
     <use style="fill:#0000ff;" x="349.674791319" xlink:href="#m8dd337667c" y="78.4"/>
     <use style="fill:#0000ff;" x="350.792654424" xlink:href="#m8dd337667c" y="78.4"/>
     <use style="fill:#0000ff;" x="351.910517529" xlink:href="#m8dd337667c" y="243.733333333"/>
     <use style="fill:#0000ff;" x="353.028380634" xlink:href="#m8dd337667c" y="243.733333333"/>
     <use style="fill:#0000ff;" x="354.14624374" xlink:href="#m8dd337667c" y="78.4"/>
     <use style="fill:#0000ff;" x="355.264106845" xlink:href="#m8dd337667c" y="243.733333333"/>
     <use style="fill:#0000ff;" x="356.38196995" xlink:href="#m8dd337667c" y="78.4"/>
     <use style="fill:#0000ff;" x="357.499833055" xlink:href="#m8dd337667c" y="243.733333333"/>
     <use style="fill:#0000ff;" x="358.61769616" xlink:href="#m8dd337667c" y="78.4"/>
     <use style="fill:#0000ff;" x="359.735559265" xlink:href="#m8dd337667c" y="243.733333333"/>
     <use style="fill:#0000ff;" x="360.853422371" xlink:href="#m8dd337667c" y="78.4"/>
     <use style="fill:#0000ff;" x="361.971285476" xlink:href="#m8dd337667c" y="78.4"/>
     <use style="fill:#0000ff;" x="363.089148581" xlink:href="#m8dd337667c" y="243.733333333"/>
     <use style="fill:#0000ff;" x="364.207011686" xlink:href="#m8dd337667c" y="243.733333333"/>
     <use style="fill:#0000ff;" x="365.324874791" xlink:href="#m8dd337667c" y="243.733333333"/>
     <use style="fill:#0000ff;" x="366.442737896" xlink:href="#m8dd337667c" y="78.4"/>
     <use style="fill:#0000ff;" x="367.560601002" xlink:href="#m8dd337667c" y="243.733333333"/>
     <use style="fill:#0000ff;" x="368.678464107" xlink:href="#m8dd337667c" y="243.733333333"/>
     <use style="fill:#0000ff;" x="369.796327212" xlink:href="#m8dd337667c" y="243.733333333"/>
     <use style="fill:#0000ff;" x="370.914190317" xlink:href="#m8dd337667c" y="78.4"/>
     <use style="fill:#0000ff;" x="372.032053422" xlink:href="#m8dd337667c" y="243.733333333"/>
     <use style="fill:#0000ff;" x="373.149916528" xlink:href="#m8dd337667c" y="78.4"/>
     <use style="fill:#0000ff;" x="374.267779633" xlink:href="#m8dd337667c" y="78.4"/>
     <use style="fill:#0000ff;" x="375.385642738" xlink:href="#m8dd337667c" y="78.4"/>
     <use style="fill:#0000ff;" x="376.503505843" xlink:href="#m8dd337667c" y="243.733333333"/>
     <use style="fill:#0000ff;" x="377.621368948" xlink:href="#m8dd337667c" y="243.733333333"/>
     <use style="fill:#0000ff;" x="378.739232053" xlink:href="#m8dd337667c" y="78.4"/>
     <use style="fill:#0000ff;" x="379.857095159" xlink:href="#m8dd337667c" y="243.733333333"/>
     <use style="fill:#0000ff;" x="380.974958264" xlink:href="#m8dd337667c" y="78.4"/>
     <use style="fill:#0000ff;" x="382.092821369" xlink:href="#m8dd337667c" y="243.733333333"/>
     <use style="fill:#0000ff;" x="383.210684474" xlink:href="#m8dd337667c" y="78.4"/>
     <use style="fill:#0000ff;" x="384.328547579" xlink:href="#m8dd337667c" y="78.4"/>
     <use style="fill:#0000ff;" x="385.446410684" xlink:href="#m8dd337667c" y="78.4"/>
     <use style="fill:#0000ff;" x="386.56427379" xlink:href="#m8dd337667c" y="243.733333333"/>
     <use style="fill:#0000ff;" x="387.682136895" xlink:href="#m8dd337667c" y="78.4"/>
    </g>
   </g>
   <g id="patch_3">
    <path d="M 54 252 
L 388.8 252 
" style="fill:none;stroke:#000000;stroke-linecap:square;stroke-linejoin:miter;"/>
   </g>
   <g id="patch_4">
    <path d="M 54 252 
L 54 28.8 
" style="fill:none;stroke:#000000;stroke-linecap:square;stroke-linejoin:miter;"/>
   </g>
   <g id="matplotlib.axis_1">
    <g id="xtick_1">
     <g id="line2d_1">
      <defs>
       <path d="M 0 0 
L 0 -4 
" id="m827b8bb1bf" style="stroke:#000000;stroke-width:0.5;"/>
      </defs>
      <g>
       <use style="stroke:#000000;stroke-width:0.5;" x="109.334223706" xlink:href="#m827b8bb1bf" y="252.0"/>
      </g>
     </g>
     <g id="line2d_2">
      <defs>
       <path d="M 0 0 
L 0 4 
" id="m2f086c9b16" style="stroke:#000000;stroke-width:0.5;"/>
      </defs>
      <g>
       <use style="stroke:#000000;stroke-width:0.5;" x="109.334223706" xlink:href="#m2f086c9b16" y="28.8"/>
      </g>
     </g>
     <g id="text_1">
      <!-- 100 -->
      <defs>
       <path d="M 31.78125 66.40625 
Q 24.171875 66.40625 20.328125 58.90625 
Q 16.5 51.421875 16.5 36.375 
Q 16.5 21.390625 20.328125 13.890625 
Q 24.171875 6.390625 31.78125 6.390625 
Q 39.453125 6.390625 43.28125 13.890625 
Q 47.125 21.390625 47.125 36.375 
Q 47.125 51.421875 43.28125 58.90625 
Q 39.453125 66.40625 31.78125 66.40625 
M 31.78125 74.21875 
Q 44.046875 74.21875 50.515625 64.515625 
Q 56.984375 54.828125 56.984375 36.375 
Q 56.984375 17.96875 50.515625 8.265625 
Q 44.046875 -1.421875 31.78125 -1.421875 
Q 19.53125 -1.421875 13.0625 8.265625 
Q 6.59375 17.96875 6.59375 36.375 
Q 6.59375 54.828125 13.0625 64.515625 
Q 19.53125 74.21875 31.78125 74.21875 
" id="BitstreamVeraSans-Roman-30"/>
       <path d="M 12.40625 8.296875 
L 28.515625 8.296875 
L 28.515625 63.921875 
L 10.984375 60.40625 
L 10.984375 69.390625 
L 28.421875 72.90625 
L 38.28125 72.90625 
L 38.28125 8.296875 
L 54.390625 8.296875 
L 54.390625 0 
L 12.40625 0 
z
" id="BitstreamVeraSans-Roman-31"/>
      </defs>
      <g transform="translate(99.7904737062 263.5984375)scale(0.1 -0.1)">
       <use xlink:href="#BitstreamVeraSans-Roman-31"/>
       <use x="63.623046875" xlink:href="#BitstreamVeraSans-Roman-30"/>
       <use x="127.24609375" xlink:href="#BitstreamVeraSans-Roman-30"/>
      </g>
     </g>
    </g>
    <g id="xtick_2">
     <g id="line2d_3">
      <g>
       <use style="stroke:#000000;stroke-width:0.5;" x="165.227378965" xlink:href="#m827b8bb1bf" y="252.0"/>
      </g>
     </g>
     <g id="line2d_4">
      <g>
       <use style="stroke:#000000;stroke-width:0.5;" x="165.227378965" xlink:href="#m2f086c9b16" y="28.8"/>
      </g>
     </g>
     <g id="text_2">
      <!-- 200 -->
      <defs>
       <path d="M 19.1875 8.296875 
L 53.609375 8.296875 
L 53.609375 0 
L 7.328125 0 
L 7.328125 8.296875 
Q 12.9375 14.109375 22.625 23.890625 
Q 32.328125 33.6875 34.8125 36.53125 
Q 39.546875 41.84375 41.421875 45.53125 
Q 43.3125 49.21875 43.3125 52.78125 
Q 43.3125 58.59375 39.234375 62.25 
Q 35.15625 65.921875 28.609375 65.921875 
Q 23.96875 65.921875 18.8125 64.3125 
Q 13.671875 62.703125 7.8125 59.421875 
L 7.8125 69.390625 
Q 13.765625 71.78125 18.9375 73 
Q 24.125 74.21875 28.421875 74.21875 
Q 39.75 74.21875 46.484375 68.546875 
Q 53.21875 62.890625 53.21875 53.421875 
Q 53.21875 48.921875 51.53125 44.890625 
Q 49.859375 40.875 45.40625 35.40625 
Q 44.1875 33.984375 37.640625 27.21875 
Q 31.109375 20.453125 19.1875 8.296875 
" id="BitstreamVeraSans-Roman-32"/>
      </defs>
      <g transform="translate(155.683628965 263.5984375)scale(0.1 -0.1)">
       <use xlink:href="#BitstreamVeraSans-Roman-32"/>
       <use x="63.623046875" xlink:href="#BitstreamVeraSans-Roman-30"/>
       <use x="127.24609375" xlink:href="#BitstreamVeraSans-Roman-30"/>
      </g>
     </g>
    </g>
    <g id="xtick_3">
     <g id="line2d_5">
      <g>
       <use style="stroke:#000000;stroke-width:0.5;" x="221.120534224" xlink:href="#m827b8bb1bf" y="252.0"/>
      </g>
     </g>
     <g id="line2d_6">
      <g>
       <use style="stroke:#000000;stroke-width:0.5;" x="221.120534224" xlink:href="#m2f086c9b16" y="28.8"/>
      </g>
     </g>
     <g id="text_3">
      <!-- 300 -->
      <defs>
       <path d="M 40.578125 39.3125 
Q 47.65625 37.796875 51.625 33 
Q 55.609375 28.21875 55.609375 21.1875 
Q 55.609375 10.40625 48.1875 4.484375 
Q 40.765625 -1.421875 27.09375 -1.421875 
Q 22.515625 -1.421875 17.65625 -0.515625 
Q 12.796875 0.390625 7.625 2.203125 
L 7.625 11.71875 
Q 11.71875 9.328125 16.59375 8.109375 
Q 21.484375 6.890625 26.8125 6.890625 
Q 36.078125 6.890625 40.9375 10.546875 
Q 45.796875 14.203125 45.796875 21.1875 
Q 45.796875 27.640625 41.28125 31.265625 
Q 36.765625 34.90625 28.71875 34.90625 
L 20.21875 34.90625 
L 20.21875 43.015625 
L 29.109375 43.015625 
Q 36.375 43.015625 40.234375 45.921875 
Q 44.09375 48.828125 44.09375 54.296875 
Q 44.09375 59.90625 40.109375 62.90625 
Q 36.140625 65.921875 28.71875 65.921875 
Q 24.65625 65.921875 20.015625 65.03125 
Q 15.375 64.15625 9.8125 62.3125 
L 9.8125 71.09375 
Q 15.4375 72.65625 20.34375 73.4375 
Q 25.25 74.21875 29.59375 74.21875 
Q 40.828125 74.21875 47.359375 69.109375 
Q 53.90625 64.015625 53.90625 55.328125 
Q 53.90625 49.265625 50.4375 45.09375 
Q 46.96875 40.921875 40.578125 39.3125 
" id="BitstreamVeraSans-Roman-33"/>
      </defs>
      <g transform="translate(211.576784224 263.5984375)scale(0.1 -0.1)">
       <use xlink:href="#BitstreamVeraSans-Roman-33"/>
       <use x="63.623046875" xlink:href="#BitstreamVeraSans-Roman-30"/>
       <use x="127.24609375" xlink:href="#BitstreamVeraSans-Roman-30"/>
      </g>
     </g>
    </g>
    <g id="xtick_4">
     <g id="line2d_7">
      <g>
       <use style="stroke:#000000;stroke-width:0.5;" x="277.013689482" xlink:href="#m827b8bb1bf" y="252.0"/>
      </g>
     </g>
     <g id="line2d_8">
      <g>
       <use style="stroke:#000000;stroke-width:0.5;" x="277.013689482" xlink:href="#m2f086c9b16" y="28.8"/>
      </g>
     </g>
     <g id="text_4">
      <!-- 400 -->
      <defs>
       <path d="M 37.796875 64.3125 
L 12.890625 25.390625 
L 37.796875 25.390625 
z
M 35.203125 72.90625 
L 47.609375 72.90625 
L 47.609375 25.390625 
L 58.015625 25.390625 
L 58.015625 17.1875 
L 47.609375 17.1875 
L 47.609375 0 
L 37.796875 0 
L 37.796875 17.1875 
L 4.890625 17.1875 
L 4.890625 26.703125 
z
" id="BitstreamVeraSans-Roman-34"/>
      </defs>
      <g transform="translate(267.469939482 263.5984375)scale(0.1 -0.1)">
       <use xlink:href="#BitstreamVeraSans-Roman-34"/>
       <use x="63.623046875" xlink:href="#BitstreamVeraSans-Roman-30"/>
       <use x="127.24609375" xlink:href="#BitstreamVeraSans-Roman-30"/>
      </g>
     </g>
    </g>
    <g id="xtick_5">
     <g id="line2d_9">
      <g>
       <use style="stroke:#000000;stroke-width:0.5;" x="332.906844741" xlink:href="#m827b8bb1bf" y="252.0"/>
      </g>
     </g>
     <g id="line2d_10">
      <g>
       <use style="stroke:#000000;stroke-width:0.5;" x="332.906844741" xlink:href="#m2f086c9b16" y="28.8"/>
      </g>
     </g>
     <g id="text_5">
      <!-- 500 -->
      <defs>
       <path d="M 10.796875 72.90625 
L 49.515625 72.90625 
L 49.515625 64.59375 
L 19.828125 64.59375 
L 19.828125 46.734375 
Q 21.96875 47.46875 24.109375 47.828125 
Q 26.265625 48.1875 28.421875 48.1875 
Q 40.625 48.1875 47.75 41.5 
Q 54.890625 34.8125 54.890625 23.390625 
Q 54.890625 11.625 47.5625 5.09375 
Q 40.234375 -1.421875 26.90625 -1.421875 
Q 22.3125 -1.421875 17.546875 -0.640625 
Q 12.796875 0.140625 7.71875 1.703125 
L 7.71875 11.625 
Q 12.109375 9.234375 16.796875 8.0625 
Q 21.484375 6.890625 26.703125 6.890625 
Q 35.15625 6.890625 40.078125 11.328125 
Q 45.015625 15.765625 45.015625 23.390625 
Q 45.015625 31 40.078125 35.4375 
Q 35.15625 39.890625 26.703125 39.890625 
Q 22.75 39.890625 18.8125 39.015625 
Q 14.890625 38.140625 10.796875 36.28125 
z
" id="BitstreamVeraSans-Roman-35"/>
      </defs>
      <g transform="translate(323.363094741 263.5984375)scale(0.1 -0.1)">
       <use xlink:href="#BitstreamVeraSans-Roman-35"/>
       <use x="63.623046875" xlink:href="#BitstreamVeraSans-Roman-30"/>
       <use x="127.24609375" xlink:href="#BitstreamVeraSans-Roman-30"/>
      </g>
     </g>
    </g>
    <g id="xtick_6">
     <g id="line2d_11">
      <g>
       <use style="stroke:#000000;stroke-width:0.5;" x="388.8" xlink:href="#m827b8bb1bf" y="252.0"/>
      </g>
     </g>
     <g id="line2d_12">
      <g>
       <use style="stroke:#000000;stroke-width:0.5;" x="388.8" xlink:href="#m2f086c9b16" y="28.8"/>
      </g>
     </g>
     <g id="text_6">
      <!-- 600 -->
      <defs>
       <path d="M 33.015625 40.375 
Q 26.375 40.375 22.484375 35.828125 
Q 18.609375 31.296875 18.609375 23.390625 
Q 18.609375 15.53125 22.484375 10.953125 
Q 26.375 6.390625 33.015625 6.390625 
Q 39.65625 6.390625 43.53125 10.953125 
Q 47.40625 15.53125 47.40625 23.390625 
Q 47.40625 31.296875 43.53125 35.828125 
Q 39.65625 40.375 33.015625 40.375 
M 52.59375 71.296875 
L 52.59375 62.3125 
Q 48.875 64.0625 45.09375 64.984375 
Q 41.3125 65.921875 37.59375 65.921875 
Q 27.828125 65.921875 22.671875 59.328125 
Q 17.53125 52.734375 16.796875 39.40625 
Q 19.671875 43.65625 24.015625 45.921875 
Q 28.375 48.1875 33.59375 48.1875 
Q 44.578125 48.1875 50.953125 41.515625 
Q 57.328125 34.859375 57.328125 23.390625 
Q 57.328125 12.15625 50.6875 5.359375 
Q 44.046875 -1.421875 33.015625 -1.421875 
Q 20.359375 -1.421875 13.671875 8.265625 
Q 6.984375 17.96875 6.984375 36.375 
Q 6.984375 53.65625 15.1875 63.9375 
Q 23.390625 74.21875 37.203125 74.21875 
Q 40.921875 74.21875 44.703125 73.484375 
Q 48.484375 72.75 52.59375 71.296875 
" id="BitstreamVeraSans-Roman-36"/>
      </defs>
      <g transform="translate(379.25625 263.5984375)scale(0.1 -0.1)">
       <use xlink:href="#BitstreamVeraSans-Roman-36"/>
       <use x="63.623046875" xlink:href="#BitstreamVeraSans-Roman-30"/>
       <use x="127.24609375" xlink:href="#BitstreamVeraSans-Roman-30"/>
      </g>
     </g>
    </g>
    <g id="text_7">
     <!-- context-length -->
     <defs>
      <path d="M 54.890625 33.015625 
L 54.890625 0 
L 45.90625 0 
L 45.90625 32.71875 
Q 45.90625 40.484375 42.875 44.328125 
Q 39.84375 48.1875 33.796875 48.1875 
Q 26.515625 48.1875 22.3125 43.546875 
Q 18.109375 38.921875 18.109375 30.90625 
L 18.109375 0 
L 9.078125 0 
L 9.078125 54.6875 
L 18.109375 54.6875 
L 18.109375 46.1875 
Q 21.34375 51.125 25.703125 53.5625 
Q 30.078125 56 35.796875 56 
Q 45.21875 56 50.046875 50.171875 
Q 54.890625 44.34375 54.890625 33.015625 
" id="BitstreamVeraSans-Roman-6e"/>
      <path d="M 30.609375 48.390625 
Q 23.390625 48.390625 19.1875 42.75 
Q 14.984375 37.109375 14.984375 27.296875 
Q 14.984375 17.484375 19.15625 11.84375 
Q 23.34375 6.203125 30.609375 6.203125 
Q 37.796875 6.203125 41.984375 11.859375 
Q 46.1875 17.53125 46.1875 27.296875 
Q 46.1875 37.015625 41.984375 42.703125 
Q 37.796875 48.390625 30.609375 48.390625 
M 30.609375 56 
Q 42.328125 56 49.015625 48.375 
Q 55.71875 40.765625 55.71875 27.296875 
Q 55.71875 13.875 49.015625 6.21875 
Q 42.328125 -1.421875 30.609375 -1.421875 
Q 18.84375 -1.421875 12.171875 6.21875 
Q 5.515625 13.875 5.515625 27.296875 
Q 5.515625 40.765625 12.171875 48.375 
Q 18.84375 56 30.609375 56 
" id="BitstreamVeraSans-Roman-6f"/>
      <path d="M 9.421875 75.984375 
L 18.40625 75.984375 
L 18.40625 0 
L 9.421875 0 
z
" id="BitstreamVeraSans-Roman-6c"/>
      <path d="M 4.890625 31.390625 
L 31.203125 31.390625 
L 31.203125 23.390625 
L 4.890625 23.390625 
z
" id="BitstreamVeraSans-Roman-2d"/>
      <path d="M 54.890625 54.6875 
L 35.109375 28.078125 
L 55.90625 0 
L 45.3125 0 
L 29.390625 21.484375 
L 13.484375 0 
L 2.875 0 
L 24.125 28.609375 
L 4.6875 54.6875 
L 15.28125 54.6875 
L 29.78125 35.203125 
L 44.28125 54.6875 
z
" id="BitstreamVeraSans-Roman-78"/>
      <path d="M 56.203125 29.59375 
L 56.203125 25.203125 
L 14.890625 25.203125 
Q 15.484375 15.921875 20.484375 11.0625 
Q 25.484375 6.203125 34.421875 6.203125 
Q 39.59375 6.203125 44.453125 7.46875 
Q 49.3125 8.734375 54.109375 11.28125 
L 54.109375 2.78125 
Q 49.265625 0.734375 44.1875 -0.34375 
Q 39.109375 -1.421875 33.890625 -1.421875 
Q 20.796875 -1.421875 13.15625 6.1875 
Q 5.515625 13.8125 5.515625 26.8125 
Q 5.515625 40.234375 12.765625 48.109375 
Q 20.015625 56 32.328125 56 
Q 43.359375 56 49.78125 48.890625 
Q 56.203125 41.796875 56.203125 29.59375 
M 47.21875 32.234375 
Q 47.125 39.59375 43.09375 43.984375 
Q 39.0625 48.390625 32.421875 48.390625 
Q 24.90625 48.390625 20.390625 44.140625 
Q 15.875 39.890625 15.1875 32.171875 
z
" id="BitstreamVeraSans-Roman-65"/>
      <path d="M 18.3125 70.21875 
L 18.3125 54.6875 
L 36.8125 54.6875 
L 36.8125 47.703125 
L 18.3125 47.703125 
L 18.3125 18.015625 
Q 18.3125 11.328125 20.140625 9.421875 
Q 21.96875 7.515625 27.59375 7.515625 
L 36.8125 7.515625 
L 36.8125 0 
L 27.59375 0 
Q 17.1875 0 13.234375 3.875 
Q 9.28125 7.765625 9.28125 18.015625 
L 9.28125 47.703125 
L 2.6875 47.703125 
L 2.6875 54.6875 
L 9.28125 54.6875 
L 9.28125 70.21875 
z
" id="BitstreamVeraSans-Roman-74"/>
      <path d="M 45.40625 27.984375 
Q 45.40625 37.75 41.375 43.109375 
Q 37.359375 48.484375 30.078125 48.484375 
Q 22.859375 48.484375 18.828125 43.109375 
Q 14.796875 37.75 14.796875 27.984375 
Q 14.796875 18.265625 18.828125 12.890625 
Q 22.859375 7.515625 30.078125 7.515625 
Q 37.359375 7.515625 41.375 12.890625 
Q 45.40625 18.265625 45.40625 27.984375 
M 54.390625 6.78125 
Q 54.390625 -7.171875 48.1875 -13.984375 
Q 42 -20.796875 29.203125 -20.796875 
Q 24.46875 -20.796875 20.265625 -20.09375 
Q 16.0625 -19.390625 12.109375 -17.921875 
L 12.109375 -9.1875 
Q 16.0625 -11.328125 19.921875 -12.34375 
Q 23.78125 -13.375 27.78125 -13.375 
Q 36.625 -13.375 41.015625 -8.765625 
Q 45.40625 -4.15625 45.40625 5.171875 
L 45.40625 9.625 
Q 42.625 4.78125 38.28125 2.390625 
Q 33.9375 0 27.875 0 
Q 17.828125 0 11.671875 7.65625 
Q 5.515625 15.328125 5.515625 27.984375 
Q 5.515625 40.671875 11.671875 48.328125 
Q 17.828125 56 27.875 56 
Q 33.9375 56 38.28125 53.609375 
Q 42.625 51.21875 45.40625 46.390625 
L 45.40625 54.6875 
L 54.390625 54.6875 
z
" id="BitstreamVeraSans-Roman-67"/>
      <path d="M 48.78125 52.59375 
L 48.78125 44.1875 
Q 44.96875 46.296875 41.140625 47.34375 
Q 37.3125 48.390625 33.40625 48.390625 
Q 24.65625 48.390625 19.8125 42.84375 
Q 14.984375 37.3125 14.984375 27.296875 
Q 14.984375 17.28125 19.8125 11.734375 
Q 24.65625 6.203125 33.40625 6.203125 
Q 37.3125 6.203125 41.140625 7.25 
Q 44.96875 8.296875 48.78125 10.40625 
L 48.78125 2.09375 
Q 45.015625 0.34375 40.984375 -0.53125 
Q 36.96875 -1.421875 32.421875 -1.421875 
Q 20.0625 -1.421875 12.78125 6.34375 
Q 5.515625 14.109375 5.515625 27.296875 
Q 5.515625 40.671875 12.859375 48.328125 
Q 20.21875 56 33.015625 56 
Q 37.15625 56 41.109375 55.140625 
Q 45.0625 54.296875 48.78125 52.59375 
" id="BitstreamVeraSans-Roman-63"/>
      <path d="M 54.890625 33.015625 
L 54.890625 0 
L 45.90625 0 
L 45.90625 32.71875 
Q 45.90625 40.484375 42.875 44.328125 
Q 39.84375 48.1875 33.796875 48.1875 
Q 26.515625 48.1875 22.3125 43.546875 
Q 18.109375 38.921875 18.109375 30.90625 
L 18.109375 0 
L 9.078125 0 
L 9.078125 75.984375 
L 18.109375 75.984375 
L 18.109375 46.1875 
Q 21.34375 51.125 25.703125 53.5625 
Q 30.078125 56 35.796875 56 
Q 45.21875 56 50.046875 50.171875 
Q 54.890625 44.34375 54.890625 33.015625 
" id="BitstreamVeraSans-Roman-68"/>
     </defs>
     <g transform="translate(184.72578125 278.2765625)scale(0.1 -0.1)">
      <use xlink:href="#BitstreamVeraSans-Roman-63"/>
      <use x="54.98046875" xlink:href="#BitstreamVeraSans-Roman-6f"/>
      <use x="116.162109375" xlink:href="#BitstreamVeraSans-Roman-6e"/>
      <use x="179.541015625" xlink:href="#BitstreamVeraSans-Roman-74"/>
      <use x="218.75" xlink:href="#BitstreamVeraSans-Roman-65"/>
      <use x="280.2578125" xlink:href="#BitstreamVeraSans-Roman-78"/>
      <use x="339.4375" xlink:href="#BitstreamVeraSans-Roman-74"/>
      <use x="378.646484375" xlink:href="#BitstreamVeraSans-Roman-2d"/>
      <use x="414.73046875" xlink:href="#BitstreamVeraSans-Roman-6c"/>
      <use x="442.513671875" xlink:href="#BitstreamVeraSans-Roman-65"/>
      <use x="504.037109375" xlink:href="#BitstreamVeraSans-Roman-6e"/>
      <use x="567.416015625" xlink:href="#BitstreamVeraSans-Roman-67"/>
      <use x="630.892578125" xlink:href="#BitstreamVeraSans-Roman-74"/>
      <use x="670.1015625" xlink:href="#BitstreamVeraSans-Roman-68"/>
     </g>
    </g>
   </g>
   <g id="matplotlib.axis_2">
    <g id="ytick_1">
     <g id="line2d_13">
      <defs>
       <path d="M 0 0 
L 4 0 
" id="m81d5c5fd47" style="stroke:#000000;stroke-width:0.5;"/>
      </defs>
      <g>
       <use style="stroke:#000000;stroke-width:0.5;" x="54.0" xlink:href="#m81d5c5fd47" y="243.733333333"/>
      </g>
     </g>
     <g id="line2d_14">
      <defs>
       <path d="M 0 0 
L -4 0 
" id="mce96b3ef97" style="stroke:#000000;stroke-width:0.5;"/>
      </defs>
      <g>
       <use style="stroke:#000000;stroke-width:0.5;" x="388.8" xlink:href="#mce96b3ef97" y="243.733333333"/>
      </g>
     </g>
     <g id="text_8">
      <!-- 0.0 -->
      <defs>
       <path d="M 10.6875 12.40625 
L 21 12.40625 
L 21 0 
L 10.6875 0 
z
" id="BitstreamVeraSans-Roman-2e"/>
      </defs>
      <g transform="translate(34.096875 246.492708333)scale(0.1 -0.1)">
       <use xlink:href="#BitstreamVeraSans-Roman-30"/>
       <use x="63.623046875" xlink:href="#BitstreamVeraSans-Roman-2e"/>
       <use x="95.41015625" xlink:href="#BitstreamVeraSans-Roman-30"/>
      </g>
     </g>
    </g>
    <g id="ytick_2">
     <g id="line2d_15">
      <g>
       <use style="stroke:#000000;stroke-width:0.5;" x="54.0" xlink:href="#m81d5c5fd47" y="210.666666667"/>
      </g>
     </g>
     <g id="line2d_16">
      <g>
       <use style="stroke:#000000;stroke-width:0.5;" x="388.8" xlink:href="#mce96b3ef97" y="210.666666667"/>
      </g>
     </g>
     <g id="text_9">
      <!-- 0.2 -->
      <g transform="translate(34.096875 213.426041667)scale(0.1 -0.1)">
       <use xlink:href="#BitstreamVeraSans-Roman-30"/>
       <use x="63.623046875" xlink:href="#BitstreamVeraSans-Roman-2e"/>
       <use x="95.41015625" xlink:href="#BitstreamVeraSans-Roman-32"/>
      </g>
     </g>
    </g>
    <g id="ytick_3">
     <g id="line2d_17">
      <g>
       <use style="stroke:#000000;stroke-width:0.5;" x="54.0" xlink:href="#m81d5c5fd47" y="177.6"/>
      </g>
     </g>
     <g id="line2d_18">
      <g>
       <use style="stroke:#000000;stroke-width:0.5;" x="388.8" xlink:href="#mce96b3ef97" y="177.6"/>
      </g>
     </g>
     <g id="text_10">
      <!-- 0.4 -->
      <g transform="translate(34.096875 180.359375)scale(0.1 -0.1)">
       <use xlink:href="#BitstreamVeraSans-Roman-30"/>
       <use x="63.623046875" xlink:href="#BitstreamVeraSans-Roman-2e"/>
       <use x="95.41015625" xlink:href="#BitstreamVeraSans-Roman-34"/>
      </g>
     </g>
    </g>
    <g id="ytick_4">
     <g id="line2d_19">
      <g>
       <use style="stroke:#000000;stroke-width:0.5;" x="54.0" xlink:href="#m81d5c5fd47" y="144.533333333"/>
      </g>
     </g>
     <g id="line2d_20">
      <g>
       <use style="stroke:#000000;stroke-width:0.5;" x="388.8" xlink:href="#mce96b3ef97" y="144.533333333"/>
      </g>
     </g>
     <g id="text_11">
      <!-- 0.6 -->
      <g transform="translate(34.096875 147.292708333)scale(0.1 -0.1)">
       <use xlink:href="#BitstreamVeraSans-Roman-30"/>
       <use x="63.623046875" xlink:href="#BitstreamVeraSans-Roman-2e"/>
       <use x="95.41015625" xlink:href="#BitstreamVeraSans-Roman-36"/>
      </g>
     </g>
    </g>
    <g id="ytick_5">
     <g id="line2d_21">
      <g>
       <use style="stroke:#000000;stroke-width:0.5;" x="54.0" xlink:href="#m81d5c5fd47" y="111.466666667"/>
      </g>
     </g>
     <g id="line2d_22">
      <g>
       <use style="stroke:#000000;stroke-width:0.5;" x="388.8" xlink:href="#mce96b3ef97" y="111.466666667"/>
      </g>
     </g>
     <g id="text_12">
      <!-- 0.8 -->
      <defs>
       <path d="M 31.78125 34.625 
Q 24.75 34.625 20.71875 30.859375 
Q 16.703125 27.09375 16.703125 20.515625 
Q 16.703125 13.921875 20.71875 10.15625 
Q 24.75 6.390625 31.78125 6.390625 
Q 38.8125 6.390625 42.859375 10.171875 
Q 46.921875 13.96875 46.921875 20.515625 
Q 46.921875 27.09375 42.890625 30.859375 
Q 38.875 34.625 31.78125 34.625 
M 21.921875 38.8125 
Q 15.578125 40.375 12.03125 44.71875 
Q 8.5 49.078125 8.5 55.328125 
Q 8.5 64.0625 14.71875 69.140625 
Q 20.953125 74.21875 31.78125 74.21875 
Q 42.671875 74.21875 48.875 69.140625 
Q 55.078125 64.0625 55.078125 55.328125 
Q 55.078125 49.078125 51.53125 44.71875 
Q 48 40.375 41.703125 38.8125 
Q 48.828125 37.15625 52.796875 32.3125 
Q 56.78125 27.484375 56.78125 20.515625 
Q 56.78125 9.90625 50.3125 4.234375 
Q 43.84375 -1.421875 31.78125 -1.421875 
Q 19.734375 -1.421875 13.25 4.234375 
Q 6.78125 9.90625 6.78125 20.515625 
Q 6.78125 27.484375 10.78125 32.3125 
Q 14.796875 37.15625 21.921875 38.8125 
M 18.3125 54.390625 
Q 18.3125 48.734375 21.84375 45.5625 
Q 25.390625 42.390625 31.78125 42.390625 
Q 38.140625 42.390625 41.71875 45.5625 
Q 45.3125 48.734375 45.3125 54.390625 
Q 45.3125 60.0625 41.71875 63.234375 
Q 38.140625 66.40625 31.78125 66.40625 
Q 25.390625 66.40625 21.84375 63.234375 
Q 18.3125 60.0625 18.3125 54.390625 
" id="BitstreamVeraSans-Roman-38"/>
      </defs>
      <g transform="translate(34.096875 114.226041667)scale(0.1 -0.1)">
       <use xlink:href="#BitstreamVeraSans-Roman-30"/>
       <use x="63.623046875" xlink:href="#BitstreamVeraSans-Roman-2e"/>
       <use x="95.41015625" xlink:href="#BitstreamVeraSans-Roman-38"/>
      </g>
     </g>
    </g>
    <g id="ytick_6">
     <g id="line2d_23">
      <g>
       <use style="stroke:#000000;stroke-width:0.5;" x="54.0" xlink:href="#m81d5c5fd47" y="78.4"/>
      </g>
     </g>
     <g id="line2d_24">
      <g>
       <use style="stroke:#000000;stroke-width:0.5;" x="388.8" xlink:href="#mce96b3ef97" y="78.4"/>
      </g>
     </g>
     <g id="text_13">
      <!-- 1.0 -->
      <g transform="translate(34.096875 81.159375)scale(0.1 -0.1)">
       <use xlink:href="#BitstreamVeraSans-Roman-31"/>
       <use x="63.623046875" xlink:href="#BitstreamVeraSans-Roman-2e"/>
       <use x="95.41015625" xlink:href="#BitstreamVeraSans-Roman-30"/>
      </g>
     </g>
    </g>
    <g id="ytick_7">
     <g id="line2d_25">
      <g>
       <use style="stroke:#000000;stroke-width:0.5;" x="54.0" xlink:href="#m81d5c5fd47" y="45.3333333333"/>
      </g>
     </g>
     <g id="line2d_26">
      <g>
       <use style="stroke:#000000;stroke-width:0.5;" x="388.8" xlink:href="#mce96b3ef97" y="45.3333333333"/>
      </g>
     </g>
     <g id="text_14">
      <!-- 1.2 -->
      <g transform="translate(34.096875 48.0927083333)scale(0.1 -0.1)">
       <use xlink:href="#BitstreamVeraSans-Roman-31"/>
       <use x="63.623046875" xlink:href="#BitstreamVeraSans-Roman-2e"/>
       <use x="95.41015625" xlink:href="#BitstreamVeraSans-Roman-32"/>
      </g>
     </g>
    </g>
    <g id="text_15">
     <!-- -mfe-quake -->
     <defs>
      <path d="M 37.109375 75.984375 
L 37.109375 68.5 
L 28.515625 68.5 
Q 23.6875 68.5 21.796875 66.546875 
Q 19.921875 64.59375 19.921875 59.515625 
L 19.921875 54.6875 
L 34.71875 54.6875 
L 34.71875 47.703125 
L 19.921875 47.703125 
L 19.921875 0 
L 10.890625 0 
L 10.890625 47.703125 
L 2.296875 47.703125 
L 2.296875 54.6875 
L 10.890625 54.6875 
L 10.890625 58.5 
Q 10.890625 67.625 15.140625 71.796875 
Q 19.390625 75.984375 28.609375 75.984375 
z
" id="BitstreamVeraSans-Roman-66"/>
      <path d="M 52 44.1875 
Q 55.375 50.25 60.0625 53.125 
Q 64.75 56 71.09375 56 
Q 79.640625 56 84.28125 50.015625 
Q 88.921875 44.046875 88.921875 33.015625 
L 88.921875 0 
L 79.890625 0 
L 79.890625 32.71875 
Q 79.890625 40.578125 77.09375 44.375 
Q 74.3125 48.1875 68.609375 48.1875 
Q 61.625 48.1875 57.5625 43.546875 
Q 53.515625 38.921875 53.515625 30.90625 
L 53.515625 0 
L 44.484375 0 
L 44.484375 32.71875 
Q 44.484375 40.625 41.703125 44.40625 
Q 38.921875 48.1875 33.109375 48.1875 
Q 26.21875 48.1875 22.15625 43.53125 
Q 18.109375 38.875 18.109375 30.90625 
L 18.109375 0 
L 9.078125 0 
L 9.078125 54.6875 
L 18.109375 54.6875 
L 18.109375 46.1875 
Q 21.1875 51.21875 25.484375 53.609375 
Q 29.78125 56 35.6875 56 
Q 41.65625 56 45.828125 52.96875 
Q 50 49.953125 52 44.1875 
" id="BitstreamVeraSans-Roman-6d"/>
      <path d="M 9.078125 75.984375 
L 18.109375 75.984375 
L 18.109375 31.109375 
L 44.921875 54.6875 
L 56.390625 54.6875 
L 27.390625 29.109375 
L 57.625 0 
L 45.90625 0 
L 18.109375 26.703125 
L 18.109375 0 
L 9.078125 0 
z
" id="BitstreamVeraSans-Roman-6b"/>
      <path d="M 8.5 21.578125 
L 8.5 54.6875 
L 17.484375 54.6875 
L 17.484375 21.921875 
Q 17.484375 14.15625 20.5 10.265625 
Q 23.53125 6.390625 29.59375 6.390625 
Q 36.859375 6.390625 41.078125 11.03125 
Q 45.3125 15.671875 45.3125 23.6875 
L 45.3125 54.6875 
L 54.296875 54.6875 
L 54.296875 0 
L 45.3125 0 
L 45.3125 8.40625 
Q 42.046875 3.421875 37.71875 1 
Q 33.40625 -1.421875 27.6875 -1.421875 
Q 18.265625 -1.421875 13.375 4.4375 
Q 8.5 10.296875 8.5 21.578125 
" id="BitstreamVeraSans-Roman-75"/>
      <path d="M 34.28125 27.484375 
Q 23.390625 27.484375 19.1875 25 
Q 14.984375 22.515625 14.984375 16.5 
Q 14.984375 11.71875 18.140625 8.90625 
Q 21.296875 6.109375 26.703125 6.109375 
Q 34.1875 6.109375 38.703125 11.40625 
Q 43.21875 16.703125 43.21875 25.484375 
L 43.21875 27.484375 
z
M 52.203125 31.203125 
L 52.203125 0 
L 43.21875 0 
L 43.21875 8.296875 
Q 40.140625 3.328125 35.546875 0.953125 
Q 30.953125 -1.421875 24.3125 -1.421875 
Q 15.921875 -1.421875 10.953125 3.296875 
Q 6 8.015625 6 15.921875 
Q 6 25.140625 12.171875 29.828125 
Q 18.359375 34.515625 30.609375 34.515625 
L 43.21875 34.515625 
L 43.21875 35.40625 
Q 43.21875 41.609375 39.140625 45 
Q 35.0625 48.390625 27.6875 48.390625 
Q 23 48.390625 18.546875 47.265625 
Q 14.109375 46.140625 10.015625 43.890625 
L 10.015625 52.203125 
Q 14.9375 54.109375 19.578125 55.046875 
Q 24.21875 56 28.609375 56 
Q 40.484375 56 46.34375 49.84375 
Q 52.203125 43.703125 52.203125 31.203125 
" id="BitstreamVeraSans-Roman-61"/>
      <path d="M 14.796875 27.296875 
Q 14.796875 17.390625 18.875 11.75 
Q 22.953125 6.109375 30.078125 6.109375 
Q 37.203125 6.109375 41.296875 11.75 
Q 45.40625 17.390625 45.40625 27.296875 
Q 45.40625 37.203125 41.296875 42.84375 
Q 37.203125 48.484375 30.078125 48.484375 
Q 22.953125 48.484375 18.875 42.84375 
Q 14.796875 37.203125 14.796875 27.296875 
M 45.40625 8.203125 
Q 42.578125 3.328125 38.25 0.953125 
Q 33.9375 -1.421875 27.875 -1.421875 
Q 17.96875 -1.421875 11.734375 6.484375 
Q 5.515625 14.40625 5.515625 27.296875 
Q 5.515625 40.1875 11.734375 48.09375 
Q 17.96875 56 27.875 56 
Q 33.9375 56 38.25 53.625 
Q 42.578125 51.265625 45.40625 46.390625 
L 45.40625 54.6875 
L 54.390625 54.6875 
L 54.390625 -20.796875 
L 45.40625 -20.796875 
z
" id="BitstreamVeraSans-Roman-71"/>
     </defs>
     <g transform="translate(27.0171875 169.09140625)rotate(-90.0)scale(0.1 -0.1)">
      <use xlink:href="#BitstreamVeraSans-Roman-2d"/>
      <use x="36.083984375" xlink:href="#BitstreamVeraSans-Roman-6d"/>
      <use x="133.49609375" xlink:href="#BitstreamVeraSans-Roman-66"/>
      <use x="168.701171875" xlink:href="#BitstreamVeraSans-Roman-65"/>
      <use x="230.224609375" xlink:href="#BitstreamVeraSans-Roman-2d"/>
      <use x="266.30859375" xlink:href="#BitstreamVeraSans-Roman-71"/>
      <use x="329.78515625" xlink:href="#BitstreamVeraSans-Roman-75"/>
      <use x="393.1640625" xlink:href="#BitstreamVeraSans-Roman-61"/>
      <use x="454.443359375" xlink:href="#BitstreamVeraSans-Roman-6b"/>
      <use x="512.306640625" xlink:href="#BitstreamVeraSans-Roman-65"/>
     </g>
    </g>
   </g>
   <g id="legend_1">
    <g id="patch_5">
     <path d="M 228.945 56.01375 
L 382.8 56.01375 
L 382.8 34.8 
L 228.945 34.8 
z
" style="fill:#ffffff;stroke:#000000;stroke-linejoin:miter;"/>
    </g>
    <g id="PathCollection_2">
     <path d="M 237.345 47.149264 
C 237.764323 47.149264 238.166528 46.982665 238.463034 46.686159 
C 238.75954 46.389653 238.926139 45.987448 238.926139 45.568125 
C 238.926139 45.148802 238.75954 44.746597 238.463034 44.450091 
C 238.166528 44.153585 237.764323 43.986986 237.345 43.986986 
C 236.925677 43.986986 236.523472 44.153585 236.226966 44.450091 
C 235.93046 44.746597 235.763861 45.148802 235.763861 45.568125 
C 235.763861 45.987448 235.93046 46.389653 236.226966 46.686159 
C 236.523472 46.982665 236.925677 47.149264 237.345 47.149264 
z
" style="fill:#0000ff;"/>
     <path d="M 245.745 46.099264 
C 246.164323 46.099264 246.566528 45.932665 246.863034 45.636159 
C 247.15954 45.339653 247.326139 44.937448 247.326139 44.518125 
C 247.326139 44.098802 247.15954 43.696597 246.863034 43.400091 
C 246.566528 43.103585 246.164323 42.936986 245.745 42.936986 
C 245.325677 42.936986 244.923472 43.103585 244.626966 43.400091 
C 244.33046 43.696597 244.163861 44.098802 244.163861 44.518125 
C 244.163861 44.937448 244.33046 45.339653 244.626966 45.636159 
C 244.923472 45.932665 245.325677 46.099264 245.745 46.099264 
z
" style="fill:#0000ff;"/>
     <path d="M 254.145 47.674264 
C 254.564323 47.674264 254.966528 47.507665 255.263034 47.211159 
C 255.55954 46.914653 255.726139 46.512448 255.726139 46.093125 
C 255.726139 45.673802 255.55954 45.271597 255.263034 44.975091 
C 254.966528 44.678585 254.564323 44.511986 254.145 44.511986 
C 253.725677 44.511986 253.323472 44.678585 253.026966 44.975091 
C 252.73046 45.271597 252.563861 45.673802 252.563861 46.093125 
C 252.563861 46.512448 252.73046 46.914653 253.026966 47.211159 
C 253.323472 47.507665 253.725677 47.674264 254.145 47.674264 
z
" style="fill:#0000ff;"/>
    </g>
    <g id="text_16">
     <!-- extend-mfe-quake -->
     <defs>
      <path d="M 45.40625 46.390625 
L 45.40625 75.984375 
L 54.390625 75.984375 
L 54.390625 0 
L 45.40625 0 
L 45.40625 8.203125 
Q 42.578125 3.328125 38.25 0.953125 
Q 33.9375 -1.421875 27.875 -1.421875 
Q 17.96875 -1.421875 11.734375 6.484375 
Q 5.515625 14.40625 5.515625 27.296875 
Q 5.515625 40.1875 11.734375 48.09375 
Q 17.96875 56 27.875 56 
Q 33.9375 56 38.25 53.625 
Q 42.578125 51.265625 45.40625 46.390625 
M 14.796875 27.296875 
Q 14.796875 17.390625 18.875 11.75 
Q 22.953125 6.109375 30.078125 6.109375 
Q 37.203125 6.109375 41.296875 11.75 
Q 45.40625 17.390625 45.40625 27.296875 
Q 45.40625 37.203125 41.296875 42.84375 
Q 37.203125 48.484375 30.078125 48.484375 
Q 22.953125 48.484375 18.875 42.84375 
Q 14.796875 37.203125 14.796875 27.296875 
" id="BitstreamVeraSans-Roman-64"/>
     </defs>
     <g transform="translate(267.345 48.718125)scale(0.12 -0.12)">
      <use xlink:href="#BitstreamVeraSans-Roman-65"/>
      <use x="61.5078125" xlink:href="#BitstreamVeraSans-Roman-78"/>
      <use x="120.6875" xlink:href="#BitstreamVeraSans-Roman-74"/>
      <use x="159.896484375" xlink:href="#BitstreamVeraSans-Roman-65"/>
      <use x="221.419921875" xlink:href="#BitstreamVeraSans-Roman-6e"/>
      <use x="284.798828125" xlink:href="#BitstreamVeraSans-Roman-64"/>
      <use x="348.275390625" xlink:href="#BitstreamVeraSans-Roman-2d"/>
      <use x="384.359375" xlink:href="#BitstreamVeraSans-Roman-6d"/>
      <use x="481.771484375" xlink:href="#BitstreamVeraSans-Roman-66"/>
      <use x="516.9765625" xlink:href="#BitstreamVeraSans-Roman-65"/>
      <use x="578.5" xlink:href="#BitstreamVeraSans-Roman-2d"/>
      <use x="614.583984375" xlink:href="#BitstreamVeraSans-Roman-71"/>
      <use x="678.060546875" xlink:href="#BitstreamVeraSans-Roman-75"/>
      <use x="741.439453125" xlink:href="#BitstreamVeraSans-Roman-61"/>
      <use x="802.71875" xlink:href="#BitstreamVeraSans-Roman-6b"/>
      <use x="860.58203125" xlink:href="#BitstreamVeraSans-Roman-65"/>
     </g>
    </g>
   </g>
  </g>
  <g id="text_17">
   <!-- tRNA-quake-extend -->
   <defs>
    <path d="M 44.390625 34.1875 
Q 47.5625 33.109375 50.5625 29.59375 
Q 53.5625 26.078125 56.59375 19.921875 
L 66.609375 0 
L 56 0 
L 46.6875 18.703125 
Q 43.0625 26.03125 39.671875 28.421875 
Q 36.28125 30.8125 30.421875 30.8125 
L 19.671875 30.8125 
L 19.671875 0 
L 9.8125 0 
L 9.8125 72.90625 
L 32.078125 72.90625 
Q 44.578125 72.90625 50.734375 67.671875 
Q 56.890625 62.453125 56.890625 51.90625 
Q 56.890625 45.015625 53.6875 40.46875 
Q 50.484375 35.9375 44.390625 34.1875 
M 19.671875 64.796875 
L 19.671875 38.921875 
L 32.078125 38.921875 
Q 39.203125 38.921875 42.84375 42.21875 
Q 46.484375 45.515625 46.484375 51.90625 
Q 46.484375 58.296875 42.84375 61.546875 
Q 39.203125 64.796875 32.078125 64.796875 
z
" id="BitstreamVeraSans-Roman-52"/>
    <path d="M 9.8125 72.90625 
L 23.09375 72.90625 
L 55.421875 11.921875 
L 55.421875 72.90625 
L 64.984375 72.90625 
L 64.984375 0 
L 51.703125 0 
L 19.390625 60.984375 
L 19.390625 0 
L 9.8125 0 
z
" id="BitstreamVeraSans-Roman-4e"/>
    <path d="M 34.1875 63.1875 
L 20.796875 26.90625 
L 47.609375 26.90625 
z
M 28.609375 72.90625 
L 39.796875 72.90625 
L 67.578125 0 
L 57.328125 0 
L 50.6875 18.703125 
L 17.828125 18.703125 
L 11.1875 0 
L 0.78125 0 
z
" id="BitstreamVeraSans-Roman-41"/>
   </defs>
   <g transform="translate(167.00703125 19.1184375)scale(0.1 -0.1)">
    <use xlink:href="#BitstreamVeraSans-Roman-74"/>
    <use x="39.208984375" xlink:href="#BitstreamVeraSans-Roman-52"/>
    <use x="108.69140625" xlink:href="#BitstreamVeraSans-Roman-4e"/>
    <use x="183.49609375" xlink:href="#BitstreamVeraSans-Roman-41"/>
    <use x="251.873046875" xlink:href="#BitstreamVeraSans-Roman-2d"/>
    <use x="287.95703125" xlink:href="#BitstreamVeraSans-Roman-71"/>
    <use x="351.43359375" xlink:href="#BitstreamVeraSans-Roman-75"/>
    <use x="414.8125" xlink:href="#BitstreamVeraSans-Roman-61"/>
    <use x="476.091796875" xlink:href="#BitstreamVeraSans-Roman-6b"/>
    <use x="533.955078125" xlink:href="#BitstreamVeraSans-Roman-65"/>
    <use x="595.478515625" xlink:href="#BitstreamVeraSans-Roman-2d"/>
    <use x="631.5625" xlink:href="#BitstreamVeraSans-Roman-65"/>
    <use x="693.0703125" xlink:href="#BitstreamVeraSans-Roman-78"/>
    <use x="752.25" xlink:href="#BitstreamVeraSans-Roman-74"/>
    <use x="791.458984375" xlink:href="#BitstreamVeraSans-Roman-65"/>
    <use x="852.982421875" xlink:href="#BitstreamVeraSans-Roman-6e"/>
    <use x="916.361328125" xlink:href="#BitstreamVeraSans-Roman-64"/>
   </g>
  </g>
 </g>
 <defs>
  <clipPath id="pcf09028567">
   <rect height="223.2" width="334.8" x="54.0" y="28.8"/>
  </clipPath>
 </defs>
</svg>
