<?xml version="1.0" encoding="utf-8" standalone="no"?>
<!DOCTYPE svg PUBLIC "-//W3C//DTD SVG 1.1//EN"
  "http://www.w3.org/Graphics/SVG/1.1/DTD/svg11.dtd">
<!-- Created with matplotlib (http://matplotlib.org/) -->
<svg height="720pt" version="1.1" viewBox="0 0 360 720" width="360pt" xmlns="http://www.w3.org/2000/svg" xmlns:xlink="http://www.w3.org/1999/xlink">
 <defs>
  <style type="text/css">
*{stroke-linecap:butt;stroke-linejoin:round;stroke-miterlimit:100000;}
  </style>
 </defs>
 <g id="figure_1">
  <g id="patch_1">
   <path d="M 0 720 
L 360 720 
L 360 0 
L 0 0 
z
" style="fill:#ffffff;"/>
  </g>
  <g id="axes_1">
   <g id="patch_2">
    <path d="M 45 325.636364 
L 324 325.636364 
L 324 72 
L 45 72 
z
" style="fill:#ffffff;"/>
   </g>
   <g id="PathCollection_1">
    <defs>
     <path d="M 0 1.581139 
C 0.419323 1.581139 0.821528 1.41454 1.118034 1.118034 
C 1.41454 0.821528 1.581139 0.419323 1.581139 0 
C 1.581139 -0.419323 1.41454 -0.821528 1.118034 -1.118034 
C 0.821528 -1.41454 0.419323 -1.581139 0 -1.581139 
C -0.419323 -1.581139 -0.821528 -1.41454 -1.118034 -1.118034 
C -1.41454 -0.821528 -1.581139 -0.419323 -1.581139 0 
C -1.581139 0.419323 -1.41454 0.821528 -1.118034 1.118034 
C -0.821528 1.41454 -0.419323 1.581139 0 1.581139 
z
" id="m43436328a8"/>
    </defs>
    <g clip-path="url(#p744d31b9ba)">
     <use style="fill:#008000;" x="44.5342237062" xlink:href="#m43436328a8" y="129.353355155"/>
     <use style="fill:#008000;" x="49.1919866444" xlink:href="#m43436328a8" y="129.353142288"/>
     <use style="fill:#008000;" x="53.8497495826" xlink:href="#m43436328a8" y="129.384117351"/>
     <use style="fill:#008000;" x="58.5075125209" xlink:href="#m43436328a8" y="129.355124424"/>
     <use style="fill:#008000;" x="63.1652754591" xlink:href="#m43436328a8" y="129.479080174"/>
     <use style="fill:#008000;" x="67.8230383973" xlink:href="#m43436328a8" y="129.358909529"/>
     <use style="fill:#008000;" x="72.4808013356" xlink:href="#m43436328a8" y="129.491129915"/>
     <use style="fill:#008000;" x="77.1385642738" xlink:href="#m43436328a8" y="129.380712862"/>
     <use style="fill:#008000;" x="81.796327212" xlink:href="#m43436328a8" y="129.360477526"/>
     <use style="fill:#008000;" x="86.4540901503" xlink:href="#m43436328a8" y="129.415103337"/>
     <use style="fill:#008000;" x="91.1118530885" xlink:href="#m43436328a8" y="129.491465582"/>
     <use style="fill:#008000;" x="95.7696160267" xlink:href="#m43436328a8" y="129.392852338"/>
     <use style="fill:#008000;" x="100.427378965" xlink:href="#m43436328a8" y="129.448978847"/>
     <use style="fill:#008000;" x="105.085141903" xlink:href="#m43436328a8" y="129.486852009"/>
     <use style="fill:#008000;" x="109.742904841" xlink:href="#m43436328a8" y="137.918018101"/>
     <use style="fill:#008000;" x="114.40066778" xlink:href="#m43436328a8" y="147.281847226"/>
     <use style="fill:#008000;" x="119.058430718" xlink:href="#m43436328a8" y="129.53006676"/>
     <use style="fill:#008000;" x="123.716193656" xlink:href="#m43436328a8" y="129.402561387"/>
     <use style="fill:#008000;" x="128.373956594" xlink:href="#m43436328a8" y="129.357767256"/>
     <use style="fill:#008000;" x="133.031719533" xlink:href="#m43436328a8" y="129.649419935"/>
     <use style="fill:#008000;" x="137.689482471" xlink:href="#m43436328a8" y="129.472170615"/>
     <use style="fill:#008000;" x="142.347245409" xlink:href="#m43436328a8" y="281.72027296"/>
     <use style="fill:#008000;" x="147.005008347" xlink:href="#m43436328a8" y="129.493022159"/>
     <use style="fill:#008000;" x="151.662771285" xlink:href="#m43436328a8" y="129.356647465"/>
     <use style="fill:#008000;" x="156.320534224" xlink:href="#m43436328a8" y="129.140830994"/>
     <use style="fill:#008000;" x="160.978297162" xlink:href="#m43436328a8" y="129.541018842"/>
     <use style="fill:#008000;" x="165.6360601" xlink:href="#m43436328a8" y="129.496572102"/>
     <use style="fill:#008000;" x="170.293823038" xlink:href="#m43436328a8" y="129.223240553"/>
     <use style="fill:#008000;" x="174.951585977" xlink:href="#m43436328a8" y="312.078832372"/>
     <use style="fill:#008000;" x="179.609348915" xlink:href="#m43436328a8" y="129.353086448"/>
     <use style="fill:#008000;" x="184.267111853" xlink:href="#m43436328a8" y="129.574491161"/>
     <use style="fill:#008000;" x="188.924874791" xlink:href="#m43436328a8" y="129.503414527"/>
     <use style="fill:#008000;" x="193.58263773" xlink:href="#m43436328a8" y="129.209701653"/>
     <use style="fill:#008000;" x="198.240400668" xlink:href="#m43436328a8" y="129.835929933"/>
     <use style="fill:#008000;" x="202.898163606" xlink:href="#m43436328a8" y="129.275973969"/>
     <use style="fill:#008000;" x="207.555926544" xlink:href="#m43436328a8" y="129.434152085"/>
     <use style="fill:#008000;" x="212.213689482" xlink:href="#m43436328a8" y="129.366233411"/>
     <use style="fill:#008000;" x="216.871452421" xlink:href="#m43436328a8" y="129.48107363"/>
     <use style="fill:#008000;" x="221.529215359" xlink:href="#m43436328a8" y="129.415607314"/>
     <use style="fill:#008000;" x="226.186978297" xlink:href="#m43436328a8" y="129.508800718"/>
     <use style="fill:#008000;" x="230.844741235" xlink:href="#m43436328a8" y="129.179510388"/>
     <use style="fill:#008000;" x="235.502504174" xlink:href="#m43436328a8" y="129.878864761"/>
     <use style="fill:#008000;" x="240.160267112" xlink:href="#m43436328a8" y="129.247765135"/>
     <use style="fill:#008000;" x="244.81803005" xlink:href="#m43436328a8" y="129.551399762"/>
     <use style="fill:#008000;" x="249.475792988" xlink:href="#m43436328a8" y="130.544209567"/>
     <use style="fill:#008000;" x="254.133555927" xlink:href="#m43436328a8" y="129.462148288"/>
     <use style="fill:#008000;" x="258.791318865" xlink:href="#m43436328a8" y="129.365796823"/>
     <use style="fill:#008000;" x="263.449081803" xlink:href="#m43436328a8" y="129.485754334"/>
     <use style="fill:#008000;" x="268.106844741" xlink:href="#m43436328a8" y="129.551321477"/>
     <use style="fill:#008000;" x="272.764607679" xlink:href="#m43436328a8" y="129.355326047"/>
     <use style="fill:#008000;" x="277.422370618" xlink:href="#m43436328a8" y="130.239275502"/>
     <use style="fill:#008000;" x="282.080133556" xlink:href="#m43436328a8" y="129.486896591"/>
     <use style="fill:#008000;" x="286.737896494" xlink:href="#m43436328a8" y="129.506326032"/>
     <use style="fill:#008000;" x="291.395659432" xlink:href="#m43436328a8" y="133.696404721"/>
     <use style="fill:#008000;" x="296.053422371" xlink:href="#m43436328a8" y="129.492675254"/>
     <use style="fill:#008000;" x="300.711185309" xlink:href="#m43436328a8" y="129.474410626"/>
     <use style="fill:#008000;" x="305.368948247" xlink:href="#m43436328a8" y="129.431464456"/>
     <use style="fill:#008000;" x="310.026711185" xlink:href="#m43436328a8" y="129.375897808"/>
     <use style="fill:#008000;" x="314.684474124" xlink:href="#m43436328a8" y="129.354900689"/>
     <use style="fill:#008000;" x="319.342237062" xlink:href="#m43436328a8" y="131.680482492"/>
    </g>
   </g>
   <g id="patch_3">
    <path d="M 45 325.636364 
L 324 325.636364 
" style="fill:none;stroke:#000000;stroke-linecap:square;stroke-linejoin:miter;"/>
   </g>
   <g id="patch_4">
    <path d="M 45 325.636364 
L 45 72 
" style="fill:none;stroke:#000000;stroke-linecap:square;stroke-linejoin:miter;"/>
   </g>
   <g id="matplotlib.axis_1">
    <g id="xtick_1">
     <g id="text_1">
      <!-- 0 -->
      <defs>
       <path d="M 31.78125 66.40625 
Q 24.171875 66.40625 20.328125 58.90625 
Q 16.5 51.421875 16.5 36.375 
Q 16.5 21.390625 20.328125 13.890625 
Q 24.171875 6.390625 31.78125 6.390625 
Q 39.453125 6.390625 43.28125 13.890625 
Q 47.125 21.390625 47.125 36.375 
Q 47.125 51.421875 43.28125 58.90625 
Q 39.453125 66.40625 31.78125 66.40625 
M 31.78125 74.21875 
Q 44.046875 74.21875 50.515625 64.515625 
Q 56.984375 54.828125 56.984375 36.375 
Q 56.984375 17.96875 50.515625 8.265625 
Q 44.046875 -1.421875 31.78125 -1.421875 
Q 19.53125 -1.421875 13.0625 8.265625 
Q 6.59375 17.96875 6.59375 36.375 
Q 6.59375 54.828125 13.0625 64.515625 
Q 19.53125 74.21875 31.78125 74.21875 
" id="BitstreamVeraSans-Roman-30"/>
      </defs>
      <g transform="translate(41.3529737062 337.234801136)scale(0.1 -0.1)">
       <use xlink:href="#BitstreamVeraSans-Roman-30"/>
      </g>
     </g>
    </g>
    <g id="xtick_2">
     <g id="line2d_1">
      <defs>
       <path d="M 0 0 
L 0 -4 
" id="m12b6fa4042" style="stroke:#000000;stroke-width:0.5;"/>
      </defs>
      <g>
       <use style="stroke:#000000;stroke-width:0.5;" x="91.1118530885" xlink:href="#m12b6fa4042" y="325.636363636"/>
      </g>
     </g>
     <g id="line2d_2">
      <defs>
       <path d="M 0 0 
L 0 4 
" id="m2c3ecd3c34" style="stroke:#000000;stroke-width:0.5;"/>
      </defs>
      <g>
       <use style="stroke:#000000;stroke-width:0.5;" x="91.1118530885" xlink:href="#m2c3ecd3c34" y="72.0"/>
      </g>
     </g>
     <g id="text_2">
      <!-- 100 -->
      <defs>
       <path d="M 12.40625 8.296875 
L 28.515625 8.296875 
L 28.515625 63.921875 
L 10.984375 60.40625 
L 10.984375 69.390625 
L 28.421875 72.90625 
L 38.28125 72.90625 
L 38.28125 8.296875 
L 54.390625 8.296875 
L 54.390625 0 
L 12.40625 0 
z
" id="BitstreamVeraSans-Roman-31"/>
      </defs>
      <g transform="translate(81.5681030885 337.234801136)scale(0.1 -0.1)">
       <use xlink:href="#BitstreamVeraSans-Roman-31"/>
       <use x="63.623046875" xlink:href="#BitstreamVeraSans-Roman-30"/>
       <use x="127.24609375" xlink:href="#BitstreamVeraSans-Roman-30"/>
      </g>
     </g>
    </g>
    <g id="xtick_3">
     <g id="line2d_3">
      <g>
       <use style="stroke:#000000;stroke-width:0.5;" x="137.689482471" xlink:href="#m12b6fa4042" y="325.636363636"/>
      </g>
     </g>
     <g id="line2d_4">
      <g>
       <use style="stroke:#000000;stroke-width:0.5;" x="137.689482471" xlink:href="#m2c3ecd3c34" y="72.0"/>
      </g>
     </g>
     <g id="text_3">
      <!-- 200 -->
      <defs>
       <path d="M 19.1875 8.296875 
L 53.609375 8.296875 
L 53.609375 0 
L 7.328125 0 
L 7.328125 8.296875 
Q 12.9375 14.109375 22.625 23.890625 
Q 32.328125 33.6875 34.8125 36.53125 
Q 39.546875 41.84375 41.421875 45.53125 
Q 43.3125 49.21875 43.3125 52.78125 
Q 43.3125 58.59375 39.234375 62.25 
Q 35.15625 65.921875 28.609375 65.921875 
Q 23.96875 65.921875 18.8125 64.3125 
Q 13.671875 62.703125 7.8125 59.421875 
L 7.8125 69.390625 
Q 13.765625 71.78125 18.9375 73 
Q 24.125 74.21875 28.421875 74.21875 
Q 39.75 74.21875 46.484375 68.546875 
Q 53.21875 62.890625 53.21875 53.421875 
Q 53.21875 48.921875 51.53125 44.890625 
Q 49.859375 40.875 45.40625 35.40625 
Q 44.1875 33.984375 37.640625 27.21875 
Q 31.109375 20.453125 19.1875 8.296875 
" id="BitstreamVeraSans-Roman-32"/>
      </defs>
      <g transform="translate(128.145732471 337.234801136)scale(0.1 -0.1)">
       <use xlink:href="#BitstreamVeraSans-Roman-32"/>
       <use x="63.623046875" xlink:href="#BitstreamVeraSans-Roman-30"/>
       <use x="127.24609375" xlink:href="#BitstreamVeraSans-Roman-30"/>
      </g>
     </g>
    </g>
    <g id="xtick_4">
     <g id="line2d_5">
      <g>
       <use style="stroke:#000000;stroke-width:0.5;" x="184.267111853" xlink:href="#m12b6fa4042" y="325.636363636"/>
      </g>
     </g>
     <g id="line2d_6">
      <g>
       <use style="stroke:#000000;stroke-width:0.5;" x="184.267111853" xlink:href="#m2c3ecd3c34" y="72.0"/>
      </g>
     </g>
     <g id="text_4">
      <!-- 300 -->
      <defs>
       <path d="M 40.578125 39.3125 
Q 47.65625 37.796875 51.625 33 
Q 55.609375 28.21875 55.609375 21.1875 
Q 55.609375 10.40625 48.1875 4.484375 
Q 40.765625 -1.421875 27.09375 -1.421875 
Q 22.515625 -1.421875 17.65625 -0.515625 
Q 12.796875 0.390625 7.625 2.203125 
L 7.625 11.71875 
Q 11.71875 9.328125 16.59375 8.109375 
Q 21.484375 6.890625 26.8125 6.890625 
Q 36.078125 6.890625 40.9375 10.546875 
Q 45.796875 14.203125 45.796875 21.1875 
Q 45.796875 27.640625 41.28125 31.265625 
Q 36.765625 34.90625 28.71875 34.90625 
L 20.21875 34.90625 
L 20.21875 43.015625 
L 29.109375 43.015625 
Q 36.375 43.015625 40.234375 45.921875 
Q 44.09375 48.828125 44.09375 54.296875 
Q 44.09375 59.90625 40.109375 62.90625 
Q 36.140625 65.921875 28.71875 65.921875 
Q 24.65625 65.921875 20.015625 65.03125 
Q 15.375 64.15625 9.8125 62.3125 
L 9.8125 71.09375 
Q 15.4375 72.65625 20.34375 73.4375 
Q 25.25 74.21875 29.59375 74.21875 
Q 40.828125 74.21875 47.359375 69.109375 
Q 53.90625 64.015625 53.90625 55.328125 
Q 53.90625 49.265625 50.4375 45.09375 
Q 46.96875 40.921875 40.578125 39.3125 
" id="BitstreamVeraSans-Roman-33"/>
      </defs>
      <g transform="translate(174.723361853 337.234801136)scale(0.1 -0.1)">
       <use xlink:href="#BitstreamVeraSans-Roman-33"/>
       <use x="63.623046875" xlink:href="#BitstreamVeraSans-Roman-30"/>
       <use x="127.24609375" xlink:href="#BitstreamVeraSans-Roman-30"/>
      </g>
     </g>
    </g>
    <g id="xtick_5">
     <g id="line2d_7">
      <g>
       <use style="stroke:#000000;stroke-width:0.5;" x="230.844741235" xlink:href="#m12b6fa4042" y="325.636363636"/>
      </g>
     </g>
     <g id="line2d_8">
      <g>
       <use style="stroke:#000000;stroke-width:0.5;" x="230.844741235" xlink:href="#m2c3ecd3c34" y="72.0"/>
      </g>
     </g>
     <g id="text_5">
      <!-- 400 -->
      <defs>
       <path d="M 37.796875 64.3125 
L 12.890625 25.390625 
L 37.796875 25.390625 
z
M 35.203125 72.90625 
L 47.609375 72.90625 
L 47.609375 25.390625 
L 58.015625 25.390625 
L 58.015625 17.1875 
L 47.609375 17.1875 
L 47.609375 0 
L 37.796875 0 
L 37.796875 17.1875 
L 4.890625 17.1875 
L 4.890625 26.703125 
z
" id="BitstreamVeraSans-Roman-34"/>
      </defs>
      <g transform="translate(221.300991235 337.234801136)scale(0.1 -0.1)">
       <use xlink:href="#BitstreamVeraSans-Roman-34"/>
       <use x="63.623046875" xlink:href="#BitstreamVeraSans-Roman-30"/>
       <use x="127.24609375" xlink:href="#BitstreamVeraSans-Roman-30"/>
      </g>
     </g>
    </g>
    <g id="xtick_6">
     <g id="line2d_9">
      <g>
       <use style="stroke:#000000;stroke-width:0.5;" x="277.422370618" xlink:href="#m12b6fa4042" y="325.636363636"/>
      </g>
     </g>
     <g id="line2d_10">
      <g>
       <use style="stroke:#000000;stroke-width:0.5;" x="277.422370618" xlink:href="#m2c3ecd3c34" y="72.0"/>
      </g>
     </g>
     <g id="text_6">
      <!-- 500 -->
      <defs>
       <path d="M 10.796875 72.90625 
L 49.515625 72.90625 
L 49.515625 64.59375 
L 19.828125 64.59375 
L 19.828125 46.734375 
Q 21.96875 47.46875 24.109375 47.828125 
Q 26.265625 48.1875 28.421875 48.1875 
Q 40.625 48.1875 47.75 41.5 
Q 54.890625 34.8125 54.890625 23.390625 
Q 54.890625 11.625 47.5625 5.09375 
Q 40.234375 -1.421875 26.90625 -1.421875 
Q 22.3125 -1.421875 17.546875 -0.640625 
Q 12.796875 0.140625 7.71875 1.703125 
L 7.71875 11.625 
Q 12.109375 9.234375 16.796875 8.0625 
Q 21.484375 6.890625 26.703125 6.890625 
Q 35.15625 6.890625 40.078125 11.328125 
Q 45.015625 15.765625 45.015625 23.390625 
Q 45.015625 31 40.078125 35.4375 
Q 35.15625 39.890625 26.703125 39.890625 
Q 22.75 39.890625 18.8125 39.015625 
Q 14.890625 38.140625 10.796875 36.28125 
z
" id="BitstreamVeraSans-Roman-35"/>
      </defs>
      <g transform="translate(267.878620618 337.234801136)scale(0.1 -0.1)">
       <use xlink:href="#BitstreamVeraSans-Roman-35"/>
       <use x="63.623046875" xlink:href="#BitstreamVeraSans-Roman-30"/>
       <use x="127.24609375" xlink:href="#BitstreamVeraSans-Roman-30"/>
      </g>
     </g>
    </g>
    <g id="xtick_7">
     <g id="line2d_11">
      <g>
       <use style="stroke:#000000;stroke-width:0.5;" x="324.0" xlink:href="#m12b6fa4042" y="325.636363636"/>
      </g>
     </g>
     <g id="line2d_12">
      <g>
       <use style="stroke:#000000;stroke-width:0.5;" x="324.0" xlink:href="#m2c3ecd3c34" y="72.0"/>
      </g>
     </g>
     <g id="text_7">
      <!-- 600 -->
      <defs>
       <path d="M 33.015625 40.375 
Q 26.375 40.375 22.484375 35.828125 
Q 18.609375 31.296875 18.609375 23.390625 
Q 18.609375 15.53125 22.484375 10.953125 
Q 26.375 6.390625 33.015625 6.390625 
Q 39.65625 6.390625 43.53125 10.953125 
Q 47.40625 15.53125 47.40625 23.390625 
Q 47.40625 31.296875 43.53125 35.828125 
Q 39.65625 40.375 33.015625 40.375 
M 52.59375 71.296875 
L 52.59375 62.3125 
Q 48.875 64.0625 45.09375 64.984375 
Q 41.3125 65.921875 37.59375 65.921875 
Q 27.828125 65.921875 22.671875 59.328125 
Q 17.53125 52.734375 16.796875 39.40625 
Q 19.671875 43.65625 24.015625 45.921875 
Q 28.375 48.1875 33.59375 48.1875 
Q 44.578125 48.1875 50.953125 41.515625 
Q 57.328125 34.859375 57.328125 23.390625 
Q 57.328125 12.15625 50.6875 5.359375 
Q 44.046875 -1.421875 33.015625 -1.421875 
Q 20.359375 -1.421875 13.671875 8.265625 
Q 6.984375 17.96875 6.984375 36.375 
Q 6.984375 53.65625 15.1875 63.9375 
Q 23.390625 74.21875 37.203125 74.21875 
Q 40.921875 74.21875 44.703125 73.484375 
Q 48.484375 72.75 52.59375 71.296875 
" id="BitstreamVeraSans-Roman-36"/>
      </defs>
      <g transform="translate(314.45625 337.234801136)scale(0.1 -0.1)">
       <use xlink:href="#BitstreamVeraSans-Roman-36"/>
       <use x="63.623046875" xlink:href="#BitstreamVeraSans-Roman-30"/>
       <use x="127.24609375" xlink:href="#BitstreamVeraSans-Roman-30"/>
      </g>
     </g>
    </g>
    <g id="text_8">
     <!-- context-length -->
     <defs>
      <path d="M 54.890625 33.015625 
L 54.890625 0 
L 45.90625 0 
L 45.90625 32.71875 
Q 45.90625 40.484375 42.875 44.328125 
Q 39.84375 48.1875 33.796875 48.1875 
Q 26.515625 48.1875 22.3125 43.546875 
Q 18.109375 38.921875 18.109375 30.90625 
L 18.109375 0 
L 9.078125 0 
L 9.078125 54.6875 
L 18.109375 54.6875 
L 18.109375 46.1875 
Q 21.34375 51.125 25.703125 53.5625 
Q 30.078125 56 35.796875 56 
Q 45.21875 56 50.046875 50.171875 
Q 54.890625 44.34375 54.890625 33.015625 
" id="BitstreamVeraSans-Roman-6e"/>
      <path d="M 30.609375 48.390625 
Q 23.390625 48.390625 19.1875 42.75 
Q 14.984375 37.109375 14.984375 27.296875 
Q 14.984375 17.484375 19.15625 11.84375 
Q 23.34375 6.203125 30.609375 6.203125 
Q 37.796875 6.203125 41.984375 11.859375 
Q 46.1875 17.53125 46.1875 27.296875 
Q 46.1875 37.015625 41.984375 42.703125 
Q 37.796875 48.390625 30.609375 48.390625 
M 30.609375 56 
Q 42.328125 56 49.015625 48.375 
Q 55.71875 40.765625 55.71875 27.296875 
Q 55.71875 13.875 49.015625 6.21875 
Q 42.328125 -1.421875 30.609375 -1.421875 
Q 18.84375 -1.421875 12.171875 6.21875 
Q 5.515625 13.875 5.515625 27.296875 
Q 5.515625 40.765625 12.171875 48.375 
Q 18.84375 56 30.609375 56 
" id="BitstreamVeraSans-Roman-6f"/>
      <path d="M 9.421875 75.984375 
L 18.40625 75.984375 
L 18.40625 0 
L 9.421875 0 
z
" id="BitstreamVeraSans-Roman-6c"/>
      <path d="M 4.890625 31.390625 
L 31.203125 31.390625 
L 31.203125 23.390625 
L 4.890625 23.390625 
z
" id="BitstreamVeraSans-Roman-2d"/>
      <path d="M 54.890625 54.6875 
L 35.109375 28.078125 
L 55.90625 0 
L 45.3125 0 
L 29.390625 21.484375 
L 13.484375 0 
L 2.875 0 
L 24.125 28.609375 
L 4.6875 54.6875 
L 15.28125 54.6875 
L 29.78125 35.203125 
L 44.28125 54.6875 
z
" id="BitstreamVeraSans-Roman-78"/>
      <path d="M 56.203125 29.59375 
L 56.203125 25.203125 
L 14.890625 25.203125 
Q 15.484375 15.921875 20.484375 11.0625 
Q 25.484375 6.203125 34.421875 6.203125 
Q 39.59375 6.203125 44.453125 7.46875 
Q 49.3125 8.734375 54.109375 11.28125 
L 54.109375 2.78125 
Q 49.265625 0.734375 44.1875 -0.34375 
Q 39.109375 -1.421875 33.890625 -1.421875 
Q 20.796875 -1.421875 13.15625 6.1875 
Q 5.515625 13.8125 5.515625 26.8125 
Q 5.515625 40.234375 12.765625 48.109375 
Q 20.015625 56 32.328125 56 
Q 43.359375 56 49.78125 48.890625 
Q 56.203125 41.796875 56.203125 29.59375 
M 47.21875 32.234375 
Q 47.125 39.59375 43.09375 43.984375 
Q 39.0625 48.390625 32.421875 48.390625 
Q 24.90625 48.390625 20.390625 44.140625 
Q 15.875 39.890625 15.1875 32.171875 
z
" id="BitstreamVeraSans-Roman-65"/>
      <path d="M 18.3125 70.21875 
L 18.3125 54.6875 
L 36.8125 54.6875 
L 36.8125 47.703125 
L 18.3125 47.703125 
L 18.3125 18.015625 
Q 18.3125 11.328125 20.140625 9.421875 
Q 21.96875 7.515625 27.59375 7.515625 
L 36.8125 7.515625 
L 36.8125 0 
L 27.59375 0 
Q 17.1875 0 13.234375 3.875 
Q 9.28125 7.765625 9.28125 18.015625 
L 9.28125 47.703125 
L 2.6875 47.703125 
L 2.6875 54.6875 
L 9.28125 54.6875 
L 9.28125 70.21875 
z
" id="BitstreamVeraSans-Roman-74"/>
      <path d="M 45.40625 27.984375 
Q 45.40625 37.75 41.375 43.109375 
Q 37.359375 48.484375 30.078125 48.484375 
Q 22.859375 48.484375 18.828125 43.109375 
Q 14.796875 37.75 14.796875 27.984375 
Q 14.796875 18.265625 18.828125 12.890625 
Q 22.859375 7.515625 30.078125 7.515625 
Q 37.359375 7.515625 41.375 12.890625 
Q 45.40625 18.265625 45.40625 27.984375 
M 54.390625 6.78125 
Q 54.390625 -7.171875 48.1875 -13.984375 
Q 42 -20.796875 29.203125 -20.796875 
Q 24.46875 -20.796875 20.265625 -20.09375 
Q 16.0625 -19.390625 12.109375 -17.921875 
L 12.109375 -9.1875 
Q 16.0625 -11.328125 19.921875 -12.34375 
Q 23.78125 -13.375 27.78125 -13.375 
Q 36.625 -13.375 41.015625 -8.765625 
Q 45.40625 -4.15625 45.40625 5.171875 
L 45.40625 9.625 
Q 42.625 4.78125 38.28125 2.390625 
Q 33.9375 0 27.875 0 
Q 17.828125 0 11.671875 7.65625 
Q 5.515625 15.328125 5.515625 27.984375 
Q 5.515625 40.671875 11.671875 48.328125 
Q 17.828125 56 27.875 56 
Q 33.9375 56 38.28125 53.609375 
Q 42.625 51.21875 45.40625 46.390625 
L 45.40625 54.6875 
L 54.390625 54.6875 
z
" id="BitstreamVeraSans-Roman-67"/>
      <path d="M 48.78125 52.59375 
L 48.78125 44.1875 
Q 44.96875 46.296875 41.140625 47.34375 
Q 37.3125 48.390625 33.40625 48.390625 
Q 24.65625 48.390625 19.8125 42.84375 
Q 14.984375 37.3125 14.984375 27.296875 
Q 14.984375 17.28125 19.8125 11.734375 
Q 24.65625 6.203125 33.40625 6.203125 
Q 37.3125 6.203125 41.140625 7.25 
Q 44.96875 8.296875 48.78125 10.40625 
L 48.78125 2.09375 
Q 45.015625 0.34375 40.984375 -0.53125 
Q 36.96875 -1.421875 32.421875 -1.421875 
Q 20.0625 -1.421875 12.78125 6.34375 
Q 5.515625 14.109375 5.515625 27.296875 
Q 5.515625 40.671875 12.859375 48.328125 
Q 20.21875 56 33.015625 56 
Q 37.15625 56 41.109375 55.140625 
Q 45.0625 54.296875 48.78125 52.59375 
" id="BitstreamVeraSans-Roman-63"/>
      <path d="M 54.890625 33.015625 
L 54.890625 0 
L 45.90625 0 
L 45.90625 32.71875 
Q 45.90625 40.484375 42.875 44.328125 
Q 39.84375 48.1875 33.796875 48.1875 
Q 26.515625 48.1875 22.3125 43.546875 
Q 18.109375 38.921875 18.109375 30.90625 
L 18.109375 0 
L 9.078125 0 
L 9.078125 75.984375 
L 18.109375 75.984375 
L 18.109375 46.1875 
Q 21.34375 51.125 25.703125 53.5625 
Q 30.078125 56 35.796875 56 
Q 45.21875 56 50.046875 50.171875 
Q 54.890625 44.34375 54.890625 33.015625 
" id="BitstreamVeraSans-Roman-68"/>
     </defs>
     <g transform="translate(147.82578125 351.912926136)scale(0.1 -0.1)">
      <use xlink:href="#BitstreamVeraSans-Roman-63"/>
      <use x="54.98046875" xlink:href="#BitstreamVeraSans-Roman-6f"/>
      <use x="116.162109375" xlink:href="#BitstreamVeraSans-Roman-6e"/>
      <use x="179.541015625" xlink:href="#BitstreamVeraSans-Roman-74"/>
      <use x="218.75" xlink:href="#BitstreamVeraSans-Roman-65"/>
      <use x="280.2578125" xlink:href="#BitstreamVeraSans-Roman-78"/>
      <use x="339.4375" xlink:href="#BitstreamVeraSans-Roman-74"/>
      <use x="378.646484375" xlink:href="#BitstreamVeraSans-Roman-2d"/>
      <use x="414.73046875" xlink:href="#BitstreamVeraSans-Roman-6c"/>
      <use x="442.513671875" xlink:href="#BitstreamVeraSans-Roman-65"/>
      <use x="504.037109375" xlink:href="#BitstreamVeraSans-Roman-6e"/>
      <use x="567.416015625" xlink:href="#BitstreamVeraSans-Roman-67"/>
      <use x="630.892578125" xlink:href="#BitstreamVeraSans-Roman-74"/>
      <use x="670.1015625" xlink:href="#BitstreamVeraSans-Roman-68"/>
     </g>
    </g>
   </g>
   <g id="matplotlib.axis_2">
    <g id="ytick_1">
     <g id="line2d_13">
      <defs>
       <path d="M 0 0 
L 4 0 
" id="m5a79f46c58" style="stroke:#000000;stroke-width:0.5;"/>
      </defs>
      <g>
       <use style="stroke:#000000;stroke-width:0.5;" x="45.0" xlink:href="#m5a79f46c58" y="316.242424242"/>
      </g>
     </g>
     <g id="line2d_14">
      <defs>
       <path d="M 0 0 
L -4 0 
" id="m51db2df129" style="stroke:#000000;stroke-width:0.5;"/>
      </defs>
      <g>
       <use style="stroke:#000000;stroke-width:0.5;" x="324.0" xlink:href="#m51db2df129" y="316.242424242"/>
      </g>
     </g>
     <g id="text_9">
      <!-- 0.0 -->
      <defs>
       <path d="M 10.6875 12.40625 
L 21 12.40625 
L 21 0 
L 10.6875 0 
z
" id="BitstreamVeraSans-Roman-2e"/>
      </defs>
      <g transform="translate(25.096875 319.001799242)scale(0.1 -0.1)">
       <use xlink:href="#BitstreamVeraSans-Roman-30"/>
       <use x="63.623046875" xlink:href="#BitstreamVeraSans-Roman-2e"/>
       <use x="95.41015625" xlink:href="#BitstreamVeraSans-Roman-30"/>
      </g>
     </g>
    </g>
    <g id="ytick_2">
     <g id="line2d_15">
      <g>
       <use style="stroke:#000000;stroke-width:0.5;" x="45.0" xlink:href="#m5a79f46c58" y="278.666666667"/>
      </g>
     </g>
     <g id="line2d_16">
      <g>
       <use style="stroke:#000000;stroke-width:0.5;" x="324.0" xlink:href="#m51db2df129" y="278.666666667"/>
      </g>
     </g>
     <g id="text_10">
      <!-- 0.2 -->
      <g transform="translate(25.096875 281.426041667)scale(0.1 -0.1)">
       <use xlink:href="#BitstreamVeraSans-Roman-30"/>
       <use x="63.623046875" xlink:href="#BitstreamVeraSans-Roman-2e"/>
       <use x="95.41015625" xlink:href="#BitstreamVeraSans-Roman-32"/>
      </g>
     </g>
    </g>
    <g id="ytick_3">
     <g id="line2d_17">
      <g>
       <use style="stroke:#000000;stroke-width:0.5;" x="45.0" xlink:href="#m5a79f46c58" y="241.090909091"/>
      </g>
     </g>
     <g id="line2d_18">
      <g>
       <use style="stroke:#000000;stroke-width:0.5;" x="324.0" xlink:href="#m51db2df129" y="241.090909091"/>
      </g>
     </g>
     <g id="text_11">
      <!-- 0.4 -->
      <g transform="translate(25.096875 243.850284091)scale(0.1 -0.1)">
       <use xlink:href="#BitstreamVeraSans-Roman-30"/>
       <use x="63.623046875" xlink:href="#BitstreamVeraSans-Roman-2e"/>
       <use x="95.41015625" xlink:href="#BitstreamVeraSans-Roman-34"/>
      </g>
     </g>
    </g>
    <g id="ytick_4">
     <g id="line2d_19">
      <g>
       <use style="stroke:#000000;stroke-width:0.5;" x="45.0" xlink:href="#m5a79f46c58" y="203.515151515"/>
      </g>
     </g>
     <g id="line2d_20">
      <g>
       <use style="stroke:#000000;stroke-width:0.5;" x="324.0" xlink:href="#m51db2df129" y="203.515151515"/>
      </g>
     </g>
     <g id="text_12">
      <!-- 0.6 -->
      <g transform="translate(25.096875 206.274526515)scale(0.1 -0.1)">
       <use xlink:href="#BitstreamVeraSans-Roman-30"/>
       <use x="63.623046875" xlink:href="#BitstreamVeraSans-Roman-2e"/>
       <use x="95.41015625" xlink:href="#BitstreamVeraSans-Roman-36"/>
      </g>
     </g>
    </g>
    <g id="ytick_5">
     <g id="line2d_21">
      <g>
       <use style="stroke:#000000;stroke-width:0.5;" x="45.0" xlink:href="#m5a79f46c58" y="165.939393939"/>
      </g>
     </g>
     <g id="line2d_22">
      <g>
       <use style="stroke:#000000;stroke-width:0.5;" x="324.0" xlink:href="#m51db2df129" y="165.939393939"/>
      </g>
     </g>
     <g id="text_13">
      <!-- 0.8 -->
      <defs>
       <path d="M 31.78125 34.625 
Q 24.75 34.625 20.71875 30.859375 
Q 16.703125 27.09375 16.703125 20.515625 
Q 16.703125 13.921875 20.71875 10.15625 
Q 24.75 6.390625 31.78125 6.390625 
Q 38.8125 6.390625 42.859375 10.171875 
Q 46.921875 13.96875 46.921875 20.515625 
Q 46.921875 27.09375 42.890625 30.859375 
Q 38.875 34.625 31.78125 34.625 
M 21.921875 38.8125 
Q 15.578125 40.375 12.03125 44.71875 
Q 8.5 49.078125 8.5 55.328125 
Q 8.5 64.0625 14.71875 69.140625 
Q 20.953125 74.21875 31.78125 74.21875 
Q 42.671875 74.21875 48.875 69.140625 
Q 55.078125 64.0625 55.078125 55.328125 
Q 55.078125 49.078125 51.53125 44.71875 
Q 48 40.375 41.703125 38.8125 
Q 48.828125 37.15625 52.796875 32.3125 
Q 56.78125 27.484375 56.78125 20.515625 
Q 56.78125 9.90625 50.3125 4.234375 
Q 43.84375 -1.421875 31.78125 -1.421875 
Q 19.734375 -1.421875 13.25 4.234375 
Q 6.78125 9.90625 6.78125 20.515625 
Q 6.78125 27.484375 10.78125 32.3125 
Q 14.796875 37.15625 21.921875 38.8125 
M 18.3125 54.390625 
Q 18.3125 48.734375 21.84375 45.5625 
Q 25.390625 42.390625 31.78125 42.390625 
Q 38.140625 42.390625 41.71875 45.5625 
Q 45.3125 48.734375 45.3125 54.390625 
Q 45.3125 60.0625 41.71875 63.234375 
Q 38.140625 66.40625 31.78125 66.40625 
Q 25.390625 66.40625 21.84375 63.234375 
Q 18.3125 60.0625 18.3125 54.390625 
" id="BitstreamVeraSans-Roman-38"/>
      </defs>
      <g transform="translate(25.096875 168.698768939)scale(0.1 -0.1)">
       <use xlink:href="#BitstreamVeraSans-Roman-30"/>
       <use x="63.623046875" xlink:href="#BitstreamVeraSans-Roman-2e"/>
       <use x="95.41015625" xlink:href="#BitstreamVeraSans-Roman-38"/>
      </g>
     </g>
    </g>
    <g id="ytick_6">
     <g id="line2d_23">
      <g>
       <use style="stroke:#000000;stroke-width:0.5;" x="45.0" xlink:href="#m5a79f46c58" y="128.363636364"/>
      </g>
     </g>
     <g id="line2d_24">
      <g>
       <use style="stroke:#000000;stroke-width:0.5;" x="324.0" xlink:href="#m51db2df129" y="128.363636364"/>
      </g>
     </g>
     <g id="text_14">
      <!-- 1.0 -->
      <g transform="translate(25.096875 131.123011364)scale(0.1 -0.1)">
       <use xlink:href="#BitstreamVeraSans-Roman-31"/>
       <use x="63.623046875" xlink:href="#BitstreamVeraSans-Roman-2e"/>
       <use x="95.41015625" xlink:href="#BitstreamVeraSans-Roman-30"/>
      </g>
     </g>
    </g>
    <g id="ytick_7">
     <g id="line2d_25">
      <g>
       <use style="stroke:#000000;stroke-width:0.5;" x="45.0" xlink:href="#m5a79f46c58" y="90.7878787879"/>
      </g>
     </g>
     <g id="line2d_26">
      <g>
       <use style="stroke:#000000;stroke-width:0.5;" x="324.0" xlink:href="#m51db2df129" y="90.7878787879"/>
      </g>
     </g>
     <g id="text_15">
      <!-- 1.2 -->
      <g transform="translate(25.096875 93.5472537879)scale(0.1 -0.1)">
       <use xlink:href="#BitstreamVeraSans-Roman-31"/>
       <use x="63.623046875" xlink:href="#BitstreamVeraSans-Roman-2e"/>
       <use x="95.41015625" xlink:href="#BitstreamVeraSans-Roman-32"/>
      </g>
     </g>
    </g>
    <g id="text_16">
     <!-- Probability -->
     <defs>
      <path d="M 41.109375 46.296875 
Q 39.59375 47.171875 37.8125 47.578125 
Q 36.03125 48 33.890625 48 
Q 26.265625 48 22.1875 43.046875 
Q 18.109375 38.09375 18.109375 28.8125 
L 18.109375 0 
L 9.078125 0 
L 9.078125 54.6875 
L 18.109375 54.6875 
L 18.109375 46.1875 
Q 20.953125 51.171875 25.484375 53.578125 
Q 30.03125 56 36.53125 56 
Q 37.453125 56 38.578125 55.875 
Q 39.703125 55.765625 41.0625 55.515625 
z
" id="BitstreamVeraSans-Roman-72"/>
      <path d="M 19.671875 64.796875 
L 19.671875 37.40625 
L 32.078125 37.40625 
Q 38.96875 37.40625 42.71875 40.96875 
Q 46.484375 44.53125 46.484375 51.125 
Q 46.484375 57.671875 42.71875 61.234375 
Q 38.96875 64.796875 32.078125 64.796875 
z
M 9.8125 72.90625 
L 32.078125 72.90625 
Q 44.34375 72.90625 50.609375 67.359375 
Q 56.890625 61.8125 56.890625 51.125 
Q 56.890625 40.328125 50.609375 34.8125 
Q 44.34375 29.296875 32.078125 29.296875 
L 19.671875 29.296875 
L 19.671875 0 
L 9.8125 0 
z
" id="BitstreamVeraSans-Roman-50"/>
      <path d="M 9.421875 54.6875 
L 18.40625 54.6875 
L 18.40625 0 
L 9.421875 0 
z
M 9.421875 75.984375 
L 18.40625 75.984375 
L 18.40625 64.59375 
L 9.421875 64.59375 
z
" id="BitstreamVeraSans-Roman-69"/>
      <path d="M 32.171875 -5.078125 
Q 28.375 -14.84375 24.75 -17.8125 
Q 21.140625 -20.796875 15.09375 -20.796875 
L 7.90625 -20.796875 
L 7.90625 -13.28125 
L 13.1875 -13.28125 
Q 16.890625 -13.28125 18.9375 -11.515625 
Q 21 -9.765625 23.484375 -3.21875 
L 25.09375 0.875 
L 2.984375 54.6875 
L 12.5 54.6875 
L 29.59375 11.921875 
L 46.6875 54.6875 
L 56.203125 54.6875 
z
" id="BitstreamVeraSans-Roman-79"/>
      <path d="M 34.28125 27.484375 
Q 23.390625 27.484375 19.1875 25 
Q 14.984375 22.515625 14.984375 16.5 
Q 14.984375 11.71875 18.140625 8.90625 
Q 21.296875 6.109375 26.703125 6.109375 
Q 34.1875 6.109375 38.703125 11.40625 
Q 43.21875 16.703125 43.21875 25.484375 
L 43.21875 27.484375 
z
M 52.203125 31.203125 
L 52.203125 0 
L 43.21875 0 
L 43.21875 8.296875 
Q 40.140625 3.328125 35.546875 0.953125 
Q 30.953125 -1.421875 24.3125 -1.421875 
Q 15.921875 -1.421875 10.953125 3.296875 
Q 6 8.015625 6 15.921875 
Q 6 25.140625 12.171875 29.828125 
Q 18.359375 34.515625 30.609375 34.515625 
L 43.21875 34.515625 
L 43.21875 35.40625 
Q 43.21875 41.609375 39.140625 45 
Q 35.0625 48.390625 27.6875 48.390625 
Q 23 48.390625 18.546875 47.265625 
Q 14.109375 46.140625 10.015625 43.890625 
L 10.015625 52.203125 
Q 14.9375 54.109375 19.578125 55.046875 
Q 24.21875 56 28.609375 56 
Q 40.484375 56 46.34375 49.84375 
Q 52.203125 43.703125 52.203125 31.203125 
" id="BitstreamVeraSans-Roman-61"/>
      <path d="M 48.6875 27.296875 
Q 48.6875 37.203125 44.609375 42.84375 
Q 40.53125 48.484375 33.40625 48.484375 
Q 26.265625 48.484375 22.1875 42.84375 
Q 18.109375 37.203125 18.109375 27.296875 
Q 18.109375 17.390625 22.1875 11.75 
Q 26.265625 6.109375 33.40625 6.109375 
Q 40.53125 6.109375 44.609375 11.75 
Q 48.6875 17.390625 48.6875 27.296875 
M 18.109375 46.390625 
Q 20.953125 51.265625 25.265625 53.625 
Q 29.59375 56 35.59375 56 
Q 45.5625 56 51.78125 48.09375 
Q 58.015625 40.1875 58.015625 27.296875 
Q 58.015625 14.40625 51.78125 6.484375 
Q 45.5625 -1.421875 35.59375 -1.421875 
Q 29.59375 -1.421875 25.265625 0.953125 
Q 20.953125 3.328125 18.109375 8.203125 
L 18.109375 0 
L 9.078125 0 
L 9.078125 75.984375 
L 18.109375 75.984375 
z
" id="BitstreamVeraSans-Roman-62"/>
     </defs>
     <g transform="translate(18.0171875 225.444744318)rotate(-90.0)scale(0.1 -0.1)">
      <use xlink:href="#BitstreamVeraSans-Roman-50"/>
      <use x="60.287109375" xlink:href="#BitstreamVeraSans-Roman-72"/>
      <use x="101.369140625" xlink:href="#BitstreamVeraSans-Roman-6f"/>
      <use x="162.55078125" xlink:href="#BitstreamVeraSans-Roman-62"/>
      <use x="226.02734375" xlink:href="#BitstreamVeraSans-Roman-61"/>
      <use x="287.306640625" xlink:href="#BitstreamVeraSans-Roman-62"/>
      <use x="350.783203125" xlink:href="#BitstreamVeraSans-Roman-69"/>
      <use x="378.56640625" xlink:href="#BitstreamVeraSans-Roman-6c"/>
      <use x="406.349609375" xlink:href="#BitstreamVeraSans-Roman-69"/>
      <use x="434.1328125" xlink:href="#BitstreamVeraSans-Roman-74"/>
      <use x="473.341796875" xlink:href="#BitstreamVeraSans-Roman-79"/>
     </g>
    </g>
   </g>
   <g id="legend_1">
    <g id="patch_5">
     <path d="M 249.55875 99.21375 
L 318 99.21375 
L 318 78 
L 249.55875 78 
z
" style="fill:#ffffff;stroke:#000000;stroke-linejoin:miter;"/>
    </g>
    <g id="PathCollection_2">
     <path d="M 257.95875 90.349264 
C 258.378073 90.349264 258.780278 90.182665 259.076784 89.886159 
C 259.37329 89.589653 259.539889 89.187448 259.539889 88.768125 
C 259.539889 88.348802 259.37329 87.946597 259.076784 87.650091 
C 258.780278 87.353585 258.378073 87.186986 257.95875 87.186986 
C 257.539427 87.186986 257.137222 87.353585 256.840716 87.650091 
C 256.54421 87.946597 256.377611 88.348802 256.377611 88.768125 
C 256.377611 89.187448 256.54421 89.589653 256.840716 89.886159 
C 257.137222 90.182665 257.539427 90.349264 257.95875 90.349264 
z
" style="fill:#008000;"/>
     <path d="M 266.35875 89.299264 
C 266.778073 89.299264 267.180278 89.132665 267.476784 88.836159 
C 267.77329 88.539653 267.939889 88.137448 267.939889 87.718125 
C 267.939889 87.298802 267.77329 86.896597 267.476784 86.600091 
C 267.180278 86.303585 266.778073 86.136986 266.35875 86.136986 
C 265.939427 86.136986 265.537222 86.303585 265.240716 86.600091 
C 264.94421 86.896597 264.777611 87.298802 264.777611 87.718125 
C 264.777611 88.137448 264.94421 88.539653 265.240716 88.836159 
C 265.537222 89.132665 265.939427 89.299264 266.35875 89.299264 
z
" style="fill:#008000;"/>
     <path d="M 274.75875 90.874264 
C 275.178073 90.874264 275.580278 90.707665 275.876784 90.411159 
C 276.17329 90.114653 276.339889 89.712448 276.339889 89.293125 
C 276.339889 88.873802 276.17329 88.471597 275.876784 88.175091 
C 275.580278 87.878585 275.178073 87.711986 274.75875 87.711986 
C 274.339427 87.711986 273.937222 87.878585 273.640716 88.175091 
C 273.34421 88.471597 273.177611 88.873802 273.177611 89.293125 
C 273.177611 89.712448 273.34421 90.114653 273.640716 90.411159 
C 273.937222 90.707665 274.339427 90.874264 274.75875 90.874264 
z
" style="fill:#008000;"/>
    </g>
    <g id="text_17">
     <!-- split -->
     <defs>
      <path d="M 44.28125 53.078125 
L 44.28125 44.578125 
Q 40.484375 46.53125 36.375 47.5 
Q 32.28125 48.484375 27.875 48.484375 
Q 21.1875 48.484375 17.84375 46.4375 
Q 14.5 44.390625 14.5 40.28125 
Q 14.5 37.15625 16.890625 35.375 
Q 19.28125 33.59375 26.515625 31.984375 
L 29.59375 31.296875 
Q 39.15625 29.25 43.1875 25.515625 
Q 47.21875 21.78125 47.21875 15.09375 
Q 47.21875 7.46875 41.1875 3.015625 
Q 35.15625 -1.421875 24.609375 -1.421875 
Q 20.21875 -1.421875 15.453125 -0.5625 
Q 10.6875 0.296875 5.421875 2 
L 5.421875 11.28125 
Q 10.40625 8.6875 15.234375 7.390625 
Q 20.0625 6.109375 24.8125 6.109375 
Q 31.15625 6.109375 34.5625 8.28125 
Q 37.984375 10.453125 37.984375 14.40625 
Q 37.984375 18.0625 35.515625 20.015625 
Q 33.0625 21.96875 24.703125 23.78125 
L 21.578125 24.515625 
Q 13.234375 26.265625 9.515625 29.90625 
Q 5.8125 33.546875 5.8125 39.890625 
Q 5.8125 47.609375 11.28125 51.796875 
Q 16.75 56 26.8125 56 
Q 31.78125 56 36.171875 55.265625 
Q 40.578125 54.546875 44.28125 53.078125 
" id="BitstreamVeraSans-Roman-73"/>
      <path d="M 18.109375 8.203125 
L 18.109375 -20.796875 
L 9.078125 -20.796875 
L 9.078125 54.6875 
L 18.109375 54.6875 
L 18.109375 46.390625 
Q 20.953125 51.265625 25.265625 53.625 
Q 29.59375 56 35.59375 56 
Q 45.5625 56 51.78125 48.09375 
Q 58.015625 40.1875 58.015625 27.296875 
Q 58.015625 14.40625 51.78125 6.484375 
Q 45.5625 -1.421875 35.59375 -1.421875 
Q 29.59375 -1.421875 25.265625 0.953125 
Q 20.953125 3.328125 18.109375 8.203125 
M 48.6875 27.296875 
Q 48.6875 37.203125 44.609375 42.84375 
Q 40.53125 48.484375 33.40625 48.484375 
Q 26.265625 48.484375 22.1875 42.84375 
Q 18.109375 37.203125 18.109375 27.296875 
Q 18.109375 17.390625 22.1875 11.75 
Q 26.265625 6.109375 33.40625 6.109375 
Q 40.53125 6.109375 44.609375 11.75 
Q 48.6875 17.390625 48.6875 27.296875 
" id="BitstreamVeraSans-Roman-70"/>
     </defs>
     <g transform="translate(287.95875 91.918125)scale(0.12 -0.12)">
      <use xlink:href="#BitstreamVeraSans-Roman-73"/>
      <use x="52.099609375" xlink:href="#BitstreamVeraSans-Roman-70"/>
      <use x="115.576171875" xlink:href="#BitstreamVeraSans-Roman-6c"/>
      <use x="143.359375" xlink:href="#BitstreamVeraSans-Roman-69"/>
      <use x="171.142578125" xlink:href="#BitstreamVeraSans-Roman-74"/>
     </g>
    </g>
   </g>
  </g>
  <g id="axes_2">
   <g id="patch_6">
    <path d="M 45 630 
L 324 630 
L 324 376.363636 
L 45 376.363636 
z
" style="fill:#ffffff;"/>
   </g>
   <g id="PathCollection_3">
    <defs>
     <path d="M 0 1.581139 
C 0.419323 1.581139 0.821528 1.41454 1.118034 1.118034 
C 1.41454 0.821528 1.581139 0.419323 1.581139 0 
C 1.581139 -0.419323 1.41454 -0.821528 1.118034 -1.118034 
C 0.821528 -1.41454 0.419323 -1.581139 0 -1.581139 
C -0.419323 -1.581139 -0.821528 -1.41454 -1.118034 -1.118034 
C -1.41454 -0.821528 -1.581139 -0.419323 -1.581139 0 
C -1.581139 0.419323 -1.41454 0.821528 -1.118034 1.118034 
C -0.821528 1.41454 -0.419323 1.581139 0 1.581139 
z
" id="m10433b148a"/>
    </defs>
    <g clip-path="url(#p6fc80c6bf1)">
     <use style="fill:#0000ff;" x="44.5342237062" xlink:href="#m10433b148a" y="433.716991519"/>
     <use style="fill:#0000ff;" x="49.1919866444" xlink:href="#m10433b148a" y="433.844754576"/>
     <use style="fill:#0000ff;" x="53.8497495826" xlink:href="#m10433b148a" y="436.113974513"/>
     <use style="fill:#0000ff;" x="58.5075125209" xlink:href="#m10433b148a" y="433.892269568"/>
     <use style="fill:#0000ff;" x="63.1652754591" xlink:href="#m10433b148a" y="433.796478171"/>
     <use style="fill:#0000ff;" x="67.8230383973" xlink:href="#m10433b148a" y="439.53624308"/>
     <use style="fill:#0000ff;" x="72.4808013356" xlink:href="#m10433b148a" y="607.031949596"/>
     <use style="fill:#0000ff;" x="77.1385642738" xlink:href="#m10433b148a" y="449.297157677"/>
     <use style="fill:#0000ff;" x="81.796327212" xlink:href="#m10433b148a" y="436.475382064"/>
     <use style="fill:#0000ff;" x="86.4540901503" xlink:href="#m10433b148a" y="433.712792236"/>
     <use style="fill:#0000ff;" x="91.1118530885" xlink:href="#m10433b148a" y="619.602204316"/>
     <use style="fill:#0000ff;" x="95.7696160267" xlink:href="#m10433b148a" y="452.524494607"/>
     <use style="fill:#0000ff;" x="100.427378965" xlink:href="#m10433b148a" y="450.950552656"/>
     <use style="fill:#0000ff;" x="105.085141903" xlink:href="#m10433b148a" y="603.367762694"/>
     <use style="fill:#0000ff;" x="109.742904841" xlink:href="#m10433b148a" y="436.966400646"/>
     <use style="fill:#0000ff;" x="114.40066778" xlink:href="#m10433b148a" y="569.642437066"/>
     <use style="fill:#0000ff;" x="119.058430718" xlink:href="#m10433b148a" y="502.308059097"/>
     <use style="fill:#0000ff;" x="123.716193656" xlink:href="#m10433b148a" y="618.796856774"/>
     <use style="fill:#0000ff;" x="128.373956594" xlink:href="#m10433b148a" y="620.304269096"/>
     <use style="fill:#0000ff;" x="133.031719533" xlink:href="#m10433b148a" y="617.004446099"/>
     <use style="fill:#0000ff;" x="137.689482471" xlink:href="#m10433b148a" y="604.805047105"/>
     <use style="fill:#0000ff;" x="142.347245409" xlink:href="#m10433b148a" y="620.606060606"/>
     <use style="fill:#0000ff;" x="147.005008347" xlink:href="#m10433b148a" y="506.246990224"/>
     <use style="fill:#0000ff;" x="151.662771285" xlink:href="#m10433b148a" y="471.329119615"/>
     <use style="fill:#0000ff;" x="156.320534224" xlink:href="#m10433b148a" y="620.606060606"/>
     <use style="fill:#0000ff;" x="160.978297162" xlink:href="#m10433b148a" y="435.939570045"/>
     <use style="fill:#0000ff;" x="165.6360601" xlink:href="#m10433b148a" y="552.632705054"/>
     <use style="fill:#0000ff;" x="170.293823038" xlink:href="#m10433b148a" y="613.327022953"/>
     <use style="fill:#0000ff;" x="174.951585977" xlink:href="#m10433b148a" y="457.339334712"/>
     <use style="fill:#0000ff;" x="179.609348915" xlink:href="#m10433b148a" y="566.762772896"/>
     <use style="fill:#0000ff;" x="184.267111853" xlink:href="#m10433b148a" y="617.659168267"/>
     <use style="fill:#0000ff;" x="188.924874791" xlink:href="#m10433b148a" y="443.525712406"/>
     <use style="fill:#0000ff;" x="193.58263773" xlink:href="#m10433b148a" y="446.524724082"/>
     <use style="fill:#0000ff;" x="198.240400668" xlink:href="#m10433b148a" y="620.53886508"/>
     <use style="fill:#0000ff;" x="202.898163606" xlink:href="#m10433b148a" y="460.815926687"/>
     <use style="fill:#0000ff;" x="207.555926544" xlink:href="#m10433b148a" y="557.88262727"/>
     <use style="fill:#0000ff;" x="212.213689482" xlink:href="#m10433b148a" y="619.637017561"/>
     <use style="fill:#0000ff;" x="216.871452421" xlink:href="#m10433b148a" y="515.395529062"/>
     <use style="fill:#0000ff;" x="221.529215359" xlink:href="#m10433b148a" y="451.662124499"/>
     <use style="fill:#0000ff;" x="226.186978297" xlink:href="#m10433b148a" y="609.824626334"/>
     <use style="fill:#0000ff;" x="230.844741235" xlink:href="#m10433b148a" y="620.120310798"/>
     <use style="fill:#0000ff;" x="235.502504174" xlink:href="#m10433b148a" y="620.598493549"/>
     <use style="fill:#0000ff;" x="240.160267112" xlink:href="#m10433b148a" y="620.60123973"/>
     <use style="fill:#0000ff;" x="244.81803005" xlink:href="#m10433b148a" y="439.996902365"/>
     <use style="fill:#0000ff;" x="249.475792988" xlink:href="#m10433b148a" y="617.500263346"/>
     <use style="fill:#0000ff;" x="254.133555927" xlink:href="#m10433b148a" y="610.309581391"/>
     <use style="fill:#0000ff;" x="258.791318865" xlink:href="#m10433b148a" y="509.365567801"/>
     <use style="fill:#0000ff;" x="263.449081803" xlink:href="#m10433b148a" y="577.954619774"/>
     <use style="fill:#0000ff;" x="268.106844741" xlink:href="#m10433b148a" y="617.382393351"/>
     <use style="fill:#0000ff;" x="272.764607679" xlink:href="#m10433b148a" y="605.603706435"/>
     <use style="fill:#0000ff;" x="277.422370618" xlink:href="#m10433b148a" y="549.146056917"/>
     <use style="fill:#0000ff;" x="282.080133556" xlink:href="#m10433b148a" y="606.12632401"/>
     <use style="fill:#0000ff;" x="286.737896494" xlink:href="#m10433b148a" y="605.670026422"/>
     <use style="fill:#0000ff;" x="291.395659432" xlink:href="#m10433b148a" y="618.999201019"/>
     <use style="fill:#0000ff;" x="296.053422371" xlink:href="#m10433b148a" y="586.334964647"/>
     <use style="fill:#0000ff;" x="300.711185309" xlink:href="#m10433b148a" y="564.679368585"/>
     <use style="fill:#0000ff;" x="305.368948247" xlink:href="#m10433b148a" y="534.453071042"/>
     <use style="fill:#0000ff;" x="310.026711185" xlink:href="#m10433b148a" y="546.82864426"/>
     <use style="fill:#0000ff;" x="314.684474124" xlink:href="#m10433b148a" y="611.3462617"/>
     <use style="fill:#0000ff;" x="319.342237062" xlink:href="#m10433b148a" y="514.549183939"/>
    </g>
   </g>
   <g id="patch_7">
    <path d="M 45 630 
L 324 630 
" style="fill:none;stroke:#000000;stroke-linecap:square;stroke-linejoin:miter;"/>
   </g>
   <g id="patch_8">
    <path d="M 45 630 
L 45 376.363636 
" style="fill:none;stroke:#000000;stroke-linecap:square;stroke-linejoin:miter;"/>
   </g>
   <g id="matplotlib.axis_3">
    <g id="xtick_8">
     <g id="text_18">
      <!-- 0 -->
      <g transform="translate(41.3529737062 641.5984375)scale(0.1 -0.1)">
       <use xlink:href="#BitstreamVeraSans-Roman-30"/>
      </g>
     </g>
    </g>
    <g id="xtick_9">
     <g id="line2d_27">
      <g>
       <use style="stroke:#000000;stroke-width:0.5;" x="91.1118530885" xlink:href="#m12b6fa4042" y="630.0"/>
      </g>
     </g>
     <g id="line2d_28">
      <g>
       <use style="stroke:#000000;stroke-width:0.5;" x="91.1118530885" xlink:href="#m2c3ecd3c34" y="376.363636364"/>
      </g>
     </g>
     <g id="text_19">
      <!-- 100 -->
      <g transform="translate(81.5681030885 641.5984375)scale(0.1 -0.1)">
       <use xlink:href="#BitstreamVeraSans-Roman-31"/>
       <use x="63.623046875" xlink:href="#BitstreamVeraSans-Roman-30"/>
       <use x="127.24609375" xlink:href="#BitstreamVeraSans-Roman-30"/>
      </g>
     </g>
    </g>
    <g id="xtick_10">
     <g id="line2d_29">
      <g>
       <use style="stroke:#000000;stroke-width:0.5;" x="137.689482471" xlink:href="#m12b6fa4042" y="630.0"/>
      </g>
     </g>
     <g id="line2d_30">
      <g>
       <use style="stroke:#000000;stroke-width:0.5;" x="137.689482471" xlink:href="#m2c3ecd3c34" y="376.363636364"/>
      </g>
     </g>
     <g id="text_20">
      <!-- 200 -->
      <g transform="translate(128.145732471 641.5984375)scale(0.1 -0.1)">
       <use xlink:href="#BitstreamVeraSans-Roman-32"/>
       <use x="63.623046875" xlink:href="#BitstreamVeraSans-Roman-30"/>
       <use x="127.24609375" xlink:href="#BitstreamVeraSans-Roman-30"/>
      </g>
     </g>
    </g>
    <g id="xtick_11">
     <g id="line2d_31">
      <g>
       <use style="stroke:#000000;stroke-width:0.5;" x="184.267111853" xlink:href="#m12b6fa4042" y="630.0"/>
      </g>
     </g>
     <g id="line2d_32">
      <g>
       <use style="stroke:#000000;stroke-width:0.5;" x="184.267111853" xlink:href="#m2c3ecd3c34" y="376.363636364"/>
      </g>
     </g>
     <g id="text_21">
      <!-- 300 -->
      <g transform="translate(174.723361853 641.5984375)scale(0.1 -0.1)">
       <use xlink:href="#BitstreamVeraSans-Roman-33"/>
       <use x="63.623046875" xlink:href="#BitstreamVeraSans-Roman-30"/>
       <use x="127.24609375" xlink:href="#BitstreamVeraSans-Roman-30"/>
      </g>
     </g>
    </g>
    <g id="xtick_12">
     <g id="line2d_33">
      <g>
       <use style="stroke:#000000;stroke-width:0.5;" x="230.844741235" xlink:href="#m12b6fa4042" y="630.0"/>
      </g>
     </g>
     <g id="line2d_34">
      <g>
       <use style="stroke:#000000;stroke-width:0.5;" x="230.844741235" xlink:href="#m2c3ecd3c34" y="376.363636364"/>
      </g>
     </g>
     <g id="text_22">
      <!-- 400 -->
      <g transform="translate(221.300991235 641.5984375)scale(0.1 -0.1)">
       <use xlink:href="#BitstreamVeraSans-Roman-34"/>
       <use x="63.623046875" xlink:href="#BitstreamVeraSans-Roman-30"/>
       <use x="127.24609375" xlink:href="#BitstreamVeraSans-Roman-30"/>
      </g>
     </g>
    </g>
    <g id="xtick_13">
     <g id="line2d_35">
      <g>
       <use style="stroke:#000000;stroke-width:0.5;" x="277.422370618" xlink:href="#m12b6fa4042" y="630.0"/>
      </g>
     </g>
     <g id="line2d_36">
      <g>
       <use style="stroke:#000000;stroke-width:0.5;" x="277.422370618" xlink:href="#m2c3ecd3c34" y="376.363636364"/>
      </g>
     </g>
     <g id="text_23">
      <!-- 500 -->
      <g transform="translate(267.878620618 641.5984375)scale(0.1 -0.1)">
       <use xlink:href="#BitstreamVeraSans-Roman-35"/>
       <use x="63.623046875" xlink:href="#BitstreamVeraSans-Roman-30"/>
       <use x="127.24609375" xlink:href="#BitstreamVeraSans-Roman-30"/>
      </g>
     </g>
    </g>
    <g id="xtick_14">
     <g id="line2d_37">
      <g>
       <use style="stroke:#000000;stroke-width:0.5;" x="324.0" xlink:href="#m12b6fa4042" y="630.0"/>
      </g>
     </g>
     <g id="line2d_38">
      <g>
       <use style="stroke:#000000;stroke-width:0.5;" x="324.0" xlink:href="#m2c3ecd3c34" y="376.363636364"/>
      </g>
     </g>
     <g id="text_24">
      <!-- 600 -->
      <g transform="translate(314.45625 641.5984375)scale(0.1 -0.1)">
       <use xlink:href="#BitstreamVeraSans-Roman-36"/>
       <use x="63.623046875" xlink:href="#BitstreamVeraSans-Roman-30"/>
       <use x="127.24609375" xlink:href="#BitstreamVeraSans-Roman-30"/>
      </g>
     </g>
    </g>
    <g id="text_25">
     <!-- context-length -->
     <g transform="translate(147.82578125 656.2765625)scale(0.1 -0.1)">
      <use xlink:href="#BitstreamVeraSans-Roman-63"/>
      <use x="54.98046875" xlink:href="#BitstreamVeraSans-Roman-6f"/>
      <use x="116.162109375" xlink:href="#BitstreamVeraSans-Roman-6e"/>
      <use x="179.541015625" xlink:href="#BitstreamVeraSans-Roman-74"/>
      <use x="218.75" xlink:href="#BitstreamVeraSans-Roman-65"/>
      <use x="280.2578125" xlink:href="#BitstreamVeraSans-Roman-78"/>
      <use x="339.4375" xlink:href="#BitstreamVeraSans-Roman-74"/>
      <use x="378.646484375" xlink:href="#BitstreamVeraSans-Roman-2d"/>
      <use x="414.73046875" xlink:href="#BitstreamVeraSans-Roman-6c"/>
      <use x="442.513671875" xlink:href="#BitstreamVeraSans-Roman-65"/>
      <use x="504.037109375" xlink:href="#BitstreamVeraSans-Roman-6e"/>
      <use x="567.416015625" xlink:href="#BitstreamVeraSans-Roman-67"/>
      <use x="630.892578125" xlink:href="#BitstreamVeraSans-Roman-74"/>
      <use x="670.1015625" xlink:href="#BitstreamVeraSans-Roman-68"/>
     </g>
    </g>
   </g>
   <g id="matplotlib.axis_4">
    <g id="ytick_8">
     <g id="line2d_39">
      <g>
       <use style="stroke:#000000;stroke-width:0.5;" x="45.0" xlink:href="#m5a79f46c58" y="620.606060606"/>
      </g>
     </g>
     <g id="line2d_40">
      <g>
       <use style="stroke:#000000;stroke-width:0.5;" x="324.0" xlink:href="#m51db2df129" y="620.606060606"/>
      </g>
     </g>
     <g id="text_26">
      <!-- 0.0 -->
      <g transform="translate(25.096875 623.365435606)scale(0.1 -0.1)">
       <use xlink:href="#BitstreamVeraSans-Roman-30"/>
       <use x="63.623046875" xlink:href="#BitstreamVeraSans-Roman-2e"/>
       <use x="95.41015625" xlink:href="#BitstreamVeraSans-Roman-30"/>
      </g>
     </g>
    </g>
    <g id="ytick_9">
     <g id="line2d_41">
      <g>
       <use style="stroke:#000000;stroke-width:0.5;" x="45.0" xlink:href="#m5a79f46c58" y="583.03030303"/>
      </g>
     </g>
     <g id="line2d_42">
      <g>
       <use style="stroke:#000000;stroke-width:0.5;" x="324.0" xlink:href="#m51db2df129" y="583.03030303"/>
      </g>
     </g>
     <g id="text_27">
      <!-- 0.2 -->
      <g transform="translate(25.096875 585.78967803)scale(0.1 -0.1)">
       <use xlink:href="#BitstreamVeraSans-Roman-30"/>
       <use x="63.623046875" xlink:href="#BitstreamVeraSans-Roman-2e"/>
       <use x="95.41015625" xlink:href="#BitstreamVeraSans-Roman-32"/>
      </g>
     </g>
    </g>
    <g id="ytick_10">
     <g id="line2d_43">
      <g>
       <use style="stroke:#000000;stroke-width:0.5;" x="45.0" xlink:href="#m5a79f46c58" y="545.454545455"/>
      </g>
     </g>
     <g id="line2d_44">
      <g>
       <use style="stroke:#000000;stroke-width:0.5;" x="324.0" xlink:href="#m51db2df129" y="545.454545455"/>
      </g>
     </g>
     <g id="text_28">
      <!-- 0.4 -->
      <g transform="translate(25.096875 548.213920455)scale(0.1 -0.1)">
       <use xlink:href="#BitstreamVeraSans-Roman-30"/>
       <use x="63.623046875" xlink:href="#BitstreamVeraSans-Roman-2e"/>
       <use x="95.41015625" xlink:href="#BitstreamVeraSans-Roman-34"/>
      </g>
     </g>
    </g>
    <g id="ytick_11">
     <g id="line2d_45">
      <g>
       <use style="stroke:#000000;stroke-width:0.5;" x="45.0" xlink:href="#m5a79f46c58" y="507.878787879"/>
      </g>
     </g>
     <g id="line2d_46">
      <g>
       <use style="stroke:#000000;stroke-width:0.5;" x="324.0" xlink:href="#m51db2df129" y="507.878787879"/>
      </g>
     </g>
     <g id="text_29">
      <!-- 0.6 -->
      <g transform="translate(25.096875 510.638162879)scale(0.1 -0.1)">
       <use xlink:href="#BitstreamVeraSans-Roman-30"/>
       <use x="63.623046875" xlink:href="#BitstreamVeraSans-Roman-2e"/>
       <use x="95.41015625" xlink:href="#BitstreamVeraSans-Roman-36"/>
      </g>
     </g>
    </g>
    <g id="ytick_12">
     <g id="line2d_47">
      <g>
       <use style="stroke:#000000;stroke-width:0.5;" x="45.0" xlink:href="#m5a79f46c58" y="470.303030303"/>
      </g>
     </g>
     <g id="line2d_48">
      <g>
       <use style="stroke:#000000;stroke-width:0.5;" x="324.0" xlink:href="#m51db2df129" y="470.303030303"/>
      </g>
     </g>
     <g id="text_30">
      <!-- 0.8 -->
      <g transform="translate(25.096875 473.062405303)scale(0.1 -0.1)">
       <use xlink:href="#BitstreamVeraSans-Roman-30"/>
       <use x="63.623046875" xlink:href="#BitstreamVeraSans-Roman-2e"/>
       <use x="95.41015625" xlink:href="#BitstreamVeraSans-Roman-38"/>
      </g>
     </g>
    </g>
    <g id="ytick_13">
     <g id="line2d_49">
      <g>
       <use style="stroke:#000000;stroke-width:0.5;" x="45.0" xlink:href="#m5a79f46c58" y="432.727272727"/>
      </g>
     </g>
     <g id="line2d_50">
      <g>
       <use style="stroke:#000000;stroke-width:0.5;" x="324.0" xlink:href="#m51db2df129" y="432.727272727"/>
      </g>
     </g>
     <g id="text_31">
      <!-- 1.0 -->
      <g transform="translate(25.096875 435.486647727)scale(0.1 -0.1)">
       <use xlink:href="#BitstreamVeraSans-Roman-31"/>
       <use x="63.623046875" xlink:href="#BitstreamVeraSans-Roman-2e"/>
       <use x="95.41015625" xlink:href="#BitstreamVeraSans-Roman-30"/>
      </g>
     </g>
    </g>
    <g id="ytick_14">
     <g id="line2d_51">
      <g>
       <use style="stroke:#000000;stroke-width:0.5;" x="45.0" xlink:href="#m5a79f46c58" y="395.151515152"/>
      </g>
     </g>
     <g id="line2d_52">
      <g>
       <use style="stroke:#000000;stroke-width:0.5;" x="324.0" xlink:href="#m51db2df129" y="395.151515152"/>
      </g>
     </g>
     <g id="text_32">
      <!-- 1.2 -->
      <g transform="translate(25.096875 397.910890152)scale(0.1 -0.1)">
       <use xlink:href="#BitstreamVeraSans-Roman-31"/>
       <use x="63.623046875" xlink:href="#BitstreamVeraSans-Roman-2e"/>
       <use x="95.41015625" xlink:href="#BitstreamVeraSans-Roman-32"/>
      </g>
     </g>
    </g>
    <g id="text_33">
     <!-- Probability -->
     <g transform="translate(18.0171875 529.808380682)rotate(-90.0)scale(0.1 -0.1)">
      <use xlink:href="#BitstreamVeraSans-Roman-50"/>
      <use x="60.287109375" xlink:href="#BitstreamVeraSans-Roman-72"/>
      <use x="101.369140625" xlink:href="#BitstreamVeraSans-Roman-6f"/>
      <use x="162.55078125" xlink:href="#BitstreamVeraSans-Roman-62"/>
      <use x="226.02734375" xlink:href="#BitstreamVeraSans-Roman-61"/>
      <use x="287.306640625" xlink:href="#BitstreamVeraSans-Roman-62"/>
      <use x="350.783203125" xlink:href="#BitstreamVeraSans-Roman-69"/>
      <use x="378.56640625" xlink:href="#BitstreamVeraSans-Roman-6c"/>
      <use x="406.349609375" xlink:href="#BitstreamVeraSans-Roman-69"/>
      <use x="434.1328125" xlink:href="#BitstreamVeraSans-Roman-74"/>
      <use x="473.341796875" xlink:href="#BitstreamVeraSans-Roman-79"/>
     </g>
    </g>
   </g>
   <g id="legend_2">
    <g id="patch_9">
     <path d="M 233.004375 403.577386 
L 318 403.577386 
L 318 382.363636 
L 233.004375 382.363636 
z
" style="fill:#ffffff;stroke:#000000;stroke-linejoin:miter;"/>
    </g>
    <g id="PathCollection_4">
     <path d="M 241.404375 394.7129 
C 241.823698 394.7129 242.225903 394.546301 242.522409 394.249795 
C 242.818915 393.953289 242.985514 393.551084 242.985514 393.131761 
C 242.985514 392.712438 242.818915 392.310233 242.522409 392.013727 
C 242.225903 391.717221 241.823698 391.550623 241.404375 391.550623 
C 240.985052 391.550623 240.582847 391.717221 240.286341 392.013727 
C 239.989835 392.310233 239.823236 392.712438 239.823236 393.131761 
C 239.823236 393.551084 239.989835 393.953289 240.286341 394.249795 
C 240.582847 394.546301 240.985052 394.7129 241.404375 394.7129 
z
" style="fill:#0000ff;"/>
     <path d="M 249.804375 393.6629 
C 250.223698 393.6629 250.625903 393.496301 250.922409 393.199795 
C 251.218915 392.903289 251.385514 392.501084 251.385514 392.081761 
C 251.385514 391.662438 251.218915 391.260233 250.922409 390.963727 
C 250.625903 390.667221 250.223698 390.500623 249.804375 390.500623 
C 249.385052 390.500623 248.982847 390.667221 248.686341 390.963727 
C 248.389835 391.260233 248.223236 391.662438 248.223236 392.081761 
C 248.223236 392.501084 248.389835 392.903289 248.686341 393.199795 
C 248.982847 393.496301 249.385052 393.6629 249.804375 393.6629 
z
" style="fill:#0000ff;"/>
     <path d="M 258.204375 395.2379 
C 258.623698 395.2379 259.025903 395.071301 259.322409 394.774795 
C 259.618915 394.478289 259.785514 394.076084 259.785514 393.656761 
C 259.785514 393.237438 259.618915 392.835233 259.322409 392.538727 
C 259.025903 392.242221 258.623698 392.075623 258.204375 392.075623 
C 257.785052 392.075623 257.382847 392.242221 257.086341 392.538727 
C 256.789835 392.835233 256.623236 393.237438 256.623236 393.656761 
C 256.623236 394.076084 256.789835 394.478289 257.086341 394.774795 
C 257.382847 395.071301 257.785052 395.2379 258.204375 395.2379 
z
" style="fill:#0000ff;"/>
    </g>
    <g id="text_34">
     <!-- extend -->
     <defs>
      <path d="M 45.40625 46.390625 
L 45.40625 75.984375 
L 54.390625 75.984375 
L 54.390625 0 
L 45.40625 0 
L 45.40625 8.203125 
Q 42.578125 3.328125 38.25 0.953125 
Q 33.9375 -1.421875 27.875 -1.421875 
Q 17.96875 -1.421875 11.734375 6.484375 
Q 5.515625 14.40625 5.515625 27.296875 
Q 5.515625 40.1875 11.734375 48.09375 
Q 17.96875 56 27.875 56 
Q 33.9375 56 38.25 53.625 
Q 42.578125 51.265625 45.40625 46.390625 
M 14.796875 27.296875 
Q 14.796875 17.390625 18.875 11.75 
Q 22.953125 6.109375 30.078125 6.109375 
Q 37.203125 6.109375 41.296875 11.75 
Q 45.40625 17.390625 45.40625 27.296875 
Q 45.40625 37.203125 41.296875 42.84375 
Q 37.203125 48.484375 30.078125 48.484375 
Q 22.953125 48.484375 18.875 42.84375 
Q 14.796875 37.203125 14.796875 27.296875 
" id="BitstreamVeraSans-Roman-64"/>
     </defs>
     <g transform="translate(271.404375 396.281761364)scale(0.12 -0.12)">
      <use xlink:href="#BitstreamVeraSans-Roman-65"/>
      <use x="61.5078125" xlink:href="#BitstreamVeraSans-Roman-78"/>
      <use x="120.6875" xlink:href="#BitstreamVeraSans-Roman-74"/>
      <use x="159.896484375" xlink:href="#BitstreamVeraSans-Roman-65"/>
      <use x="221.419921875" xlink:href="#BitstreamVeraSans-Roman-6e"/>
      <use x="284.798828125" xlink:href="#BitstreamVeraSans-Roman-64"/>
     </g>
    </g>
   </g>
  </g>
  <g id="text_35">
   <!-- tRNA-both -->
   <defs>
    <path d="M 44.390625 34.1875 
Q 47.5625 33.109375 50.5625 29.59375 
Q 53.5625 26.078125 56.59375 19.921875 
L 66.609375 0 
L 56 0 
L 46.6875 18.703125 
Q 43.0625 26.03125 39.671875 28.421875 
Q 36.28125 30.8125 30.421875 30.8125 
L 19.671875 30.8125 
L 19.671875 0 
L 9.8125 0 
L 9.8125 72.90625 
L 32.078125 72.90625 
Q 44.578125 72.90625 50.734375 67.671875 
Q 56.890625 62.453125 56.890625 51.90625 
Q 56.890625 45.015625 53.6875 40.46875 
Q 50.484375 35.9375 44.390625 34.1875 
M 19.671875 64.796875 
L 19.671875 38.921875 
L 32.078125 38.921875 
Q 39.203125 38.921875 42.84375 42.21875 
Q 46.484375 45.515625 46.484375 51.90625 
Q 46.484375 58.296875 42.84375 61.546875 
Q 39.203125 64.796875 32.078125 64.796875 
z
" id="BitstreamVeraSans-Roman-52"/>
    <path d="M 9.8125 72.90625 
L 23.09375 72.90625 
L 55.421875 11.921875 
L 55.421875 72.90625 
L 64.984375 72.90625 
L 64.984375 0 
L 51.703125 0 
L 19.390625 60.984375 
L 19.390625 0 
L 9.8125 0 
z
" id="BitstreamVeraSans-Roman-4e"/>
    <path d="M 34.1875 63.1875 
L 20.796875 26.90625 
L 47.609375 26.90625 
z
M 28.609375 72.90625 
L 39.796875 72.90625 
L 67.578125 0 
L 57.328125 0 
L 50.6875 18.703125 
L 17.828125 18.703125 
L 11.1875 0 
L 0.78125 0 
z
" id="BitstreamVeraSans-Roman-41"/>
   </defs>
   <g transform="translate(154.23984375 36.3984375)scale(0.1 -0.1)">
    <use xlink:href="#BitstreamVeraSans-Roman-74"/>
    <use x="39.208984375" xlink:href="#BitstreamVeraSans-Roman-52"/>
    <use x="108.69140625" xlink:href="#BitstreamVeraSans-Roman-4e"/>
    <use x="183.49609375" xlink:href="#BitstreamVeraSans-Roman-41"/>
    <use x="251.873046875" xlink:href="#BitstreamVeraSans-Roman-2d"/>
    <use x="287.95703125" xlink:href="#BitstreamVeraSans-Roman-62"/>
    <use x="351.43359375" xlink:href="#BitstreamVeraSans-Roman-6f"/>
    <use x="412.615234375" xlink:href="#BitstreamVeraSans-Roman-74"/>
    <use x="451.82421875" xlink:href="#BitstreamVeraSans-Roman-68"/>
   </g>
  </g>
 </g>
 <defs>
  <clipPath id="p6fc80c6bf1">
   <rect height="253.636363636" width="279.0" x="45.0" y="376.363636364"/>
  </clipPath>
  <clipPath id="p744d31b9ba">
   <rect height="253.636363636" width="279.0" x="45.0" y="72.0"/>
  </clipPath>
 </defs>
</svg>
