<?xml version="1.0" encoding="utf-8" standalone="no"?>
<!DOCTYPE svg PUBLIC "-//W3C//DTD SVG 1.1//EN"
  "http://www.w3.org/Graphics/SVG/1.1/DTD/svg11.dtd">
<!-- Created with matplotlib (http://matplotlib.org/) -->
<svg height="288pt" version="1.1" viewBox="0 0 432 288" width="432pt" xmlns="http://www.w3.org/2000/svg" xmlns:xlink="http://www.w3.org/1999/xlink">
 <defs>
  <style type="text/css">
*{stroke-linecap:butt;stroke-linejoin:round;stroke-miterlimit:100000;}
  </style>
 </defs>
 <g id="figure_1">
  <g id="patch_1">
   <path d="M 0 288 
L 432 288 
L 432 0 
L 0 0 
z
" style="fill:#ffffff;"/>
  </g>
  <g id="axes_1">
   <g id="patch_2">
    <path d="M 54 252 
L 388.8 252 
L 388.8 28.8 
L 54 28.8 
z
" style="fill:#ffffff;"/>
   </g>
   <g id="PathCollection_1">
    <defs>
     <path d="M 0 1.581139 
C 0.419323 1.581139 0.821528 1.41454 1.118034 1.118034 
C 1.41454 0.821528 1.581139 0.419323 1.581139 0 
C 1.581139 -0.419323 1.41454 -0.821528 1.118034 -1.118034 
C 0.821528 -1.41454 0.419323 -1.581139 0 -1.581139 
C -0.419323 -1.581139 -0.821528 -1.41454 -1.118034 -1.118034 
C -1.41454 -0.821528 -1.581139 -0.419323 -1.581139 0 
C -1.581139 0.419323 -1.41454 0.821528 -1.118034 1.118034 
C -0.821528 1.41454 -0.419323 1.581139 0 1.581139 
z
" id="m63b6ff0e6d"/>
    </defs>
    <g clip-path="url(#pb7d9040535)">
     <use style="fill:#0000ff;" x="53.4410684474" xlink:href="#m63b6ff0e6d" y="78.7631828284"/>
     <use style="fill:#0000ff;" x="54.5589315526" xlink:href="#m63b6ff0e6d" y="243.733333333"/>
     <use style="fill:#0000ff;" x="55.6767946578" xlink:href="#m63b6ff0e6d" y="78.7649073373"/>
     <use style="fill:#0000ff;" x="56.7946577629" xlink:href="#m63b6ff0e6d" y="78.7697851947"/>
     <use style="fill:#0000ff;" x="57.9125208681" xlink:href="#m63b6ff0e6d" y="78.7630054555"/>
     <use style="fill:#0000ff;" x="59.0303839733" xlink:href="#m63b6ff0e6d" y="79.8772687685"/>
     <use style="fill:#0000ff;" x="60.1482470785" xlink:href="#m63b6ff0e6d" y="78.7590731693"/>
     <use style="fill:#0000ff;" x="61.2661101836" xlink:href="#m63b6ff0e6d" y="78.8956682808"/>
     <use style="fill:#0000ff;" x="62.3839732888" xlink:href="#m63b6ff0e6d" y="79.4842363502"/>
     <use style="fill:#0000ff;" x="63.501836394" xlink:href="#m63b6ff0e6d" y="88.3090815196"/>
     <use style="fill:#0000ff;" x="64.6196994992" xlink:href="#m63b6ff0e6d" y="79.0073903097"/>
     <use style="fill:#0000ff;" x="65.7375626043" xlink:href="#m63b6ff0e6d" y="78.8298590381"/>
     <use style="fill:#0000ff;" x="66.8554257095" xlink:href="#m63b6ff0e6d" y="78.7940277496"/>
     <use style="fill:#0000ff;" x="67.9732888147" xlink:href="#m63b6ff0e6d" y="89.824044415"/>
     <use style="fill:#0000ff;" x="69.0911519199" xlink:href="#m63b6ff0e6d" y="78.9464000461"/>
     <use style="fill:#0000ff;" x="70.209015025" xlink:href="#m63b6ff0e6d" y="80.5072755764"/>
     <use style="fill:#0000ff;" x="71.3268781302" xlink:href="#m63b6ff0e6d" y="78.7686618538"/>
     <use style="fill:#0000ff;" x="72.4447412354" xlink:href="#m63b6ff0e6d" y="81.5765529081"/>
     <use style="fill:#0000ff;" x="73.5626043406" xlink:href="#m63b6ff0e6d" y="78.7599405554"/>
     <use style="fill:#0000ff;" x="74.6804674457" xlink:href="#m63b6ff0e6d" y="84.7185947193"/>
     <use style="fill:#0000ff;" x="75.7983305509" xlink:href="#m63b6ff0e6d" y="79.7609150752"/>
     <use style="fill:#0000ff;" x="76.9161936561" xlink:href="#m63b6ff0e6d" y="78.7951807285"/>
     <use style="fill:#0000ff;" x="78.0340567613" xlink:href="#m63b6ff0e6d" y="78.9577034848"/>
     <use style="fill:#0000ff;" x="79.1519198664" xlink:href="#m63b6ff0e6d" y="78.8629411346"/>
     <use style="fill:#0000ff;" x="80.2697829716" xlink:href="#m63b6ff0e6d" y="78.7584426119"/>
     <use style="fill:#0000ff;" x="81.3876460768" xlink:href="#m63b6ff0e6d" y="90.5818853156"/>
     <use style="fill:#0000ff;" x="82.505509182" xlink:href="#m63b6ff0e6d" y="78.7758064481"/>
     <use style="fill:#0000ff;" x="83.6233722871" xlink:href="#m63b6ff0e6d" y="96.985840843"/>
     <use style="fill:#0000ff;" x="84.7412353923" xlink:href="#m63b6ff0e6d" y="156.235530562"/>
     <use style="fill:#0000ff;" x="85.8590984975" xlink:href="#m63b6ff0e6d" y="154.176217368"/>
     <use style="fill:#0000ff;" x="86.9769616027" xlink:href="#m63b6ff0e6d" y="226.447292857"/>
     <use style="fill:#0000ff;" x="88.0948247078" xlink:href="#m63b6ff0e6d" y="78.7715393957"/>
     <use style="fill:#0000ff;" x="89.212687813" xlink:href="#m63b6ff0e6d" y="78.7581076794"/>
     <use style="fill:#0000ff;" x="90.3305509182" xlink:href="#m63b6ff0e6d" y="199.744634191"/>
     <use style="fill:#0000ff;" x="91.4484140234" xlink:href="#m63b6ff0e6d" y="80.7550113847"/>
     <use style="fill:#0000ff;" x="92.5662771285" xlink:href="#m63b6ff0e6d" y="81.886165596"/>
     <use style="fill:#0000ff;" x="93.6841402337" xlink:href="#m63b6ff0e6d" y="82.2946995655"/>
     <use style="fill:#0000ff;" x="94.8020033389" xlink:href="#m63b6ff0e6d" y="78.7582751457"/>
     <use style="fill:#0000ff;" x="95.9198664441" xlink:href="#m63b6ff0e6d" y="232.250804281"/>
     <use style="fill:#0000ff;" x="97.0377295492" xlink:href="#m63b6ff0e6d" y="82.9377043849"/>
     <use style="fill:#0000ff;" x="98.1555926544" xlink:href="#m63b6ff0e6d" y="78.94178824"/>
     <use style="fill:#0000ff;" x="99.2734557596" xlink:href="#m63b6ff0e6d" y="216.932809557"/>
     <use style="fill:#0000ff;" x="100.391318865" xlink:href="#m63b6ff0e6d" y="78.8626555085"/>
     <use style="fill:#0000ff;" x="101.50918197" xlink:href="#m63b6ff0e6d" y="79.7909125423"/>
     <use style="fill:#0000ff;" x="102.627045075" xlink:href="#m63b6ff0e6d" y="108.045726925"/>
     <use style="fill:#0000ff;" x="103.74490818" xlink:href="#m63b6ff0e6d" y="80.2985053312"/>
     <use style="fill:#0000ff;" x="104.862771285" xlink:href="#m63b6ff0e6d" y="79.2244881269"/>
     <use style="fill:#0000ff;" x="105.980634391" xlink:href="#m63b6ff0e6d" y="243.436080364"/>
     <use style="fill:#0000ff;" x="107.098497496" xlink:href="#m63b6ff0e6d" y="243.464332373"/>
     <use style="fill:#0000ff;" x="108.216360601" xlink:href="#m63b6ff0e6d" y="78.7674694766"/>
     <use style="fill:#0000ff;" x="109.334223706" xlink:href="#m63b6ff0e6d" y="191.886913177"/>
     <use style="fill:#0000ff;" x="110.452086811" xlink:href="#m63b6ff0e6d" y="140.046356694"/>
     <use style="fill:#0000ff;" x="111.569949917" xlink:href="#m63b6ff0e6d" y="88.3092588138"/>
     <use style="fill:#0000ff;" x="112.687813022" xlink:href="#m63b6ff0e6d" y="79.1833546946"/>
     <use style="fill:#0000ff;" x="113.805676127" xlink:href="#m63b6ff0e6d" y="78.8961807052"/>
     <use style="fill:#0000ff;" x="114.923539232" xlink:href="#m63b6ff0e6d" y="236.045237038"/>
     <use style="fill:#0000ff;" x="116.041402337" xlink:href="#m63b6ff0e6d" y="86.8789275042"/>
     <use style="fill:#0000ff;" x="117.159265442" xlink:href="#m63b6ff0e6d" y="82.6617154923"/>
     <use style="fill:#0000ff;" x="118.277128548" xlink:href="#m63b6ff0e6d" y="242.212627244"/>
     <use style="fill:#0000ff;" x="119.394991653" xlink:href="#m63b6ff0e6d" y="243.587515086"/>
     <use style="fill:#0000ff;" x="120.512854758" xlink:href="#m63b6ff0e6d" y="82.1733791472"/>
     <use style="fill:#0000ff;" x="121.630717863" xlink:href="#m63b6ff0e6d" y="210.361216903"/>
     <use style="fill:#0000ff;" x="122.748580968" xlink:href="#m63b6ff0e6d" y="106.953744686"/>
     <use style="fill:#0000ff;" x="123.866444073" xlink:href="#m63b6ff0e6d" y="96.7305466979"/>
     <use style="fill:#0000ff;" x="124.984307179" xlink:href="#m63b6ff0e6d" y="235.323165802"/>
     <use style="fill:#0000ff;" x="126.102170284" xlink:href="#m63b6ff0e6d" y="243.222216438"/>
     <use style="fill:#0000ff;" x="127.220033389" xlink:href="#m63b6ff0e6d" y="81.0974596993"/>
     <use style="fill:#0000ff;" x="128.337896494" xlink:href="#m63b6ff0e6d" y="79.9918683555"/>
     <use style="fill:#0000ff;" x="129.455759599" xlink:href="#m63b6ff0e6d" y="208.039213688"/>
     <use style="fill:#0000ff;" x="130.573622705" xlink:href="#m63b6ff0e6d" y="129.950096147"/>
     <use style="fill:#0000ff;" x="131.69148581" xlink:href="#m63b6ff0e6d" y="79.0593242555"/>
     <use style="fill:#0000ff;" x="132.809348915" xlink:href="#m63b6ff0e6d" y="238.597491032"/>
     <use style="fill:#0000ff;" x="133.92721202" xlink:href="#m63b6ff0e6d" y="90.420249743"/>
     <use style="fill:#0000ff;" x="135.045075125" xlink:href="#m63b6ff0e6d" y="243.656014998"/>
     <use style="fill:#0000ff;" x="136.16293823" xlink:href="#m63b6ff0e6d" y="105.283019479"/>
     <use style="fill:#0000ff;" x="137.280801336" xlink:href="#m63b6ff0e6d" y="242.789590932"/>
     <use style="fill:#0000ff;" x="138.398664441" xlink:href="#m63b6ff0e6d" y="215.449728927"/>
     <use style="fill:#0000ff;" x="139.516527546" xlink:href="#m63b6ff0e6d" y="128.612457618"/>
     <use style="fill:#0000ff;" x="140.634390651" xlink:href="#m63b6ff0e6d" y="78.792953702"/>
     <use style="fill:#0000ff;" x="141.752253756" xlink:href="#m63b6ff0e6d" y="90.525201668"/>
     <use style="fill:#0000ff;" x="142.870116861" xlink:href="#m63b6ff0e6d" y="243.59668077"/>
     <use style="fill:#0000ff;" x="143.987979967" xlink:href="#m63b6ff0e6d" y="95.1691783202"/>
     <use style="fill:#0000ff;" x="145.105843072" xlink:href="#m63b6ff0e6d" y="130.798471814"/>
     <use style="fill:#0000ff;" x="146.223706177" xlink:href="#m63b6ff0e6d" y="90.8497246018"/>
     <use style="fill:#0000ff;" x="147.341569282" xlink:href="#m63b6ff0e6d" y="78.7633304739"/>
     <use style="fill:#0000ff;" x="148.459432387" xlink:href="#m63b6ff0e6d" y="83.1283424275"/>
     <use style="fill:#0000ff;" x="149.577295492" xlink:href="#m63b6ff0e6d" y="158.662805848"/>
     <use style="fill:#0000ff;" x="150.695158598" xlink:href="#m63b6ff0e6d" y="172.494859855"/>
     <use style="fill:#0000ff;" x="151.813021703" xlink:href="#m63b6ff0e6d" y="243.733333333"/>
     <use style="fill:#0000ff;" x="152.930884808" xlink:href="#m63b6ff0e6d" y="84.3440592637"/>
     <use style="fill:#0000ff;" x="154.048747913" xlink:href="#m63b6ff0e6d" y="93.849356915"/>
     <use style="fill:#0000ff;" x="155.166611018" xlink:href="#m63b6ff0e6d" y="119.388519743"/>
     <use style="fill:#0000ff;" x="156.284474124" xlink:href="#m63b6ff0e6d" y="79.5687793832"/>
     <use style="fill:#0000ff;" x="157.402337229" xlink:href="#m63b6ff0e6d" y="233.483529767"/>
     <use style="fill:#0000ff;" x="158.520200334" xlink:href="#m63b6ff0e6d" y="83.2941169888"/>
     <use style="fill:#0000ff;" x="159.638063439" xlink:href="#m63b6ff0e6d" y="242.018701905"/>
     <use style="fill:#0000ff;" x="160.755926544" xlink:href="#m63b6ff0e6d" y="79.3415414446"/>
     <use style="fill:#0000ff;" x="161.873789649" xlink:href="#m63b6ff0e6d" y="243.423183305"/>
     <use style="fill:#0000ff;" x="162.991652755" xlink:href="#m63b6ff0e6d" y="243.733333333"/>
     <use style="fill:#0000ff;" x="164.10951586" xlink:href="#m63b6ff0e6d" y="135.100364854"/>
     <use style="fill:#0000ff;" x="165.227378965" xlink:href="#m63b6ff0e6d" y="90.3039354329"/>
     <use style="fill:#0000ff;" x="166.34524207" xlink:href="#m63b6ff0e6d" y="80.313572835"/>
     <use style="fill:#0000ff;" x="167.463105175" xlink:href="#m63b6ff0e6d" y="102.083150462"/>
     <use style="fill:#0000ff;" x="168.58096828" xlink:href="#m63b6ff0e6d" y="243.427813716"/>
     <use style="fill:#0000ff;" x="169.698831386" xlink:href="#m63b6ff0e6d" y="238.975644459"/>
     <use style="fill:#0000ff;" x="170.816694491" xlink:href="#m63b6ff0e6d" y="86.792650445"/>
     <use style="fill:#0000ff;" x="171.934557596" xlink:href="#m63b6ff0e6d" y="83.7993049186"/>
     <use style="fill:#0000ff;" x="173.052420701" xlink:href="#m63b6ff0e6d" y="243.147804552"/>
     <use style="fill:#0000ff;" x="174.170283806" xlink:href="#m63b6ff0e6d" y="104.033924733"/>
     <use style="fill:#0000ff;" x="175.288146912" xlink:href="#m63b6ff0e6d" y="81.1962427325"/>
     <use style="fill:#0000ff;" x="176.406010017" xlink:href="#m63b6ff0e6d" y="97.3525219597"/>
     <use style="fill:#0000ff;" x="177.523873122" xlink:href="#m63b6ff0e6d" y="127.700756112"/>
     <use style="fill:#0000ff;" x="178.641736227" xlink:href="#m63b6ff0e6d" y="104.853337574"/>
     <use style="fill:#0000ff;" x="179.759599332" xlink:href="#m63b6ff0e6d" y="84.9327851325"/>
     <use style="fill:#0000ff;" x="180.877462437" xlink:href="#m63b6ff0e6d" y="243.397223165"/>
     <use style="fill:#0000ff;" x="181.995325543" xlink:href="#m63b6ff0e6d" y="78.7605417128"/>
     <use style="fill:#0000ff;" x="183.113188648" xlink:href="#m63b6ff0e6d" y="79.5823395034"/>
     <use style="fill:#0000ff;" x="184.231051753" xlink:href="#m63b6ff0e6d" y="242.441519318"/>
     <use style="fill:#0000ff;" x="185.348914858" xlink:href="#m63b6ff0e6d" y="126.900697794"/>
     <use style="fill:#0000ff;" x="186.466777963" xlink:href="#m63b6ff0e6d" y="166.272889805"/>
     <use style="fill:#0000ff;" x="187.584641068" xlink:href="#m63b6ff0e6d" y="212.376972521"/>
     <use style="fill:#0000ff;" x="188.702504174" xlink:href="#m63b6ff0e6d" y="231.825793592"/>
     <use style="fill:#0000ff;" x="189.820367279" xlink:href="#m63b6ff0e6d" y="84.9771012616"/>
     <use style="fill:#0000ff;" x="190.938230384" xlink:href="#m63b6ff0e6d" y="231.962346816"/>
     <use style="fill:#0000ff;" x="192.056093489" xlink:href="#m63b6ff0e6d" y="206.324105686"/>
     <use style="fill:#0000ff;" x="193.173956594" xlink:href="#m63b6ff0e6d" y="243.731603994"/>
     <use style="fill:#0000ff;" x="194.291819699" xlink:href="#m63b6ff0e6d" y="221.404707157"/>
     <use style="fill:#0000ff;" x="195.409682805" xlink:href="#m63b6ff0e6d" y="229.363020644"/>
     <use style="fill:#0000ff;" x="196.52754591" xlink:href="#m63b6ff0e6d" y="78.7594675561"/>
     <use style="fill:#0000ff;" x="197.645409015" xlink:href="#m63b6ff0e6d" y="79.1317461581"/>
     <use style="fill:#0000ff;" x="198.76327212" xlink:href="#m63b6ff0e6d" y="78.7616356842"/>
     <use style="fill:#0000ff;" x="199.881135225" xlink:href="#m63b6ff0e6d" y="243.419623085"/>
     <use style="fill:#0000ff;" x="200.998998331" xlink:href="#m63b6ff0e6d" y="101.30532419"/>
     <use style="fill:#0000ff;" x="202.116861436" xlink:href="#m63b6ff0e6d" y="78.7897312079"/>
     <use style="fill:#0000ff;" x="203.234724541" xlink:href="#m63b6ff0e6d" y="243.706172344"/>
     <use style="fill:#0000ff;" x="204.352587646" xlink:href="#m63b6ff0e6d" y="242.710158968"/>
     <use style="fill:#0000ff;" x="205.470450751" xlink:href="#m63b6ff0e6d" y="215.695163523"/>
     <use style="fill:#0000ff;" x="206.588313856" xlink:href="#m63b6ff0e6d" y="132.068300711"/>
     <use style="fill:#0000ff;" x="207.706176962" xlink:href="#m63b6ff0e6d" y="243.655030969"/>
     <use style="fill:#0000ff;" x="208.824040067" xlink:href="#m63b6ff0e6d" y="80.0363224939"/>
     <use style="fill:#0000ff;" x="209.941903172" xlink:href="#m63b6ff0e6d" y="103.712890284"/>
     <use style="fill:#0000ff;" x="211.059766277" xlink:href="#m63b6ff0e6d" y="238.580366144"/>
     <use style="fill:#0000ff;" x="212.177629382" xlink:href="#m63b6ff0e6d" y="243.730242708"/>
     <use style="fill:#0000ff;" x="213.295492487" xlink:href="#m63b6ff0e6d" y="231.141708275"/>
     <use style="fill:#0000ff;" x="214.413355593" xlink:href="#m63b6ff0e6d" y="155.131821314"/>
     <use style="fill:#0000ff;" x="215.531218698" xlink:href="#m63b6ff0e6d" y="242.104575329"/>
     <use style="fill:#0000ff;" x="216.649081803" xlink:href="#m63b6ff0e6d" y="82.7242233755"/>
     <use style="fill:#0000ff;" x="217.766944908" xlink:href="#m63b6ff0e6d" y="243.319288893"/>
     <use style="fill:#0000ff;" x="218.884808013" xlink:href="#m63b6ff0e6d" y="142.725595237"/>
     <use style="fill:#0000ff;" x="220.002671119" xlink:href="#m63b6ff0e6d" y="120.136240192"/>
     <use style="fill:#0000ff;" x="221.120534224" xlink:href="#m63b6ff0e6d" y="222.76920211"/>
     <use style="fill:#0000ff;" x="222.238397329" xlink:href="#m63b6ff0e6d" y="225.318756174"/>
     <use style="fill:#0000ff;" x="223.356260434" xlink:href="#m63b6ff0e6d" y="87.4831448995"/>
     <use style="fill:#0000ff;" x="224.474123539" xlink:href="#m63b6ff0e6d" y="192.002212416"/>
     <use style="fill:#0000ff;" x="225.591986644" xlink:href="#m63b6ff0e6d" y="82.0511224267"/>
     <use style="fill:#0000ff;" x="226.70984975" xlink:href="#m63b6ff0e6d" y="207.03765749"/>
     <use style="fill:#0000ff;" x="227.827712855" xlink:href="#m63b6ff0e6d" y="242.559790092"/>
     <use style="fill:#0000ff;" x="228.94557596" xlink:href="#m63b6ff0e6d" y="221.364975781"/>
     <use style="fill:#0000ff;" x="230.063439065" xlink:href="#m63b6ff0e6d" y="106.073518911"/>
     <use style="fill:#0000ff;" x="231.18130217" xlink:href="#m63b6ff0e6d" y="240.663053871"/>
     <use style="fill:#0000ff;" x="232.299165275" xlink:href="#m63b6ff0e6d" y="82.3193952722"/>
     <use style="fill:#0000ff;" x="233.417028381" xlink:href="#m63b6ff0e6d" y="241.445359403"/>
     <use style="fill:#0000ff;" x="234.534891486" xlink:href="#m63b6ff0e6d" y="243.712225839"/>
     <use style="fill:#0000ff;" x="235.652754591" xlink:href="#m63b6ff0e6d" y="129.533245284"/>
     <use style="fill:#0000ff;" x="236.770617696" xlink:href="#m63b6ff0e6d" y="107.767116535"/>
     <use style="fill:#0000ff;" x="237.888480801" xlink:href="#m63b6ff0e6d" y="108.273891099"/>
     <use style="fill:#0000ff;" x="239.006343907" xlink:href="#m63b6ff0e6d" y="79.1429802228"/>
     <use style="fill:#0000ff;" x="240.124207012" xlink:href="#m63b6ff0e6d" y="123.218060137"/>
     <use style="fill:#0000ff;" x="241.242070117" xlink:href="#m63b6ff0e6d" y="101.66919676"/>
     <use style="fill:#0000ff;" x="242.359933222" xlink:href="#m63b6ff0e6d" y="78.7823104674"/>
     <use style="fill:#0000ff;" x="243.477796327" xlink:href="#m63b6ff0e6d" y="166.189228817"/>
     <use style="fill:#0000ff;" x="244.595659432" xlink:href="#m63b6ff0e6d" y="242.534079131"/>
     <use style="fill:#0000ff;" x="245.713522538" xlink:href="#m63b6ff0e6d" y="184.626368353"/>
     <use style="fill:#0000ff;" x="246.831385643" xlink:href="#m63b6ff0e6d" y="89.3939684117"/>
     <use style="fill:#0000ff;" x="247.949248748" xlink:href="#m63b6ff0e6d" y="238.954687658"/>
     <use style="fill:#0000ff;" x="249.067111853" xlink:href="#m63b6ff0e6d" y="242.87904862"/>
     <use style="fill:#0000ff;" x="250.184974958" xlink:href="#m63b6ff0e6d" y="212.450185033"/>
     <use style="fill:#0000ff;" x="251.302838063" xlink:href="#m63b6ff0e6d" y="238.374633108"/>
     <use style="fill:#0000ff;" x="252.420701169" xlink:href="#m63b6ff0e6d" y="231.619828022"/>
     <use style="fill:#0000ff;" x="253.538564274" xlink:href="#m63b6ff0e6d" y="188.698791033"/>
     <use style="fill:#0000ff;" x="254.656427379" xlink:href="#m63b6ff0e6d" y="80.4200818366"/>
     <use style="fill:#0000ff;" x="255.774290484" xlink:href="#m63b6ff0e6d" y="78.7662080623"/>
     <use style="fill:#0000ff;" x="256.892153589" xlink:href="#m63b6ff0e6d" y="145.015615197"/>
     <use style="fill:#0000ff;" x="258.010016694" xlink:href="#m63b6ff0e6d" y="80.3144302074"/>
     <use style="fill:#0000ff;" x="259.1278798" xlink:href="#m63b6ff0e6d" y="79.3979493763"/>
     <use style="fill:#0000ff;" x="260.245742905" xlink:href="#m63b6ff0e6d" y="243.570199175"/>
     <use style="fill:#0000ff;" x="261.36360601" xlink:href="#m63b6ff0e6d" y="238.02562564"/>
     <use style="fill:#0000ff;" x="262.481469115" xlink:href="#m63b6ff0e6d" y="142.218061908"/>
     <use style="fill:#0000ff;" x="263.59933222" xlink:href="#m63b6ff0e6d" y="242.81520343"/>
     <use style="fill:#0000ff;" x="264.717195326" xlink:href="#m63b6ff0e6d" y="242.946007694"/>
     <use style="fill:#0000ff;" x="265.835058431" xlink:href="#m63b6ff0e6d" y="112.975980708"/>
     <use style="fill:#0000ff;" x="266.952921536" xlink:href="#m63b6ff0e6d" y="165.979399079"/>
     <use style="fill:#0000ff;" x="268.070784641" xlink:href="#m63b6ff0e6d" y="110.463876767"/>
     <use style="fill:#0000ff;" x="269.188647746" xlink:href="#m63b6ff0e6d" y="79.5652909925"/>
     <use style="fill:#0000ff;" x="270.306510851" xlink:href="#m63b6ff0e6d" y="78.9429707436"/>
     <use style="fill:#0000ff;" x="271.424373957" xlink:href="#m63b6ff0e6d" y="243.733333333"/>
     <use style="fill:#0000ff;" x="272.542237062" xlink:href="#m63b6ff0e6d" y="218.140411207"/>
     <use style="fill:#0000ff;" x="273.660100167" xlink:href="#m63b6ff0e6d" y="243.341504791"/>
     <use style="fill:#0000ff;" x="274.777963272" xlink:href="#m63b6ff0e6d" y="79.5604127189"/>
     <use style="fill:#0000ff;" x="275.895826377" xlink:href="#m63b6ff0e6d" y="101.542683148"/>
     <use style="fill:#0000ff;" x="277.013689482" xlink:href="#m63b6ff0e6d" y="159.49572951"/>
     <use style="fill:#0000ff;" x="278.131552588" xlink:href="#m63b6ff0e6d" y="243.59437638"/>
     <use style="fill:#0000ff;" x="279.249415693" xlink:href="#m63b6ff0e6d" y="241.015650856"/>
     <use style="fill:#0000ff;" x="280.367278798" xlink:href="#m63b6ff0e6d" y="202.304616977"/>
     <use style="fill:#0000ff;" x="281.485141903" xlink:href="#m63b6ff0e6d" y="243.106307154"/>
     <use style="fill:#0000ff;" x="282.603005008" xlink:href="#m63b6ff0e6d" y="227.990938899"/>
     <use style="fill:#0000ff;" x="283.720868114" xlink:href="#m63b6ff0e6d" y="232.003411066"/>
     <use style="fill:#0000ff;" x="284.838731219" xlink:href="#m63b6ff0e6d" y="78.7580680424"/>
     <use style="fill:#0000ff;" x="285.956594324" xlink:href="#m63b6ff0e6d" y="200.234537704"/>
     <use style="fill:#0000ff;" x="287.074457429" xlink:href="#m63b6ff0e6d" y="243.463025878"/>
     <use style="fill:#0000ff;" x="288.192320534" xlink:href="#m63b6ff0e6d" y="236.331897932"/>
     <use style="fill:#0000ff;" x="289.310183639" xlink:href="#m63b6ff0e6d" y="237.808993725"/>
     <use style="fill:#0000ff;" x="290.428046745" xlink:href="#m63b6ff0e6d" y="98.9414733559"/>
     <use style="fill:#0000ff;" x="291.54590985" xlink:href="#m63b6ff0e6d" y="78.9966784099"/>
     <use style="fill:#0000ff;" x="292.663772955" xlink:href="#m63b6ff0e6d" y="194.683909823"/>
     <use style="fill:#0000ff;" x="293.78163606" xlink:href="#m63b6ff0e6d" y="201.614950279"/>
     <use style="fill:#0000ff;" x="294.899499165" xlink:href="#m63b6ff0e6d" y="84.2934362257"/>
     <use style="fill:#0000ff;" x="296.01736227" xlink:href="#m63b6ff0e6d" y="242.960994969"/>
     <use style="fill:#0000ff;" x="297.135225376" xlink:href="#m63b6ff0e6d" y="243.733333333"/>
     <use style="fill:#0000ff;" x="298.253088481" xlink:href="#m63b6ff0e6d" y="197.057703948"/>
     <use style="fill:#0000ff;" x="299.370951586" xlink:href="#m63b6ff0e6d" y="242.489433762"/>
     <use style="fill:#0000ff;" x="300.488814691" xlink:href="#m63b6ff0e6d" y="79.0452815117"/>
     <use style="fill:#0000ff;" x="301.606677796" xlink:href="#m63b6ff0e6d" y="80.6177560254"/>
     <use style="fill:#0000ff;" x="302.724540902" xlink:href="#m63b6ff0e6d" y="243.598263683"/>
     <use style="fill:#0000ff;" x="303.842404007" xlink:href="#m63b6ff0e6d" y="242.493253676"/>
     <use style="fill:#0000ff;" x="304.960267112" xlink:href="#m63b6ff0e6d" y="243.733333333"/>
     <use style="fill:#0000ff;" x="306.078130217" xlink:href="#m63b6ff0e6d" y="223.857632854"/>
     <use style="fill:#0000ff;" x="307.195993322" xlink:href="#m63b6ff0e6d" y="240.755940271"/>
     <use style="fill:#0000ff;" x="308.313856427" xlink:href="#m63b6ff0e6d" y="81.8446876398"/>
     <use style="fill:#0000ff;" x="309.431719533" xlink:href="#m63b6ff0e6d" y="79.3112186475"/>
     <use style="fill:#0000ff;" x="310.549582638" xlink:href="#m63b6ff0e6d" y="154.680005974"/>
     <use style="fill:#0000ff;" x="311.667445743" xlink:href="#m63b6ff0e6d" y="243.464183168"/>
     <use style="fill:#0000ff;" x="312.785308848" xlink:href="#m63b6ff0e6d" y="215.0835971"/>
     <use style="fill:#0000ff;" x="313.903171953" xlink:href="#m63b6ff0e6d" y="235.470304728"/>
     <use style="fill:#0000ff;" x="315.021035058" xlink:href="#m63b6ff0e6d" y="243.731013716"/>
     <use style="fill:#0000ff;" x="316.138898164" xlink:href="#m63b6ff0e6d" y="243.473102863"/>
     <use style="fill:#0000ff;" x="317.256761269" xlink:href="#m63b6ff0e6d" y="156.535771666"/>
     <use style="fill:#0000ff;" x="318.374624374" xlink:href="#m63b6ff0e6d" y="243.650113156"/>
     <use style="fill:#0000ff;" x="319.492487479" xlink:href="#m63b6ff0e6d" y="175.7150143"/>
     <use style="fill:#0000ff;" x="320.610350584" xlink:href="#m63b6ff0e6d" y="231.301010847"/>
     <use style="fill:#0000ff;" x="321.728213689" xlink:href="#m63b6ff0e6d" y="243.664583314"/>
     <use style="fill:#0000ff;" x="322.846076795" xlink:href="#m63b6ff0e6d" y="233.049178703"/>
     <use style="fill:#0000ff;" x="323.9639399" xlink:href="#m63b6ff0e6d" y="81.8661904354"/>
     <use style="fill:#0000ff;" x="325.081803005" xlink:href="#m63b6ff0e6d" y="184.876498653"/>
     <use style="fill:#0000ff;" x="326.19966611" xlink:href="#m63b6ff0e6d" y="243.408847621"/>
     <use style="fill:#0000ff;" x="327.317529215" xlink:href="#m63b6ff0e6d" y="106.736883534"/>
     <use style="fill:#0000ff;" x="328.435392321" xlink:href="#m63b6ff0e6d" y="235.22128427"/>
     <use style="fill:#0000ff;" x="329.553255426" xlink:href="#m63b6ff0e6d" y="233.652815074"/>
     <use style="fill:#0000ff;" x="330.671118531" xlink:href="#m63b6ff0e6d" y="117.674788806"/>
     <use style="fill:#0000ff;" x="331.788981636" xlink:href="#m63b6ff0e6d" y="241.823369321"/>
     <use style="fill:#0000ff;" x="332.906844741" xlink:href="#m63b6ff0e6d" y="243.617910779"/>
     <use style="fill:#0000ff;" x="334.024707846" xlink:href="#m63b6ff0e6d" y="236.81431675"/>
     <use style="fill:#0000ff;" x="335.142570952" xlink:href="#m63b6ff0e6d" y="79.7536917357"/>
     <use style="fill:#0000ff;" x="336.260434057" xlink:href="#m63b6ff0e6d" y="78.7636951284"/>
     <use style="fill:#0000ff;" x="337.378297162" xlink:href="#m63b6ff0e6d" y="165.969386735"/>
     <use style="fill:#0000ff;" x="338.496160267" xlink:href="#m63b6ff0e6d" y="243.718049876"/>
     <use style="fill:#0000ff;" x="339.614023372" xlink:href="#m63b6ff0e6d" y="159.725913963"/>
     <use style="fill:#0000ff;" x="340.731886477" xlink:href="#m63b6ff0e6d" y="243.733333333"/>
     <use style="fill:#0000ff;" x="341.849749583" xlink:href="#m63b6ff0e6d" y="241.828313453"/>
     <use style="fill:#0000ff;" x="342.967612688" xlink:href="#m63b6ff0e6d" y="241.210757681"/>
     <use style="fill:#0000ff;" x="344.085475793" xlink:href="#m63b6ff0e6d" y="79.8854186562"/>
     <use style="fill:#0000ff;" x="345.203338898" xlink:href="#m63b6ff0e6d" y="243.733333333"/>
     <use style="fill:#0000ff;" x="346.321202003" xlink:href="#m63b6ff0e6d" y="243.733333333"/>
     <use style="fill:#0000ff;" x="347.439065109" xlink:href="#m63b6ff0e6d" y="231.545361423"/>
     <use style="fill:#0000ff;" x="348.556928214" xlink:href="#m63b6ff0e6d" y="80.4681823722"/>
     <use style="fill:#0000ff;" x="349.674791319" xlink:href="#m63b6ff0e6d" y="90.7682563026"/>
     <use style="fill:#0000ff;" x="350.792654424" xlink:href="#m63b6ff0e6d" y="178.143797399"/>
     <use style="fill:#0000ff;" x="351.910517529" xlink:href="#m63b6ff0e6d" y="243.314804261"/>
     <use style="fill:#0000ff;" x="353.028380634" xlink:href="#m63b6ff0e6d" y="243.598004339"/>
     <use style="fill:#0000ff;" x="354.14624374" xlink:href="#m63b6ff0e6d" y="79.1145594417"/>
     <use style="fill:#0000ff;" x="355.264106845" xlink:href="#m63b6ff0e6d" y="242.457196326"/>
     <use style="fill:#0000ff;" x="356.38196995" xlink:href="#m63b6ff0e6d" y="83.6556147058"/>
     <use style="fill:#0000ff;" x="357.499833055" xlink:href="#m63b6ff0e6d" y="166.682768833"/>
     <use style="fill:#0000ff;" x="358.61769616" xlink:href="#m63b6ff0e6d" y="79.9129821956"/>
     <use style="fill:#0000ff;" x="359.735559265" xlink:href="#m63b6ff0e6d" y="243.649538811"/>
     <use style="fill:#0000ff;" x="360.853422371" xlink:href="#m63b6ff0e6d" y="87.0457665513"/>
     <use style="fill:#0000ff;" x="361.971285476" xlink:href="#m63b6ff0e6d" y="87.8118658401"/>
     <use style="fill:#0000ff;" x="363.089148581" xlink:href="#m63b6ff0e6d" y="243.709805317"/>
     <use style="fill:#0000ff;" x="364.207011686" xlink:href="#m63b6ff0e6d" y="240.554428995"/>
     <use style="fill:#0000ff;" x="365.324874791" xlink:href="#m63b6ff0e6d" y="243.674378561"/>
     <use style="fill:#0000ff;" x="366.442737896" xlink:href="#m63b6ff0e6d" y="79.7067343393"/>
     <use style="fill:#0000ff;" x="367.560601002" xlink:href="#m63b6ff0e6d" y="237.356980675"/>
     <use style="fill:#0000ff;" x="368.678464107" xlink:href="#m63b6ff0e6d" y="234.982412244"/>
     <use style="fill:#0000ff;" x="369.796327212" xlink:href="#m63b6ff0e6d" y="243.062315942"/>
     <use style="fill:#0000ff;" x="370.914190317" xlink:href="#m63b6ff0e6d" y="79.9127060385"/>
     <use style="fill:#0000ff;" x="372.032053422" xlink:href="#m63b6ff0e6d" y="241.67355996"/>
     <use style="fill:#0000ff;" x="373.149916528" xlink:href="#m63b6ff0e6d" y="79.4272864703"/>
     <use style="fill:#0000ff;" x="374.267779633" xlink:href="#m63b6ff0e6d" y="79.8120014587"/>
     <use style="fill:#0000ff;" x="375.385642738" xlink:href="#m63b6ff0e6d" y="81.7980947136"/>
     <use style="fill:#0000ff;" x="376.503505843" xlink:href="#m63b6ff0e6d" y="243.733333333"/>
     <use style="fill:#0000ff;" x="377.621368948" xlink:href="#m63b6ff0e6d" y="198.267572361"/>
     <use style="fill:#0000ff;" x="378.739232053" xlink:href="#m63b6ff0e6d" y="108.651638984"/>
     <use style="fill:#0000ff;" x="379.857095159" xlink:href="#m63b6ff0e6d" y="243.416707193"/>
     <use style="fill:#0000ff;" x="380.974958264" xlink:href="#m63b6ff0e6d" y="139.271732966"/>
     <use style="fill:#0000ff;" x="382.092821369" xlink:href="#m63b6ff0e6d" y="229.441697529"/>
     <use style="fill:#0000ff;" x="383.210684474" xlink:href="#m63b6ff0e6d" y="95.8307987401"/>
     <use style="fill:#0000ff;" x="384.328547579" xlink:href="#m63b6ff0e6d" y="79.3883311948"/>
     <use style="fill:#0000ff;" x="385.446410684" xlink:href="#m63b6ff0e6d" y="83.2979700943"/>
     <use style="fill:#0000ff;" x="386.56427379" xlink:href="#m63b6ff0e6d" y="240.987994748"/>
     <use style="fill:#0000ff;" x="387.682136895" xlink:href="#m63b6ff0e6d" y="94.4938698737"/>
    </g>
   </g>
   <g id="patch_3">
    <path d="M 54 252 
L 388.8 252 
" style="fill:none;stroke:#000000;stroke-linecap:square;stroke-linejoin:miter;"/>
   </g>
   <g id="patch_4">
    <path d="M 54 252 
L 54 28.8 
" style="fill:none;stroke:#000000;stroke-linecap:square;stroke-linejoin:miter;"/>
   </g>
   <g id="matplotlib.axis_1">
    <g id="xtick_1">
     <g id="line2d_1">
      <defs>
       <path d="M 0 0 
L 0 -4 
" id="m0d138d0a93" style="stroke:#000000;stroke-width:0.5;"/>
      </defs>
      <g>
       <use style="stroke:#000000;stroke-width:0.5;" x="109.334223706" xlink:href="#m0d138d0a93" y="252.0"/>
      </g>
     </g>
     <g id="line2d_2">
      <defs>
       <path d="M 0 0 
L 0 4 
" id="me37b00e633" style="stroke:#000000;stroke-width:0.5;"/>
      </defs>
      <g>
       <use style="stroke:#000000;stroke-width:0.5;" x="109.334223706" xlink:href="#me37b00e633" y="28.8"/>
      </g>
     </g>
     <g id="text_1">
      <!-- 100 -->
      <defs>
       <path d="M 31.78125 66.40625 
Q 24.171875 66.40625 20.328125 58.90625 
Q 16.5 51.421875 16.5 36.375 
Q 16.5 21.390625 20.328125 13.890625 
Q 24.171875 6.390625 31.78125 6.390625 
Q 39.453125 6.390625 43.28125 13.890625 
Q 47.125 21.390625 47.125 36.375 
Q 47.125 51.421875 43.28125 58.90625 
Q 39.453125 66.40625 31.78125 66.40625 
M 31.78125 74.21875 
Q 44.046875 74.21875 50.515625 64.515625 
Q 56.984375 54.828125 56.984375 36.375 
Q 56.984375 17.96875 50.515625 8.265625 
Q 44.046875 -1.421875 31.78125 -1.421875 
Q 19.53125 -1.421875 13.0625 8.265625 
Q 6.59375 17.96875 6.59375 36.375 
Q 6.59375 54.828125 13.0625 64.515625 
Q 19.53125 74.21875 31.78125 74.21875 
" id="BitstreamVeraSans-Roman-30"/>
       <path d="M 12.40625 8.296875 
L 28.515625 8.296875 
L 28.515625 63.921875 
L 10.984375 60.40625 
L 10.984375 69.390625 
L 28.421875 72.90625 
L 38.28125 72.90625 
L 38.28125 8.296875 
L 54.390625 8.296875 
L 54.390625 0 
L 12.40625 0 
z
" id="BitstreamVeraSans-Roman-31"/>
      </defs>
      <g transform="translate(99.7904737062 263.5984375)scale(0.1 -0.1)">
       <use xlink:href="#BitstreamVeraSans-Roman-31"/>
       <use x="63.623046875" xlink:href="#BitstreamVeraSans-Roman-30"/>
       <use x="127.24609375" xlink:href="#BitstreamVeraSans-Roman-30"/>
      </g>
     </g>
    </g>
    <g id="xtick_2">
     <g id="line2d_3">
      <g>
       <use style="stroke:#000000;stroke-width:0.5;" x="165.227378965" xlink:href="#m0d138d0a93" y="252.0"/>
      </g>
     </g>
     <g id="line2d_4">
      <g>
       <use style="stroke:#000000;stroke-width:0.5;" x="165.227378965" xlink:href="#me37b00e633" y="28.8"/>
      </g>
     </g>
     <g id="text_2">
      <!-- 200 -->
      <defs>
       <path d="M 19.1875 8.296875 
L 53.609375 8.296875 
L 53.609375 0 
L 7.328125 0 
L 7.328125 8.296875 
Q 12.9375 14.109375 22.625 23.890625 
Q 32.328125 33.6875 34.8125 36.53125 
Q 39.546875 41.84375 41.421875 45.53125 
Q 43.3125 49.21875 43.3125 52.78125 
Q 43.3125 58.59375 39.234375 62.25 
Q 35.15625 65.921875 28.609375 65.921875 
Q 23.96875 65.921875 18.8125 64.3125 
Q 13.671875 62.703125 7.8125 59.421875 
L 7.8125 69.390625 
Q 13.765625 71.78125 18.9375 73 
Q 24.125 74.21875 28.421875 74.21875 
Q 39.75 74.21875 46.484375 68.546875 
Q 53.21875 62.890625 53.21875 53.421875 
Q 53.21875 48.921875 51.53125 44.890625 
Q 49.859375 40.875 45.40625 35.40625 
Q 44.1875 33.984375 37.640625 27.21875 
Q 31.109375 20.453125 19.1875 8.296875 
" id="BitstreamVeraSans-Roman-32"/>
      </defs>
      <g transform="translate(155.683628965 263.5984375)scale(0.1 -0.1)">
       <use xlink:href="#BitstreamVeraSans-Roman-32"/>
       <use x="63.623046875" xlink:href="#BitstreamVeraSans-Roman-30"/>
       <use x="127.24609375" xlink:href="#BitstreamVeraSans-Roman-30"/>
      </g>
     </g>
    </g>
    <g id="xtick_3">
     <g id="line2d_5">
      <g>
       <use style="stroke:#000000;stroke-width:0.5;" x="221.120534224" xlink:href="#m0d138d0a93" y="252.0"/>
      </g>
     </g>
     <g id="line2d_6">
      <g>
       <use style="stroke:#000000;stroke-width:0.5;" x="221.120534224" xlink:href="#me37b00e633" y="28.8"/>
      </g>
     </g>
     <g id="text_3">
      <!-- 300 -->
      <defs>
       <path d="M 40.578125 39.3125 
Q 47.65625 37.796875 51.625 33 
Q 55.609375 28.21875 55.609375 21.1875 
Q 55.609375 10.40625 48.1875 4.484375 
Q 40.765625 -1.421875 27.09375 -1.421875 
Q 22.515625 -1.421875 17.65625 -0.515625 
Q 12.796875 0.390625 7.625 2.203125 
L 7.625 11.71875 
Q 11.71875 9.328125 16.59375 8.109375 
Q 21.484375 6.890625 26.8125 6.890625 
Q 36.078125 6.890625 40.9375 10.546875 
Q 45.796875 14.203125 45.796875 21.1875 
Q 45.796875 27.640625 41.28125 31.265625 
Q 36.765625 34.90625 28.71875 34.90625 
L 20.21875 34.90625 
L 20.21875 43.015625 
L 29.109375 43.015625 
Q 36.375 43.015625 40.234375 45.921875 
Q 44.09375 48.828125 44.09375 54.296875 
Q 44.09375 59.90625 40.109375 62.90625 
Q 36.140625 65.921875 28.71875 65.921875 
Q 24.65625 65.921875 20.015625 65.03125 
Q 15.375 64.15625 9.8125 62.3125 
L 9.8125 71.09375 
Q 15.4375 72.65625 20.34375 73.4375 
Q 25.25 74.21875 29.59375 74.21875 
Q 40.828125 74.21875 47.359375 69.109375 
Q 53.90625 64.015625 53.90625 55.328125 
Q 53.90625 49.265625 50.4375 45.09375 
Q 46.96875 40.921875 40.578125 39.3125 
" id="BitstreamVeraSans-Roman-33"/>
      </defs>
      <g transform="translate(211.576784224 263.5984375)scale(0.1 -0.1)">
       <use xlink:href="#BitstreamVeraSans-Roman-33"/>
       <use x="63.623046875" xlink:href="#BitstreamVeraSans-Roman-30"/>
       <use x="127.24609375" xlink:href="#BitstreamVeraSans-Roman-30"/>
      </g>
     </g>
    </g>
    <g id="xtick_4">
     <g id="line2d_7">
      <g>
       <use style="stroke:#000000;stroke-width:0.5;" x="277.013689482" xlink:href="#m0d138d0a93" y="252.0"/>
      </g>
     </g>
     <g id="line2d_8">
      <g>
       <use style="stroke:#000000;stroke-width:0.5;" x="277.013689482" xlink:href="#me37b00e633" y="28.8"/>
      </g>
     </g>
     <g id="text_4">
      <!-- 400 -->
      <defs>
       <path d="M 37.796875 64.3125 
L 12.890625 25.390625 
L 37.796875 25.390625 
z
M 35.203125 72.90625 
L 47.609375 72.90625 
L 47.609375 25.390625 
L 58.015625 25.390625 
L 58.015625 17.1875 
L 47.609375 17.1875 
L 47.609375 0 
L 37.796875 0 
L 37.796875 17.1875 
L 4.890625 17.1875 
L 4.890625 26.703125 
z
" id="BitstreamVeraSans-Roman-34"/>
      </defs>
      <g transform="translate(267.469939482 263.5984375)scale(0.1 -0.1)">
       <use xlink:href="#BitstreamVeraSans-Roman-34"/>
       <use x="63.623046875" xlink:href="#BitstreamVeraSans-Roman-30"/>
       <use x="127.24609375" xlink:href="#BitstreamVeraSans-Roman-30"/>
      </g>
     </g>
    </g>
    <g id="xtick_5">
     <g id="line2d_9">
      <g>
       <use style="stroke:#000000;stroke-width:0.5;" x="332.906844741" xlink:href="#m0d138d0a93" y="252.0"/>
      </g>
     </g>
     <g id="line2d_10">
      <g>
       <use style="stroke:#000000;stroke-width:0.5;" x="332.906844741" xlink:href="#me37b00e633" y="28.8"/>
      </g>
     </g>
     <g id="text_5">
      <!-- 500 -->
      <defs>
       <path d="M 10.796875 72.90625 
L 49.515625 72.90625 
L 49.515625 64.59375 
L 19.828125 64.59375 
L 19.828125 46.734375 
Q 21.96875 47.46875 24.109375 47.828125 
Q 26.265625 48.1875 28.421875 48.1875 
Q 40.625 48.1875 47.75 41.5 
Q 54.890625 34.8125 54.890625 23.390625 
Q 54.890625 11.625 47.5625 5.09375 
Q 40.234375 -1.421875 26.90625 -1.421875 
Q 22.3125 -1.421875 17.546875 -0.640625 
Q 12.796875 0.140625 7.71875 1.703125 
L 7.71875 11.625 
Q 12.109375 9.234375 16.796875 8.0625 
Q 21.484375 6.890625 26.703125 6.890625 
Q 35.15625 6.890625 40.078125 11.328125 
Q 45.015625 15.765625 45.015625 23.390625 
Q 45.015625 31 40.078125 35.4375 
Q 35.15625 39.890625 26.703125 39.890625 
Q 22.75 39.890625 18.8125 39.015625 
Q 14.890625 38.140625 10.796875 36.28125 
z
" id="BitstreamVeraSans-Roman-35"/>
      </defs>
      <g transform="translate(323.363094741 263.5984375)scale(0.1 -0.1)">
       <use xlink:href="#BitstreamVeraSans-Roman-35"/>
       <use x="63.623046875" xlink:href="#BitstreamVeraSans-Roman-30"/>
       <use x="127.24609375" xlink:href="#BitstreamVeraSans-Roman-30"/>
      </g>
     </g>
    </g>
    <g id="xtick_6">
     <g id="line2d_11">
      <g>
       <use style="stroke:#000000;stroke-width:0.5;" x="388.8" xlink:href="#m0d138d0a93" y="252.0"/>
      </g>
     </g>
     <g id="line2d_12">
      <g>
       <use style="stroke:#000000;stroke-width:0.5;" x="388.8" xlink:href="#me37b00e633" y="28.8"/>
      </g>
     </g>
     <g id="text_6">
      <!-- 600 -->
      <defs>
       <path d="M 33.015625 40.375 
Q 26.375 40.375 22.484375 35.828125 
Q 18.609375 31.296875 18.609375 23.390625 
Q 18.609375 15.53125 22.484375 10.953125 
Q 26.375 6.390625 33.015625 6.390625 
Q 39.65625 6.390625 43.53125 10.953125 
Q 47.40625 15.53125 47.40625 23.390625 
Q 47.40625 31.296875 43.53125 35.828125 
Q 39.65625 40.375 33.015625 40.375 
M 52.59375 71.296875 
L 52.59375 62.3125 
Q 48.875 64.0625 45.09375 64.984375 
Q 41.3125 65.921875 37.59375 65.921875 
Q 27.828125 65.921875 22.671875 59.328125 
Q 17.53125 52.734375 16.796875 39.40625 
Q 19.671875 43.65625 24.015625 45.921875 
Q 28.375 48.1875 33.59375 48.1875 
Q 44.578125 48.1875 50.953125 41.515625 
Q 57.328125 34.859375 57.328125 23.390625 
Q 57.328125 12.15625 50.6875 5.359375 
Q 44.046875 -1.421875 33.015625 -1.421875 
Q 20.359375 -1.421875 13.671875 8.265625 
Q 6.984375 17.96875 6.984375 36.375 
Q 6.984375 53.65625 15.1875 63.9375 
Q 23.390625 74.21875 37.203125 74.21875 
Q 40.921875 74.21875 44.703125 73.484375 
Q 48.484375 72.75 52.59375 71.296875 
" id="BitstreamVeraSans-Roman-36"/>
      </defs>
      <g transform="translate(379.25625 263.5984375)scale(0.1 -0.1)">
       <use xlink:href="#BitstreamVeraSans-Roman-36"/>
       <use x="63.623046875" xlink:href="#BitstreamVeraSans-Roman-30"/>
       <use x="127.24609375" xlink:href="#BitstreamVeraSans-Roman-30"/>
      </g>
     </g>
    </g>
    <g id="text_7">
     <!-- context-length -->
     <defs>
      <path d="M 54.890625 33.015625 
L 54.890625 0 
L 45.90625 0 
L 45.90625 32.71875 
Q 45.90625 40.484375 42.875 44.328125 
Q 39.84375 48.1875 33.796875 48.1875 
Q 26.515625 48.1875 22.3125 43.546875 
Q 18.109375 38.921875 18.109375 30.90625 
L 18.109375 0 
L 9.078125 0 
L 9.078125 54.6875 
L 18.109375 54.6875 
L 18.109375 46.1875 
Q 21.34375 51.125 25.703125 53.5625 
Q 30.078125 56 35.796875 56 
Q 45.21875 56 50.046875 50.171875 
Q 54.890625 44.34375 54.890625 33.015625 
" id="BitstreamVeraSans-Roman-6e"/>
      <path d="M 30.609375 48.390625 
Q 23.390625 48.390625 19.1875 42.75 
Q 14.984375 37.109375 14.984375 27.296875 
Q 14.984375 17.484375 19.15625 11.84375 
Q 23.34375 6.203125 30.609375 6.203125 
Q 37.796875 6.203125 41.984375 11.859375 
Q 46.1875 17.53125 46.1875 27.296875 
Q 46.1875 37.015625 41.984375 42.703125 
Q 37.796875 48.390625 30.609375 48.390625 
M 30.609375 56 
Q 42.328125 56 49.015625 48.375 
Q 55.71875 40.765625 55.71875 27.296875 
Q 55.71875 13.875 49.015625 6.21875 
Q 42.328125 -1.421875 30.609375 -1.421875 
Q 18.84375 -1.421875 12.171875 6.21875 
Q 5.515625 13.875 5.515625 27.296875 
Q 5.515625 40.765625 12.171875 48.375 
Q 18.84375 56 30.609375 56 
" id="BitstreamVeraSans-Roman-6f"/>
      <path d="M 9.421875 75.984375 
L 18.40625 75.984375 
L 18.40625 0 
L 9.421875 0 
z
" id="BitstreamVeraSans-Roman-6c"/>
      <path d="M 4.890625 31.390625 
L 31.203125 31.390625 
L 31.203125 23.390625 
L 4.890625 23.390625 
z
" id="BitstreamVeraSans-Roman-2d"/>
      <path d="M 54.890625 54.6875 
L 35.109375 28.078125 
L 55.90625 0 
L 45.3125 0 
L 29.390625 21.484375 
L 13.484375 0 
L 2.875 0 
L 24.125 28.609375 
L 4.6875 54.6875 
L 15.28125 54.6875 
L 29.78125 35.203125 
L 44.28125 54.6875 
z
" id="BitstreamVeraSans-Roman-78"/>
      <path d="M 56.203125 29.59375 
L 56.203125 25.203125 
L 14.890625 25.203125 
Q 15.484375 15.921875 20.484375 11.0625 
Q 25.484375 6.203125 34.421875 6.203125 
Q 39.59375 6.203125 44.453125 7.46875 
Q 49.3125 8.734375 54.109375 11.28125 
L 54.109375 2.78125 
Q 49.265625 0.734375 44.1875 -0.34375 
Q 39.109375 -1.421875 33.890625 -1.421875 
Q 20.796875 -1.421875 13.15625 6.1875 
Q 5.515625 13.8125 5.515625 26.8125 
Q 5.515625 40.234375 12.765625 48.109375 
Q 20.015625 56 32.328125 56 
Q 43.359375 56 49.78125 48.890625 
Q 56.203125 41.796875 56.203125 29.59375 
M 47.21875 32.234375 
Q 47.125 39.59375 43.09375 43.984375 
Q 39.0625 48.390625 32.421875 48.390625 
Q 24.90625 48.390625 20.390625 44.140625 
Q 15.875 39.890625 15.1875 32.171875 
z
" id="BitstreamVeraSans-Roman-65"/>
      <path d="M 18.3125 70.21875 
L 18.3125 54.6875 
L 36.8125 54.6875 
L 36.8125 47.703125 
L 18.3125 47.703125 
L 18.3125 18.015625 
Q 18.3125 11.328125 20.140625 9.421875 
Q 21.96875 7.515625 27.59375 7.515625 
L 36.8125 7.515625 
L 36.8125 0 
L 27.59375 0 
Q 17.1875 0 13.234375 3.875 
Q 9.28125 7.765625 9.28125 18.015625 
L 9.28125 47.703125 
L 2.6875 47.703125 
L 2.6875 54.6875 
L 9.28125 54.6875 
L 9.28125 70.21875 
z
" id="BitstreamVeraSans-Roman-74"/>
      <path d="M 45.40625 27.984375 
Q 45.40625 37.75 41.375 43.109375 
Q 37.359375 48.484375 30.078125 48.484375 
Q 22.859375 48.484375 18.828125 43.109375 
Q 14.796875 37.75 14.796875 27.984375 
Q 14.796875 18.265625 18.828125 12.890625 
Q 22.859375 7.515625 30.078125 7.515625 
Q 37.359375 7.515625 41.375 12.890625 
Q 45.40625 18.265625 45.40625 27.984375 
M 54.390625 6.78125 
Q 54.390625 -7.171875 48.1875 -13.984375 
Q 42 -20.796875 29.203125 -20.796875 
Q 24.46875 -20.796875 20.265625 -20.09375 
Q 16.0625 -19.390625 12.109375 -17.921875 
L 12.109375 -9.1875 
Q 16.0625 -11.328125 19.921875 -12.34375 
Q 23.78125 -13.375 27.78125 -13.375 
Q 36.625 -13.375 41.015625 -8.765625 
Q 45.40625 -4.15625 45.40625 5.171875 
L 45.40625 9.625 
Q 42.625 4.78125 38.28125 2.390625 
Q 33.9375 0 27.875 0 
Q 17.828125 0 11.671875 7.65625 
Q 5.515625 15.328125 5.515625 27.984375 
Q 5.515625 40.671875 11.671875 48.328125 
Q 17.828125 56 27.875 56 
Q 33.9375 56 38.28125 53.609375 
Q 42.625 51.21875 45.40625 46.390625 
L 45.40625 54.6875 
L 54.390625 54.6875 
z
" id="BitstreamVeraSans-Roman-67"/>
      <path d="M 48.78125 52.59375 
L 48.78125 44.1875 
Q 44.96875 46.296875 41.140625 47.34375 
Q 37.3125 48.390625 33.40625 48.390625 
Q 24.65625 48.390625 19.8125 42.84375 
Q 14.984375 37.3125 14.984375 27.296875 
Q 14.984375 17.28125 19.8125 11.734375 
Q 24.65625 6.203125 33.40625 6.203125 
Q 37.3125 6.203125 41.140625 7.25 
Q 44.96875 8.296875 48.78125 10.40625 
L 48.78125 2.09375 
Q 45.015625 0.34375 40.984375 -0.53125 
Q 36.96875 -1.421875 32.421875 -1.421875 
Q 20.0625 -1.421875 12.78125 6.34375 
Q 5.515625 14.109375 5.515625 27.296875 
Q 5.515625 40.671875 12.859375 48.328125 
Q 20.21875 56 33.015625 56 
Q 37.15625 56 41.109375 55.140625 
Q 45.0625 54.296875 48.78125 52.59375 
" id="BitstreamVeraSans-Roman-63"/>
      <path d="M 54.890625 33.015625 
L 54.890625 0 
L 45.90625 0 
L 45.90625 32.71875 
Q 45.90625 40.484375 42.875 44.328125 
Q 39.84375 48.1875 33.796875 48.1875 
Q 26.515625 48.1875 22.3125 43.546875 
Q 18.109375 38.921875 18.109375 30.90625 
L 18.109375 0 
L 9.078125 0 
L 9.078125 75.984375 
L 18.109375 75.984375 
L 18.109375 46.1875 
Q 21.34375 51.125 25.703125 53.5625 
Q 30.078125 56 35.796875 56 
Q 45.21875 56 50.046875 50.171875 
Q 54.890625 44.34375 54.890625 33.015625 
" id="BitstreamVeraSans-Roman-68"/>
     </defs>
     <g transform="translate(184.72578125 278.2765625)scale(0.1 -0.1)">
      <use xlink:href="#BitstreamVeraSans-Roman-63"/>
      <use x="54.98046875" xlink:href="#BitstreamVeraSans-Roman-6f"/>
      <use x="116.162109375" xlink:href="#BitstreamVeraSans-Roman-6e"/>
      <use x="179.541015625" xlink:href="#BitstreamVeraSans-Roman-74"/>
      <use x="218.75" xlink:href="#BitstreamVeraSans-Roman-65"/>
      <use x="280.2578125" xlink:href="#BitstreamVeraSans-Roman-78"/>
      <use x="339.4375" xlink:href="#BitstreamVeraSans-Roman-74"/>
      <use x="378.646484375" xlink:href="#BitstreamVeraSans-Roman-2d"/>
      <use x="414.73046875" xlink:href="#BitstreamVeraSans-Roman-6c"/>
      <use x="442.513671875" xlink:href="#BitstreamVeraSans-Roman-65"/>
      <use x="504.037109375" xlink:href="#BitstreamVeraSans-Roman-6e"/>
      <use x="567.416015625" xlink:href="#BitstreamVeraSans-Roman-67"/>
      <use x="630.892578125" xlink:href="#BitstreamVeraSans-Roman-74"/>
      <use x="670.1015625" xlink:href="#BitstreamVeraSans-Roman-68"/>
     </g>
    </g>
   </g>
   <g id="matplotlib.axis_2">
    <g id="ytick_1">
     <g id="line2d_13">
      <defs>
       <path d="M 0 0 
L 4 0 
" id="mf7d53c822c" style="stroke:#000000;stroke-width:0.5;"/>
      </defs>
      <g>
       <use style="stroke:#000000;stroke-width:0.5;" x="54.0" xlink:href="#mf7d53c822c" y="243.733333333"/>
      </g>
     </g>
     <g id="line2d_14">
      <defs>
       <path d="M 0 0 
L -4 0 
" id="m32c1debcc6" style="stroke:#000000;stroke-width:0.5;"/>
      </defs>
      <g>
       <use style="stroke:#000000;stroke-width:0.5;" x="388.8" xlink:href="#m32c1debcc6" y="243.733333333"/>
      </g>
     </g>
     <g id="text_8">
      <!-- 0.0 -->
      <defs>
       <path d="M 10.6875 12.40625 
L 21 12.40625 
L 21 0 
L 10.6875 0 
z
" id="BitstreamVeraSans-Roman-2e"/>
      </defs>
      <g transform="translate(34.096875 246.492708333)scale(0.1 -0.1)">
       <use xlink:href="#BitstreamVeraSans-Roman-30"/>
       <use x="63.623046875" xlink:href="#BitstreamVeraSans-Roman-2e"/>
       <use x="95.41015625" xlink:href="#BitstreamVeraSans-Roman-30"/>
      </g>
     </g>
    </g>
    <g id="ytick_2">
     <g id="line2d_15">
      <g>
       <use style="stroke:#000000;stroke-width:0.5;" x="54.0" xlink:href="#mf7d53c822c" y="210.666666667"/>
      </g>
     </g>
     <g id="line2d_16">
      <g>
       <use style="stroke:#000000;stroke-width:0.5;" x="388.8" xlink:href="#m32c1debcc6" y="210.666666667"/>
      </g>
     </g>
     <g id="text_9">
      <!-- 0.2 -->
      <g transform="translate(34.096875 213.426041667)scale(0.1 -0.1)">
       <use xlink:href="#BitstreamVeraSans-Roman-30"/>
       <use x="63.623046875" xlink:href="#BitstreamVeraSans-Roman-2e"/>
       <use x="95.41015625" xlink:href="#BitstreamVeraSans-Roman-32"/>
      </g>
     </g>
    </g>
    <g id="ytick_3">
     <g id="line2d_17">
      <g>
       <use style="stroke:#000000;stroke-width:0.5;" x="54.0" xlink:href="#mf7d53c822c" y="177.6"/>
      </g>
     </g>
     <g id="line2d_18">
      <g>
       <use style="stroke:#000000;stroke-width:0.5;" x="388.8" xlink:href="#m32c1debcc6" y="177.6"/>
      </g>
     </g>
     <g id="text_10">
      <!-- 0.4 -->
      <g transform="translate(34.096875 180.359375)scale(0.1 -0.1)">
       <use xlink:href="#BitstreamVeraSans-Roman-30"/>
       <use x="63.623046875" xlink:href="#BitstreamVeraSans-Roman-2e"/>
       <use x="95.41015625" xlink:href="#BitstreamVeraSans-Roman-34"/>
      </g>
     </g>
    </g>
    <g id="ytick_4">
     <g id="line2d_19">
      <g>
       <use style="stroke:#000000;stroke-width:0.5;" x="54.0" xlink:href="#mf7d53c822c" y="144.533333333"/>
      </g>
     </g>
     <g id="line2d_20">
      <g>
       <use style="stroke:#000000;stroke-width:0.5;" x="388.8" xlink:href="#m32c1debcc6" y="144.533333333"/>
      </g>
     </g>
     <g id="text_11">
      <!-- 0.6 -->
      <g transform="translate(34.096875 147.292708333)scale(0.1 -0.1)">
       <use xlink:href="#BitstreamVeraSans-Roman-30"/>
       <use x="63.623046875" xlink:href="#BitstreamVeraSans-Roman-2e"/>
       <use x="95.41015625" xlink:href="#BitstreamVeraSans-Roman-36"/>
      </g>
     </g>
    </g>
    <g id="ytick_5">
     <g id="line2d_21">
      <g>
       <use style="stroke:#000000;stroke-width:0.5;" x="54.0" xlink:href="#mf7d53c822c" y="111.466666667"/>
      </g>
     </g>
     <g id="line2d_22">
      <g>
       <use style="stroke:#000000;stroke-width:0.5;" x="388.8" xlink:href="#m32c1debcc6" y="111.466666667"/>
      </g>
     </g>
     <g id="text_12">
      <!-- 0.8 -->
      <defs>
       <path d="M 31.78125 34.625 
Q 24.75 34.625 20.71875 30.859375 
Q 16.703125 27.09375 16.703125 20.515625 
Q 16.703125 13.921875 20.71875 10.15625 
Q 24.75 6.390625 31.78125 6.390625 
Q 38.8125 6.390625 42.859375 10.171875 
Q 46.921875 13.96875 46.921875 20.515625 
Q 46.921875 27.09375 42.890625 30.859375 
Q 38.875 34.625 31.78125 34.625 
M 21.921875 38.8125 
Q 15.578125 40.375 12.03125 44.71875 
Q 8.5 49.078125 8.5 55.328125 
Q 8.5 64.0625 14.71875 69.140625 
Q 20.953125 74.21875 31.78125 74.21875 
Q 42.671875 74.21875 48.875 69.140625 
Q 55.078125 64.0625 55.078125 55.328125 
Q 55.078125 49.078125 51.53125 44.71875 
Q 48 40.375 41.703125 38.8125 
Q 48.828125 37.15625 52.796875 32.3125 
Q 56.78125 27.484375 56.78125 20.515625 
Q 56.78125 9.90625 50.3125 4.234375 
Q 43.84375 -1.421875 31.78125 -1.421875 
Q 19.734375 -1.421875 13.25 4.234375 
Q 6.78125 9.90625 6.78125 20.515625 
Q 6.78125 27.484375 10.78125 32.3125 
Q 14.796875 37.15625 21.921875 38.8125 
M 18.3125 54.390625 
Q 18.3125 48.734375 21.84375 45.5625 
Q 25.390625 42.390625 31.78125 42.390625 
Q 38.140625 42.390625 41.71875 45.5625 
Q 45.3125 48.734375 45.3125 54.390625 
Q 45.3125 60.0625 41.71875 63.234375 
Q 38.140625 66.40625 31.78125 66.40625 
Q 25.390625 66.40625 21.84375 63.234375 
Q 18.3125 60.0625 18.3125 54.390625 
" id="BitstreamVeraSans-Roman-38"/>
      </defs>
      <g transform="translate(34.096875 114.226041667)scale(0.1 -0.1)">
       <use xlink:href="#BitstreamVeraSans-Roman-30"/>
       <use x="63.623046875" xlink:href="#BitstreamVeraSans-Roman-2e"/>
       <use x="95.41015625" xlink:href="#BitstreamVeraSans-Roman-38"/>
      </g>
     </g>
    </g>
    <g id="ytick_6">
     <g id="line2d_23">
      <g>
       <use style="stroke:#000000;stroke-width:0.5;" x="54.0" xlink:href="#mf7d53c822c" y="78.4"/>
      </g>
     </g>
     <g id="line2d_24">
      <g>
       <use style="stroke:#000000;stroke-width:0.5;" x="388.8" xlink:href="#m32c1debcc6" y="78.4"/>
      </g>
     </g>
     <g id="text_13">
      <!-- 1.0 -->
      <g transform="translate(34.096875 81.159375)scale(0.1 -0.1)">
       <use xlink:href="#BitstreamVeraSans-Roman-31"/>
       <use x="63.623046875" xlink:href="#BitstreamVeraSans-Roman-2e"/>
       <use x="95.41015625" xlink:href="#BitstreamVeraSans-Roman-30"/>
      </g>
     </g>
    </g>
    <g id="ytick_7">
     <g id="line2d_25">
      <g>
       <use style="stroke:#000000;stroke-width:0.5;" x="54.0" xlink:href="#mf7d53c822c" y="45.3333333333"/>
      </g>
     </g>
     <g id="line2d_26">
      <g>
       <use style="stroke:#000000;stroke-width:0.5;" x="388.8" xlink:href="#m32c1debcc6" y="45.3333333333"/>
      </g>
     </g>
     <g id="text_14">
      <!-- 1.2 -->
      <g transform="translate(34.096875 48.0927083333)scale(0.1 -0.1)">
       <use xlink:href="#BitstreamVeraSans-Roman-31"/>
       <use x="63.623046875" xlink:href="#BitstreamVeraSans-Roman-2e"/>
       <use x="95.41015625" xlink:href="#BitstreamVeraSans-Roman-32"/>
      </g>
     </g>
    </g>
    <g id="text_15">
     <!-- -prob-quake -->
     <defs>
      <path d="M 41.109375 46.296875 
Q 39.59375 47.171875 37.8125 47.578125 
Q 36.03125 48 33.890625 48 
Q 26.265625 48 22.1875 43.046875 
Q 18.109375 38.09375 18.109375 28.8125 
L 18.109375 0 
L 9.078125 0 
L 9.078125 54.6875 
L 18.109375 54.6875 
L 18.109375 46.1875 
Q 20.953125 51.171875 25.484375 53.578125 
Q 30.03125 56 36.53125 56 
Q 37.453125 56 38.578125 55.875 
Q 39.703125 55.765625 41.0625 55.515625 
z
" id="BitstreamVeraSans-Roman-72"/>
      <path d="M 9.078125 75.984375 
L 18.109375 75.984375 
L 18.109375 31.109375 
L 44.921875 54.6875 
L 56.390625 54.6875 
L 27.390625 29.109375 
L 57.625 0 
L 45.90625 0 
L 18.109375 26.703125 
L 18.109375 0 
L 9.078125 0 
z
" id="BitstreamVeraSans-Roman-6b"/>
      <path d="M 48.6875 27.296875 
Q 48.6875 37.203125 44.609375 42.84375 
Q 40.53125 48.484375 33.40625 48.484375 
Q 26.265625 48.484375 22.1875 42.84375 
Q 18.109375 37.203125 18.109375 27.296875 
Q 18.109375 17.390625 22.1875 11.75 
Q 26.265625 6.109375 33.40625 6.109375 
Q 40.53125 6.109375 44.609375 11.75 
Q 48.6875 17.390625 48.6875 27.296875 
M 18.109375 46.390625 
Q 20.953125 51.265625 25.265625 53.625 
Q 29.59375 56 35.59375 56 
Q 45.5625 56 51.78125 48.09375 
Q 58.015625 40.1875 58.015625 27.296875 
Q 58.015625 14.40625 51.78125 6.484375 
Q 45.5625 -1.421875 35.59375 -1.421875 
Q 29.59375 -1.421875 25.265625 0.953125 
Q 20.953125 3.328125 18.109375 8.203125 
L 18.109375 0 
L 9.078125 0 
L 9.078125 75.984375 
L 18.109375 75.984375 
z
" id="BitstreamVeraSans-Roman-62"/>
      <path d="M 8.5 21.578125 
L 8.5 54.6875 
L 17.484375 54.6875 
L 17.484375 21.921875 
Q 17.484375 14.15625 20.5 10.265625 
Q 23.53125 6.390625 29.59375 6.390625 
Q 36.859375 6.390625 41.078125 11.03125 
Q 45.3125 15.671875 45.3125 23.6875 
L 45.3125 54.6875 
L 54.296875 54.6875 
L 54.296875 0 
L 45.3125 0 
L 45.3125 8.40625 
Q 42.046875 3.421875 37.71875 1 
Q 33.40625 -1.421875 27.6875 -1.421875 
Q 18.265625 -1.421875 13.375 4.4375 
Q 8.5 10.296875 8.5 21.578125 
" id="BitstreamVeraSans-Roman-75"/>
      <path d="M 34.28125 27.484375 
Q 23.390625 27.484375 19.1875 25 
Q 14.984375 22.515625 14.984375 16.5 
Q 14.984375 11.71875 18.140625 8.90625 
Q 21.296875 6.109375 26.703125 6.109375 
Q 34.1875 6.109375 38.703125 11.40625 
Q 43.21875 16.703125 43.21875 25.484375 
L 43.21875 27.484375 
z
M 52.203125 31.203125 
L 52.203125 0 
L 43.21875 0 
L 43.21875 8.296875 
Q 40.140625 3.328125 35.546875 0.953125 
Q 30.953125 -1.421875 24.3125 -1.421875 
Q 15.921875 -1.421875 10.953125 3.296875 
Q 6 8.015625 6 15.921875 
Q 6 25.140625 12.171875 29.828125 
Q 18.359375 34.515625 30.609375 34.515625 
L 43.21875 34.515625 
L 43.21875 35.40625 
Q 43.21875 41.609375 39.140625 45 
Q 35.0625 48.390625 27.6875 48.390625 
Q 23 48.390625 18.546875 47.265625 
Q 14.109375 46.140625 10.015625 43.890625 
L 10.015625 52.203125 
Q 14.9375 54.109375 19.578125 55.046875 
Q 24.21875 56 28.609375 56 
Q 40.484375 56 46.34375 49.84375 
Q 52.203125 43.703125 52.203125 31.203125 
" id="BitstreamVeraSans-Roman-61"/>
      <path d="M 18.109375 8.203125 
L 18.109375 -20.796875 
L 9.078125 -20.796875 
L 9.078125 54.6875 
L 18.109375 54.6875 
L 18.109375 46.390625 
Q 20.953125 51.265625 25.265625 53.625 
Q 29.59375 56 35.59375 56 
Q 45.5625 56 51.78125 48.09375 
Q 58.015625 40.1875 58.015625 27.296875 
Q 58.015625 14.40625 51.78125 6.484375 
Q 45.5625 -1.421875 35.59375 -1.421875 
Q 29.59375 -1.421875 25.265625 0.953125 
Q 20.953125 3.328125 18.109375 8.203125 
M 48.6875 27.296875 
Q 48.6875 37.203125 44.609375 42.84375 
Q 40.53125 48.484375 33.40625 48.484375 
Q 26.265625 48.484375 22.1875 42.84375 
Q 18.109375 37.203125 18.109375 27.296875 
Q 18.109375 17.390625 22.1875 11.75 
Q 26.265625 6.109375 33.40625 6.109375 
Q 40.53125 6.109375 44.609375 11.75 
Q 48.6875 17.390625 48.6875 27.296875 
" id="BitstreamVeraSans-Roman-70"/>
      <path d="M 14.796875 27.296875 
Q 14.796875 17.390625 18.875 11.75 
Q 22.953125 6.109375 30.078125 6.109375 
Q 37.203125 6.109375 41.296875 11.75 
Q 45.40625 17.390625 45.40625 27.296875 
Q 45.40625 37.203125 41.296875 42.84375 
Q 37.203125 48.484375 30.078125 48.484375 
Q 22.953125 48.484375 18.875 42.84375 
Q 14.796875 37.203125 14.796875 27.296875 
M 45.40625 8.203125 
Q 42.578125 3.328125 38.25 0.953125 
Q 33.9375 -1.421875 27.875 -1.421875 
Q 17.96875 -1.421875 11.734375 6.484375 
Q 5.515625 14.40625 5.515625 27.296875 
Q 5.515625 40.1875 11.734375 48.09375 
Q 17.96875 56 27.875 56 
Q 33.9375 56 38.25 53.625 
Q 42.578125 51.265625 45.40625 46.390625 
L 45.40625 54.6875 
L 54.390625 54.6875 
L 54.390625 -20.796875 
L 45.40625 -20.796875 
z
" id="BitstreamVeraSans-Roman-71"/>
     </defs>
     <g transform="translate(27.0171875 170.84609375)rotate(-90.0)scale(0.1 -0.1)">
      <use xlink:href="#BitstreamVeraSans-Roman-2d"/>
      <use x="36.083984375" xlink:href="#BitstreamVeraSans-Roman-70"/>
      <use x="99.560546875" xlink:href="#BitstreamVeraSans-Roman-72"/>
      <use x="140.642578125" xlink:href="#BitstreamVeraSans-Roman-6f"/>
      <use x="201.82421875" xlink:href="#BitstreamVeraSans-Roman-62"/>
      <use x="265.30078125" xlink:href="#BitstreamVeraSans-Roman-2d"/>
      <use x="301.384765625" xlink:href="#BitstreamVeraSans-Roman-71"/>
      <use x="364.861328125" xlink:href="#BitstreamVeraSans-Roman-75"/>
      <use x="428.240234375" xlink:href="#BitstreamVeraSans-Roman-61"/>
      <use x="489.51953125" xlink:href="#BitstreamVeraSans-Roman-6b"/>
      <use x="547.3828125" xlink:href="#BitstreamVeraSans-Roman-65"/>
     </g>
    </g>
   </g>
   <g id="legend_1">
    <g id="patch_5">
     <path d="M 224.73375 56.01375 
L 382.8 56.01375 
L 382.8 34.8 
L 224.73375 34.8 
z
" style="fill:#ffffff;stroke:#000000;stroke-linejoin:miter;"/>
    </g>
    <g id="PathCollection_2">
     <path d="M 233.13375 47.149264 
C 233.553073 47.149264 233.955278 46.982665 234.251784 46.686159 
C 234.54829 46.389653 234.714889 45.987448 234.714889 45.568125 
C 234.714889 45.148802 234.54829 44.746597 234.251784 44.450091 
C 233.955278 44.153585 233.553073 43.986986 233.13375 43.986986 
C 232.714427 43.986986 232.312222 44.153585 232.015716 44.450091 
C 231.71921 44.746597 231.552611 45.148802 231.552611 45.568125 
C 231.552611 45.987448 231.71921 46.389653 232.015716 46.686159 
C 232.312222 46.982665 232.714427 47.149264 233.13375 47.149264 
z
" style="fill:#0000ff;"/>
     <path d="M 241.53375 46.099264 
C 241.953073 46.099264 242.355278 45.932665 242.651784 45.636159 
C 242.94829 45.339653 243.114889 44.937448 243.114889 44.518125 
C 243.114889 44.098802 242.94829 43.696597 242.651784 43.400091 
C 242.355278 43.103585 241.953073 42.936986 241.53375 42.936986 
C 241.114427 42.936986 240.712222 43.103585 240.415716 43.400091 
C 240.11921 43.696597 239.952611 44.098802 239.952611 44.518125 
C 239.952611 44.937448 240.11921 45.339653 240.415716 45.636159 
C 240.712222 45.932665 241.114427 46.099264 241.53375 46.099264 
z
" style="fill:#0000ff;"/>
     <path d="M 249.93375 47.674264 
C 250.353073 47.674264 250.755278 47.507665 251.051784 47.211159 
C 251.34829 46.914653 251.514889 46.512448 251.514889 46.093125 
C 251.514889 45.673802 251.34829 45.271597 251.051784 44.975091 
C 250.755278 44.678585 250.353073 44.511986 249.93375 44.511986 
C 249.514427 44.511986 249.112222 44.678585 248.815716 44.975091 
C 248.51921 45.271597 248.352611 45.673802 248.352611 46.093125 
C 248.352611 46.512448 248.51921 46.914653 248.815716 47.211159 
C 249.112222 47.507665 249.514427 47.674264 249.93375 47.674264 
z
" style="fill:#0000ff;"/>
    </g>
    <g id="text_16">
     <!-- extend-prob-quake -->
     <defs>
      <path d="M 45.40625 46.390625 
L 45.40625 75.984375 
L 54.390625 75.984375 
L 54.390625 0 
L 45.40625 0 
L 45.40625 8.203125 
Q 42.578125 3.328125 38.25 0.953125 
Q 33.9375 -1.421875 27.875 -1.421875 
Q 17.96875 -1.421875 11.734375 6.484375 
Q 5.515625 14.40625 5.515625 27.296875 
Q 5.515625 40.1875 11.734375 48.09375 
Q 17.96875 56 27.875 56 
Q 33.9375 56 38.25 53.625 
Q 42.578125 51.265625 45.40625 46.390625 
M 14.796875 27.296875 
Q 14.796875 17.390625 18.875 11.75 
Q 22.953125 6.109375 30.078125 6.109375 
Q 37.203125 6.109375 41.296875 11.75 
Q 45.40625 17.390625 45.40625 27.296875 
Q 45.40625 37.203125 41.296875 42.84375 
Q 37.203125 48.484375 30.078125 48.484375 
Q 22.953125 48.484375 18.875 42.84375 
Q 14.796875 37.203125 14.796875 27.296875 
" id="BitstreamVeraSans-Roman-64"/>
     </defs>
     <g transform="translate(263.13375 48.718125)scale(0.12 -0.12)">
      <use xlink:href="#BitstreamVeraSans-Roman-65"/>
      <use x="61.5078125" xlink:href="#BitstreamVeraSans-Roman-78"/>
      <use x="120.6875" xlink:href="#BitstreamVeraSans-Roman-74"/>
      <use x="159.896484375" xlink:href="#BitstreamVeraSans-Roman-65"/>
      <use x="221.419921875" xlink:href="#BitstreamVeraSans-Roman-6e"/>
      <use x="284.798828125" xlink:href="#BitstreamVeraSans-Roman-64"/>
      <use x="348.275390625" xlink:href="#BitstreamVeraSans-Roman-2d"/>
      <use x="384.359375" xlink:href="#BitstreamVeraSans-Roman-70"/>
      <use x="447.8359375" xlink:href="#BitstreamVeraSans-Roman-72"/>
      <use x="488.91796875" xlink:href="#BitstreamVeraSans-Roman-6f"/>
      <use x="550.099609375" xlink:href="#BitstreamVeraSans-Roman-62"/>
      <use x="613.576171875" xlink:href="#BitstreamVeraSans-Roman-2d"/>
      <use x="649.66015625" xlink:href="#BitstreamVeraSans-Roman-71"/>
      <use x="713.13671875" xlink:href="#BitstreamVeraSans-Roman-75"/>
      <use x="776.515625" xlink:href="#BitstreamVeraSans-Roman-61"/>
      <use x="837.794921875" xlink:href="#BitstreamVeraSans-Roman-6b"/>
      <use x="895.658203125" xlink:href="#BitstreamVeraSans-Roman-65"/>
     </g>
    </g>
   </g>
  </g>
  <g id="text_17">
   <!-- tRNA-quake-quake-extend -->
   <defs>
    <path d="M 44.390625 34.1875 
Q 47.5625 33.109375 50.5625 29.59375 
Q 53.5625 26.078125 56.59375 19.921875 
L 66.609375 0 
L 56 0 
L 46.6875 18.703125 
Q 43.0625 26.03125 39.671875 28.421875 
Q 36.28125 30.8125 30.421875 30.8125 
L 19.671875 30.8125 
L 19.671875 0 
L 9.8125 0 
L 9.8125 72.90625 
L 32.078125 72.90625 
Q 44.578125 72.90625 50.734375 67.671875 
Q 56.890625 62.453125 56.890625 51.90625 
Q 56.890625 45.015625 53.6875 40.46875 
Q 50.484375 35.9375 44.390625 34.1875 
M 19.671875 64.796875 
L 19.671875 38.921875 
L 32.078125 38.921875 
Q 39.203125 38.921875 42.84375 42.21875 
Q 46.484375 45.515625 46.484375 51.90625 
Q 46.484375 58.296875 42.84375 61.546875 
Q 39.203125 64.796875 32.078125 64.796875 
z
" id="BitstreamVeraSans-Roman-52"/>
    <path d="M 9.8125 72.90625 
L 23.09375 72.90625 
L 55.421875 11.921875 
L 55.421875 72.90625 
L 64.984375 72.90625 
L 64.984375 0 
L 51.703125 0 
L 19.390625 60.984375 
L 19.390625 0 
L 9.8125 0 
z
" id="BitstreamVeraSans-Roman-4e"/>
    <path d="M 34.1875 63.1875 
L 20.796875 26.90625 
L 47.609375 26.90625 
z
M 28.609375 72.90625 
L 39.796875 72.90625 
L 67.578125 0 
L 57.328125 0 
L 50.6875 18.703125 
L 17.828125 18.703125 
L 11.1875 0 
L 0.78125 0 
z
" id="BitstreamVeraSans-Roman-41"/>
   </defs>
   <g transform="translate(149.8265625 19.1184375)scale(0.1 -0.1)">
    <use xlink:href="#BitstreamVeraSans-Roman-74"/>
    <use x="39.208984375" xlink:href="#BitstreamVeraSans-Roman-52"/>
    <use x="108.69140625" xlink:href="#BitstreamVeraSans-Roman-4e"/>
    <use x="183.49609375" xlink:href="#BitstreamVeraSans-Roman-41"/>
    <use x="251.873046875" xlink:href="#BitstreamVeraSans-Roman-2d"/>
    <use x="287.95703125" xlink:href="#BitstreamVeraSans-Roman-71"/>
    <use x="351.43359375" xlink:href="#BitstreamVeraSans-Roman-75"/>
    <use x="414.8125" xlink:href="#BitstreamVeraSans-Roman-61"/>
    <use x="476.091796875" xlink:href="#BitstreamVeraSans-Roman-6b"/>
    <use x="533.955078125" xlink:href="#BitstreamVeraSans-Roman-65"/>
    <use x="595.478515625" xlink:href="#BitstreamVeraSans-Roman-2d"/>
    <use x="631.5625" xlink:href="#BitstreamVeraSans-Roman-71"/>
    <use x="695.0390625" xlink:href="#BitstreamVeraSans-Roman-75"/>
    <use x="758.41796875" xlink:href="#BitstreamVeraSans-Roman-61"/>
    <use x="819.697265625" xlink:href="#BitstreamVeraSans-Roman-6b"/>
    <use x="877.560546875" xlink:href="#BitstreamVeraSans-Roman-65"/>
    <use x="939.083984375" xlink:href="#BitstreamVeraSans-Roman-2d"/>
    <use x="975.16796875" xlink:href="#BitstreamVeraSans-Roman-65"/>
    <use x="1036.67578125" xlink:href="#BitstreamVeraSans-Roman-78"/>
    <use x="1095.85546875" xlink:href="#BitstreamVeraSans-Roman-74"/>
    <use x="1135.06445312" xlink:href="#BitstreamVeraSans-Roman-65"/>
    <use x="1196.58789062" xlink:href="#BitstreamVeraSans-Roman-6e"/>
    <use x="1259.96679688" xlink:href="#BitstreamVeraSans-Roman-64"/>
   </g>
  </g>
 </g>
 <defs>
  <clipPath id="pb7d9040535">
   <rect height="223.2" width="334.8" x="54.0" y="28.8"/>
  </clipPath>
 </defs>
</svg>
