<?xml version="1.0" encoding="utf-8" standalone="no"?>
<!DOCTYPE svg PUBLIC "-//W3C//DTD SVG 1.1//EN"
  "http://www.w3.org/Graphics/SVG/1.1/DTD/svg11.dtd">
<!-- Created with matplotlib (http://matplotlib.org/) -->
<svg height="288pt" version="1.1" viewBox="0 0 432 288" width="432pt" xmlns="http://www.w3.org/2000/svg" xmlns:xlink="http://www.w3.org/1999/xlink">
 <defs>
  <style type="text/css">
*{stroke-linecap:butt;stroke-linejoin:round;stroke-miterlimit:100000;}
  </style>
 </defs>
 <g id="figure_1">
  <g id="patch_1">
   <path d="M 0 288 
L 432 288 
L 432 0 
L 0 0 
z
" style="fill:#ffffff;"/>
  </g>
  <g id="axes_1">
   <g id="patch_2">
    <path d="M 54 252 
L 388.8 252 
L 388.8 28.8 
L 54 28.8 
z
" style="fill:#ffffff;"/>
   </g>
   <g id="PathCollection_1">
    <defs>
     <path d="M 0 1.581139 
C 0.419323 1.581139 0.821528 1.41454 1.118034 1.118034 
C 1.41454 0.821528 1.581139 0.419323 1.581139 0 
C 1.581139 -0.419323 1.41454 -0.821528 1.118034 -1.118034 
C 0.821528 -1.41454 0.419323 -1.581139 0 -1.581139 
C -0.419323 -1.581139 -0.821528 -1.41454 -1.118034 -1.118034 
C -1.41454 -0.821528 -1.581139 -0.419323 -1.581139 0 
C -1.581139 0.419323 -1.41454 0.821528 -1.118034 1.118034 
C -0.821528 1.41454 -0.419323 1.581139 0 1.581139 
z
" id="me33b79ec7b"/>
    </defs>
    <g clip-path="url(#p5504fd2f1c)">
     <use style="fill:#ff0000;" x="53.4410684474" xlink:href="#me33b79ec7b" y="10737.1429124"/>
     <use style="fill:#ff0000;" x="56.2357262104" xlink:href="#me33b79ec7b" y="74.9496681663"/>
     <use style="fill:#ff0000;" x="59.0303839733" xlink:href="#me33b79ec7b" y="74.9470000649"/>
     <use style="fill:#ff0000;" x="61.8250417362" xlink:href="#me33b79ec7b" y="74.9488330764"/>
     <use style="fill:#ff0000;" x="64.6196994992" xlink:href="#me33b79ec7b" y="74.9469549624"/>
     <use style="fill:#ff0000;" x="67.4143572621" xlink:href="#me33b79ec7b" y="74.9631077642"/>
     <use style="fill:#ff0000;" x="70.209015025" xlink:href="#me33b79ec7b" y="75.6152470182"/>
     <use style="fill:#ff0000;" x="73.003672788" xlink:href="#me33b79ec7b" y="81.1236542759"/>
     <use style="fill:#ff0000;" x="75.7983305509" xlink:href="#me33b79ec7b" y="74.949170982"/>
     <use style="fill:#ff0000;" x="78.5929883139" xlink:href="#me33b79ec7b" y="104.670019711"/>
     <use style="fill:#ff0000;" x="81.3876460768" xlink:href="#me33b79ec7b" y="74.9462985944"/>
     <use style="fill:#ff0000;" x="84.1823038397" xlink:href="#me33b79ec7b" y="133.249919718"/>
     <use style="fill:#ff0000;" x="86.9769616027" xlink:href="#me33b79ec7b" y="75.4186288741"/>
     <use style="fill:#ff0000;" x="89.7716193656" xlink:href="#me33b79ec7b" y="74.9471344787"/>
     <use style="fill:#ff0000;" x="92.5662771285" xlink:href="#me33b79ec7b" y="80.4381878053"/>
     <use style="fill:#ff0000;" x="95.3609348915" xlink:href="#me33b79ec7b" y="78.0972740274"/>
     <use style="fill:#ff0000;" x="98.1555926544" xlink:href="#me33b79ec7b" y="78.4135801339"/>
     <use style="fill:#ff0000;" x="100.950250417" xlink:href="#me33b79ec7b" y="122.529594901"/>
     <use style="fill:#ff0000;" x="103.74490818" xlink:href="#me33b79ec7b" y="82.3248052469"/>
     <use style="fill:#ff0000;" x="106.539565943" xlink:href="#me33b79ec7b" y="112.713122779"/>
     <use style="fill:#ff0000;" x="109.334223706" xlink:href="#me33b79ec7b" y="99.565345822"/>
     <use style="fill:#ff0000;" x="112.128881469" xlink:href="#me33b79ec7b" y="74.9464458914"/>
     <use style="fill:#ff0000;" x="114.923539232" xlink:href="#me33b79ec7b" y="75.1295744356"/>
     <use style="fill:#ff0000;" x="117.718196995" xlink:href="#me33b79ec7b" y="75.2809430226"/>
     <use style="fill:#ff0000;" x="120.512854758" xlink:href="#me33b79ec7b" y="75.9574109308"/>
     <use style="fill:#ff0000;" x="123.307512521" xlink:href="#me33b79ec7b" y="79.6519125873"/>
     <use style="fill:#ff0000;" x="126.102170284" xlink:href="#me33b79ec7b" y="197.89804962"/>
     <use style="fill:#ff0000;" x="128.896828047" xlink:href="#me33b79ec7b" y="75.1135810031"/>
     <use style="fill:#ff0000;" x="131.69148581" xlink:href="#me33b79ec7b" y="76.4708890634"/>
     <use style="fill:#ff0000;" x="134.486143573" xlink:href="#me33b79ec7b" y="74.9465176905"/>
     <use style="fill:#ff0000;" x="137.280801336" xlink:href="#me33b79ec7b" y="10737.1429124"/>
     <use style="fill:#ff0000;" x="140.075459098" xlink:href="#me33b79ec7b" y="75.2832810954"/>
     <use style="fill:#ff0000;" x="142.870116861" xlink:href="#me33b79ec7b" y="87.4102396286"/>
     <use style="fill:#ff0000;" x="145.664774624" xlink:href="#me33b79ec7b" y="76.1581621814"/>
     <use style="fill:#ff0000;" x="148.459432387" xlink:href="#me33b79ec7b" y="120.658128731"/>
     <use style="fill:#ff0000;" x="151.25409015" xlink:href="#me33b79ec7b" y="100.380547099"/>
     <use style="fill:#ff0000;" x="154.048747913" xlink:href="#me33b79ec7b" y="76.1606663289"/>
     <use style="fill:#ff0000;" x="156.843405676" xlink:href="#me33b79ec7b" y="97.8495695307"/>
     <use style="fill:#ff0000;" x="159.638063439" xlink:href="#me33b79ec7b" y="206.404923704"/>
     <use style="fill:#ff0000;" x="162.432721202" xlink:href="#me33b79ec7b" y="124.22472723"/>
     <use style="fill:#ff0000;" x="165.227378965" xlink:href="#me33b79ec7b" y="106.462954935"/>
     <use style="fill:#ff0000;" x="168.022036728" xlink:href="#me33b79ec7b" y="74.9490540403"/>
     <use style="fill:#ff0000;" x="170.816694491" xlink:href="#me33b79ec7b" y="214.803813152"/>
     <use style="fill:#ff0000;" x="173.611352254" xlink:href="#me33b79ec7b" y="75.3494334706"/>
     <use style="fill:#ff0000;" x="176.406010017" xlink:href="#me33b79ec7b" y="136.649981907"/>
     <use style="fill:#ff0000;" x="179.20066778" xlink:href="#me33b79ec7b" y="152.973978582"/>
     <use style="fill:#ff0000;" x="181.995325543" xlink:href="#me33b79ec7b" y="75.5271273019"/>
     <use style="fill:#ff0000;" x="184.789983306" xlink:href="#me33b79ec7b" y="158.486522883"/>
     <use style="fill:#ff0000;" x="187.584641068" xlink:href="#me33b79ec7b" y="111.426165964"/>
     <use style="fill:#ff0000;" x="190.379298831" xlink:href="#me33b79ec7b" y="75.3951358042"/>
     <use style="fill:#ff0000;" x="193.173956594" xlink:href="#me33b79ec7b" y="75.1350773429"/>
     <use style="fill:#ff0000;" x="195.968614357" xlink:href="#me33b79ec7b" y="78.1330136832"/>
     <use style="fill:#ff0000;" x="198.76327212" xlink:href="#me33b79ec7b" y="75.0136152832"/>
     <use style="fill:#ff0000;" x="201.557929883" xlink:href="#me33b79ec7b" y="123.670187743"/>
     <use style="fill:#ff0000;" x="204.352587646" xlink:href="#me33b79ec7b" y="81.4724477218"/>
     <use style="fill:#ff0000;" x="207.147245409" xlink:href="#me33b79ec7b" y="83.2897265497"/>
     <use style="fill:#ff0000;" x="209.941903172" xlink:href="#me33b79ec7b" y="81.1859672501"/>
     <use style="fill:#ff0000;" x="212.736560935" xlink:href="#me33b79ec7b" y="100.236946902"/>
     <use style="fill:#ff0000;" x="215.531218698" xlink:href="#me33b79ec7b" y="80.0308858836"/>
     <use style="fill:#ff0000;" x="218.325876461" xlink:href="#me33b79ec7b" y="142.549340545"/>
     <use style="fill:#ff0000;" x="221.120534224" xlink:href="#me33b79ec7b" y="78.8317564294"/>
     <use style="fill:#ff0000;" x="223.915191987" xlink:href="#me33b79ec7b" y="124.837645783"/>
     <use style="fill:#ff0000;" x="226.70984975" xlink:href="#me33b79ec7b" y="153.432822824"/>
     <use style="fill:#ff0000;" x="229.504507513" xlink:href="#me33b79ec7b" y="104.503090366"/>
     <use style="fill:#ff0000;" x="232.299165275" xlink:href="#me33b79ec7b" y="10737.1429124"/>
     <use style="fill:#ff0000;" x="235.093823038" xlink:href="#me33b79ec7b" y="102.933719339"/>
     <use style="fill:#ff0000;" x="237.888480801" xlink:href="#me33b79ec7b" y="174.408043891"/>
     <use style="fill:#ff0000;" x="240.683138564" xlink:href="#me33b79ec7b" y="99.948779206"/>
     <use style="fill:#ff0000;" x="243.477796327" xlink:href="#me33b79ec7b" y="206.071016244"/>
     <use style="fill:#ff0000;" x="246.27245409" xlink:href="#me33b79ec7b" y="87.9383566022"/>
     <use style="fill:#ff0000;" x="249.067111853" xlink:href="#me33b79ec7b" y="125.114295541"/>
     <use style="fill:#ff0000;" x="251.861769616" xlink:href="#me33b79ec7b" y="88.7361369399"/>
     <use style="fill:#ff0000;" x="254.656427379" xlink:href="#me33b79ec7b" y="226.278958324"/>
     <use style="fill:#ff0000;" x="257.451085142" xlink:href="#me33b79ec7b" y="89.0313978494"/>
     <use style="fill:#ff0000;" x="260.245742905" xlink:href="#me33b79ec7b" y="76.0559190295"/>
     <use style="fill:#ff0000;" x="263.040400668" xlink:href="#me33b79ec7b" y="76.9164775409"/>
     <use style="fill:#ff0000;" x="265.835058431" xlink:href="#me33b79ec7b" y="100.092341715"/>
     <use style="fill:#ff0000;" x="268.629716194" xlink:href="#me33b79ec7b" y="123.34640821"/>
     <use style="fill:#ff0000;" x="271.424373957" xlink:href="#me33b79ec7b" y="10737.1429124"/>
     <use style="fill:#ff0000;" x="274.21903172" xlink:href="#me33b79ec7b" y="102.512610051"/>
     <use style="fill:#ff0000;" x="277.013689482" xlink:href="#me33b79ec7b" y="116.794677242"/>
     <use style="fill:#ff0000;" x="279.808347245" xlink:href="#me33b79ec7b" y="78.5451288774"/>
     <use style="fill:#ff0000;" x="282.603005008" xlink:href="#me33b79ec7b" y="86.2374775473"/>
     <use style="fill:#ff0000;" x="285.397662771" xlink:href="#me33b79ec7b" y="75.3621535792"/>
     <use style="fill:#ff0000;" x="288.192320534" xlink:href="#me33b79ec7b" y="74.9484721443"/>
     <use style="fill:#ff0000;" x="290.986978297" xlink:href="#me33b79ec7b" y="93.301281241"/>
     <use style="fill:#ff0000;" x="293.78163606" xlink:href="#me33b79ec7b" y="162.798231501"/>
     <use style="fill:#ff0000;" x="296.576293823" xlink:href="#me33b79ec7b" y="75.0408610565"/>
     <use style="fill:#ff0000;" x="299.370951586" xlink:href="#me33b79ec7b" y="96.1091128052"/>
     <use style="fill:#ff0000;" x="302.165609349" xlink:href="#me33b79ec7b" y="77.307158884"/>
     <use style="fill:#ff0000;" x="304.960267112" xlink:href="#me33b79ec7b" y="108.37760892"/>
     <use style="fill:#ff0000;" x="307.754924875" xlink:href="#me33b79ec7b" y="167.377819781"/>
     <use style="fill:#ff0000;" x="310.549582638" xlink:href="#me33b79ec7b" y="85.8183917693"/>
     <use style="fill:#ff0000;" x="313.344240401" xlink:href="#me33b79ec7b" y="83.0632152082"/>
     <use style="fill:#ff0000;" x="316.138898164" xlink:href="#me33b79ec7b" y="126.535684472"/>
     <use style="fill:#ff0000;" x="318.933555927" xlink:href="#me33b79ec7b" y="214.439408139"/>
     <use style="fill:#ff0000;" x="321.728213689" xlink:href="#me33b79ec7b" y="78.7639308289"/>
     <use style="fill:#ff0000;" x="324.522871452" xlink:href="#me33b79ec7b" y="125.248192342"/>
     <use style="fill:#ff0000;" x="327.317529215" xlink:href="#me33b79ec7b" y="93.9459777433"/>
     <use style="fill:#ff0000;" x="330.112186978" xlink:href="#me33b79ec7b" y="75.1801229951"/>
     <use style="fill:#ff0000;" x="332.906844741" xlink:href="#me33b79ec7b" y="78.4290128188"/>
     <use style="fill:#ff0000;" x="335.701502504" xlink:href="#me33b79ec7b" y="135.430935714"/>
     <use style="fill:#ff0000;" x="338.496160267" xlink:href="#me33b79ec7b" y="88.2750008635"/>
     <use style="fill:#ff0000;" x="341.29081803" xlink:href="#me33b79ec7b" y="86.6541993659"/>
     <use style="fill:#ff0000;" x="344.085475793" xlink:href="#me33b79ec7b" y="75.6491778174"/>
     <use style="fill:#ff0000;" x="346.880133556" xlink:href="#me33b79ec7b" y="82.0177490692"/>
     <use style="fill:#ff0000;" x="349.674791319" xlink:href="#me33b79ec7b" y="76.0658676681"/>
     <use style="fill:#ff0000;" x="352.469449082" xlink:href="#me33b79ec7b" y="74.9733468727"/>
     <use style="fill:#ff0000;" x="355.264106845" xlink:href="#me33b79ec7b" y="125.775708209"/>
     <use style="fill:#ff0000;" x="358.058764608" xlink:href="#me33b79ec7b" y="83.3464065707"/>
     <use style="fill:#ff0000;" x="360.853422371" xlink:href="#me33b79ec7b" y="115.649135261"/>
     <use style="fill:#ff0000;" x="363.648080134" xlink:href="#me33b79ec7b" y="215.652379441"/>
     <use style="fill:#ff0000;" x="366.442737896" xlink:href="#me33b79ec7b" y="77.4945967226"/>
     <use style="fill:#ff0000;" x="369.237395659" xlink:href="#me33b79ec7b" y="10737.1429124"/>
     <use style="fill:#ff0000;" x="372.032053422" xlink:href="#me33b79ec7b" y="77.5926183374"/>
     <use style="fill:#ff0000;" x="374.826711185" xlink:href="#me33b79ec7b" y="74.9626009243"/>
     <use style="fill:#ff0000;" x="377.621368948" xlink:href="#me33b79ec7b" y="103.90426155"/>
     <use style="fill:#ff0000;" x="380.416026711" xlink:href="#me33b79ec7b" y="211.598429028"/>
     <use style="fill:#ff0000;" x="383.210684474" xlink:href="#me33b79ec7b" y="159.120087323"/>
     <use style="fill:#ff0000;" x="386.005342237" xlink:href="#me33b79ec7b" y="76.3671398931"/>
    </g>
   </g>
   <g id="patch_3">
    <path d="M 54 252 
L 388.8 252 
" style="fill:none;stroke:#000000;stroke-linecap:square;stroke-linejoin:miter;"/>
   </g>
   <g id="patch_4">
    <path d="M 54 252 
L 54 28.8 
" style="fill:none;stroke:#000000;stroke-linecap:square;stroke-linejoin:miter;"/>
   </g>
   <g id="matplotlib.axis_1">
    <g id="xtick_1">
     <g id="line2d_1">
      <defs>
       <path d="M 0 0 
L 0 -4 
" id="m7f1dde6d88" style="stroke:#000000;stroke-width:0.5;"/>
      </defs>
      <g>
       <use style="stroke:#000000;stroke-width:0.5;" x="109.334223706" xlink:href="#m7f1dde6d88" y="252.0"/>
      </g>
     </g>
     <g id="line2d_2">
      <defs>
       <path d="M 0 0 
L 0 4 
" id="m50cb3db1a6" style="stroke:#000000;stroke-width:0.5;"/>
      </defs>
      <g>
       <use style="stroke:#000000;stroke-width:0.5;" x="109.334223706" xlink:href="#m50cb3db1a6" y="28.8"/>
      </g>
     </g>
     <g id="text_1">
      <!-- 100 -->
      <defs>
       <path d="M 31.78125 66.40625 
Q 24.171875 66.40625 20.328125 58.90625 
Q 16.5 51.421875 16.5 36.375 
Q 16.5 21.390625 20.328125 13.890625 
Q 24.171875 6.390625 31.78125 6.390625 
Q 39.453125 6.390625 43.28125 13.890625 
Q 47.125 21.390625 47.125 36.375 
Q 47.125 51.421875 43.28125 58.90625 
Q 39.453125 66.40625 31.78125 66.40625 
M 31.78125 74.21875 
Q 44.046875 74.21875 50.515625 64.515625 
Q 56.984375 54.828125 56.984375 36.375 
Q 56.984375 17.96875 50.515625 8.265625 
Q 44.046875 -1.421875 31.78125 -1.421875 
Q 19.53125 -1.421875 13.0625 8.265625 
Q 6.59375 17.96875 6.59375 36.375 
Q 6.59375 54.828125 13.0625 64.515625 
Q 19.53125 74.21875 31.78125 74.21875 
" id="BitstreamVeraSans-Roman-30"/>
       <path d="M 12.40625 8.296875 
L 28.515625 8.296875 
L 28.515625 63.921875 
L 10.984375 60.40625 
L 10.984375 69.390625 
L 28.421875 72.90625 
L 38.28125 72.90625 
L 38.28125 8.296875 
L 54.390625 8.296875 
L 54.390625 0 
L 12.40625 0 
z
" id="BitstreamVeraSans-Roman-31"/>
      </defs>
      <g transform="translate(99.7904737062 263.5984375)scale(0.1 -0.1)">
       <use xlink:href="#BitstreamVeraSans-Roman-31"/>
       <use x="63.623046875" xlink:href="#BitstreamVeraSans-Roman-30"/>
       <use x="127.24609375" xlink:href="#BitstreamVeraSans-Roman-30"/>
      </g>
     </g>
    </g>
    <g id="xtick_2">
     <g id="line2d_3">
      <g>
       <use style="stroke:#000000;stroke-width:0.5;" x="165.227378965" xlink:href="#m7f1dde6d88" y="252.0"/>
      </g>
     </g>
     <g id="line2d_4">
      <g>
       <use style="stroke:#000000;stroke-width:0.5;" x="165.227378965" xlink:href="#m50cb3db1a6" y="28.8"/>
      </g>
     </g>
     <g id="text_2">
      <!-- 200 -->
      <defs>
       <path d="M 19.1875 8.296875 
L 53.609375 8.296875 
L 53.609375 0 
L 7.328125 0 
L 7.328125 8.296875 
Q 12.9375 14.109375 22.625 23.890625 
Q 32.328125 33.6875 34.8125 36.53125 
Q 39.546875 41.84375 41.421875 45.53125 
Q 43.3125 49.21875 43.3125 52.78125 
Q 43.3125 58.59375 39.234375 62.25 
Q 35.15625 65.921875 28.609375 65.921875 
Q 23.96875 65.921875 18.8125 64.3125 
Q 13.671875 62.703125 7.8125 59.421875 
L 7.8125 69.390625 
Q 13.765625 71.78125 18.9375 73 
Q 24.125 74.21875 28.421875 74.21875 
Q 39.75 74.21875 46.484375 68.546875 
Q 53.21875 62.890625 53.21875 53.421875 
Q 53.21875 48.921875 51.53125 44.890625 
Q 49.859375 40.875 45.40625 35.40625 
Q 44.1875 33.984375 37.640625 27.21875 
Q 31.109375 20.453125 19.1875 8.296875 
" id="BitstreamVeraSans-Roman-32"/>
      </defs>
      <g transform="translate(155.683628965 263.5984375)scale(0.1 -0.1)">
       <use xlink:href="#BitstreamVeraSans-Roman-32"/>
       <use x="63.623046875" xlink:href="#BitstreamVeraSans-Roman-30"/>
       <use x="127.24609375" xlink:href="#BitstreamVeraSans-Roman-30"/>
      </g>
     </g>
    </g>
    <g id="xtick_3">
     <g id="line2d_5">
      <g>
       <use style="stroke:#000000;stroke-width:0.5;" x="221.120534224" xlink:href="#m7f1dde6d88" y="252.0"/>
      </g>
     </g>
     <g id="line2d_6">
      <g>
       <use style="stroke:#000000;stroke-width:0.5;" x="221.120534224" xlink:href="#m50cb3db1a6" y="28.8"/>
      </g>
     </g>
     <g id="text_3">
      <!-- 300 -->
      <defs>
       <path d="M 40.578125 39.3125 
Q 47.65625 37.796875 51.625 33 
Q 55.609375 28.21875 55.609375 21.1875 
Q 55.609375 10.40625 48.1875 4.484375 
Q 40.765625 -1.421875 27.09375 -1.421875 
Q 22.515625 -1.421875 17.65625 -0.515625 
Q 12.796875 0.390625 7.625 2.203125 
L 7.625 11.71875 
Q 11.71875 9.328125 16.59375 8.109375 
Q 21.484375 6.890625 26.8125 6.890625 
Q 36.078125 6.890625 40.9375 10.546875 
Q 45.796875 14.203125 45.796875 21.1875 
Q 45.796875 27.640625 41.28125 31.265625 
Q 36.765625 34.90625 28.71875 34.90625 
L 20.21875 34.90625 
L 20.21875 43.015625 
L 29.109375 43.015625 
Q 36.375 43.015625 40.234375 45.921875 
Q 44.09375 48.828125 44.09375 54.296875 
Q 44.09375 59.90625 40.109375 62.90625 
Q 36.140625 65.921875 28.71875 65.921875 
Q 24.65625 65.921875 20.015625 65.03125 
Q 15.375 64.15625 9.8125 62.3125 
L 9.8125 71.09375 
Q 15.4375 72.65625 20.34375 73.4375 
Q 25.25 74.21875 29.59375 74.21875 
Q 40.828125 74.21875 47.359375 69.109375 
Q 53.90625 64.015625 53.90625 55.328125 
Q 53.90625 49.265625 50.4375 45.09375 
Q 46.96875 40.921875 40.578125 39.3125 
" id="BitstreamVeraSans-Roman-33"/>
      </defs>
      <g transform="translate(211.576784224 263.5984375)scale(0.1 -0.1)">
       <use xlink:href="#BitstreamVeraSans-Roman-33"/>
       <use x="63.623046875" xlink:href="#BitstreamVeraSans-Roman-30"/>
       <use x="127.24609375" xlink:href="#BitstreamVeraSans-Roman-30"/>
      </g>
     </g>
    </g>
    <g id="xtick_4">
     <g id="line2d_7">
      <g>
       <use style="stroke:#000000;stroke-width:0.5;" x="277.013689482" xlink:href="#m7f1dde6d88" y="252.0"/>
      </g>
     </g>
     <g id="line2d_8">
      <g>
       <use style="stroke:#000000;stroke-width:0.5;" x="277.013689482" xlink:href="#m50cb3db1a6" y="28.8"/>
      </g>
     </g>
     <g id="text_4">
      <!-- 400 -->
      <defs>
       <path d="M 37.796875 64.3125 
L 12.890625 25.390625 
L 37.796875 25.390625 
z
M 35.203125 72.90625 
L 47.609375 72.90625 
L 47.609375 25.390625 
L 58.015625 25.390625 
L 58.015625 17.1875 
L 47.609375 17.1875 
L 47.609375 0 
L 37.796875 0 
L 37.796875 17.1875 
L 4.890625 17.1875 
L 4.890625 26.703125 
z
" id="BitstreamVeraSans-Roman-34"/>
      </defs>
      <g transform="translate(267.469939482 263.5984375)scale(0.1 -0.1)">
       <use xlink:href="#BitstreamVeraSans-Roman-34"/>
       <use x="63.623046875" xlink:href="#BitstreamVeraSans-Roman-30"/>
       <use x="127.24609375" xlink:href="#BitstreamVeraSans-Roman-30"/>
      </g>
     </g>
    </g>
    <g id="xtick_5">
     <g id="line2d_9">
      <g>
       <use style="stroke:#000000;stroke-width:0.5;" x="332.906844741" xlink:href="#m7f1dde6d88" y="252.0"/>
      </g>
     </g>
     <g id="line2d_10">
      <g>
       <use style="stroke:#000000;stroke-width:0.5;" x="332.906844741" xlink:href="#m50cb3db1a6" y="28.8"/>
      </g>
     </g>
     <g id="text_5">
      <!-- 500 -->
      <defs>
       <path d="M 10.796875 72.90625 
L 49.515625 72.90625 
L 49.515625 64.59375 
L 19.828125 64.59375 
L 19.828125 46.734375 
Q 21.96875 47.46875 24.109375 47.828125 
Q 26.265625 48.1875 28.421875 48.1875 
Q 40.625 48.1875 47.75 41.5 
Q 54.890625 34.8125 54.890625 23.390625 
Q 54.890625 11.625 47.5625 5.09375 
Q 40.234375 -1.421875 26.90625 -1.421875 
Q 22.3125 -1.421875 17.546875 -0.640625 
Q 12.796875 0.140625 7.71875 1.703125 
L 7.71875 11.625 
Q 12.109375 9.234375 16.796875 8.0625 
Q 21.484375 6.890625 26.703125 6.890625 
Q 35.15625 6.890625 40.078125 11.328125 
Q 45.015625 15.765625 45.015625 23.390625 
Q 45.015625 31 40.078125 35.4375 
Q 35.15625 39.890625 26.703125 39.890625 
Q 22.75 39.890625 18.8125 39.015625 
Q 14.890625 38.140625 10.796875 36.28125 
z
" id="BitstreamVeraSans-Roman-35"/>
      </defs>
      <g transform="translate(323.363094741 263.5984375)scale(0.1 -0.1)">
       <use xlink:href="#BitstreamVeraSans-Roman-35"/>
       <use x="63.623046875" xlink:href="#BitstreamVeraSans-Roman-30"/>
       <use x="127.24609375" xlink:href="#BitstreamVeraSans-Roman-30"/>
      </g>
     </g>
    </g>
    <g id="xtick_6">
     <g id="line2d_11">
      <g>
       <use style="stroke:#000000;stroke-width:0.5;" x="388.8" xlink:href="#m7f1dde6d88" y="252.0"/>
      </g>
     </g>
     <g id="line2d_12">
      <g>
       <use style="stroke:#000000;stroke-width:0.5;" x="388.8" xlink:href="#m50cb3db1a6" y="28.8"/>
      </g>
     </g>
     <g id="text_6">
      <!-- 600 -->
      <defs>
       <path d="M 33.015625 40.375 
Q 26.375 40.375 22.484375 35.828125 
Q 18.609375 31.296875 18.609375 23.390625 
Q 18.609375 15.53125 22.484375 10.953125 
Q 26.375 6.390625 33.015625 6.390625 
Q 39.65625 6.390625 43.53125 10.953125 
Q 47.40625 15.53125 47.40625 23.390625 
Q 47.40625 31.296875 43.53125 35.828125 
Q 39.65625 40.375 33.015625 40.375 
M 52.59375 71.296875 
L 52.59375 62.3125 
Q 48.875 64.0625 45.09375 64.984375 
Q 41.3125 65.921875 37.59375 65.921875 
Q 27.828125 65.921875 22.671875 59.328125 
Q 17.53125 52.734375 16.796875 39.40625 
Q 19.671875 43.65625 24.015625 45.921875 
Q 28.375 48.1875 33.59375 48.1875 
Q 44.578125 48.1875 50.953125 41.515625 
Q 57.328125 34.859375 57.328125 23.390625 
Q 57.328125 12.15625 50.6875 5.359375 
Q 44.046875 -1.421875 33.015625 -1.421875 
Q 20.359375 -1.421875 13.671875 8.265625 
Q 6.984375 17.96875 6.984375 36.375 
Q 6.984375 53.65625 15.1875 63.9375 
Q 23.390625 74.21875 37.203125 74.21875 
Q 40.921875 74.21875 44.703125 73.484375 
Q 48.484375 72.75 52.59375 71.296875 
" id="BitstreamVeraSans-Roman-36"/>
      </defs>
      <g transform="translate(379.25625 263.5984375)scale(0.1 -0.1)">
       <use xlink:href="#BitstreamVeraSans-Roman-36"/>
       <use x="63.623046875" xlink:href="#BitstreamVeraSans-Roman-30"/>
       <use x="127.24609375" xlink:href="#BitstreamVeraSans-Roman-30"/>
      </g>
     </g>
    </g>
    <g id="text_7">
     <!-- context-length -->
     <defs>
      <path d="M 54.890625 33.015625 
L 54.890625 0 
L 45.90625 0 
L 45.90625 32.71875 
Q 45.90625 40.484375 42.875 44.328125 
Q 39.84375 48.1875 33.796875 48.1875 
Q 26.515625 48.1875 22.3125 43.546875 
Q 18.109375 38.921875 18.109375 30.90625 
L 18.109375 0 
L 9.078125 0 
L 9.078125 54.6875 
L 18.109375 54.6875 
L 18.109375 46.1875 
Q 21.34375 51.125 25.703125 53.5625 
Q 30.078125 56 35.796875 56 
Q 45.21875 56 50.046875 50.171875 
Q 54.890625 44.34375 54.890625 33.015625 
" id="BitstreamVeraSans-Roman-6e"/>
      <path d="M 30.609375 48.390625 
Q 23.390625 48.390625 19.1875 42.75 
Q 14.984375 37.109375 14.984375 27.296875 
Q 14.984375 17.484375 19.15625 11.84375 
Q 23.34375 6.203125 30.609375 6.203125 
Q 37.796875 6.203125 41.984375 11.859375 
Q 46.1875 17.53125 46.1875 27.296875 
Q 46.1875 37.015625 41.984375 42.703125 
Q 37.796875 48.390625 30.609375 48.390625 
M 30.609375 56 
Q 42.328125 56 49.015625 48.375 
Q 55.71875 40.765625 55.71875 27.296875 
Q 55.71875 13.875 49.015625 6.21875 
Q 42.328125 -1.421875 30.609375 -1.421875 
Q 18.84375 -1.421875 12.171875 6.21875 
Q 5.515625 13.875 5.515625 27.296875 
Q 5.515625 40.765625 12.171875 48.375 
Q 18.84375 56 30.609375 56 
" id="BitstreamVeraSans-Roman-6f"/>
      <path d="M 9.421875 75.984375 
L 18.40625 75.984375 
L 18.40625 0 
L 9.421875 0 
z
" id="BitstreamVeraSans-Roman-6c"/>
      <path d="M 4.890625 31.390625 
L 31.203125 31.390625 
L 31.203125 23.390625 
L 4.890625 23.390625 
z
" id="BitstreamVeraSans-Roman-2d"/>
      <path d="M 54.890625 54.6875 
L 35.109375 28.078125 
L 55.90625 0 
L 45.3125 0 
L 29.390625 21.484375 
L 13.484375 0 
L 2.875 0 
L 24.125 28.609375 
L 4.6875 54.6875 
L 15.28125 54.6875 
L 29.78125 35.203125 
L 44.28125 54.6875 
z
" id="BitstreamVeraSans-Roman-78"/>
      <path d="M 56.203125 29.59375 
L 56.203125 25.203125 
L 14.890625 25.203125 
Q 15.484375 15.921875 20.484375 11.0625 
Q 25.484375 6.203125 34.421875 6.203125 
Q 39.59375 6.203125 44.453125 7.46875 
Q 49.3125 8.734375 54.109375 11.28125 
L 54.109375 2.78125 
Q 49.265625 0.734375 44.1875 -0.34375 
Q 39.109375 -1.421875 33.890625 -1.421875 
Q 20.796875 -1.421875 13.15625 6.1875 
Q 5.515625 13.8125 5.515625 26.8125 
Q 5.515625 40.234375 12.765625 48.109375 
Q 20.015625 56 32.328125 56 
Q 43.359375 56 49.78125 48.890625 
Q 56.203125 41.796875 56.203125 29.59375 
M 47.21875 32.234375 
Q 47.125 39.59375 43.09375 43.984375 
Q 39.0625 48.390625 32.421875 48.390625 
Q 24.90625 48.390625 20.390625 44.140625 
Q 15.875 39.890625 15.1875 32.171875 
z
" id="BitstreamVeraSans-Roman-65"/>
      <path d="M 18.3125 70.21875 
L 18.3125 54.6875 
L 36.8125 54.6875 
L 36.8125 47.703125 
L 18.3125 47.703125 
L 18.3125 18.015625 
Q 18.3125 11.328125 20.140625 9.421875 
Q 21.96875 7.515625 27.59375 7.515625 
L 36.8125 7.515625 
L 36.8125 0 
L 27.59375 0 
Q 17.1875 0 13.234375 3.875 
Q 9.28125 7.765625 9.28125 18.015625 
L 9.28125 47.703125 
L 2.6875 47.703125 
L 2.6875 54.6875 
L 9.28125 54.6875 
L 9.28125 70.21875 
z
" id="BitstreamVeraSans-Roman-74"/>
      <path d="M 45.40625 27.984375 
Q 45.40625 37.75 41.375 43.109375 
Q 37.359375 48.484375 30.078125 48.484375 
Q 22.859375 48.484375 18.828125 43.109375 
Q 14.796875 37.75 14.796875 27.984375 
Q 14.796875 18.265625 18.828125 12.890625 
Q 22.859375 7.515625 30.078125 7.515625 
Q 37.359375 7.515625 41.375 12.890625 
Q 45.40625 18.265625 45.40625 27.984375 
M 54.390625 6.78125 
Q 54.390625 -7.171875 48.1875 -13.984375 
Q 42 -20.796875 29.203125 -20.796875 
Q 24.46875 -20.796875 20.265625 -20.09375 
Q 16.0625 -19.390625 12.109375 -17.921875 
L 12.109375 -9.1875 
Q 16.0625 -11.328125 19.921875 -12.34375 
Q 23.78125 -13.375 27.78125 -13.375 
Q 36.625 -13.375 41.015625 -8.765625 
Q 45.40625 -4.15625 45.40625 5.171875 
L 45.40625 9.625 
Q 42.625 4.78125 38.28125 2.390625 
Q 33.9375 0 27.875 0 
Q 17.828125 0 11.671875 7.65625 
Q 5.515625 15.328125 5.515625 27.984375 
Q 5.515625 40.671875 11.671875 48.328125 
Q 17.828125 56 27.875 56 
Q 33.9375 56 38.28125 53.609375 
Q 42.625 51.21875 45.40625 46.390625 
L 45.40625 54.6875 
L 54.390625 54.6875 
z
" id="BitstreamVeraSans-Roman-67"/>
      <path d="M 48.78125 52.59375 
L 48.78125 44.1875 
Q 44.96875 46.296875 41.140625 47.34375 
Q 37.3125 48.390625 33.40625 48.390625 
Q 24.65625 48.390625 19.8125 42.84375 
Q 14.984375 37.3125 14.984375 27.296875 
Q 14.984375 17.28125 19.8125 11.734375 
Q 24.65625 6.203125 33.40625 6.203125 
Q 37.3125 6.203125 41.140625 7.25 
Q 44.96875 8.296875 48.78125 10.40625 
L 48.78125 2.09375 
Q 45.015625 0.34375 40.984375 -0.53125 
Q 36.96875 -1.421875 32.421875 -1.421875 
Q 20.0625 -1.421875 12.78125 6.34375 
Q 5.515625 14.109375 5.515625 27.296875 
Q 5.515625 40.671875 12.859375 48.328125 
Q 20.21875 56 33.015625 56 
Q 37.15625 56 41.109375 55.140625 
Q 45.0625 54.296875 48.78125 52.59375 
" id="BitstreamVeraSans-Roman-63"/>
      <path d="M 54.890625 33.015625 
L 54.890625 0 
L 45.90625 0 
L 45.90625 32.71875 
Q 45.90625 40.484375 42.875 44.328125 
Q 39.84375 48.1875 33.796875 48.1875 
Q 26.515625 48.1875 22.3125 43.546875 
Q 18.109375 38.921875 18.109375 30.90625 
L 18.109375 0 
L 9.078125 0 
L 9.078125 75.984375 
L 18.109375 75.984375 
L 18.109375 46.1875 
Q 21.34375 51.125 25.703125 53.5625 
Q 30.078125 56 35.796875 56 
Q 45.21875 56 50.046875 50.171875 
Q 54.890625 44.34375 54.890625 33.015625 
" id="BitstreamVeraSans-Roman-68"/>
     </defs>
     <g transform="translate(184.72578125 278.2765625)scale(0.1 -0.1)">
      <use xlink:href="#BitstreamVeraSans-Roman-63"/>
      <use x="54.98046875" xlink:href="#BitstreamVeraSans-Roman-6f"/>
      <use x="116.162109375" xlink:href="#BitstreamVeraSans-Roman-6e"/>
      <use x="179.541015625" xlink:href="#BitstreamVeraSans-Roman-74"/>
      <use x="218.75" xlink:href="#BitstreamVeraSans-Roman-65"/>
      <use x="280.2578125" xlink:href="#BitstreamVeraSans-Roman-78"/>
      <use x="339.4375" xlink:href="#BitstreamVeraSans-Roman-74"/>
      <use x="378.646484375" xlink:href="#BitstreamVeraSans-Roman-2d"/>
      <use x="414.73046875" xlink:href="#BitstreamVeraSans-Roman-6c"/>
      <use x="442.513671875" xlink:href="#BitstreamVeraSans-Roman-65"/>
      <use x="504.037109375" xlink:href="#BitstreamVeraSans-Roman-6e"/>
      <use x="567.416015625" xlink:href="#BitstreamVeraSans-Roman-67"/>
      <use x="630.892578125" xlink:href="#BitstreamVeraSans-Roman-74"/>
      <use x="670.1015625" xlink:href="#BitstreamVeraSans-Roman-68"/>
     </g>
    </g>
   </g>
   <g id="matplotlib.axis_2">
    <g id="ytick_1">
     <g id="line2d_13">
      <defs>
       <path d="M 0 0 
L 4 0 
" id="mf8566449b1" style="stroke:#000000;stroke-width:0.5;"/>
      </defs>
      <g>
       <use style="stroke:#000000;stroke-width:0.5;" x="54.0" xlink:href="#mf8566449b1" y="252.0"/>
      </g>
     </g>
     <g id="line2d_14">
      <defs>
       <path d="M 0 0 
L -4 0 
" id="mc8dcb76d5c" style="stroke:#000000;stroke-width:0.5;"/>
      </defs>
      <g>
       <use style="stroke:#000000;stroke-width:0.5;" x="388.8" xlink:href="#mc8dcb76d5c" y="252.0"/>
      </g>
     </g>
     <g id="text_8">
      <!-- $\mathdefault{10^{-5}}$ -->
      <g transform="translate(28.9 254.9703125)scale(0.1 -0.1)">
       <use transform="translate(0.0 0.715625)" xlink:href="#BitstreamVeraSans-Roman-31"/>
       <use transform="translate(63.623046875 0.715625)" xlink:href="#BitstreamVeraSans-Roman-30"/>
       <use transform="translate(132.75859375 47.965625)scale(0.7)" xlink:href="#BitstreamVeraSans-Roman-2d"/>
       <use transform="translate(158.017382812 47.965625)scale(0.7)" xlink:href="#BitstreamVeraSans-Roman-35"/>
      </g>
     </g>
    </g>
    <g id="ytick_2">
     <g id="line2d_15">
      <g>
       <use style="stroke:#000000;stroke-width:0.5;" x="54.0" xlink:href="#mf8566449b1" y="216.57721989"/>
      </g>
     </g>
     <g id="line2d_16">
      <g>
       <use style="stroke:#000000;stroke-width:0.5;" x="388.8" xlink:href="#mc8dcb76d5c" y="216.57721989"/>
      </g>
     </g>
     <g id="text_9">
      <!-- $\mathdefault{10^{-4}}$ -->
      <g transform="translate(28.9 219.54753239)scale(0.1 -0.1)">
       <use transform="translate(0.0 0.715625)" xlink:href="#BitstreamVeraSans-Roman-31"/>
       <use transform="translate(63.623046875 0.715625)" xlink:href="#BitstreamVeraSans-Roman-30"/>
       <use transform="translate(132.75859375 47.965625)scale(0.7)" xlink:href="#BitstreamVeraSans-Roman-2d"/>
       <use transform="translate(158.017382812 47.965625)scale(0.7)" xlink:href="#BitstreamVeraSans-Roman-34"/>
      </g>
     </g>
    </g>
    <g id="ytick_3">
     <g id="line2d_17">
      <g>
       <use style="stroke:#000000;stroke-width:0.5;" x="54.0" xlink:href="#mf8566449b1" y="181.154439781"/>
      </g>
     </g>
     <g id="line2d_18">
      <g>
       <use style="stroke:#000000;stroke-width:0.5;" x="388.8" xlink:href="#mc8dcb76d5c" y="181.154439781"/>
      </g>
     </g>
     <g id="text_10">
      <!-- $\mathdefault{10^{-3}}$ -->
      <g transform="translate(28.9 184.174752281)scale(0.1 -0.1)">
       <use transform="translate(0.0 0.796875)" xlink:href="#BitstreamVeraSans-Roman-31"/>
       <use transform="translate(63.623046875 0.796875)" xlink:href="#BitstreamVeraSans-Roman-30"/>
       <use transform="translate(132.75859375 48.046875)scale(0.7)" xlink:href="#BitstreamVeraSans-Roman-2d"/>
       <use transform="translate(158.017382812 48.046875)scale(0.7)" xlink:href="#BitstreamVeraSans-Roman-33"/>
      </g>
     </g>
    </g>
    <g id="ytick_4">
     <g id="line2d_19">
      <g>
       <use style="stroke:#000000;stroke-width:0.5;" x="54.0" xlink:href="#mf8566449b1" y="145.731659671"/>
      </g>
     </g>
     <g id="line2d_20">
      <g>
       <use style="stroke:#000000;stroke-width:0.5;" x="388.8" xlink:href="#mc8dcb76d5c" y="145.731659671"/>
      </g>
     </g>
     <g id="text_11">
      <!-- $\mathdefault{10^{-2}}$ -->
      <g transform="translate(28.9 148.751972171)scale(0.1 -0.1)">
       <use transform="translate(0.0 0.796875)" xlink:href="#BitstreamVeraSans-Roman-31"/>
       <use transform="translate(63.623046875 0.796875)" xlink:href="#BitstreamVeraSans-Roman-30"/>
       <use transform="translate(132.75859375 48.046875)scale(0.7)" xlink:href="#BitstreamVeraSans-Roman-2d"/>
       <use transform="translate(158.017382812 48.046875)scale(0.7)" xlink:href="#BitstreamVeraSans-Roman-32"/>
      </g>
     </g>
    </g>
    <g id="ytick_5">
     <g id="line2d_21">
      <g>
       <use style="stroke:#000000;stroke-width:0.5;" x="54.0" xlink:href="#mf8566449b1" y="110.308879562"/>
      </g>
     </g>
     <g id="line2d_22">
      <g>
       <use style="stroke:#000000;stroke-width:0.5;" x="388.8" xlink:href="#mc8dcb76d5c" y="110.308879562"/>
      </g>
     </g>
     <g id="text_12">
      <!-- $\mathdefault{10^{-1}}$ -->
      <g transform="translate(28.9 113.279192062)scale(0.1 -0.1)">
       <use transform="translate(0.0 0.715625)" xlink:href="#BitstreamVeraSans-Roman-31"/>
       <use transform="translate(63.623046875 0.715625)" xlink:href="#BitstreamVeraSans-Roman-30"/>
       <use transform="translate(132.75859375 47.965625)scale(0.7)" xlink:href="#BitstreamVeraSans-Roman-2d"/>
       <use transform="translate(158.017382812 47.965625)scale(0.7)" xlink:href="#BitstreamVeraSans-Roman-31"/>
      </g>
     </g>
    </g>
    <g id="ytick_6">
     <g id="line2d_23">
      <g>
       <use style="stroke:#000000;stroke-width:0.5;" x="54.0" xlink:href="#mf8566449b1" y="74.8860994523"/>
      </g>
     </g>
     <g id="line2d_24">
      <g>
       <use style="stroke:#000000;stroke-width:0.5;" x="388.8" xlink:href="#mc8dcb76d5c" y="74.8860994523"/>
      </g>
     </g>
     <g id="text_13">
      <!-- $\mathdefault{10^{0}}$ -->
      <g transform="translate(31.4 77.9064119523)scale(0.1 -0.1)">
       <use transform="translate(0.0 0.796875)" xlink:href="#BitstreamVeraSans-Roman-31"/>
       <use transform="translate(63.623046875 0.796875)" xlink:href="#BitstreamVeraSans-Roman-30"/>
       <use transform="translate(132.75859375 48.046875)scale(0.7)" xlink:href="#BitstreamVeraSans-Roman-30"/>
      </g>
     </g>
    </g>
    <g id="ytick_7">
     <g id="line2d_25">
      <g>
       <use style="stroke:#000000;stroke-width:0.5;" x="54.0" xlink:href="#mf8566449b1" y="39.4633193428"/>
      </g>
     </g>
     <g id="line2d_26">
      <g>
       <use style="stroke:#000000;stroke-width:0.5;" x="388.8" xlink:href="#mc8dcb76d5c" y="39.4633193428"/>
      </g>
     </g>
     <g id="text_14">
      <!-- $\mathdefault{10^{1}}$ -->
      <g transform="translate(31.4 42.4336318428)scale(0.1 -0.1)">
       <use transform="translate(0.0 0.715625)" xlink:href="#BitstreamVeraSans-Roman-31"/>
       <use transform="translate(63.623046875 0.715625)" xlink:href="#BitstreamVeraSans-Roman-30"/>
       <use transform="translate(132.75859375 47.965625)scale(0.7)" xlink:href="#BitstreamVeraSans-Roman-31"/>
      </g>
     </g>
    </g>
    <g id="ytick_8">
     <g id="line2d_27">
      <defs>
       <path d="M 0 0 
L 2 0 
" id="m55c9f8601f" style="stroke:#000000;stroke-width:0.5;"/>
      </defs>
      <g>
       <use style="stroke:#000000;stroke-width:0.5;" x="54.0" xlink:href="#m55c9f8601f" y="241.336680657"/>
      </g>
     </g>
     <g id="line2d_28">
      <defs>
       <path d="M 0 0 
L -2 0 
" id="m386ff224db" style="stroke:#000000;stroke-width:0.5;"/>
      </defs>
      <g>
       <use style="stroke:#000000;stroke-width:0.5;" x="388.8" xlink:href="#m386ff224db" y="241.336680657"/>
      </g>
     </g>
    </g>
    <g id="ytick_9">
     <g id="line2d_29">
      <g>
       <use style="stroke:#000000;stroke-width:0.5;" x="54.0" xlink:href="#m55c9f8601f" y="235.099038708"/>
      </g>
     </g>
     <g id="line2d_30">
      <g>
       <use style="stroke:#000000;stroke-width:0.5;" x="388.8" xlink:href="#m386ff224db" y="235.099038708"/>
      </g>
     </g>
    </g>
    <g id="ytick_10">
     <g id="line2d_31">
      <g>
       <use style="stroke:#000000;stroke-width:0.5;" x="54.0" xlink:href="#m55c9f8601f" y="230.673361314"/>
      </g>
     </g>
     <g id="line2d_32">
      <g>
       <use style="stroke:#000000;stroke-width:0.5;" x="388.8" xlink:href="#m386ff224db" y="230.673361314"/>
      </g>
     </g>
    </g>
    <g id="ytick_11">
     <g id="line2d_33">
      <g>
       <use style="stroke:#000000;stroke-width:0.5;" x="54.0" xlink:href="#m55c9f8601f" y="227.240539233"/>
      </g>
     </g>
     <g id="line2d_34">
      <g>
       <use style="stroke:#000000;stroke-width:0.5;" x="388.8" xlink:href="#m386ff224db" y="227.240539233"/>
      </g>
     </g>
    </g>
    <g id="ytick_12">
     <g id="line2d_35">
      <g>
       <use style="stroke:#000000;stroke-width:0.5;" x="54.0" xlink:href="#m55c9f8601f" y="224.435719366"/>
      </g>
     </g>
     <g id="line2d_36">
      <g>
       <use style="stroke:#000000;stroke-width:0.5;" x="388.8" xlink:href="#m386ff224db" y="224.435719366"/>
      </g>
     </g>
    </g>
    <g id="ytick_13">
     <g id="line2d_37">
      <g>
       <use style="stroke:#000000;stroke-width:0.5;" x="54.0" xlink:href="#m55c9f8601f" y="222.064277958"/>
      </g>
     </g>
     <g id="line2d_38">
      <g>
       <use style="stroke:#000000;stroke-width:0.5;" x="388.8" xlink:href="#m386ff224db" y="222.064277958"/>
      </g>
     </g>
    </g>
    <g id="ytick_14">
     <g id="line2d_39">
      <g>
       <use style="stroke:#000000;stroke-width:0.5;" x="54.0" xlink:href="#m55c9f8601f" y="220.010041972"/>
      </g>
     </g>
     <g id="line2d_40">
      <g>
       <use style="stroke:#000000;stroke-width:0.5;" x="388.8" xlink:href="#m386ff224db" y="220.010041972"/>
      </g>
     </g>
    </g>
    <g id="ytick_15">
     <g id="line2d_41">
      <g>
       <use style="stroke:#000000;stroke-width:0.5;" x="54.0" xlink:href="#m55c9f8601f" y="218.198077417"/>
      </g>
     </g>
     <g id="line2d_42">
      <g>
       <use style="stroke:#000000;stroke-width:0.5;" x="388.8" xlink:href="#m386ff224db" y="218.198077417"/>
      </g>
     </g>
    </g>
    <g id="ytick_16">
     <g id="line2d_43">
      <g>
       <use style="stroke:#000000;stroke-width:0.5;" x="54.0" xlink:href="#m55c9f8601f" y="205.913900548"/>
      </g>
     </g>
     <g id="line2d_44">
      <g>
       <use style="stroke:#000000;stroke-width:0.5;" x="388.8" xlink:href="#m386ff224db" y="205.913900548"/>
      </g>
     </g>
    </g>
    <g id="ytick_17">
     <g id="line2d_45">
      <g>
       <use style="stroke:#000000;stroke-width:0.5;" x="54.0" xlink:href="#m55c9f8601f" y="199.676258599"/>
      </g>
     </g>
     <g id="line2d_46">
      <g>
       <use style="stroke:#000000;stroke-width:0.5;" x="388.8" xlink:href="#m386ff224db" y="199.676258599"/>
      </g>
     </g>
    </g>
    <g id="ytick_18">
     <g id="line2d_47">
      <g>
       <use style="stroke:#000000;stroke-width:0.5;" x="54.0" xlink:href="#m55c9f8601f" y="195.250581205"/>
      </g>
     </g>
     <g id="line2d_48">
      <g>
       <use style="stroke:#000000;stroke-width:0.5;" x="388.8" xlink:href="#m386ff224db" y="195.250581205"/>
      </g>
     </g>
    </g>
    <g id="ytick_19">
     <g id="line2d_49">
      <g>
       <use style="stroke:#000000;stroke-width:0.5;" x="54.0" xlink:href="#m55c9f8601f" y="191.817759124"/>
      </g>
     </g>
     <g id="line2d_50">
      <g>
       <use style="stroke:#000000;stroke-width:0.5;" x="388.8" xlink:href="#m386ff224db" y="191.817759124"/>
      </g>
     </g>
    </g>
    <g id="ytick_20">
     <g id="line2d_51">
      <g>
       <use style="stroke:#000000;stroke-width:0.5;" x="54.0" xlink:href="#m55c9f8601f" y="189.012939256"/>
      </g>
     </g>
     <g id="line2d_52">
      <g>
       <use style="stroke:#000000;stroke-width:0.5;" x="388.8" xlink:href="#m386ff224db" y="189.012939256"/>
      </g>
     </g>
    </g>
    <g id="ytick_21">
     <g id="line2d_53">
      <g>
       <use style="stroke:#000000;stroke-width:0.5;" x="54.0" xlink:href="#m55c9f8601f" y="186.641497848"/>
      </g>
     </g>
     <g id="line2d_54">
      <g>
       <use style="stroke:#000000;stroke-width:0.5;" x="388.8" xlink:href="#m386ff224db" y="186.641497848"/>
      </g>
     </g>
    </g>
    <g id="ytick_22">
     <g id="line2d_55">
      <g>
       <use style="stroke:#000000;stroke-width:0.5;" x="54.0" xlink:href="#m55c9f8601f" y="184.587261862"/>
      </g>
     </g>
     <g id="line2d_56">
      <g>
       <use style="stroke:#000000;stroke-width:0.5;" x="388.8" xlink:href="#m386ff224db" y="184.587261862"/>
      </g>
     </g>
    </g>
    <g id="ytick_23">
     <g id="line2d_57">
      <g>
       <use style="stroke:#000000;stroke-width:0.5;" x="54.0" xlink:href="#m55c9f8601f" y="182.775297307"/>
      </g>
     </g>
     <g id="line2d_58">
      <g>
       <use style="stroke:#000000;stroke-width:0.5;" x="388.8" xlink:href="#m386ff224db" y="182.775297307"/>
      </g>
     </g>
    </g>
    <g id="ytick_24">
     <g id="line2d_59">
      <g>
       <use style="stroke:#000000;stroke-width:0.5;" x="54.0" xlink:href="#m55c9f8601f" y="170.491120438"/>
      </g>
     </g>
     <g id="line2d_60">
      <g>
       <use style="stroke:#000000;stroke-width:0.5;" x="388.8" xlink:href="#m386ff224db" y="170.491120438"/>
      </g>
     </g>
    </g>
    <g id="ytick_25">
     <g id="line2d_61">
      <g>
       <use style="stroke:#000000;stroke-width:0.5;" x="54.0" xlink:href="#m55c9f8601f" y="164.253478489"/>
      </g>
     </g>
     <g id="line2d_62">
      <g>
       <use style="stroke:#000000;stroke-width:0.5;" x="388.8" xlink:href="#m386ff224db" y="164.253478489"/>
      </g>
     </g>
    </g>
    <g id="ytick_26">
     <g id="line2d_63">
      <g>
       <use style="stroke:#000000;stroke-width:0.5;" x="54.0" xlink:href="#m55c9f8601f" y="159.827801095"/>
      </g>
     </g>
     <g id="line2d_64">
      <g>
       <use style="stroke:#000000;stroke-width:0.5;" x="388.8" xlink:href="#m386ff224db" y="159.827801095"/>
      </g>
     </g>
    </g>
    <g id="ytick_27">
     <g id="line2d_65">
      <g>
       <use style="stroke:#000000;stroke-width:0.5;" x="54.0" xlink:href="#m55c9f8601f" y="156.394979014"/>
      </g>
     </g>
     <g id="line2d_66">
      <g>
       <use style="stroke:#000000;stroke-width:0.5;" x="388.8" xlink:href="#m386ff224db" y="156.394979014"/>
      </g>
     </g>
    </g>
    <g id="ytick_28">
     <g id="line2d_67">
      <g>
       <use style="stroke:#000000;stroke-width:0.5;" x="54.0" xlink:href="#m55c9f8601f" y="153.590159147"/>
      </g>
     </g>
     <g id="line2d_68">
      <g>
       <use style="stroke:#000000;stroke-width:0.5;" x="388.8" xlink:href="#m386ff224db" y="153.590159147"/>
      </g>
     </g>
    </g>
    <g id="ytick_29">
     <g id="line2d_69">
      <g>
       <use style="stroke:#000000;stroke-width:0.5;" x="54.0" xlink:href="#m55c9f8601f" y="151.218717739"/>
      </g>
     </g>
     <g id="line2d_70">
      <g>
       <use style="stroke:#000000;stroke-width:0.5;" x="388.8" xlink:href="#m386ff224db" y="151.218717739"/>
      </g>
     </g>
    </g>
    <g id="ytick_30">
     <g id="line2d_71">
      <g>
       <use style="stroke:#000000;stroke-width:0.5;" x="54.0" xlink:href="#m55c9f8601f" y="149.164481753"/>
      </g>
     </g>
     <g id="line2d_72">
      <g>
       <use style="stroke:#000000;stroke-width:0.5;" x="388.8" xlink:href="#m386ff224db" y="149.164481753"/>
      </g>
     </g>
    </g>
    <g id="ytick_31">
     <g id="line2d_73">
      <g>
       <use style="stroke:#000000;stroke-width:0.5;" x="54.0" xlink:href="#m55c9f8601f" y="147.352517198"/>
      </g>
     </g>
     <g id="line2d_74">
      <g>
       <use style="stroke:#000000;stroke-width:0.5;" x="388.8" xlink:href="#m386ff224db" y="147.352517198"/>
      </g>
     </g>
    </g>
    <g id="ytick_32">
     <g id="line2d_75">
      <g>
       <use style="stroke:#000000;stroke-width:0.5;" x="54.0" xlink:href="#m55c9f8601f" y="135.068340329"/>
      </g>
     </g>
     <g id="line2d_76">
      <g>
       <use style="stroke:#000000;stroke-width:0.5;" x="388.8" xlink:href="#m386ff224db" y="135.068340329"/>
      </g>
     </g>
    </g>
    <g id="ytick_33">
     <g id="line2d_77">
      <g>
       <use style="stroke:#000000;stroke-width:0.5;" x="54.0" xlink:href="#m55c9f8601f" y="128.83069838"/>
      </g>
     </g>
     <g id="line2d_78">
      <g>
       <use style="stroke:#000000;stroke-width:0.5;" x="388.8" xlink:href="#m386ff224db" y="128.83069838"/>
      </g>
     </g>
    </g>
    <g id="ytick_34">
     <g id="line2d_79">
      <g>
       <use style="stroke:#000000;stroke-width:0.5;" x="54.0" xlink:href="#m55c9f8601f" y="124.405020986"/>
      </g>
     </g>
     <g id="line2d_80">
      <g>
       <use style="stroke:#000000;stroke-width:0.5;" x="388.8" xlink:href="#m386ff224db" y="124.405020986"/>
      </g>
     </g>
    </g>
    <g id="ytick_35">
     <g id="line2d_81">
      <g>
       <use style="stroke:#000000;stroke-width:0.5;" x="54.0" xlink:href="#m55c9f8601f" y="120.972198905"/>
      </g>
     </g>
     <g id="line2d_82">
      <g>
       <use style="stroke:#000000;stroke-width:0.5;" x="388.8" xlink:href="#m386ff224db" y="120.972198905"/>
      </g>
     </g>
    </g>
    <g id="ytick_36">
     <g id="line2d_83">
      <g>
       <use style="stroke:#000000;stroke-width:0.5;" x="54.0" xlink:href="#m55c9f8601f" y="118.167379037"/>
      </g>
     </g>
     <g id="line2d_84">
      <g>
       <use style="stroke:#000000;stroke-width:0.5;" x="388.8" xlink:href="#m386ff224db" y="118.167379037"/>
      </g>
     </g>
    </g>
    <g id="ytick_37">
     <g id="line2d_85">
      <g>
       <use style="stroke:#000000;stroke-width:0.5;" x="54.0" xlink:href="#m55c9f8601f" y="115.795937629"/>
      </g>
     </g>
     <g id="line2d_86">
      <g>
       <use style="stroke:#000000;stroke-width:0.5;" x="388.8" xlink:href="#m386ff224db" y="115.795937629"/>
      </g>
     </g>
    </g>
    <g id="ytick_38">
     <g id="line2d_87">
      <g>
       <use style="stroke:#000000;stroke-width:0.5;" x="54.0" xlink:href="#m55c9f8601f" y="113.741701643"/>
      </g>
     </g>
     <g id="line2d_88">
      <g>
       <use style="stroke:#000000;stroke-width:0.5;" x="388.8" xlink:href="#m386ff224db" y="113.741701643"/>
      </g>
     </g>
    </g>
    <g id="ytick_39">
     <g id="line2d_89">
      <g>
       <use style="stroke:#000000;stroke-width:0.5;" x="54.0" xlink:href="#m55c9f8601f" y="111.929737088"/>
      </g>
     </g>
     <g id="line2d_90">
      <g>
       <use style="stroke:#000000;stroke-width:0.5;" x="388.8" xlink:href="#m386ff224db" y="111.929737088"/>
      </g>
     </g>
    </g>
    <g id="ytick_40">
     <g id="line2d_91">
      <g>
       <use style="stroke:#000000;stroke-width:0.5;" x="54.0" xlink:href="#m55c9f8601f" y="99.6455602191"/>
      </g>
     </g>
     <g id="line2d_92">
      <g>
       <use style="stroke:#000000;stroke-width:0.5;" x="388.8" xlink:href="#m386ff224db" y="99.6455602191"/>
      </g>
     </g>
    </g>
    <g id="ytick_41">
     <g id="line2d_93">
      <g>
       <use style="stroke:#000000;stroke-width:0.5;" x="54.0" xlink:href="#m55c9f8601f" y="93.4079182703"/>
      </g>
     </g>
     <g id="line2d_94">
      <g>
       <use style="stroke:#000000;stroke-width:0.5;" x="388.8" xlink:href="#m386ff224db" y="93.4079182703"/>
      </g>
     </g>
    </g>
    <g id="ytick_42">
     <g id="line2d_95">
      <g>
       <use style="stroke:#000000;stroke-width:0.5;" x="54.0" xlink:href="#m55c9f8601f" y="88.9822408763"/>
      </g>
     </g>
     <g id="line2d_96">
      <g>
       <use style="stroke:#000000;stroke-width:0.5;" x="388.8" xlink:href="#m386ff224db" y="88.9822408763"/>
      </g>
     </g>
    </g>
    <g id="ytick_43">
     <g id="line2d_97">
      <g>
       <use style="stroke:#000000;stroke-width:0.5;" x="54.0" xlink:href="#m55c9f8601f" y="85.5494187951"/>
      </g>
     </g>
     <g id="line2d_98">
      <g>
       <use style="stroke:#000000;stroke-width:0.5;" x="388.8" xlink:href="#m386ff224db" y="85.5494187951"/>
      </g>
     </g>
    </g>
    <g id="ytick_44">
     <g id="line2d_99">
      <g>
       <use style="stroke:#000000;stroke-width:0.5;" x="54.0" xlink:href="#m55c9f8601f" y="82.7445989276"/>
      </g>
     </g>
     <g id="line2d_100">
      <g>
       <use style="stroke:#000000;stroke-width:0.5;" x="388.8" xlink:href="#m386ff224db" y="82.7445989276"/>
      </g>
     </g>
    </g>
    <g id="ytick_45">
     <g id="line2d_101">
      <g>
       <use style="stroke:#000000;stroke-width:0.5;" x="54.0" xlink:href="#m55c9f8601f" y="80.3731575194"/>
      </g>
     </g>
     <g id="line2d_102">
      <g>
       <use style="stroke:#000000;stroke-width:0.5;" x="388.8" xlink:href="#m386ff224db" y="80.3731575194"/>
      </g>
     </g>
    </g>
    <g id="ytick_46">
     <g id="line2d_103">
      <g>
       <use style="stroke:#000000;stroke-width:0.5;" x="54.0" xlink:href="#m55c9f8601f" y="78.3189215335"/>
      </g>
     </g>
     <g id="line2d_104">
      <g>
       <use style="stroke:#000000;stroke-width:0.5;" x="388.8" xlink:href="#m386ff224db" y="78.3189215335"/>
      </g>
     </g>
    </g>
    <g id="ytick_47">
     <g id="line2d_105">
      <g>
       <use style="stroke:#000000;stroke-width:0.5;" x="54.0" xlink:href="#m55c9f8601f" y="76.5069569788"/>
      </g>
     </g>
     <g id="line2d_106">
      <g>
       <use style="stroke:#000000;stroke-width:0.5;" x="388.8" xlink:href="#m386ff224db" y="76.5069569788"/>
      </g>
     </g>
    </g>
    <g id="ytick_48">
     <g id="line2d_107">
      <g>
       <use style="stroke:#000000;stroke-width:0.5;" x="54.0" xlink:href="#m55c9f8601f" y="64.2227801095"/>
      </g>
     </g>
     <g id="line2d_108">
      <g>
       <use style="stroke:#000000;stroke-width:0.5;" x="388.8" xlink:href="#m386ff224db" y="64.2227801095"/>
      </g>
     </g>
    </g>
    <g id="ytick_49">
     <g id="line2d_109">
      <g>
       <use style="stroke:#000000;stroke-width:0.5;" x="54.0" xlink:href="#m55c9f8601f" y="57.9851381608"/>
      </g>
     </g>
     <g id="line2d_110">
      <g>
       <use style="stroke:#000000;stroke-width:0.5;" x="388.8" xlink:href="#m386ff224db" y="57.9851381608"/>
      </g>
     </g>
    </g>
    <g id="ytick_50">
     <g id="line2d_111">
      <g>
       <use style="stroke:#000000;stroke-width:0.5;" x="54.0" xlink:href="#m55c9f8601f" y="53.5594607668"/>
      </g>
     </g>
     <g id="line2d_112">
      <g>
       <use style="stroke:#000000;stroke-width:0.5;" x="388.8" xlink:href="#m386ff224db" y="53.5594607668"/>
      </g>
     </g>
    </g>
    <g id="ytick_51">
     <g id="line2d_113">
      <g>
       <use style="stroke:#000000;stroke-width:0.5;" x="54.0" xlink:href="#m55c9f8601f" y="50.1266386856"/>
      </g>
     </g>
     <g id="line2d_114">
      <g>
       <use style="stroke:#000000;stroke-width:0.5;" x="388.8" xlink:href="#m386ff224db" y="50.1266386856"/>
      </g>
     </g>
    </g>
    <g id="ytick_52">
     <g id="line2d_115">
      <g>
       <use style="stroke:#000000;stroke-width:0.5;" x="54.0" xlink:href="#m55c9f8601f" y="47.321818818"/>
      </g>
     </g>
     <g id="line2d_116">
      <g>
       <use style="stroke:#000000;stroke-width:0.5;" x="388.8" xlink:href="#m386ff224db" y="47.321818818"/>
      </g>
     </g>
    </g>
    <g id="ytick_53">
     <g id="line2d_117">
      <g>
       <use style="stroke:#000000;stroke-width:0.5;" x="54.0" xlink:href="#m55c9f8601f" y="44.9503774099"/>
      </g>
     </g>
     <g id="line2d_118">
      <g>
       <use style="stroke:#000000;stroke-width:0.5;" x="388.8" xlink:href="#m386ff224db" y="44.9503774099"/>
      </g>
     </g>
    </g>
    <g id="ytick_54">
     <g id="line2d_119">
      <g>
       <use style="stroke:#000000;stroke-width:0.5;" x="54.0" xlink:href="#m55c9f8601f" y="42.896141424"/>
      </g>
     </g>
     <g id="line2d_120">
      <g>
       <use style="stroke:#000000;stroke-width:0.5;" x="388.8" xlink:href="#m386ff224db" y="42.896141424"/>
      </g>
     </g>
    </g>
    <g id="ytick_55">
     <g id="line2d_121">
      <g>
       <use style="stroke:#000000;stroke-width:0.5;" x="54.0" xlink:href="#m55c9f8601f" y="41.0841768693"/>
      </g>
     </g>
     <g id="line2d_122">
      <g>
       <use style="stroke:#000000;stroke-width:0.5;" x="388.8" xlink:href="#m386ff224db" y="41.0841768693"/>
      </g>
     </g>
    </g>
    <g id="ytick_56">
     <g id="line2d_123">
      <g>
       <use style="stroke:#000000;stroke-width:0.5;" x="54.0" xlink:href="#m55c9f8601f" y="28.8"/>
      </g>
     </g>
     <g id="line2d_124">
      <g>
       <use style="stroke:#000000;stroke-width:0.5;" x="388.8" xlink:href="#m386ff224db" y="28.8"/>
      </g>
     </g>
    </g>
    <g id="text_15">
     <!-- Probability -->
     <defs>
      <path d="M 41.109375 46.296875 
Q 39.59375 47.171875 37.8125 47.578125 
Q 36.03125 48 33.890625 48 
Q 26.265625 48 22.1875 43.046875 
Q 18.109375 38.09375 18.109375 28.8125 
L 18.109375 0 
L 9.078125 0 
L 9.078125 54.6875 
L 18.109375 54.6875 
L 18.109375 46.1875 
Q 20.953125 51.171875 25.484375 53.578125 
Q 30.03125 56 36.53125 56 
Q 37.453125 56 38.578125 55.875 
Q 39.703125 55.765625 41.0625 55.515625 
z
" id="BitstreamVeraSans-Roman-72"/>
      <path d="M 19.671875 64.796875 
L 19.671875 37.40625 
L 32.078125 37.40625 
Q 38.96875 37.40625 42.71875 40.96875 
Q 46.484375 44.53125 46.484375 51.125 
Q 46.484375 57.671875 42.71875 61.234375 
Q 38.96875 64.796875 32.078125 64.796875 
z
M 9.8125 72.90625 
L 32.078125 72.90625 
Q 44.34375 72.90625 50.609375 67.359375 
Q 56.890625 61.8125 56.890625 51.125 
Q 56.890625 40.328125 50.609375 34.8125 
Q 44.34375 29.296875 32.078125 29.296875 
L 19.671875 29.296875 
L 19.671875 0 
L 9.8125 0 
z
" id="BitstreamVeraSans-Roman-50"/>
      <path d="M 9.421875 54.6875 
L 18.40625 54.6875 
L 18.40625 0 
L 9.421875 0 
z
M 9.421875 75.984375 
L 18.40625 75.984375 
L 18.40625 64.59375 
L 9.421875 64.59375 
z
" id="BitstreamVeraSans-Roman-69"/>
      <path d="M 32.171875 -5.078125 
Q 28.375 -14.84375 24.75 -17.8125 
Q 21.140625 -20.796875 15.09375 -20.796875 
L 7.90625 -20.796875 
L 7.90625 -13.28125 
L 13.1875 -13.28125 
Q 16.890625 -13.28125 18.9375 -11.515625 
Q 21 -9.765625 23.484375 -3.21875 
L 25.09375 0.875 
L 2.984375 54.6875 
L 12.5 54.6875 
L 29.59375 11.921875 
L 46.6875 54.6875 
L 56.203125 54.6875 
z
" id="BitstreamVeraSans-Roman-79"/>
      <path d="M 34.28125 27.484375 
Q 23.390625 27.484375 19.1875 25 
Q 14.984375 22.515625 14.984375 16.5 
Q 14.984375 11.71875 18.140625 8.90625 
Q 21.296875 6.109375 26.703125 6.109375 
Q 34.1875 6.109375 38.703125 11.40625 
Q 43.21875 16.703125 43.21875 25.484375 
L 43.21875 27.484375 
z
M 52.203125 31.203125 
L 52.203125 0 
L 43.21875 0 
L 43.21875 8.296875 
Q 40.140625 3.328125 35.546875 0.953125 
Q 30.953125 -1.421875 24.3125 -1.421875 
Q 15.921875 -1.421875 10.953125 3.296875 
Q 6 8.015625 6 15.921875 
Q 6 25.140625 12.171875 29.828125 
Q 18.359375 34.515625 30.609375 34.515625 
L 43.21875 34.515625 
L 43.21875 35.40625 
Q 43.21875 41.609375 39.140625 45 
Q 35.0625 48.390625 27.6875 48.390625 
Q 23 48.390625 18.546875 47.265625 
Q 14.109375 46.140625 10.015625 43.890625 
L 10.015625 52.203125 
Q 14.9375 54.109375 19.578125 55.046875 
Q 24.21875 56 28.609375 56 
Q 40.484375 56 46.34375 49.84375 
Q 52.203125 43.703125 52.203125 31.203125 
" id="BitstreamVeraSans-Roman-61"/>
      <path d="M 48.6875 27.296875 
Q 48.6875 37.203125 44.609375 42.84375 
Q 40.53125 48.484375 33.40625 48.484375 
Q 26.265625 48.484375 22.1875 42.84375 
Q 18.109375 37.203125 18.109375 27.296875 
Q 18.109375 17.390625 22.1875 11.75 
Q 26.265625 6.109375 33.40625 6.109375 
Q 40.53125 6.109375 44.609375 11.75 
Q 48.6875 17.390625 48.6875 27.296875 
M 18.109375 46.390625 
Q 20.953125 51.265625 25.265625 53.625 
Q 29.59375 56 35.59375 56 
Q 45.5625 56 51.78125 48.09375 
Q 58.015625 40.1875 58.015625 27.296875 
Q 58.015625 14.40625 51.78125 6.484375 
Q 45.5625 -1.421875 35.59375 -1.421875 
Q 29.59375 -1.421875 25.265625 0.953125 
Q 20.953125 3.328125 18.109375 8.203125 
L 18.109375 0 
L 9.078125 0 
L 9.078125 75.984375 
L 18.109375 75.984375 
z
" id="BitstreamVeraSans-Roman-62"/>
     </defs>
     <g transform="translate(21.8203125 167.0265625)rotate(-90.0)scale(0.1 -0.1)">
      <use xlink:href="#BitstreamVeraSans-Roman-50"/>
      <use x="60.287109375" xlink:href="#BitstreamVeraSans-Roman-72"/>
      <use x="101.369140625" xlink:href="#BitstreamVeraSans-Roman-6f"/>
      <use x="162.55078125" xlink:href="#BitstreamVeraSans-Roman-62"/>
      <use x="226.02734375" xlink:href="#BitstreamVeraSans-Roman-61"/>
      <use x="287.306640625" xlink:href="#BitstreamVeraSans-Roman-62"/>
      <use x="350.783203125" xlink:href="#BitstreamVeraSans-Roman-69"/>
      <use x="378.56640625" xlink:href="#BitstreamVeraSans-Roman-6c"/>
      <use x="406.349609375" xlink:href="#BitstreamVeraSans-Roman-69"/>
      <use x="434.1328125" xlink:href="#BitstreamVeraSans-Roman-74"/>
      <use x="473.341796875" xlink:href="#BitstreamVeraSans-Roman-79"/>
     </g>
    </g>
   </g>
   <g id="legend_1">
    <g id="patch_5">
     <path d="M 265.966875 56.01375 
L 382.8 56.01375 
L 382.8 34.8 
L 265.966875 34.8 
z
" style="fill:#ffffff;stroke:#000000;stroke-linejoin:miter;"/>
    </g>
    <g id="PathCollection_2">
     <path d="M 274.366875 47.149264 
C 274.786198 47.149264 275.188403 46.982665 275.484909 46.686159 
C 275.781415 46.389653 275.948014 45.987448 275.948014 45.568125 
C 275.948014 45.148802 275.781415 44.746597 275.484909 44.450091 
C 275.188403 44.153585 274.786198 43.986986 274.366875 43.986986 
C 273.947552 43.986986 273.545347 44.153585 273.248841 44.450091 
C 272.952335 44.746597 272.785736 45.148802 272.785736 45.568125 
C 272.785736 45.987448 272.952335 46.389653 273.248841 46.686159 
C 273.545347 46.982665 273.947552 47.149264 274.366875 47.149264 
z
" style="fill:#ff0000;"/>
     <path d="M 282.766875 46.099264 
C 283.186198 46.099264 283.588403 45.932665 283.884909 45.636159 
C 284.181415 45.339653 284.348014 44.937448 284.348014 44.518125 
C 284.348014 44.098802 284.181415 43.696597 283.884909 43.400091 
C 283.588403 43.103585 283.186198 42.936986 282.766875 42.936986 
C 282.347552 42.936986 281.945347 43.103585 281.648841 43.400091 
C 281.352335 43.696597 281.185736 44.098802 281.185736 44.518125 
C 281.185736 44.937448 281.352335 45.339653 281.648841 45.636159 
C 281.945347 45.932665 282.347552 46.099264 282.766875 46.099264 
z
" style="fill:#ff0000;"/>
     <path d="M 291.166875 47.674264 
C 291.586198 47.674264 291.988403 47.507665 292.284909 47.211159 
C 292.581415 46.914653 292.748014 46.512448 292.748014 46.093125 
C 292.748014 45.673802 292.581415 45.271597 292.284909 44.975091 
C 291.988403 44.678585 291.586198 44.511986 291.166875 44.511986 
C 290.747552 44.511986 290.345347 44.678585 290.048841 44.975091 
C 289.752335 45.271597 289.585736 45.673802 289.585736 46.093125 
C 289.585736 46.512448 289.752335 46.914653 290.048841 47.211159 
C 290.345347 47.507665 290.747552 47.674264 291.166875 47.674264 
z
" style="fill:#ff0000;"/>
    </g>
    <g id="text_16">
     <!-- extend-prob -->
     <defs>
      <path d="M 45.40625 46.390625 
L 45.40625 75.984375 
L 54.390625 75.984375 
L 54.390625 0 
L 45.40625 0 
L 45.40625 8.203125 
Q 42.578125 3.328125 38.25 0.953125 
Q 33.9375 -1.421875 27.875 -1.421875 
Q 17.96875 -1.421875 11.734375 6.484375 
Q 5.515625 14.40625 5.515625 27.296875 
Q 5.515625 40.1875 11.734375 48.09375 
Q 17.96875 56 27.875 56 
Q 33.9375 56 38.25 53.625 
Q 42.578125 51.265625 45.40625 46.390625 
M 14.796875 27.296875 
Q 14.796875 17.390625 18.875 11.75 
Q 22.953125 6.109375 30.078125 6.109375 
Q 37.203125 6.109375 41.296875 11.75 
Q 45.40625 17.390625 45.40625 27.296875 
Q 45.40625 37.203125 41.296875 42.84375 
Q 37.203125 48.484375 30.078125 48.484375 
Q 22.953125 48.484375 18.875 42.84375 
Q 14.796875 37.203125 14.796875 27.296875 
" id="BitstreamVeraSans-Roman-64"/>
      <path d="M 18.109375 8.203125 
L 18.109375 -20.796875 
L 9.078125 -20.796875 
L 9.078125 54.6875 
L 18.109375 54.6875 
L 18.109375 46.390625 
Q 20.953125 51.265625 25.265625 53.625 
Q 29.59375 56 35.59375 56 
Q 45.5625 56 51.78125 48.09375 
Q 58.015625 40.1875 58.015625 27.296875 
Q 58.015625 14.40625 51.78125 6.484375 
Q 45.5625 -1.421875 35.59375 -1.421875 
Q 29.59375 -1.421875 25.265625 0.953125 
Q 20.953125 3.328125 18.109375 8.203125 
M 48.6875 27.296875 
Q 48.6875 37.203125 44.609375 42.84375 
Q 40.53125 48.484375 33.40625 48.484375 
Q 26.265625 48.484375 22.1875 42.84375 
Q 18.109375 37.203125 18.109375 27.296875 
Q 18.109375 17.390625 22.1875 11.75 
Q 26.265625 6.109375 33.40625 6.109375 
Q 40.53125 6.109375 44.609375 11.75 
Q 48.6875 17.390625 48.6875 27.296875 
" id="BitstreamVeraSans-Roman-70"/>
     </defs>
     <g transform="translate(304.366875 48.718125)scale(0.12 -0.12)">
      <use xlink:href="#BitstreamVeraSans-Roman-65"/>
      <use x="61.5078125" xlink:href="#BitstreamVeraSans-Roman-78"/>
      <use x="120.6875" xlink:href="#BitstreamVeraSans-Roman-74"/>
      <use x="159.896484375" xlink:href="#BitstreamVeraSans-Roman-65"/>
      <use x="221.419921875" xlink:href="#BitstreamVeraSans-Roman-6e"/>
      <use x="284.798828125" xlink:href="#BitstreamVeraSans-Roman-64"/>
      <use x="348.275390625" xlink:href="#BitstreamVeraSans-Roman-2d"/>
      <use x="384.359375" xlink:href="#BitstreamVeraSans-Roman-70"/>
      <use x="447.8359375" xlink:href="#BitstreamVeraSans-Roman-72"/>
      <use x="488.91796875" xlink:href="#BitstreamVeraSans-Roman-6f"/>
      <use x="550.099609375" xlink:href="#BitstreamVeraSans-Roman-62"/>
     </g>
    </g>
   </g>
  </g>
  <g id="text_17">
   <!-- tRNA-Log-quake-extend -->
   <defs>
    <path d="M 9.8125 72.90625 
L 23.09375 72.90625 
L 55.421875 11.921875 
L 55.421875 72.90625 
L 64.984375 72.90625 
L 64.984375 0 
L 51.703125 0 
L 19.390625 60.984375 
L 19.390625 0 
L 9.8125 0 
z
" id="BitstreamVeraSans-Roman-4e"/>
    <path d="M 9.8125 72.90625 
L 19.671875 72.90625 
L 19.671875 8.296875 
L 55.171875 8.296875 
L 55.171875 0 
L 9.8125 0 
z
" id="BitstreamVeraSans-Roman-4c"/>
    <path d="M 9.078125 75.984375 
L 18.109375 75.984375 
L 18.109375 31.109375 
L 44.921875 54.6875 
L 56.390625 54.6875 
L 27.390625 29.109375 
L 57.625 0 
L 45.90625 0 
L 18.109375 26.703125 
L 18.109375 0 
L 9.078125 0 
z
" id="BitstreamVeraSans-Roman-6b"/>
    <path d="M 44.390625 34.1875 
Q 47.5625 33.109375 50.5625 29.59375 
Q 53.5625 26.078125 56.59375 19.921875 
L 66.609375 0 
L 56 0 
L 46.6875 18.703125 
Q 43.0625 26.03125 39.671875 28.421875 
Q 36.28125 30.8125 30.421875 30.8125 
L 19.671875 30.8125 
L 19.671875 0 
L 9.8125 0 
L 9.8125 72.90625 
L 32.078125 72.90625 
Q 44.578125 72.90625 50.734375 67.671875 
Q 56.890625 62.453125 56.890625 51.90625 
Q 56.890625 45.015625 53.6875 40.46875 
Q 50.484375 35.9375 44.390625 34.1875 
M 19.671875 64.796875 
L 19.671875 38.921875 
L 32.078125 38.921875 
Q 39.203125 38.921875 42.84375 42.21875 
Q 46.484375 45.515625 46.484375 51.90625 
Q 46.484375 58.296875 42.84375 61.546875 
Q 39.203125 64.796875 32.078125 64.796875 
z
" id="BitstreamVeraSans-Roman-52"/>
    <path d="M 34.1875 63.1875 
L 20.796875 26.90625 
L 47.609375 26.90625 
z
M 28.609375 72.90625 
L 39.796875 72.90625 
L 67.578125 0 
L 57.328125 0 
L 50.6875 18.703125 
L 17.828125 18.703125 
L 11.1875 0 
L 0.78125 0 
z
" id="BitstreamVeraSans-Roman-41"/>
    <path d="M 8.5 21.578125 
L 8.5 54.6875 
L 17.484375 54.6875 
L 17.484375 21.921875 
Q 17.484375 14.15625 20.5 10.265625 
Q 23.53125 6.390625 29.59375 6.390625 
Q 36.859375 6.390625 41.078125 11.03125 
Q 45.3125 15.671875 45.3125 23.6875 
L 45.3125 54.6875 
L 54.296875 54.6875 
L 54.296875 0 
L 45.3125 0 
L 45.3125 8.40625 
Q 42.046875 3.421875 37.71875 1 
Q 33.40625 -1.421875 27.6875 -1.421875 
Q 18.265625 -1.421875 13.375 4.4375 
Q 8.5 10.296875 8.5 21.578125 
" id="BitstreamVeraSans-Roman-75"/>
    <path d="M 14.796875 27.296875 
Q 14.796875 17.390625 18.875 11.75 
Q 22.953125 6.109375 30.078125 6.109375 
Q 37.203125 6.109375 41.296875 11.75 
Q 45.40625 17.390625 45.40625 27.296875 
Q 45.40625 37.203125 41.296875 42.84375 
Q 37.203125 48.484375 30.078125 48.484375 
Q 22.953125 48.484375 18.875 42.84375 
Q 14.796875 37.203125 14.796875 27.296875 
M 45.40625 8.203125 
Q 42.578125 3.328125 38.25 0.953125 
Q 33.9375 -1.421875 27.875 -1.421875 
Q 17.96875 -1.421875 11.734375 6.484375 
Q 5.515625 14.40625 5.515625 27.296875 
Q 5.515625 40.1875 11.734375 48.09375 
Q 17.96875 56 27.875 56 
Q 33.9375 56 38.25 53.625 
Q 42.578125 51.265625 45.40625 46.390625 
L 45.40625 54.6875 
L 54.390625 54.6875 
L 54.390625 -20.796875 
L 45.40625 -20.796875 
z
" id="BitstreamVeraSans-Roman-71"/>
   </defs>
   <g transform="translate(156.184375 19.1184375)scale(0.1 -0.1)">
    <use xlink:href="#BitstreamVeraSans-Roman-74"/>
    <use x="39.208984375" xlink:href="#BitstreamVeraSans-Roman-52"/>
    <use x="108.69140625" xlink:href="#BitstreamVeraSans-Roman-4e"/>
    <use x="183.49609375" xlink:href="#BitstreamVeraSans-Roman-41"/>
    <use x="251.873046875" xlink:href="#BitstreamVeraSans-Roman-2d"/>
    <use x="287.95703125" xlink:href="#BitstreamVeraSans-Roman-4c"/>
    <use x="343.654296875" xlink:href="#BitstreamVeraSans-Roman-6f"/>
    <use x="404.8359375" xlink:href="#BitstreamVeraSans-Roman-67"/>
    <use x="468.3125" xlink:href="#BitstreamVeraSans-Roman-2d"/>
    <use x="504.396484375" xlink:href="#BitstreamVeraSans-Roman-71"/>
    <use x="567.873046875" xlink:href="#BitstreamVeraSans-Roman-75"/>
    <use x="631.251953125" xlink:href="#BitstreamVeraSans-Roman-61"/>
    <use x="692.53125" xlink:href="#BitstreamVeraSans-Roman-6b"/>
    <use x="750.39453125" xlink:href="#BitstreamVeraSans-Roman-65"/>
    <use x="811.91796875" xlink:href="#BitstreamVeraSans-Roman-2d"/>
    <use x="848.001953125" xlink:href="#BitstreamVeraSans-Roman-65"/>
    <use x="909.509765625" xlink:href="#BitstreamVeraSans-Roman-78"/>
    <use x="968.689453125" xlink:href="#BitstreamVeraSans-Roman-74"/>
    <use x="1007.8984375" xlink:href="#BitstreamVeraSans-Roman-65"/>
    <use x="1069.421875" xlink:href="#BitstreamVeraSans-Roman-6e"/>
    <use x="1132.80078125" xlink:href="#BitstreamVeraSans-Roman-64"/>
   </g>
  </g>
 </g>
 <defs>
  <clipPath id="p5504fd2f1c">
   <rect height="223.2" width="334.8" x="54.0" y="28.8"/>
  </clipPath>
 </defs>
</svg>
