<?xml version="1.0" encoding="UTF-8" standalone="no"?>
<!DOCTYPE svg PUBLIC "-//W3C//DTD SVG 1.1//EN"
 "http://www.w3.org/Graphics/SVG/1.1/DTD/svg11.dtd">
<!-- Generated by graphviz version 2.36.0 (20140111.2315)
 -->
<!-- Title: ViennaRNA/alifold.h Pages: 1 -->
<svg width="764pt" height="376pt"
 viewBox="0.00 0.00 764.00 376.00" xmlns="http://www.w3.org/2000/svg" xmlns:xlink="http://www.w3.org/1999/xlink">
<g id="graph0" class="graph" transform="scale(1 1) rotate(0) translate(4 372)">
<title>ViennaRNA/alifold.h</title>
<!-- Node1 -->
<g id="node1" class="node"><title>Node1</title>
<polygon fill="#bfbfbf" stroke="black" points="307.5,-348.5 307.5,-367.5 412.5,-367.5 412.5,-348.5 307.5,-348.5"/>
<text text-anchor="middle" x="360" y="-355.5" font-family="Helvetica,sans-Serif" font-size="10.00">ViennaRNA/alifold.h</text>
</g>
<!-- Node2 -->
<g id="node2" class="node"><title>Node2</title>
<g id="a_node2"><a xlink:href="data__structures_8h.html" target="_top" xlink:title="ViennaRNA/data_structures.h">
<polygon fill="none" stroke="black" points="213.5,-168.5 213.5,-187.5 360.5,-187.5 360.5,-168.5 213.5,-168.5"/>
<text text-anchor="middle" x="287" y="-175.5" font-family="Helvetica,sans-Serif" font-size="10.00">ViennaRNA/data_structures.h</text>
</a>
</g>
</g>
<!-- Node1&#45;&gt;Node2 -->
<g id="edge1" class="edge"><title>Node1&#45;&gt;Node2</title>
<path fill="none" stroke="midnightblue" d="M307.388,-348.902C255.523,-337.816 178.967,-312.412 143,-256 135.354,-244.008 134.576,-235.459 143,-224 157.322,-204.519 180.039,-193.237 203.235,-186.773"/>
<polygon fill="midnightblue" stroke="midnightblue" points="204.329,-190.107 213.182,-184.288 202.632,-183.316 204.329,-190.107"/>
</g>
<!-- Node6 -->
<g id="node6" class="node"><title>Node6</title>
<g id="a_node6"><a xlink:href="params_8h.html" target="_top" xlink:title="ViennaRNA/params.h">
<polygon fill="none" stroke="black" points="410,-112.5 410,-131.5 522,-131.5 522,-112.5 410,-112.5"/>
<text text-anchor="middle" x="466" y="-119.5" font-family="Helvetica,sans-Serif" font-size="10.00">ViennaRNA/params.h</text>
</a>
</g>
</g>
<!-- Node1&#45;&gt;Node6 -->
<g id="edge13" class="edge"><title>Node1&#45;&gt;Node6</title>
<path fill="none" stroke="midnightblue" d="M376.312,-348.471C390.891,-340.348 412.312,-327.138 428,-312 450.01,-290.761 455.565,-283.944 468,-256 484.13,-219.752 490.127,-207.03 483,-168 481.312,-158.757 477.825,-148.948 474.446,-140.855"/>
<polygon fill="midnightblue" stroke="midnightblue" points="477.631,-139.405 470.366,-131.693 471.237,-142.252 477.631,-139.405"/>
</g>
<!-- Node9 -->
<g id="node9" class="node"><title>Node9</title>
<g id="a_node9"><a xlink:href="ribo_8h.html" target="_top" xlink:title="Parse RiboSum Scoring Matrices for Covariance Scoring of Alignments. ">
<polygon fill="none" stroke="black" points="532.5,-292.5 532.5,-311.5 627.5,-311.5 627.5,-292.5 532.5,-292.5"/>
<text text-anchor="middle" x="580" y="-299.5" font-family="Helvetica,sans-Serif" font-size="10.00">ViennaRNA/ribo.h</text>
</a>
</g>
</g>
<!-- Node1&#45;&gt;Node9 -->
<g id="edge14" class="edge"><title>Node1&#45;&gt;Node9</title>
<path fill="none" stroke="midnightblue" d="M394.86,-348.444C432.916,-339.102 493.958,-324.119 535.46,-313.933"/>
<polygon fill="midnightblue" stroke="midnightblue" points="536.426,-317.299 545.303,-311.516 534.757,-310.501 536.426,-317.299"/>
</g>
<!-- Node10 -->
<g id="node10" class="node"><title>Node10</title>
<g id="a_node10"><a xlink:href="mfe_8h.html" target="_top" xlink:title="MFE calculations for single RNA sequences. ">
<polygon fill="none" stroke="black" points="0,-292.5 0,-311.5 96,-311.5 96,-292.5 0,-292.5"/>
<text text-anchor="middle" x="48" y="-299.5" font-family="Helvetica,sans-Serif" font-size="10.00">ViennaRNA/mfe.h</text>
</a>
</g>
</g>
<!-- Node1&#45;&gt;Node10 -->
<g id="edge15" class="edge"><title>Node1&#45;&gt;Node10</title>
<path fill="none" stroke="midnightblue" d="M310.563,-348.444C255.011,-338.829 164.927,-323.237 106.069,-313.05"/>
<polygon fill="midnightblue" stroke="midnightblue" points="106.631,-309.596 96.1808,-311.339 105.437,-316.493 106.631,-309.596"/>
</g>
<!-- Node12 -->
<g id="node12" class="node"><title>Node12</title>
<g id="a_node12"><a xlink:href="part__func_8h.html" target="_top" xlink:title="Partition function of single RNA sequences. ">
<polygon fill="none" stroke="black" points="300,-292.5 300,-311.5 420,-311.5 420,-292.5 300,-292.5"/>
<text text-anchor="middle" x="360" y="-299.5" font-family="Helvetica,sans-Serif" font-size="10.00">ViennaRNA/part_func.h</text>
</a>
</g>
</g>
<!-- Node1&#45;&gt;Node12 -->
<g id="edge18" class="edge"><title>Node1&#45;&gt;Node12</title>
<path fill="none" stroke="midnightblue" d="M360,-348.083C360,-341.006 360,-330.861 360,-321.986"/>
<polygon fill="midnightblue" stroke="midnightblue" points="363.5,-321.751 360,-311.751 356.5,-321.751 363.5,-321.751"/>
</g>
<!-- Node14 -->
<g id="node14" class="node"><title>Node14</title>
<g id="a_node14"><a xlink:href="boltzmann__sampling_8h.html" target="_top" xlink:title="Boltzmann Sampling of secondary structures from the ensemble. ">
<polygon fill="none" stroke="black" points="152,-225 152,-255 268,-255 268,-225 152,-225"/>
<text text-anchor="start" x="160" y="-243" font-family="Helvetica,sans-Serif" font-size="10.00">ViennaRNA/boltzmann</text>
<text text-anchor="middle" x="210" y="-232" font-family="Helvetica,sans-Serif" font-size="10.00">_sampling.h</text>
</a>
</g>
</g>
<!-- Node1&#45;&gt;Node14 -->
<g id="edge26" class="edge"><title>Node1&#45;&gt;Node14</title>
<path fill="none" stroke="midnightblue" d="M345.592,-348.432C331.348,-339.771 309.119,-325.74 291,-312 270.318,-296.316 248.25,-276.767 232.381,-262.155"/>
<polygon fill="midnightblue" stroke="midnightblue" points="234.396,-259.25 224.687,-255.01 229.633,-264.38 234.396,-259.25"/>
</g>
<!-- Node15 -->
<g id="node15" class="node"><title>Node15</title>
<g id="a_node15"><a xlink:href="aln__util_8h.html" target="_top" xlink:title="Various utility&#45; and helper&#45;functions for sequence alignments and comparative structure prediction...">
<polygon fill="none" stroke="black" points="646,-292.5 646,-311.5 756,-311.5 756,-292.5 646,-292.5"/>
<text text-anchor="middle" x="701" y="-299.5" font-family="Helvetica,sans-Serif" font-size="10.00">ViennaRNA/aln_util.h</text>
</a>
</g>
</g>
<!-- Node1&#45;&gt;Node15 -->
<g id="edge25" class="edge"><title>Node1&#45;&gt;Node15</title>
<path fill="none" stroke="midnightblue" d="M412.534,-348.681C473.005,-339.105 572.309,-323.379 637.177,-313.107"/>
<polygon fill="midnightblue" stroke="midnightblue" points="637.951,-316.528 647.281,-311.507 636.856,-309.614 637.951,-316.528"/>
</g>
<!-- Node3 -->
<g id="node3" class="node"><title>Node3</title>
<g id="a_node3"><a xlink:href="energy__const_8h.html" target="_top" xlink:title="ViennaRNA/energy_const.h">
<polygon fill="none" stroke="black" points="190,-56.5 190,-75.5 328,-75.5 328,-56.5 190,-56.5"/>
<text text-anchor="middle" x="259" y="-63.5" font-family="Helvetica,sans-Serif" font-size="10.00">ViennaRNA/energy_const.h</text>
</a>
</g>
</g>
<!-- Node2&#45;&gt;Node3 -->
<g id="edge2" class="edge"><title>Node2&#45;&gt;Node3</title>
<path fill="none" stroke="midnightblue" d="M258.985,-168.397C241.826,-161.515 221.252,-149.984 211,-132 200.529,-113.631 219.027,-94.3596 236.012,-81.6163"/>
<polygon fill="midnightblue" stroke="midnightblue" points="238.424,-84.1993 244.595,-75.5868 234.4,-78.4714 238.424,-84.1993"/>
</g>
<!-- Node5 -->
<g id="node5" class="node"><title>Node5</title>
<g id="a_node5"><a xlink:href="model_8h.html" target="_top" xlink:title="The model details data structure and its corresponding modifiers. ">
<polygon fill="none" stroke="black" points="371,-56.5 371,-75.5 477,-75.5 477,-56.5 371,-56.5"/>
<text text-anchor="middle" x="424" y="-63.5" font-family="Helvetica,sans-Serif" font-size="10.00">ViennaRNA/model.h</text>
</a>
</g>
</g>
<!-- Node2&#45;&gt;Node5 -->
<g id="edge4" class="edge"><title>Node2&#45;&gt;Node5</title>
<path fill="none" stroke="midnightblue" d="M304.228,-168.379C320.003,-160.098 343.621,-146.703 362,-132 380.354,-117.317 398.587,-97.3929 410.48,-83.4883"/>
<polygon fill="midnightblue" stroke="midnightblue" points="413.261,-85.6188 417.009,-75.7093 407.899,-81.1183 413.261,-85.6188"/>
</g>
<!-- Node2&#45;&gt;Node6 -->
<g id="edge5" class="edge"><title>Node2&#45;&gt;Node6</title>
<path fill="none" stroke="midnightblue" d="M310.274,-168.444C338.762,-159.241 387.241,-144.562 422.626,-134.388"/>
<polygon fill="midnightblue" stroke="midnightblue" points="424.034,-137.626 432.69,-131.516 422.113,-130.895 424.034,-137.626"/>
</g>
<!-- Node7 -->
<g id="node7" class="node"><title>Node7</title>
<g id="a_node7"><a xlink:href="dp__matrices_8h.html" target="_top" xlink:title="ViennaRNA/dp_matrices.h">
<polygon fill="none" stroke="black" points="220.5,-112.5 220.5,-131.5 353.5,-131.5 353.5,-112.5 220.5,-112.5"/>
<text text-anchor="middle" x="287" y="-119.5" font-family="Helvetica,sans-Serif" font-size="10.00">ViennaRNA/dp_matrices.h</text>
</a>
</g>
</g>
<!-- Node2&#45;&gt;Node7 -->
<g id="edge9" class="edge"><title>Node2&#45;&gt;Node7</title>
<path fill="none" stroke="midnightblue" d="M281.834,-168.083C280.324,-160.927 279.894,-150.635 280.542,-141.691"/>
<polygon fill="midnightblue" stroke="midnightblue" points="284.015,-142.126 281.869,-131.751 277.077,-141.2 284.015,-142.126"/>
</g>
<!-- Node8 -->
<g id="node8" class="node"><title>Node8</title>
<g id="a_node8"><a xlink:href="constraints_8h.html" target="_top" xlink:title="ViennaRNA/constraints.h">
<polygon fill="none" stroke="black" points="36,-112.5 36,-131.5 164,-131.5 164,-112.5 36,-112.5"/>
<text text-anchor="middle" x="100" y="-119.5" font-family="Helvetica,sans-Serif" font-size="10.00">ViennaRNA/constraints.h</text>
</a>
</g>
</g>
<!-- Node2&#45;&gt;Node8 -->
<g id="edge11" class="edge"><title>Node2&#45;&gt;Node8</title>
<path fill="none" stroke="midnightblue" d="M252.281,-168.444C218.538,-159.28 167.818,-144.688 134.244,-134.519"/>
<polygon fill="midnightblue" stroke="midnightblue" points="134.998,-131.09 124.412,-131.516 132.954,-137.785 134.998,-131.09"/>
</g>
<!-- Node4 -->
<g id="node4" class="node"><title>Node4</title>
<polygon fill="none" stroke="#bfbfbf" points="235,-0.5 235,-19.5 283,-19.5 283,-0.5 235,-0.5"/>
<text text-anchor="middle" x="259" y="-7.5" font-family="Helvetica,sans-Serif" font-size="10.00">limits.h</text>
</g>
<!-- Node3&#45;&gt;Node4 -->
<g id="edge3" class="edge"><title>Node3&#45;&gt;Node4</title>
<path fill="none" stroke="midnightblue" d="M259,-56.083C259,-49.0059 259,-38.8611 259,-29.9865"/>
<polygon fill="midnightblue" stroke="midnightblue" points="262.5,-29.751 259,-19.7511 255.5,-29.7511 262.5,-29.751"/>
</g>
<!-- Node6&#45;&gt;Node2 -->
<g id="edge7" class="edge"><title>Node6&#45;&gt;Node2</title>
<path fill="none" stroke="midnightblue" d="M442.85,-131.516C414.298,-140.743 365.535,-155.507 330.073,-165.699"/>
<polygon fill="midnightblue" stroke="midnightblue" points="329.108,-162.334 320.452,-168.444 331.028,-169.066 329.108,-162.334"/>
</g>
<!-- Node6&#45;&gt;Node3 -->
<g id="edge6" class="edge"><title>Node6&#45;&gt;Node3</title>
<path fill="none" stroke="midnightblue" d="M433.2,-112.444C397.62,-103.162 340.686,-88.3093 301.653,-78.127"/>
<polygon fill="midnightblue" stroke="midnightblue" points="302.206,-74.6541 291.646,-75.5164 300.439,-81.4274 302.206,-74.6541"/>
</g>
<!-- Node6&#45;&gt;Node5 -->
<g id="edge8" class="edge"><title>Node6&#45;&gt;Node5</title>
<path fill="none" stroke="midnightblue" d="M459.065,-112.083C453.071,-104.377 444.248,-93.0333 436.952,-83.6531"/>
<polygon fill="midnightblue" stroke="midnightblue" points="439.709,-81.4958 430.806,-75.7511 434.183,-85.7934 439.709,-81.4958"/>
</g>
<!-- Node7&#45;&gt;Node2 -->
<g id="edge10" class="edge"><title>Node7&#45;&gt;Node2</title>
<path fill="none" stroke="midnightblue" d="M292.131,-131.751C293.657,-138.858 294.104,-149.136 293.472,-158.101"/>
<polygon fill="midnightblue" stroke="midnightblue" points="289.993,-157.713 292.166,-168.083 296.934,-158.622 289.993,-157.713"/>
</g>
<!-- Node8&#45;&gt;Node2 -->
<g id="edge12" class="edge"><title>Node8&#45;&gt;Node2</title>
<path fill="none" stroke="midnightblue" d="M134.572,-131.516C168.265,-140.664 218.985,-155.255 252.609,-165.436"/>
<polygon fill="midnightblue" stroke="midnightblue" points="251.872,-168.871 262.458,-168.444 253.916,-162.176 251.872,-168.871"/>
</g>
<!-- Node10&#45;&gt;Node2 -->
<g id="edge17" class="edge"><title>Node10&#45;&gt;Node2</title>
<path fill="none" stroke="midnightblue" d="M52.4888,-292.308C61.2618,-276.217 82.2735,-241.808 110,-224 137.804,-206.142 172.305,-195.366 203.443,-188.866"/>
<polygon fill="midnightblue" stroke="midnightblue" points="204.285,-192.267 213.421,-186.902 202.934,-185.399 204.285,-192.267"/>
</g>
<!-- Node11 -->
<g id="node11" class="node"><title>Node11</title>
<polygon fill="none" stroke="#bfbfbf" points="12,-230.5 12,-249.5 58,-249.5 58,-230.5 12,-230.5"/>
<text text-anchor="middle" x="35" y="-237.5" font-family="Helvetica,sans-Serif" font-size="10.00">stdio.h</text>
</g>
<!-- Node10&#45;&gt;Node11 -->
<g id="edge16" class="edge"><title>Node10&#45;&gt;Node11</title>
<path fill="none" stroke="midnightblue" d="M46.1374,-292.403C44.2839,-283.849 41.3808,-270.45 39.0032,-259.476"/>
<polygon fill="midnightblue" stroke="midnightblue" points="42.3974,-258.613 36.8591,-249.581 35.5561,-260.095 42.3974,-258.613"/>
</g>
<!-- Node12&#45;&gt;Node2 -->
<g id="edge19" class="edge"><title>Node12&#45;&gt;Node2</title>
<path fill="none" stroke="midnightblue" d="M349.003,-292.42C338.943,-284.068 324.259,-270.538 315,-256 303.328,-237.673 295.616,-213.803 291.294,-197.529"/>
<polygon fill="midnightblue" stroke="midnightblue" points="294.645,-196.499 288.837,-187.638 287.851,-198.187 294.645,-196.499"/>
</g>
<!-- Node12&#45;&gt;Node6 -->
<g id="edge20" class="edge"><title>Node12&#45;&gt;Node6</title>
<path fill="none" stroke="midnightblue" d="M392.312,-292.434C411.276,-285.691 434,-274.299 447,-256 471.349,-221.726 470.829,-169.781 468.389,-142.041"/>
<polygon fill="midnightblue" stroke="midnightblue" points="471.833,-141.329 467.293,-131.756 464.873,-142.071 471.833,-141.329"/>
</g>
<!-- Node13 -->
<g id="node13" class="node"><title>Node13</title>
<g id="a_node13"><a xlink:href="centroid_8h.html" target="_top" xlink:title="Centroid structure computation. ">
<polygon fill="none" stroke="black" points="324,-230.5 324,-249.5 438,-249.5 438,-230.5 324,-230.5"/>
<text text-anchor="middle" x="381" y="-237.5" font-family="Helvetica,sans-Serif" font-size="10.00">ViennaRNA/centroid.h</text>
</a>
</g>
</g>
<!-- Node12&#45;&gt;Node13 -->
<g id="edge21" class="edge"><title>Node12&#45;&gt;Node13</title>
<path fill="none" stroke="midnightblue" d="M363.009,-292.403C366.034,-283.76 370.79,-270.17 374.653,-259.134"/>
<polygon fill="midnightblue" stroke="midnightblue" points="377.997,-260.175 377.997,-249.581 371.39,-257.863 377.997,-260.175"/>
</g>
<!-- Node12&#45;&gt;Node14 -->
<g id="edge23" class="edge"><title>Node12&#45;&gt;Node14</title>
<path fill="none" stroke="midnightblue" d="M338.509,-292.403C316.697,-283.679 282.286,-269.914 254.56,-258.824"/>
<polygon fill="midnightblue" stroke="midnightblue" points="255.648,-255.49 245.063,-255.025 253.048,-261.989 255.648,-255.49"/>
</g>
<!-- Node13&#45;&gt;Node2 -->
<g id="edge22" class="edge"><title>Node13&#45;&gt;Node2</title>
<path fill="none" stroke="midnightblue" d="M367.532,-230.403C352.315,-220.691 327.313,-204.732 309.199,-193.17"/>
<polygon fill="midnightblue" stroke="midnightblue" points="310.755,-190.011 300.443,-187.581 306.989,-195.911 310.755,-190.011"/>
</g>
<!-- Node14&#45;&gt;Node2 -->
<g id="edge24" class="edge"><title>Node14&#45;&gt;Node2</title>
<path fill="none" stroke="midnightblue" d="M228.248,-224.781C240.129,-215.523 255.607,-203.462 267.694,-194.044"/>
<polygon fill="midnightblue" stroke="midnightblue" points="270.059,-196.638 275.796,-187.731 265.757,-191.116 270.059,-196.638"/>
</g>
</g>
</svg>
