<?xml version="1.0" encoding="UTF-8" standalone="no"?>
<!DOCTYPE svg PUBLIC "-//W3C//DTD SVG 1.1//EN"
 "http://www.w3.org/Graphics/SVG/1.1/DTD/svg11.dtd">
<!-- Generated by graphviz version 2.36.0 (20140111.2315)
 -->
<!-- Title: ViennaRNA/boltzmann_sampling.h Pages: 1 -->
<svg width="169pt" height="152pt"
 viewBox="0.00 0.00 169.00 152.00" xmlns="http://www.w3.org/2000/svg" xmlns:xlink="http://www.w3.org/1999/xlink">
<g id="graph0" class="graph" transform="scale(1 1) rotate(0) translate(4 148)">
<title>ViennaRNA/boltzmann_sampling.h</title>
<!-- Node1 -->
<g id="node1" class="node"><title>Node1</title>
<polygon fill="#bfbfbf" stroke="black" points="-1,-113 -1,-143 115,-143 115,-113 -1,-113"/>
<text text-anchor="start" x="7" y="-131" font-family="Helvetica,sans-Serif" font-size="10.00">ViennaRNA/boltzmann</text>
<text text-anchor="middle" x="57" y="-120" font-family="Helvetica,sans-Serif" font-size="10.00">_sampling.h</text>
</g>
<!-- Node2 -->
<g id="node2" class="node"><title>Node2</title>
<g id="a_node2"><a xlink:href="alifold_8h.html" target="_top" xlink:title="compute various properties (consensus MFE structures, partition function, Boltzmann distributed stoch...">
<polygon fill="none" stroke="black" points="4.5,-0.5 4.5,-19.5 109.5,-19.5 109.5,-0.5 4.5,-0.5"/>
<text text-anchor="middle" x="57" y="-7.5" font-family="Helvetica,sans-Serif" font-size="10.00">ViennaRNA/alifold.h</text>
</a>
</g>
</g>
<!-- Node1&#45;&gt;Node2 -->
<g id="edge1" class="edge"><title>Node1&#45;&gt;Node2</title>
<path fill="none" stroke="midnightblue" d="M41.5565,-104.025C34.171,-90.272 27.7652,-72.3427 32,-56 35.5421,-42.3307 44.2349,-28.393 50.3713,-19.7252"/>
<polygon fill="midnightblue" stroke="midnightblue" points="38.6294,-105.952 46.7073,-112.808 44.6676,-102.411 38.6294,-105.952"/>
</g>
<!-- Node3 -->
<g id="node3" class="node"><title>Node3</title>
<g id="a_node3"><a xlink:href="part__func_8h.html" target="_top" xlink:title="Partition function of single RNA sequences. ">
<polygon fill="none" stroke="black" points="41,-56.5 41,-75.5 161,-75.5 161,-56.5 41,-56.5"/>
<text text-anchor="middle" x="101" y="-63.5" font-family="Helvetica,sans-Serif" font-size="10.00">ViennaRNA/part_func.h</text>
</a>
</g>
</g>
<!-- Node1&#45;&gt;Node3 -->
<g id="edge2" class="edge"><title>Node1&#45;&gt;Node3</title>
<path fill="none" stroke="midnightblue" d="M73.5617,-104.416C80.8955,-94.4153 89.0895,-83.2416 94.5976,-75.7305"/>
<polygon fill="midnightblue" stroke="midnightblue" points="70.5186,-102.647 67.4274,-112.781 76.1635,-106.787 70.5186,-102.647"/>
</g>
<!-- Node3&#45;&gt;Node2 -->
<g id="edge3" class="edge"><title>Node3&#45;&gt;Node2</title>
<path fill="none" stroke="midnightblue" d="M87.2655,-48.144C79.5995,-38.7357 70.3667,-27.4046 64.1305,-19.7511"/>
<polygon fill="midnightblue" stroke="midnightblue" points="84.7042,-50.5415 93.7343,-56.083 90.1309,-46.1198 84.7042,-50.5415"/>
</g>
</g>
</svg>
