<?xml version="1.0" encoding="UTF-8" standalone="no"?>
<!DOCTYPE svg PUBLIC "-//W3C//DTD SVG 1.1//EN"
 "http://www.w3.org/Graphics/SVG/1.1/DTD/svg11.dtd">
<!-- Generated by graphviz version 2.36.0 (20140111.2315)
 -->
<!-- Title: ViennaRNA/exterior_loops.h Pages: 1 -->
<svg width="515pt" height="264pt"
 viewBox="0.00 0.00 515.00 264.00" xmlns="http://www.w3.org/2000/svg" xmlns:xlink="http://www.w3.org/1999/xlink">
<g id="graph0" class="graph" transform="scale(1 1) rotate(0) translate(4 260)">
<title>ViennaRNA/exterior_loops.h</title>
<!-- Node1 -->
<g id="node1" class="node"><title>Node1</title>
<polygon fill="#bfbfbf" stroke="black" points="311,-225 311,-255 415,-255 415,-225 311,-225"/>
<text text-anchor="start" x="319" y="-243" font-family="Helvetica,sans-Serif" font-size="10.00">ViennaRNA/exterior</text>
<text text-anchor="middle" x="363" y="-232" font-family="Helvetica,sans-Serif" font-size="10.00">_loops.h</text>
</g>
<!-- Node2 -->
<g id="node2" class="node"><title>Node2</title>
<g id="a_node2"><a xlink:href="data__structures_8h.html" target="_top" xlink:title="ViennaRNA/data_structures.h">
<polygon fill="none" stroke="black" points="233.5,-168.5 233.5,-187.5 380.5,-187.5 380.5,-168.5 233.5,-168.5"/>
<text text-anchor="middle" x="307" y="-175.5" font-family="Helvetica,sans-Serif" font-size="10.00">ViennaRNA/data_structures.h</text>
</a>
</g>
</g>
<!-- Node1&#45;&gt;Node2 -->
<g id="edge1" class="edge"><title>Node1&#45;&gt;Node2</title>
<path fill="none" stroke="midnightblue" d="M349.729,-224.781C341.424,-215.882 330.701,-204.394 322.076,-195.152"/>
<polygon fill="midnightblue" stroke="midnightblue" points="324.53,-192.653 315.148,-187.731 319.413,-197.429 324.53,-192.653"/>
</g>
<!-- Node6 -->
<g id="node6" class="node"><title>Node6</title>
<g id="a_node6"><a xlink:href="params_8h.html" target="_top" xlink:title="ViennaRNA/params.h">
<polygon fill="none" stroke="black" points="373,-112.5 373,-131.5 485,-131.5 485,-112.5 373,-112.5"/>
<text text-anchor="middle" x="429" y="-119.5" font-family="Helvetica,sans-Serif" font-size="10.00">ViennaRNA/params.h</text>
</a>
</g>
</g>
<!-- Node1&#45;&gt;Node6 -->
<g id="edge13" class="edge"><title>Node1&#45;&gt;Node6</title>
<path fill="none" stroke="midnightblue" d="M371.093,-224.776C383.201,-203.496 406.003,-163.418 419.091,-140.415"/>
<polygon fill="midnightblue" stroke="midnightblue" points="422.143,-142.129 424.046,-131.707 416.059,-138.668 422.143,-142.129"/>
</g>
<!-- Node3 -->
<g id="node3" class="node"><title>Node3</title>
<g id="a_node3"><a xlink:href="energy__const_8h.html" target="_top" xlink:title="ViennaRNA/energy_const.h">
<polygon fill="none" stroke="black" points="369,-56.5 369,-75.5 507,-75.5 507,-56.5 369,-56.5"/>
<text text-anchor="middle" x="438" y="-63.5" font-family="Helvetica,sans-Serif" font-size="10.00">ViennaRNA/energy_const.h</text>
</a>
</g>
</g>
<!-- Node2&#45;&gt;Node3 -->
<g id="edge2" class="edge"><title>Node2&#45;&gt;Node3</title>
<path fill="none" stroke="midnightblue" d="M313.291,-168.25C323.098,-155.01 343.083,-129.569 364,-112 378.545,-99.7832 396.755,-88.6656 411.471,-80.5373"/>
<polygon fill="midnightblue" stroke="midnightblue" points="413.415,-83.4659 420.563,-75.646 410.098,-77.3014 413.415,-83.4659"/>
</g>
<!-- Node5 -->
<g id="node5" class="node"><title>Node5</title>
<g id="a_node5"><a xlink:href="model_8h.html" target="_top" xlink:title="The model details data structure and its corresponding modifiers. ">
<polygon fill="none" stroke="black" points="245,-56.5 245,-75.5 351,-75.5 351,-56.5 245,-56.5"/>
<text text-anchor="middle" x="298" y="-63.5" font-family="Helvetica,sans-Serif" font-size="10.00">ViennaRNA/model.h</text>
</a>
</g>
</g>
<!-- Node2&#45;&gt;Node5 -->
<g id="edge4" class="edge"><title>Node2&#45;&gt;Node5</title>
<path fill="none" stroke="midnightblue" d="M306.294,-168.368C304.841,-150.617 301.491,-109.666 299.522,-85.5974"/>
<polygon fill="midnightblue" stroke="midnightblue" points="303.007,-85.2727 298.703,-75.5914 296.03,-85.8436 303.007,-85.2727"/>
</g>
<!-- Node2&#45;&gt;Node6 -->
<g id="edge5" class="edge"><title>Node2&#45;&gt;Node6</title>
<path fill="none" stroke="midnightblue" d="M321.487,-168.324C339.579,-159.467 370.61,-145.63 394.786,-135.573"/>
<polygon fill="midnightblue" stroke="midnightblue" points="396.414,-138.688 404.337,-131.655 393.757,-132.212 396.414,-138.688"/>
</g>
<!-- Node7 -->
<g id="node7" class="node"><title>Node7</title>
<g id="a_node7"><a xlink:href="dp__matrices_8h.html" target="_top" xlink:title="ViennaRNA/dp_matrices.h">
<polygon fill="none" stroke="black" points="-0.5,-112.5 -0.5,-131.5 132.5,-131.5 132.5,-112.5 -0.5,-112.5"/>
<text text-anchor="middle" x="66" y="-119.5" font-family="Helvetica,sans-Serif" font-size="10.00">ViennaRNA/dp_matrices.h</text>
</a>
</g>
</g>
<!-- Node2&#45;&gt;Node7 -->
<g id="edge9" class="edge"><title>Node2&#45;&gt;Node7</title>
<path fill="none" stroke="midnightblue" d="M263.724,-168.444C219.801,-159.063 152.397,-143.993 108.689,-133.804"/>
<polygon fill="midnightblue" stroke="midnightblue" points="109.463,-130.39 98.9285,-131.516 107.866,-137.206 109.463,-130.39"/>
</g>
<!-- Node8 -->
<g id="node8" class="node"><title>Node8</title>
<g id="a_node8"><a xlink:href="constraints_8h.html" target="_top" xlink:title="ViennaRNA/constraints.h">
<polygon fill="none" stroke="black" points="151,-112.5 151,-131.5 279,-131.5 279,-112.5 151,-112.5"/>
<text text-anchor="middle" x="215" y="-119.5" font-family="Helvetica,sans-Serif" font-size="10.00">ViennaRNA/constraints.h</text>
</a>
</g>
</g>
<!-- Node2&#45;&gt;Node8 -->
<g id="edge11" class="edge"><title>Node2&#45;&gt;Node8</title>
<path fill="none" stroke="midnightblue" d="M287.104,-168.324C271.08,-159.979 249.019,-147.212 233.409,-137.352"/>
<polygon fill="midnightblue" stroke="midnightblue" points="234.928,-134.165 224.635,-131.655 231.115,-140.036 234.928,-134.165"/>
</g>
<!-- Node4 -->
<g id="node4" class="node"><title>Node4</title>
<polygon fill="none" stroke="#bfbfbf" points="414,-0.5 414,-19.5 462,-19.5 462,-0.5 414,-0.5"/>
<text text-anchor="middle" x="438" y="-7.5" font-family="Helvetica,sans-Serif" font-size="10.00">limits.h</text>
</g>
<!-- Node3&#45;&gt;Node4 -->
<g id="edge3" class="edge"><title>Node3&#45;&gt;Node4</title>
<path fill="none" stroke="midnightblue" d="M438,-56.083C438,-49.0059 438,-38.8611 438,-29.9865"/>
<polygon fill="midnightblue" stroke="midnightblue" points="441.5,-29.751 438,-19.7511 434.5,-29.7511 441.5,-29.751"/>
</g>
<!-- Node6&#45;&gt;Node2 -->
<g id="edge7" class="edge"><title>Node6&#45;&gt;Node2</title>
<path fill="none" stroke="midnightblue" d="M414.839,-131.516C396.67,-140.427 365.1,-154.504 340.707,-164.638"/>
<polygon fill="midnightblue" stroke="midnightblue" points="339.346,-161.413 331.42,-168.444 342,-167.89 339.346,-161.413"/>
</g>
<!-- Node6&#45;&gt;Node3 -->
<g id="edge6" class="edge"><title>Node6&#45;&gt;Node3</title>
<path fill="none" stroke="midnightblue" d="M430.486,-112.083C431.679,-104.927 433.394,-94.6353 434.885,-85.6911"/>
<polygon fill="midnightblue" stroke="midnightblue" points="438.35,-86.1904 436.541,-75.7511 431.445,-85.0396 438.35,-86.1904"/>
</g>
<!-- Node6&#45;&gt;Node5 -->
<g id="edge8" class="edge"><title>Node6&#45;&gt;Node5</title>
<path fill="none" stroke="midnightblue" d="M408.243,-112.444C386.684,-103.557 352.737,-89.5632 328.206,-79.4514"/>
<polygon fill="midnightblue" stroke="midnightblue" points="329.239,-76.0917 318.66,-75.5164 326.572,-82.5634 329.239,-76.0917"/>
</g>
<!-- Node7&#45;&gt;Node2 -->
<g id="edge10" class="edge"><title>Node7&#45;&gt;Node2</title>
<path fill="none" stroke="midnightblue" d="M109.088,-131.516C152.945,-140.881 220.349,-155.95 264.124,-166.153"/>
<polygon fill="midnightblue" stroke="midnightblue" points="263.367,-169.57 273.902,-168.444 264.964,-162.755 263.367,-169.57"/>
</g>
<!-- Node8&#45;&gt;Node2 -->
<g id="edge12" class="edge"><title>Node8&#45;&gt;Node2</title>
<path fill="none" stroke="midnightblue" d="M234.855,-131.655C250.869,-139.992 272.929,-152.757 288.551,-162.622"/>
<polygon fill="midnightblue" stroke="midnightblue" points="287.04,-165.814 297.333,-168.324 290.852,-159.943 287.04,-165.814"/>
</g>
</g>
</svg>
