<?xml version="1.0" encoding="UTF-8" standalone="no"?>
<!DOCTYPE svg PUBLIC "-//W3C//DTD SVG 1.1//EN"
 "http://www.w3.org/Graphics/SVG/1.1/DTD/svg11.dtd">
<!-- Generated by graphviz version 2.36.0 (20140111.2315)
 -->
<!-- Title: Data Structures and Preprocessor Macros Pages: 1 -->
<svg width="294pt" height="77pt"
 viewBox="0.00 0.00 294.00 77.00" xmlns="http://www.w3.org/2000/svg" xmlns:xlink="http://www.w3.org/1999/xlink">
<g id="graph0" class="graph" transform="scale(1 1) rotate(0) translate(4 73)">
<title>Data Structures and Preprocessor Macros</title>
<!-- Node0 -->
<g id="node1" class="node"><title>Node0</title>
<polygon fill="#bfbfbf" stroke="black" points="0.5,-22 0.5,-52 113.5,-52 113.5,-22 0.5,-22"/>
<text text-anchor="start" x="8.5" y="-40" font-family="Helvetica,sans-Serif" font-size="10.00">Data Structures and</text>
<text text-anchor="middle" x="57" y="-29" font-family="Helvetica,sans-Serif" font-size="10.00"> Preprocessor Macros</text>
</g>
<!-- Node1 -->
<g id="node2" class="node"><title>Node1</title>
<g id="a_node2"><a xlink:href="group__fold__compound.html" target="_top" xlink:title="This module provides interfaces that deal with the most basic data structure used in structure predic...">
<polygon fill="none" stroke="black" points="165.5,-49.5 165.5,-68.5 270.5,-68.5 270.5,-49.5 165.5,-49.5"/>
<text text-anchor="middle" x="218" y="-56.5" font-family="Helvetica,sans-Serif" font-size="10.00">The Fold Compound</text>
</a>
</g>
</g>
<!-- Node0&#45;&gt;Node1 -->
<g id="edge1" class="edge"><title>Node0&#45;&gt;Node1</title>
<path fill="none" stroke="midnightblue" d="M123.63,-46.0809C137.568,-48.0094 152.093,-50.0191 165.418,-51.8629"/>
<polygon fill="midnightblue" stroke="midnightblue" points="123.996,-42.5982 113.61,-44.6945 123.036,-49.5322 123.996,-42.5982"/>
</g>
<!-- Node2 -->
<g id="node3" class="node"><title>Node2</title>
<g id="a_node3"><a xlink:href="group__dp__matrices.html" target="_top" xlink:title="This module provides interfaces that deal with creation and destruction of dynamic programming matric...">
<polygon fill="none" stroke="black" points="150,-0 150,-30 286,-30 286,-0 150,-0"/>
<text text-anchor="start" x="158" y="-18" font-family="Helvetica,sans-Serif" font-size="10.00">The Dynamic Programming</text>
<text text-anchor="middle" x="218" y="-7" font-family="Helvetica,sans-Serif" font-size="10.00"> Matrices</text>
</a>
</g>
</g>
<!-- Node0&#45;&gt;Node2 -->
<g id="edge2" class="edge"><title>Node0&#45;&gt;Node2</title>
<path fill="none" stroke="midnightblue" d="M123.665,-27.9143C132.34,-26.714 141.242,-25.4822 149.941,-24.2787"/>
<polygon fill="midnightblue" stroke="midnightblue" points="123.036,-24.4678 113.61,-29.3055 123.996,-31.4018 123.036,-24.4678"/>
</g>
</g>
</svg>
