<?xml version="1.0" encoding="UTF-8" standalone="no"?>
<!DOCTYPE svg PUBLIC "-//W3C//DTD SVG 1.1//EN"
 "http://www.w3.org/Graphics/SVG/1.1/DTD/svg11.dtd">
<!-- Generated by graphviz version 2.36.0 (20140111.2315)
 -->
<!-- Title: Calculating MFE representatives of a Distance Based Partitioning Pages: 1 -->
<svg width="374pt" height="87pt"
 viewBox="0.00 0.00 374.00 87.00" xmlns="http://www.w3.org/2000/svg" xmlns:xlink="http://www.w3.org/1999/xlink">
<g id="graph0" class="graph" transform="scale(1 1) rotate(0) translate(4 83)">
<title>Calculating MFE representatives of a Distance Based Partitioning</title>
<!-- Node1 -->
<g id="node1" class="node"><title>Node1</title>
<g id="a_node1"><a xlink:href="group__kl__neighborhood.html" target="_top" xlink:title="Compute Thermodynamic properties for a Distance Class Partitioning of the Secondary Structure Space...">
<polygon fill="none" stroke="black" points="0.5,-49 0.5,-79 167.5,-79 167.5,-49 0.5,-49"/>
<text text-anchor="start" x="8.5" y="-67" font-family="Helvetica,sans-Serif" font-size="10.00">Distance based partitioning</text>
<text text-anchor="middle" x="84" y="-56" font-family="Helvetica,sans-Serif" font-size="10.00"> of the Secondary Structure Space</text>
</a>
</g>
</g>
<!-- Node0 -->
<g id="node2" class="node"><title>Node0</title>
<polygon fill="#bfbfbf" stroke="black" points="204.5,-24 204.5,-54 365.5,-54 365.5,-24 204.5,-24"/>
<text text-anchor="start" x="212.5" y="-42" font-family="Helvetica,sans-Serif" font-size="10.00">Calculating MFE representatives</text>
<text text-anchor="middle" x="285" y="-31" font-family="Helvetica,sans-Serif" font-size="10.00"> of a Distance Based Partitioning</text>
</g>
<!-- Node1&#45;&gt;Node0 -->
<g id="edge1" class="edge"><title>Node1&#45;&gt;Node0</title>
<path fill="none" stroke="midnightblue" d="M177.714,-52.3526C186.655,-51.2293 195.67,-50.0968 204.467,-48.9915"/>
<polygon fill="midnightblue" stroke="midnightblue" points="177.151,-48.8957 167.665,-53.6149 178.023,-55.8411 177.151,-48.8957"/>
</g>
<!-- Node2 -->
<g id="node3" class="node"><title>Node2</title>
<g id="a_node3"><a xlink:href="group__mfe__fold.html" target="_top" xlink:title="This section covers all functions and variables related to the calculation of minimum free energy (MF...">
<polygon fill="none" stroke="black" points="19.5,-0 19.5,-30 148.5,-30 148.5,-0 19.5,-0"/>
<text text-anchor="start" x="27.5" y="-18" font-family="Helvetica,sans-Serif" font-size="10.00">Computing Minimum Free</text>
<text text-anchor="middle" x="84" y="-7" font-family="Helvetica,sans-Serif" font-size="10.00"> Energy (MFE) Structures</text>
</a>
</g>
</g>
<!-- Node2&#45;&gt;Node0 -->
<g id="edge2" class="edge"><title>Node2&#45;&gt;Node0</title>
<path fill="none" stroke="midnightblue" d="M158.662,-23.8838C173.539,-25.6781 189.244,-27.5722 204.318,-29.3901"/>
<polygon fill="midnightblue" stroke="midnightblue" points="158.859,-20.3824 148.512,-22.6597 158.021,-27.332 158.859,-20.3824"/>
</g>
</g>
</svg>
