<?xml version="1.0" encoding="UTF-8" standalone="no"?>
<!DOCTYPE svg PUBLIC "-//W3C//DTD SVG 1.1//EN"
 "http://www.w3.org/Graphics/SVG/1.1/DTD/svg11.dtd">
<!-- Generated by graphviz version 2.36.0 (20140111.2315)
 -->
<!-- Title: Partition Function for two hybridized Sequences as a stepwise Process Pages: 1 -->
<svg width="302pt" height="109pt"
 viewBox="0.00 0.00 302.00 109.00" xmlns="http://www.w3.org/2000/svg" xmlns:xlink="http://www.w3.org/1999/xlink">
<g id="graph0" class="graph" transform="scale(1 1) rotate(0) translate(4 105)">
<title>Partition Function for two hybridized Sequences as a stepwise Process</title>
<!-- Node0 -->
<g id="node1" class="node"><title>Node0</title>
<polygon fill="#bfbfbf" stroke="black" points="162,-24 162,-76 294,-76 294,-24 162,-24"/>
<text text-anchor="start" x="170" y="-64" font-family="Helvetica,sans-Serif" font-size="10.00">Partition Function</text>
<text text-anchor="start" x="170" y="-53" font-family="Helvetica,sans-Serif" font-size="10.00"> for two hybridized</text>
<text text-anchor="start" x="170" y="-42" font-family="Helvetica,sans-Serif" font-size="10.00"> Sequences as a stepwise</text>
<text text-anchor="middle" x="228" y="-31" font-family="Helvetica,sans-Serif" font-size="10.00"> Process</text>
</g>
<!-- Node2 -->
<g id="node2" class="node"><title>Node2</title>
<g id="a_node2"><a xlink:href="group__pf__fold.html" target="_top" xlink:title="This section provides information about all functions and variables related to the calculation of the...">
<polygon fill="none" stroke="black" points="11.5,-59.5 11.5,-100.5 114.5,-100.5 114.5,-59.5 11.5,-59.5"/>
<text text-anchor="start" x="19.5" y="-88.5" font-family="Helvetica,sans-Serif" font-size="10.00">Computing Partition</text>
<text text-anchor="start" x="19.5" y="-77.5" font-family="Helvetica,sans-Serif" font-size="10.00"> Functions and Pair</text>
<text text-anchor="middle" x="63" y="-66.5" font-family="Helvetica,sans-Serif" font-size="10.00"> Probabilities</text>
</a>
</g>
</g>
<!-- Node2&#45;&gt;Node0 -->
<g id="edge2" class="edge"><title>Node2&#45;&gt;Node0</title>
<path fill="none" stroke="midnightblue" d="M124.701,-68.8281C136.845,-66.593 149.649,-64.2363 161.934,-61.9753"/>
<polygon fill="midnightblue" stroke="midnightblue" points="123.882,-65.4199 114.681,-70.6723 125.149,-72.3043 123.882,-65.4199"/>
</g>
<!-- Node1 -->
<g id="node3" class="node"><title>Node1</title>
<g id="a_node3"><a xlink:href="group__cofold.html" target="_top" xlink:title="Predict structures formed by two molecules upon hybridization. ">
<polygon fill="none" stroke="black" points="0.5,0.5 0.5,-40.5 125.5,-40.5 125.5,0.5 0.5,0.5"/>
<text text-anchor="start" x="8.5" y="-28.5" font-family="Helvetica,sans-Serif" font-size="10.00">Calculate Secondary</text>
<text text-anchor="start" x="8.5" y="-17.5" font-family="Helvetica,sans-Serif" font-size="10.00"> Structures of two RNAs</text>
<text text-anchor="middle" x="63" y="-6.5" font-family="Helvetica,sans-Serif" font-size="10.00"> upon Dimerization</text>
</a>
</g>
</g>
<!-- Node1&#45;&gt;Node0 -->
<g id="edge1" class="edge"><title>Node1&#45;&gt;Node0</title>
<path fill="none" stroke="midnightblue" d="M135.705,-33.1972C144.372,-34.7924 153.189,-36.4152 161.756,-37.992"/>
<polygon fill="midnightblue" stroke="midnightblue" points="136.092,-29.7097 125.623,-31.3417 134.825,-36.5941 136.092,-29.7097"/>
</g>
</g>
</svg>
