<?xml version="1.0" encoding="UTF-8" standalone="no"?>
<!DOCTYPE svg PUBLIC "-//W3C//DTD SVG 1.1//EN"
 "http://www.w3.org/Graphics/SVG/1.1/DTD/svg11.dtd">
<!-- Generated by graphviz version 2.36.0 (20140111.2315)
 -->
<!-- Title: Stochastic Backtracking of Structures from Distance Based Partitioning Pages: 1 -->
<svg width="352pt" height="87pt"
 viewBox="0.00 0.00 352.00 87.00" xmlns="http://www.w3.org/2000/svg" xmlns:xlink="http://www.w3.org/1999/xlink">
<g id="graph0" class="graph" transform="scale(1 1) rotate(0) translate(4 83)">
<title>Stochastic Backtracking of Structures from Distance Based Partitioning</title>
<!-- Node0 -->
<g id="node1" class="node"><title>Node0</title>
<polygon fill="#bfbfbf" stroke="black" points="204,-18.5 204,-59.5 344,-59.5 344,-18.5 204,-18.5"/>
<text text-anchor="start" x="212" y="-47.5" font-family="Helvetica,sans-Serif" font-size="10.00">Stochastic Backtracking</text>
<text text-anchor="start" x="212" y="-36.5" font-family="Helvetica,sans-Serif" font-size="10.00"> of Structures from Distance</text>
<text text-anchor="middle" x="274" y="-25.5" font-family="Helvetica,sans-Serif" font-size="10.00"> Based Partitioning</text>
</g>
<!-- Node1 -->
<g id="node2" class="node"><title>Node1</title>
<g id="a_node2"><a xlink:href="group__kl__neighborhood.html" target="_top" xlink:title="Compute Thermodynamic properties for a Distance Class Partitioning of the Secondary Structure Space...">
<polygon fill="none" stroke="black" points="0.5,-49 0.5,-79 167.5,-79 167.5,-49 0.5,-49"/>
<text text-anchor="start" x="8.5" y="-67" font-family="Helvetica,sans-Serif" font-size="10.00">Distance based partitioning</text>
<text text-anchor="middle" x="84" y="-56" font-family="Helvetica,sans-Serif" font-size="10.00"> of the Secondary Structure Space</text>
</a>
</g>
</g>
<!-- Node1&#45;&gt;Node0 -->
<g id="edge1" class="edge"><title>Node1&#45;&gt;Node0</title>
<path fill="none" stroke="midnightblue" d="M177.915,-51.6443C186.609,-50.4882 195.314,-49.3305 203.735,-48.2107"/>
<polygon fill="midnightblue" stroke="midnightblue" points="177.184,-48.2105 167.733,-52.9983 178.107,-55.1494 177.184,-48.2105"/>
</g>
<!-- Node2 -->
<g id="node3" class="node"><title>Node2</title>
<g id="a_node3"><a xlink:href="group__subopt__stochbt.html" target="_top" xlink:title="Stochastic backtracking\l in the Ensemble">
<polygon fill="none" stroke="black" points="23,-0 23,-30 145,-30 145,-0 23,-0"/>
<text text-anchor="start" x="31" y="-18" font-family="Helvetica,sans-Serif" font-size="10.00">Stochastic backtracking</text>
<text text-anchor="middle" x="84" y="-7" font-family="Helvetica,sans-Serif" font-size="10.00"> in the Ensemble</text>
</a>
</g>
</g>
<!-- Node2&#45;&gt;Node0 -->
<g id="edge2" class="edge"><title>Node2&#45;&gt;Node0</title>
<path fill="none" stroke="midnightblue" d="M155.261,-23.9695C171.116,-25.9935 187.935,-28.1407 203.749,-30.1594"/>
<polygon fill="midnightblue" stroke="midnightblue" points="155.364,-20.4543 145.001,-22.6597 154.478,-27.398 155.364,-20.4543"/>
</g>
</g>
</svg>
