<?xml version="1.0" encoding="UTF-8" standalone="no"?>
<!DOCTYPE svg PUBLIC "-//W3C//DTD SVG 1.1//EN"
 "http://www.w3.org/Graphics/SVG/1.1/DTD/svg11.dtd">
<!-- Generated by graphviz version 2.36.0 (20140111.2315)
 -->
<!-- Title: Reading/Writing Energy Parameter Sets from/to File Pages: 1 -->
<svg width="488pt" height="38pt"
 viewBox="0.00 0.00 488.00 38.00" xmlns="http://www.w3.org/2000/svg" xmlns:xlink="http://www.w3.org/1999/xlink">
<g id="graph0" class="graph" transform="scale(1 1) rotate(0) translate(4 34)">
<title>Reading/Writing Energy Parameter Sets from/to File</title>
<!-- Node1 -->
<g id="node1" class="node"><title>Node1</title>
<g id="a_node1"><a xlink:href="group__energy__parameters.html" target="_top" xlink:title="All relevant functions to retrieve and copy precalculated energy parameter sets as well as reading/wr...">
<polygon fill="none" stroke="black" points="0.5,-0 0.5,-30 121.5,-30 121.5,-0 0.5,-0"/>
<text text-anchor="start" x="8.5" y="-18" font-family="Helvetica,sans-Serif" font-size="10.00">Energy Parameter Sets</text>
<text text-anchor="middle" x="61" y="-7" font-family="Helvetica,sans-Serif" font-size="10.00"> and Boltzmann Factors</text>
</a>
</g>
</g>
<!-- Node0 -->
<g id="node2" class="node"><title>Node0</title>
<polygon fill="#bfbfbf" stroke="black" points="158,-0 158,-30 298,-30 298,-0 158,-0"/>
<text text-anchor="start" x="166" y="-18" font-family="Helvetica,sans-Serif" font-size="10.00">Reading/Writing Energy</text>
<text text-anchor="middle" x="228" y="-7" font-family="Helvetica,sans-Serif" font-size="10.00"> Parameter Sets from/to File</text>
</g>
<!-- Node1&#45;&gt;Node0 -->
<g id="edge1" class="edge"><title>Node1&#45;&gt;Node0</title>
<path fill="none" stroke="midnightblue" d="M131.676,-15C140.383,-15 149.285,-15 157.981,-15"/>
<polygon fill="midnightblue" stroke="midnightblue" points="131.569,-11.5001 121.569,-15 131.569,-18.5001 131.569,-11.5001"/>
</g>
<!-- Node2 -->
<g id="node3" class="node"><title>Node2</title>
<g id="a_node3"><a xlink:href="group__energy__parameters__convert.html" target="_top" xlink:title="Convert energy parameter files into the latest format. ">
<polygon fill="none" stroke="black" points="334,-0 334,-30 480,-30 480,-0 334,-0"/>
<text text-anchor="start" x="342" y="-18" font-family="Helvetica,sans-Serif" font-size="10.00">Converting Energy Parameter</text>
<text text-anchor="middle" x="407" y="-7" font-family="Helvetica,sans-Serif" font-size="10.00"> Files</text>
</a>
</g>
</g>
<!-- Node0&#45;&gt;Node2 -->
<g id="edge2" class="edge"><title>Node0&#45;&gt;Node2</title>
<path fill="none" stroke="midnightblue" d="M308.465,-15C316.949,-15 325.545,-15 333.937,-15"/>
<polygon fill="midnightblue" stroke="midnightblue" points="308.193,-11.5001 298.193,-15 308.193,-18.5001 308.193,-11.5001"/>
</g>
</g>
</svg>
