<?xml version="1.0" encoding="UTF-8" standalone="no"?>
<!DOCTYPE svg PUBLIC "-//W3C//DTD SVG 1.1//EN"
 "http://www.w3.org/Graphics/SVG/1.1/DTD/svg11.dtd">
<!-- Generated by graphviz version 2.36.0 (20140111.2315)
 -->
<!-- Title: Distance based partitioning of the Secondary Structure Space Pages: 1 -->
<svg width="512pt" height="158pt"
 viewBox="0.00 0.00 512.00 158.00" xmlns="http://www.w3.org/2000/svg" xmlns:xlink="http://www.w3.org/1999/xlink">
<g id="graph0" class="graph" transform="scale(1 1) rotate(0) translate(4 154)">
<title>Distance based partitioning of the Secondary Structure Space</title>
<!-- Node4 -->
<g id="node1" class="node"><title>Node4</title>
<g id="a_node1"><a xlink:href="group__kl__neighborhood__stochbt.html" target="_top" xlink:title="Contains functions related to stochastic backtracking from a specified distance class. ">
<polygon fill="none" stroke="black" points="353,-108.5 353,-149.5 493,-149.5 493,-108.5 353,-108.5"/>
<text text-anchor="start" x="361" y="-137.5" font-family="Helvetica,sans-Serif" font-size="10.00">Stochastic Backtracking</text>
<text text-anchor="start" x="361" y="-126.5" font-family="Helvetica,sans-Serif" font-size="10.00"> of Structures from Distance</text>
<text text-anchor="middle" x="423" y="-115.5" font-family="Helvetica,sans-Serif" font-size="10.00"> Based Partitioning</text>
</a>
</g>
</g>
<!-- Node1 -->
<g id="node2" class="node"><title>Node1</title>
<g id="a_node2"><a xlink:href="group__class__fold.html" target="_top" xlink:title="Classified Dynamic\l Programming">
<polygon fill="none" stroke="black" points="0,-54 0,-84 102,-84 102,-54 0,-54"/>
<text text-anchor="start" x="8" y="-72" font-family="Helvetica,sans-Serif" font-size="10.00">Classified Dynamic</text>
<text text-anchor="middle" x="51" y="-61" font-family="Helvetica,sans-Serif" font-size="10.00"> Programming</text>
</a>
</g>
</g>
<!-- Node0 -->
<g id="node3" class="node"><title>Node0</title>
<polygon fill="#bfbfbf" stroke="black" points="138.5,-54 138.5,-84 305.5,-84 305.5,-54 138.5,-54"/>
<text text-anchor="start" x="146.5" y="-72" font-family="Helvetica,sans-Serif" font-size="10.00">Distance based partitioning</text>
<text text-anchor="middle" x="222" y="-61" font-family="Helvetica,sans-Serif" font-size="10.00"> of the Secondary Structure Space</text>
</g>
<!-- Node1&#45;&gt;Node0 -->
<g id="edge1" class="edge"><title>Node1&#45;&gt;Node0</title>
<path fill="none" stroke="midnightblue" d="M112.345,-69C120.786,-69 129.578,-69 138.344,-69"/>
<polygon fill="midnightblue" stroke="midnightblue" points="112.248,-65.5001 102.248,-69 112.248,-72.5001 112.248,-65.5001"/>
</g>
<!-- Node0&#45;&gt;Node4 -->
<g id="edge4" class="edge"><title>Node0&#45;&gt;Node4</title>
<path fill="none" stroke="midnightblue" d="M282.693,-86.9978C305.139,-93.7655 330.821,-101.509 353.971,-108.489"/>
<polygon fill="midnightblue" stroke="midnightblue" points="283.544,-83.5989 272.959,-84.0631 281.523,-90.3009 283.544,-83.5989"/>
</g>
<!-- Node3 -->
<g id="node4" class="node"><title>Node3</title>
<g id="a_node4"><a xlink:href="group__kl__neighborhood__pf.html" target="_top" xlink:title="Compute the partition function and stochastically sample secondary structures for a partitioning of t...">
<polygon fill="none" stroke="black" points="361,-48.5 361,-89.5 485,-89.5 485,-48.5 361,-48.5"/>
<text text-anchor="start" x="369" y="-77.5" font-family="Helvetica,sans-Serif" font-size="10.00">Calculate Partition</text>
<text text-anchor="start" x="369" y="-66.5" font-family="Helvetica,sans-Serif" font-size="10.00"> Functions of a Distance</text>
<text text-anchor="middle" x="423" y="-55.5" font-family="Helvetica,sans-Serif" font-size="10.00"> Based Partitioning</text>
</a>
</g>
</g>
<!-- Node0&#45;&gt;Node3 -->
<g id="edge3" class="edge"><title>Node0&#45;&gt;Node3</title>
<path fill="none" stroke="midnightblue" d="M315.686,-69C331.005,-69 346.541,-69 360.832,-69"/>
<polygon fill="midnightblue" stroke="midnightblue" points="315.665,-65.5001 305.665,-69 315.665,-72.5001 315.665,-65.5001"/>
</g>
<!-- Node2 -->
<g id="node5" class="node"><title>Node2</title>
<g id="a_node5"><a xlink:href="group__kl__neighborhood__mfe.html" target="_top" xlink:title="Compute the minimum free energy (MFE) and secondary structures for a partitioning of the secondary st...">
<polygon fill="none" stroke="black" points="342.5,-0 342.5,-30 503.5,-30 503.5,-0 342.5,-0"/>
<text text-anchor="start" x="350.5" y="-18" font-family="Helvetica,sans-Serif" font-size="10.00">Calculating MFE representatives</text>
<text text-anchor="middle" x="423" y="-7" font-family="Helvetica,sans-Serif" font-size="10.00"> of a Distance Based Partitioning</text>
</a>
</g>
</g>
<!-- Node0&#45;&gt;Node2 -->
<g id="edge2" class="edge"><title>Node0&#45;&gt;Node2</title>
<path fill="none" stroke="midnightblue" d="M288.309,-51.2779C313.601,-44.4147 342.249,-36.641 366.52,-30.0549"/>
<polygon fill="midnightblue" stroke="midnightblue" points="287.167,-47.9612 278.433,-53.958 289,-54.7169 287.167,-47.9612"/>
</g>
</g>
</svg>
