<?xml version="1.0" encoding="UTF-8" standalone="no"?>
<!DOCTYPE svg PUBLIC "-//W3C//DTD SVG 1.1//EN"
 "http://www.w3.org/Graphics/SVG/1.1/DTD/svg11.dtd">
<!-- Generated by graphviz version 2.36.0 (20140111.2315)
 -->
<!-- Title: Soft Constraints Pages: 1 -->
<svg width="450pt" height="38pt"
 viewBox="0.00 0.00 450.00 38.00" xmlns="http://www.w3.org/2000/svg" xmlns:xlink="http://www.w3.org/1999/xlink">
<g id="graph0" class="graph" transform="scale(1 1) rotate(0) translate(4 34)">
<title>Soft Constraints</title>
<!-- Node1 -->
<g id="node1" class="node"><title>Node1</title>
<g id="a_node1"><a xlink:href="group__constraints.html" target="_top" xlink:title="This module covers all functions and variables related to the problem of incorporating secondary stru...">
<polygon fill="none" stroke="black" points="0.5,-0 0.5,-30 137.5,-30 137.5,-0 0.5,-0"/>
<text text-anchor="start" x="8.5" y="-18" font-family="Helvetica,sans-Serif" font-size="10.00">Constraining the Secondary</text>
<text text-anchor="middle" x="69" y="-7" font-family="Helvetica,sans-Serif" font-size="10.00"> Structure Recursions</text>
</a>
</g>
</g>
<!-- Node0 -->
<g id="node3" class="node"><title>Node0</title>
<polygon fill="#bfbfbf" stroke="black" points="174,-5.5 174,-24.5 262,-24.5 262,-5.5 174,-5.5"/>
<text text-anchor="middle" x="218" y="-12.5" font-family="Helvetica,sans-Serif" font-size="10.00">Soft Constraints</text>
</g>
<!-- Node1&#45;&gt;Node0 -->
<g id="edge1" class="edge"><title>Node1&#45;&gt;Node0</title>
<path fill="none" stroke="midnightblue" d="M147.922,-15C156.785,-15 165.562,-15 173.735,-15"/>
<polygon fill="midnightblue" stroke="midnightblue" points="147.906,-11.5001 137.906,-15 147.906,-18.5001 147.906,-11.5001"/>
</g>
<!-- Node2 -->
<g id="node2" class="node"><title>Node2</title>
<g id="a_node2"><a xlink:href="group__generalized__sc.html" target="_top" xlink:title="Generalized Soft Constraints">
<polygon fill="none" stroke="black" points="298.5,-5.5 298.5,-24.5 441.5,-24.5 441.5,-5.5 298.5,-5.5"/>
<text text-anchor="middle" x="370" y="-12.5" font-family="Helvetica,sans-Serif" font-size="10.00">Generalized Soft Constraints</text>
</a>
</g>
</g>
<!-- Node0&#45;&gt;Node2 -->
<g id="edge2" class="edge"><title>Node0&#45;&gt;Node2</title>
<path fill="none" stroke="midnightblue" d="M272.4,-15C280.796,-15 289.587,-15 298.3,-15"/>
<polygon fill="midnightblue" stroke="midnightblue" points="272.386,-11.5001 262.386,-15 272.386,-18.5001 272.386,-11.5001"/>
</g>
</g>
</svg>
