<?xml version="1.0" encoding="UTF-8" standalone="no"?>
<!DOCTYPE svg PUBLIC "-//W3C//DTD SVG 1.1//EN"
 "http://www.w3.org/Graphics/SVG/1.1/DTD/svg11.dtd">
<!-- Generated by graphviz version 2.36.0 (20140111.2315)
 -->
<!-- Title: MFE Structures of two hybridized Sequences Pages: 1 -->
<svg width="290pt" height="97pt"
 viewBox="0.00 0.00 290.00 97.00" xmlns="http://www.w3.org/2000/svg" xmlns:xlink="http://www.w3.org/1999/xlink">
<g id="graph0" class="graph" transform="scale(1 1) rotate(0) translate(4 93)">
<title>MFE Structures of two hybridized Sequences</title>
<!-- Node2 -->
<g id="node1" class="node"><title>Node2</title>
<g id="a_node1"><a xlink:href="group__mfe__fold.html" target="_top" xlink:title="This section covers all functions and variables related to the calculation of minimum free energy (MF...">
<polygon fill="none" stroke="black" points="0.5,-59 0.5,-89 129.5,-89 129.5,-59 0.5,-59"/>
<text text-anchor="start" x="8.5" y="-77" font-family="Helvetica,sans-Serif" font-size="10.00">Computing Minimum Free</text>
<text text-anchor="middle" x="65" y="-66" font-family="Helvetica,sans-Serif" font-size="10.00"> Energy (MFE) Structures</text>
</a>
</g>
</g>
<!-- Node0 -->
<g id="node2" class="node"><title>Node0</title>
<polygon fill="#bfbfbf" stroke="black" points="166,-32 166,-62 282,-62 282,-32 166,-32"/>
<text text-anchor="start" x="174" y="-50" font-family="Helvetica,sans-Serif" font-size="10.00">MFE Structures of two</text>
<text text-anchor="middle" x="224" y="-39" font-family="Helvetica,sans-Serif" font-size="10.00"> hybridized Sequences</text>
</g>
<!-- Node2&#45;&gt;Node0 -->
<g id="edge2" class="edge"><title>Node2&#45;&gt;Node0</title>
<path fill="none" stroke="midnightblue" d="M139.971,-61.2789C148.636,-59.7887 157.375,-58.2858 165.764,-56.8431"/>
<polygon fill="midnightblue" stroke="midnightblue" points="139.12,-57.8738 129.858,-63.0181 140.306,-64.7725 139.12,-57.8738"/>
</g>
<!-- Node1 -->
<g id="node3" class="node"><title>Node1</title>
<g id="a_node3"><a xlink:href="group__cofold.html" target="_top" xlink:title="Predict structures formed by two molecules upon hybridization. ">
<polygon fill="none" stroke="black" points="2.5,0.5 2.5,-40.5 127.5,-40.5 127.5,0.5 2.5,0.5"/>
<text text-anchor="start" x="10.5" y="-28.5" font-family="Helvetica,sans-Serif" font-size="10.00">Calculate Secondary</text>
<text text-anchor="start" x="10.5" y="-17.5" font-family="Helvetica,sans-Serif" font-size="10.00"> Structures of two RNAs</text>
<text text-anchor="middle" x="65" y="-6.5" font-family="Helvetica,sans-Serif" font-size="10.00"> upon Dimerization</text>
</a>
</g>
</g>
<!-- Node1&#45;&gt;Node0 -->
<g id="edge1" class="edge"><title>Node1&#45;&gt;Node0</title>
<path fill="none" stroke="midnightblue" d="M137.465,-32.2902C147.004,-33.9306 156.682,-35.5949 165.93,-37.1854"/>
<polygon fill="midnightblue" stroke="midnightblue" points="138.049,-28.8392 127.6,-30.5936 136.862,-35.7379 138.049,-28.8392"/>
</g>
</g>
</svg>
