<?xml version="1.0" encoding="UTF-8" standalone="no"?>
<!DOCTYPE svg PUBLIC "-//W3C//DTD SVG 1.1//EN"
 "http://www.w3.org/Graphics/SVG/1.1/DTD/svg11.dtd">
<!-- Generated by graphviz version 2.36.0 (20140111.2315)
 -->
<!-- Title: Calculate Partition Functions of a Distance Based Partitioning Pages: 1 -->
<svg width="336pt" height="97pt"
 viewBox="0.00 0.00 336.00 97.00" xmlns="http://www.w3.org/2000/svg" xmlns:xlink="http://www.w3.org/1999/xlink">
<g id="graph0" class="graph" transform="scale(1 1) rotate(0) translate(4 93)">
<title>Calculate Partition Functions of a Distance Based Partitioning</title>
<!-- Node1 -->
<g id="node1" class="node"><title>Node1</title>
<g id="a_node1"><a xlink:href="group__kl__neighborhood.html" target="_top" xlink:title="Compute Thermodynamic properties for a Distance Class Partitioning of the Secondary Structure Space...">
<polygon fill="none" stroke="black" points="0.5,-59 0.5,-89 167.5,-89 167.5,-59 0.5,-59"/>
<text text-anchor="start" x="8.5" y="-77" font-family="Helvetica,sans-Serif" font-size="10.00">Distance based partitioning</text>
<text text-anchor="middle" x="84" y="-66" font-family="Helvetica,sans-Serif" font-size="10.00"> of the Secondary Structure Space</text>
</a>
</g>
</g>
<!-- Node0 -->
<g id="node3" class="node"><title>Node0</title>
<polygon fill="#bfbfbf" stroke="black" points="204,-26.5 204,-67.5 328,-67.5 328,-26.5 204,-26.5"/>
<text text-anchor="start" x="212" y="-55.5" font-family="Helvetica,sans-Serif" font-size="10.00">Calculate Partition</text>
<text text-anchor="start" x="212" y="-44.5" font-family="Helvetica,sans-Serif" font-size="10.00"> Functions of a Distance</text>
<text text-anchor="middle" x="266" y="-33.5" font-family="Helvetica,sans-Serif" font-size="10.00"> Based Partitioning</text>
</g>
<!-- Node1&#45;&gt;Node0 -->
<g id="edge1" class="edge"><title>Node1&#45;&gt;Node0</title>
<path fill="none" stroke="midnightblue" d="M177.654,-60.1019C186.541,-58.7688 195.393,-57.441 203.864,-56.1704"/>
<polygon fill="midnightblue" stroke="midnightblue" points="176.995,-56.6616 167.625,-61.6063 178.033,-63.5841 176.995,-56.6616"/>
</g>
<!-- Node2 -->
<g id="node2" class="node"><title>Node2</title>
<g id="a_node2"><a xlink:href="group__pf__fold.html" target="_top" xlink:title="This section provides information about all functions and variables related to the calculation of the...">
<polygon fill="none" stroke="black" points="32.5,0.5 32.5,-40.5 135.5,-40.5 135.5,0.5 32.5,0.5"/>
<text text-anchor="start" x="40.5" y="-28.5" font-family="Helvetica,sans-Serif" font-size="10.00">Computing Partition</text>
<text text-anchor="start" x="40.5" y="-17.5" font-family="Helvetica,sans-Serif" font-size="10.00"> Functions and Pair</text>
<text text-anchor="middle" x="84" y="-6.5" font-family="Helvetica,sans-Serif" font-size="10.00"> Probabilities</text>
</a>
</g>
</g>
<!-- Node2&#45;&gt;Node0 -->
<g id="edge2" class="edge"><title>Node2&#45;&gt;Node0</title>
<path fill="none" stroke="midnightblue" d="M145.545,-29.0817C164.342,-31.9012 185.065,-35.0097 203.899,-37.8349"/>
<polygon fill="midnightblue" stroke="midnightblue" points="146.028,-25.6151 135.619,-27.5929 144.989,-32.5376 146.028,-25.6151"/>
</g>
</g>
</svg>
