<?xml version="1.0" encoding="UTF-8" standalone="no"?>
<!DOCTYPE svg PUBLIC "-//W3C//DTD SVG 1.1//EN"
 "http://www.w3.org/Graphics/SVG/1.1/DTD/svg11.dtd">
<!-- Generated by graphviz version 2.36.0 (20140111.2315)
 -->
<!-- Title: Stochastic backtracking in the Ensemble Pages: 1 -->
<svg width="470pt" height="110pt"
 viewBox="0.00 0.00 470.00 110.00" xmlns="http://www.w3.org/2000/svg" xmlns:xlink="http://www.w3.org/1999/xlink">
<g id="graph0" class="graph" transform="scale(1 1) rotate(0) translate(4 106)">
<title>Stochastic backtracking in the Ensemble</title>
<!-- Node3 -->
<g id="node1" class="node"><title>Node3</title>
<g id="a_node1"><a xlink:href="group__kl__neighborhood__stochbt.html" target="_top" xlink:title="Contains functions related to stochastic backtracking from a specified distance class. ">
<polygon fill="none" stroke="black" points="320,-60.5 320,-101.5 460,-101.5 460,-60.5 320,-60.5"/>
<text text-anchor="start" x="328" y="-89.5" font-family="Helvetica,sans-Serif" font-size="10.00">Stochastic Backtracking</text>
<text text-anchor="start" x="328" y="-78.5" font-family="Helvetica,sans-Serif" font-size="10.00"> of Structures from Distance</text>
<text text-anchor="middle" x="390" y="-67.5" font-family="Helvetica,sans-Serif" font-size="10.00"> Based Partitioning</text>
</a>
</g>
</g>
<!-- Node1 -->
<g id="node2" class="node"><title>Node1</title>
<g id="a_node2"><a xlink:href="group__subopt__fold.html" target="_top" xlink:title="Enumerating Suboptimal\l Structures">
<polygon fill="none" stroke="black" points="0.5,-36 0.5,-66 123.5,-66 123.5,-36 0.5,-36"/>
<text text-anchor="start" x="8.5" y="-54" font-family="Helvetica,sans-Serif" font-size="10.00">Enumerating Suboptimal</text>
<text text-anchor="middle" x="62" y="-43" font-family="Helvetica,sans-Serif" font-size="10.00"> Structures</text>
</a>
</g>
</g>
<!-- Node0 -->
<g id="node3" class="node"><title>Node0</title>
<polygon fill="#bfbfbf" stroke="black" points="160,-36 160,-66 282,-66 282,-36 160,-36"/>
<text text-anchor="start" x="168" y="-54" font-family="Helvetica,sans-Serif" font-size="10.00">Stochastic backtracking</text>
<text text-anchor="middle" x="221" y="-43" font-family="Helvetica,sans-Serif" font-size="10.00"> in the Ensemble</text>
</g>
<!-- Node1&#45;&gt;Node0 -->
<g id="edge1" class="edge"><title>Node1&#45;&gt;Node0</title>
<path fill="none" stroke="midnightblue" d="M133.858,-51C142.583,-51 151.436,-51 159.978,-51"/>
<polygon fill="midnightblue" stroke="midnightblue" points="133.7,-47.5001 123.7,-51 133.7,-54.5001 133.7,-47.5001"/>
</g>
<!-- Node0&#45;&gt;Node3 -->
<g id="edge3" class="edge"><title>Node0&#45;&gt;Node3</title>
<path fill="none" stroke="midnightblue" d="M292.39,-63.645C301.435,-65.2698 310.691,-66.9325 319.718,-68.5542"/>
<polygon fill="midnightblue" stroke="midnightblue" points="292.752,-60.154 282.291,-61.8307 291.514,-67.0437 292.752,-60.154"/>
</g>
<!-- Node2 -->
<g id="node4" class="node"><title>Node2</title>
<g id="a_node4"><a xlink:href="group__consensus__stochbt.html" target="_top" xlink:title="Stochastic Backtracking\l of Consensus Structures\l from Sequence Alignment(s)">
<polygon fill="none" stroke="black" points="318.5,-0.5 318.5,-41.5 461.5,-41.5 461.5,-0.5 318.5,-0.5"/>
<text text-anchor="start" x="326.5" y="-29.5" font-family="Helvetica,sans-Serif" font-size="10.00">Stochastic Backtracking</text>
<text text-anchor="start" x="326.5" y="-18.5" font-family="Helvetica,sans-Serif" font-size="10.00"> of Consensus Structures</text>
<text text-anchor="middle" x="390" y="-7.5" font-family="Helvetica,sans-Serif" font-size="10.00"> from Sequence Alignment(s)</text>
</a>
</g>
</g>
<!-- Node0&#45;&gt;Node2 -->
<g id="edge2" class="edge"><title>Node0&#45;&gt;Node2</title>
<path fill="none" stroke="midnightblue" d="M292.278,-38.3752C300.88,-36.8299 309.674,-35.2501 318.283,-33.7037"/>
<polygon fill="midnightblue" stroke="midnightblue" points="291.514,-34.9563 282.291,-40.1693 292.752,-41.846 291.514,-34.9563"/>
</g>
</g>
</svg>
