<?xml version="1.0" encoding="UTF-8" standalone="no"?>
<!DOCTYPE svg PUBLIC "-//W3C//DTD SVG 1.1//EN"
 "http://www.w3.org/Graphics/SVG/1.1/DTD/svg11.dtd">
<!-- Generated by graphviz version 2.36.0 (20140111.2315)
 -->
<!-- Title: Calculate Secondary Structures of two RNAs upon Dimerization Pages: 1 -->
<svg width="470pt" height="169pt"
 viewBox="0.00 0.00 470.00 169.00" xmlns="http://www.w3.org/2000/svg" xmlns:xlink="http://www.w3.org/1999/xlink">
<g id="graph0" class="graph" transform="scale(1 1) rotate(0) translate(4 165)">
<title>Calculate Secondary Structures of two RNAs upon Dimerization</title>
<!-- Node4 -->
<g id="node1" class="node"><title>Node4</title>
<g id="a_node1"><a xlink:href="group__up__cofold.html" target="_top" xlink:title="Partition Function Cofolding as a stepwise process. ">
<polygon fill="none" stroke="black" points="330,-109 330,-161 462,-161 462,-109 330,-109"/>
<text text-anchor="start" x="338" y="-149" font-family="Helvetica,sans-Serif" font-size="10.00">Partition Function</text>
<text text-anchor="start" x="338" y="-138" font-family="Helvetica,sans-Serif" font-size="10.00"> for two hybridized</text>
<text text-anchor="start" x="338" y="-127" font-family="Helvetica,sans-Serif" font-size="10.00"> Sequences as a stepwise</text>
<text text-anchor="middle" x="396" y="-116" font-family="Helvetica,sans-Serif" font-size="10.00"> Process</text>
</a>
</g>
</g>
<!-- Node2 -->
<g id="node2" class="node"><title>Node2</title>
<g id="a_node2"><a xlink:href="group__mfe__cofold.html" target="_top" xlink:title="MFE Structures of two\l hybridized Sequences">
<polygon fill="none" stroke="black" points="338,-60 338,-90 454,-90 454,-60 338,-60"/>
<text text-anchor="start" x="346" y="-78" font-family="Helvetica,sans-Serif" font-size="10.00">MFE Structures of two</text>
<text text-anchor="middle" x="396" y="-67" font-family="Helvetica,sans-Serif" font-size="10.00"> hybridized Sequences</text>
</a>
</g>
</g>
<!-- Node1 -->
<g id="node3" class="node"><title>Node1</title>
<g id="a_node3"><a xlink:href="group__folding__routines.html" target="_top" xlink:title="This module contains all functions related to thermodynamic folding of RNAs. ">
<polygon fill="none" stroke="black" points="0.5,-60 0.5,-90 131.5,-90 131.5,-60 0.5,-60"/>
<text text-anchor="start" x="8.5" y="-78" font-family="Helvetica,sans-Serif" font-size="10.00">RNA Secondary Structure</text>
<text text-anchor="middle" x="66" y="-67" font-family="Helvetica,sans-Serif" font-size="10.00"> Prediction</text>
</a>
</g>
</g>
<!-- Node0 -->
<g id="node4" class="node"><title>Node0</title>
<polygon fill="#bfbfbf" stroke="black" points="168.5,-54.5 168.5,-95.5 293.5,-95.5 293.5,-54.5 168.5,-54.5"/>
<text text-anchor="start" x="176.5" y="-83.5" font-family="Helvetica,sans-Serif" font-size="10.00">Calculate Secondary</text>
<text text-anchor="start" x="176.5" y="-72.5" font-family="Helvetica,sans-Serif" font-size="10.00"> Structures of two RNAs</text>
<text text-anchor="middle" x="231" y="-61.5" font-family="Helvetica,sans-Serif" font-size="10.00"> upon Dimerization</text>
</g>
<!-- Node1&#45;&gt;Node0 -->
<g id="edge1" class="edge"><title>Node1&#45;&gt;Node0</title>
<path fill="none" stroke="midnightblue" d="M142.097,-75C150.852,-75 159.705,-75 168.251,-75"/>
<polygon fill="midnightblue" stroke="midnightblue" points="141.89,-71.5001 131.89,-75 141.89,-78.5001 141.89,-71.5001"/>
</g>
<!-- Node0&#45;&gt;Node4 -->
<g id="edge4" class="edge"><title>Node0&#45;&gt;Node4</title>
<path fill="none" stroke="midnightblue" d="M297.696,-99.1827C308.287,-103.081 319.249,-107.116 329.828,-111.01"/>
<polygon fill="midnightblue" stroke="midnightblue" points="298.689,-95.8185 288.095,-95.6486 296.271,-102.388 298.689,-95.8185"/>
</g>
<!-- Node0&#45;&gt;Node2 -->
<g id="edge2" class="edge"><title>Node0&#45;&gt;Node2</title>
<path fill="none" stroke="midnightblue" d="M303.951,-75C315.301,-75 326.902,-75 337.856,-75"/>
<polygon fill="midnightblue" stroke="midnightblue" points="303.623,-71.5001 293.623,-75 303.623,-78.5001 303.623,-71.5001"/>
</g>
<!-- Node3 -->
<g id="node5" class="node"><title>Node3</title>
<g id="a_node5"><a xlink:href="group__pf__cofold.html" target="_top" xlink:title="Partition Function Cofolding. ">
<polygon fill="none" stroke="black" points="347.5,-0.5 347.5,-41.5 444.5,-41.5 444.5,-0.5 347.5,-0.5"/>
<text text-anchor="start" x="355.5" y="-29.5" font-family="Helvetica,sans-Serif" font-size="10.00">Partition Function</text>
<text text-anchor="start" x="355.5" y="-18.5" font-family="Helvetica,sans-Serif" font-size="10.00"> for two hybridized</text>
<text text-anchor="middle" x="396" y="-7.5" font-family="Helvetica,sans-Serif" font-size="10.00"> Sequences</text>
</a>
</g>
</g>
<!-- Node0&#45;&gt;Node3 -->
<g id="edge3" class="edge"><title>Node0&#45;&gt;Node3</title>
<path fill="none" stroke="midnightblue" d="M303.306,-51.3772C318.173,-46.4518 333.5,-41.3741 347.266,-36.8136"/>
<polygon fill="midnightblue" stroke="midnightblue" points="302.015,-48.1176 293.623,-54.5849 304.217,-54.7625 302.015,-48.1176"/>
</g>
</g>
</svg>
