<?xml version="1.0" encoding="UTF-8" standalone="no"?>
<!DOCTYPE svg PUBLIC "-//W3C//DTD SVG 1.1//EN"
 "http://www.w3.org/Graphics/SVG/1.1/DTD/svg11.dtd">
<!-- Generated by graphviz version 2.36.0 (20140111.2315)
 -->
<!-- Title: Stochastic Backtracking of Consensus Structures from Sequence Alignment(s) Pages: 1 -->
<svg width="334pt" height="87pt"
 viewBox="0.00 0.00 334.00 87.00" xmlns="http://www.w3.org/2000/svg" xmlns:xlink="http://www.w3.org/1999/xlink">
<g id="graph0" class="graph" transform="scale(1 1) rotate(0) translate(4 83)">
<title>Stochastic Backtracking of Consensus Structures from Sequence Alignment(s)</title>
<!-- Node1 -->
<g id="node1" class="node"><title>Node1</title>
<g id="a_node1"><a xlink:href="group__consensus__fold.html" target="_top" xlink:title="compute various properties (consensus MFE structures, partition function, Boltzmann distributed stoch...">
<polygon fill="none" stroke="black" points="0.5,-49 0.5,-79 145.5,-79 145.5,-49 0.5,-49"/>
<text text-anchor="start" x="8.5" y="-67" font-family="Helvetica,sans-Serif" font-size="10.00">Predicting Consensus</text>
<text text-anchor="middle" x="73" y="-56" font-family="Helvetica,sans-Serif" font-size="10.00"> Structures from Alignment(s)</text>
</a>
</g>
</g>
<!-- Node0 -->
<g id="node3" class="node"><title>Node0</title>
<polygon fill="#bfbfbf" stroke="black" points="182.5,-18.5 182.5,-59.5 325.5,-59.5 325.5,-18.5 182.5,-18.5"/>
<text text-anchor="start" x="190.5" y="-47.5" font-family="Helvetica,sans-Serif" font-size="10.00">Stochastic Backtracking</text>
<text text-anchor="start" x="190.5" y="-36.5" font-family="Helvetica,sans-Serif" font-size="10.00"> of Consensus Structures</text>
<text text-anchor="middle" x="254" y="-25.5" font-family="Helvetica,sans-Serif" font-size="10.00"> from Sequence Alignment(s)</text>
</g>
<!-- Node1&#45;&gt;Node0 -->
<g id="edge1" class="edge"><title>Node1&#45;&gt;Node0</title>
<path fill="none" stroke="midnightblue" d="M155.587,-52.6052C164.563,-51.3515 173.646,-50.0829 182.472,-48.8503"/>
<polygon fill="midnightblue" stroke="midnightblue" points="154.937,-49.1619 145.517,-54.0116 155.905,-56.0946 154.937,-49.1619"/>
</g>
<!-- Node2 -->
<g id="node2" class="node"><title>Node2</title>
<g id="a_node2"><a xlink:href="group__subopt__stochbt.html" target="_top" xlink:title="Stochastic backtracking\l in the Ensemble">
<polygon fill="none" stroke="black" points="12,-0 12,-30 134,-30 134,-0 12,-0"/>
<text text-anchor="start" x="20" y="-18" font-family="Helvetica,sans-Serif" font-size="10.00">Stochastic backtracking</text>
<text text-anchor="middle" x="73" y="-7" font-family="Helvetica,sans-Serif" font-size="10.00"> in the Ensemble</text>
</a>
</g>
</g>
<!-- Node2&#45;&gt;Node0 -->
<g id="edge2" class="edge"><title>Node2&#45;&gt;Node0</title>
<path fill="none" stroke="midnightblue" d="M144.027,-24.3891C156.57,-26.0709 169.65,-27.8246 182.214,-29.5092"/>
<polygon fill="midnightblue" stroke="midnightblue" points="144.479,-20.9184 134.102,-23.0584 143.549,-27.8564 144.479,-20.9184"/>
</g>
</g>
</svg>
