<?xml version="1.0" encoding="UTF-8" standalone="no"?>
<!DOCTYPE svg PUBLIC "-//W3C//DTD SVG 1.1//EN"
 "http://www.w3.org/Graphics/SVG/1.1/DTD/svg11.dtd">
<!-- Generated by graphviz version 2.36.0 (20140111.2315)
 -->
<!-- Title: Constraining the Secondary Structure Recursions Pages: 1 -->
<svg width="442pt" height="66pt"
 viewBox="0.00 0.00 442.00 66.00" xmlns="http://www.w3.org/2000/svg" xmlns:xlink="http://www.w3.org/1999/xlink">
<g id="graph0" class="graph" transform="scale(1 1) rotate(0) translate(4 62)">
<title>Constraining the Secondary Structure Recursions</title>
<!-- Node0 -->
<g id="node1" class="node"><title>Node0</title>
<polygon fill="#bfbfbf" stroke="black" points="168.5,-14 168.5,-44 305.5,-44 305.5,-14 168.5,-14"/>
<text text-anchor="start" x="176.5" y="-32" font-family="Helvetica,sans-Serif" font-size="10.00">Constraining the Secondary</text>
<text text-anchor="middle" x="237" y="-21" font-family="Helvetica,sans-Serif" font-size="10.00"> Structure Recursions</text>
</g>
<!-- Node3 -->
<g id="node3" class="node"><title>Node3</title>
<g id="a_node3"><a xlink:href="group__soft__constraints.html" target="_top" xlink:title="Soft Constraints">
<polygon fill="none" stroke="black" points="344,-38.5 344,-57.5 432,-57.5 432,-38.5 344,-38.5"/>
<text text-anchor="middle" x="388" y="-45.5" font-family="Helvetica,sans-Serif" font-size="10.00">Soft Constraints</text>
</a>
</g>
</g>
<!-- Node0&#45;&gt;Node3 -->
<g id="edge3" class="edge"><title>Node0&#45;&gt;Node3</title>
<path fill="none" stroke="midnightblue" d="M315.559,-38.8901C325.19,-40.1182 334.753,-41.3377 343.603,-42.4661"/>
<polygon fill="midnightblue" stroke="midnightblue" points="315.887,-35.4037 305.525,-37.6105 315.002,-42.3474 315.887,-35.4037"/>
</g>
<!-- Node2 -->
<g id="node4" class="node"><title>Node2</title>
<g id="a_node4"><a xlink:href="group__hard__constraints.html" target="_top" xlink:title="Hard Constraints">
<polygon fill="none" stroke="black" points="342.5,-0.5 342.5,-19.5 433.5,-19.5 433.5,-0.5 342.5,-0.5"/>
<text text-anchor="middle" x="388" y="-7.5" font-family="Helvetica,sans-Serif" font-size="10.00">Hard Constraints</text>
</a>
</g>
</g>
<!-- Node0&#45;&gt;Node2 -->
<g id="edge2" class="edge"><title>Node0&#45;&gt;Node2</title>
<path fill="none" stroke="midnightblue" d="M315.494,-19.1182C324.684,-17.9464 333.813,-16.7823 342.32,-15.6974"/>
<polygon fill="midnightblue" stroke="midnightblue" points="315.002,-15.6526 305.525,-20.3895 315.887,-22.5963 315.002,-15.6526"/>
</g>
<!-- Node1 -->
<g id="node2" class="node"><title>Node1</title>
<g id="a_node2"><a xlink:href="group__folding__routines.html" target="_top" xlink:title="This module contains all functions related to thermodynamic folding of RNAs. ">
<polygon fill="none" stroke="black" points="0.5,-14 0.5,-44 131.5,-44 131.5,-14 0.5,-14"/>
<text text-anchor="start" x="8.5" y="-32" font-family="Helvetica,sans-Serif" font-size="10.00">RNA Secondary Structure</text>
<text text-anchor="middle" x="66" y="-21" font-family="Helvetica,sans-Serif" font-size="10.00"> Prediction</text>
</a>
</g>
</g>
<!-- Node1&#45;&gt;Node0 -->
<g id="edge1" class="edge"><title>Node1&#45;&gt;Node0</title>
<path fill="none" stroke="midnightblue" d="M142.018,-29C150.746,-29 159.612,-29 168.235,-29"/>
<polygon fill="midnightblue" stroke="midnightblue" points="141.857,-25.5001 131.856,-29 141.856,-32.5001 141.857,-25.5001"/>
</g>
</g>
</svg>
