<?xml version="1.0" encoding="UTF-8" standalone="no"?>
<!DOCTYPE svg PUBLIC "-//W3C//DTD SVG 1.1//EN"
 "http://www.w3.org/Graphics/SVG/1.1/DTD/svg11.dtd">
<!-- Generated by graphviz version 2.36.0 (20140111.2315)
 -->
<!-- Title: Utilities Pages: 1 -->
<svg width="256pt" height="334pt"
 viewBox="0.00 0.00 256.00 334.00" xmlns="http://www.w3.org/2000/svg" xmlns:xlink="http://www.w3.org/1999/xlink">
<g id="graph0" class="graph" transform="scale(1 1) rotate(0) translate(4 330)">
<title>Utilities</title>
<!-- Node2 -->
<g id="node1" class="node"><title>Node2</title>
<g id="a_node1"><a xlink:href="group__struct__utils.html" target="_top" xlink:title="Parsing, Converting,\l and Comparing &#45; Functions\l to Manipulate Secondary\l Structures">
<polygon fill="none" stroke="black" points="98.5,-274 98.5,-326 235.5,-326 235.5,-274 98.5,-274"/>
<text text-anchor="start" x="106.5" y="-314" font-family="Helvetica,sans-Serif" font-size="10.00">Parsing, Converting,</text>
<text text-anchor="start" x="106.5" y="-303" font-family="Helvetica,sans-Serif" font-size="10.00"> and Comparing &#45; Functions</text>
<text text-anchor="start" x="106.5" y="-292" font-family="Helvetica,sans-Serif" font-size="10.00"> to Manipulate Secondary</text>
<text text-anchor="middle" x="167" y="-281" font-family="Helvetica,sans-Serif" font-size="10.00"> Structures</text>
</a>
</g>
</g>
<!-- Node1 -->
<g id="node2" class="node"><title>Node1</title>
<g id="a_node2"><a xlink:href="group__string__utils.html" target="_top" xlink:title="Parsing, Converting,\l and Comparing &#45; Functions\l to Manipulate Sequence\l and Structure Strings">
<polygon fill="none" stroke="black" points="98.5,-203 98.5,-255 235.5,-255 235.5,-203 98.5,-203"/>
<text text-anchor="start" x="106.5" y="-243" font-family="Helvetica,sans-Serif" font-size="10.00">Parsing, Converting,</text>
<text text-anchor="start" x="106.5" y="-232" font-family="Helvetica,sans-Serif" font-size="10.00"> and Comparing &#45; Functions</text>
<text text-anchor="start" x="106.5" y="-221" font-family="Helvetica,sans-Serif" font-size="10.00"> to Manipulate Sequence</text>
<text text-anchor="middle" x="167" y="-210" font-family="Helvetica,sans-Serif" font-size="10.00"> and Structure Strings</text>
</a>
</g>
</g>
<!-- Node5 -->
<g id="node3" class="node"><title>Node5</title>
<g id="a_node3"><a xlink:href="group__plotting__utils.html" target="_top" xlink:title="Functions for Creating\l RNA Secondary Structures\l Plots, Dot&#45;Plots, and More">
<polygon fill="none" stroke="black" points="97.5,-142.5 97.5,-183.5 236.5,-183.5 236.5,-142.5 97.5,-142.5"/>
<text text-anchor="start" x="105.5" y="-171.5" font-family="Helvetica,sans-Serif" font-size="10.00">Functions for Creating</text>
<text text-anchor="start" x="105.5" y="-160.5" font-family="Helvetica,sans-Serif" font-size="10.00"> RNA Secondary Structures</text>
<text text-anchor="middle" x="167" y="-149.5" font-family="Helvetica,sans-Serif" font-size="10.00"> Plots, Dot&#45;Plots, and More</text>
</a>
</g>
</g>
<!-- Node4 -->
<g id="node4" class="node"><title>Node4</title>
<g id="a_node4"><a xlink:href="group__file__utils.html" target="_top" xlink:title="Functions to Read/Write\l several File Formats\l for RNA Sequences, Structures,\l and Alignments">
<polygon fill="none" stroke="black" points="86.5,-71 86.5,-123 247.5,-123 247.5,-71 86.5,-71"/>
<text text-anchor="start" x="94.5" y="-111" font-family="Helvetica,sans-Serif" font-size="10.00">Functions to Read/Write</text>
<text text-anchor="start" x="94.5" y="-100" font-family="Helvetica,sans-Serif" font-size="10.00"> several File Formats</text>
<text text-anchor="start" x="94.5" y="-89" font-family="Helvetica,sans-Serif" font-size="10.00"> for RNA Sequences, Structures,</text>
<text text-anchor="middle" x="167" y="-78" font-family="Helvetica,sans-Serif" font-size="10.00"> and Alignments</text>
</a>
</g>
</g>
<!-- Node0 -->
<g id="node5" class="node"><title>Node0</title>
<polygon fill="#bfbfbf" stroke="black" points="0,-153.5 0,-172.5 50,-172.5 50,-153.5 0,-153.5"/>
<text text-anchor="middle" x="25" y="-160.5" font-family="Helvetica,sans-Serif" font-size="10.00">Utilities</text>
</g>
<!-- Node0&#45;&gt;Node2 -->
<g id="edge2" class="edge"><title>Node0&#45;&gt;Node2</title>
<path fill="none" stroke="midnightblue" d="M33.1369,-182.032C42.3322,-204.293 60.2568,-241.017 86,-264 89.9765,-267.55 94.361,-270.802 98.9677,-273.772"/>
<polygon fill="midnightblue" stroke="midnightblue" points="36.3612,-180.668 29.4285,-172.656 29.8519,-183.243 36.3612,-180.668"/>
</g>
<!-- Node0&#45;&gt;Node1 -->
<g id="edge1" class="edge"><title>Node0&#45;&gt;Node1</title>
<path fill="none" stroke="midnightblue" d="M54.714,-177.001C64.6103,-181.794 75.7754,-187.165 86,-192 93.4702,-195.532 101.348,-199.221 109.13,-202.843"/>
<polygon fill="midnightblue" stroke="midnightblue" points="56.2113,-173.837 45.6867,-172.619 53.1547,-180.135 56.2113,-173.837"/>
</g>
<!-- Node0&#45;&gt;Node5 -->
<g id="edge5" class="edge"><title>Node0&#45;&gt;Node5</title>
<path fill="none" stroke="midnightblue" d="M60.2972,-163C71.5658,-163 84.5201,-163 97.4106,-163"/>
<polygon fill="midnightblue" stroke="midnightblue" points="60.0669,-159.5 50.0669,-163 60.0668,-166.5 60.0669,-159.5"/>
</g>
<!-- Node0&#45;&gt;Node4 -->
<g id="edge4" class="edge"><title>Node0&#45;&gt;Node4</title>
<path fill="none" stroke="midnightblue" d="M53.7287,-148.84C63.8417,-143.755 75.3963,-138.034 86,-133 92.8793,-129.734 100.123,-126.371 107.327,-123.072"/>
<polygon fill="midnightblue" stroke="midnightblue" points="51.898,-145.844 44.5525,-153.479 55.0561,-152.091 51.898,-145.844"/>
</g>
<!-- Node3 -->
<g id="node6" class="node"><title>Node3</title>
<g id="a_node6"><a xlink:href="group__aln__utils.html" target="_top" xlink:title="Various utilities for\l Sequence Alignments,\l and Comparative Structure\l Prediction">
<polygon fill="none" stroke="black" points="98.5,-0 98.5,-52 235.5,-52 235.5,-0 98.5,-0"/>
<text text-anchor="start" x="106.5" y="-40" font-family="Helvetica,sans-Serif" font-size="10.00">Various utilities for</text>
<text text-anchor="start" x="106.5" y="-29" font-family="Helvetica,sans-Serif" font-size="10.00"> Sequence Alignments,</text>
<text text-anchor="start" x="106.5" y="-18" font-family="Helvetica,sans-Serif" font-size="10.00"> and Comparative Structure</text>
<text text-anchor="middle" x="167" y="-7" font-family="Helvetica,sans-Serif" font-size="10.00"> Prediction</text>
</a>
</g>
</g>
<!-- Node0&#45;&gt;Node3 -->
<g id="edge3" class="edge"><title>Node0&#45;&gt;Node3</title>
<path fill="none" stroke="midnightblue" d="M33.1369,-143.968C42.3322,-121.707 60.2568,-84.9827 86,-62 89.9765,-58.4499 94.361,-55.1976 98.9677,-52.2281"/>
<polygon fill="midnightblue" stroke="midnightblue" points="29.8519,-142.757 29.4285,-153.344 36.3612,-145.332 29.8519,-142.757"/>
</g>
</g>
</svg>
