<?xml version="1.0" encoding="UTF-8" standalone="no"?>
<!DOCTYPE svg PUBLIC "-//W3C//DTD SVG 1.1//EN"
 "http://www.w3.org/Graphics/SVG/1.1/DTD/svg11.dtd">
<!-- Generated by graphviz version 2.36.0 (20140111.2315)
 -->
<!-- Title: RNA Secondary Structure Prediction Pages: 1 -->
<svg width="322pt" height="412pt"
 viewBox="0.00 0.00 322.00 412.00" xmlns="http://www.w3.org/2000/svg" xmlns:xlink="http://www.w3.org/1999/xlink">
<g id="graph0" class="graph" transform="scale(1 1) rotate(0) translate(4 408)">
<title>RNA Secondary Structure Prediction</title>
<!-- Node5 -->
<g id="node1" class="node"><title>Node5</title>
<g id="a_node1"><a xlink:href="group__consensus__fold.html" target="_top" xlink:title="compute various properties (consensus MFE structures, partition function, Boltzmann distributed stoch...">
<polygon fill="none" stroke="black" points="168.5,-374 168.5,-404 313.5,-404 313.5,-374 168.5,-374"/>
<text text-anchor="start" x="176.5" y="-392" font-family="Helvetica,sans-Serif" font-size="10.00">Predicting Consensus</text>
<text text-anchor="middle" x="241" y="-381" font-family="Helvetica,sans-Serif" font-size="10.00"> Structures from Alignment(s)</text>
</a>
</g>
</g>
<!-- Node7 -->
<g id="node2" class="node"><title>Node7</title>
<g id="a_node2"><a xlink:href="group__class__fold.html" target="_top" xlink:title="Classified Dynamic\l Programming">
<polygon fill="none" stroke="black" points="190,-325 190,-355 292,-355 292,-325 190,-325"/>
<text text-anchor="start" x="198" y="-343" font-family="Helvetica,sans-Serif" font-size="10.00">Classified Dynamic</text>
<text text-anchor="middle" x="241" y="-332" font-family="Helvetica,sans-Serif" font-size="10.00"> Programming</text>
</a>
</g>
</g>
<!-- Node2 -->
<g id="node3" class="node"><title>Node2</title>
<g id="a_node3"><a xlink:href="group__pf__fold.html" target="_top" xlink:title="This section provides information about all functions and variables related to the calculation of the...">
<polygon fill="none" stroke="black" points="189.5,-265.5 189.5,-306.5 292.5,-306.5 292.5,-265.5 189.5,-265.5"/>
<text text-anchor="start" x="197.5" y="-294.5" font-family="Helvetica,sans-Serif" font-size="10.00">Computing Partition</text>
<text text-anchor="start" x="197.5" y="-283.5" font-family="Helvetica,sans-Serif" font-size="10.00"> Functions and Pair</text>
<text text-anchor="middle" x="241" y="-272.5" font-family="Helvetica,sans-Serif" font-size="10.00"> Probabilities</text>
</a>
</g>
</g>
<!-- Node6 -->
<g id="node4" class="node"><title>Node6</title>
<g id="a_node4"><a xlink:href="group__local__fold.html" target="_top" xlink:title="Predicting Locally\l stable structures of\l large sequences">
<polygon fill="none" stroke="black" points="189,-205.5 189,-246.5 293,-246.5 293,-205.5 189,-205.5"/>
<text text-anchor="start" x="197" y="-234.5" font-family="Helvetica,sans-Serif" font-size="10.00">Predicting Locally</text>
<text text-anchor="start" x="197" y="-223.5" font-family="Helvetica,sans-Serif" font-size="10.00"> stable structures of</text>
<text text-anchor="middle" x="241" y="-212.5" font-family="Helvetica,sans-Serif" font-size="10.00"> large sequences</text>
</a>
</g>
</g>
<!-- Node8 -->
<g id="node5" class="node"><title>Node8</title>
<g id="a_node5"><a xlink:href="group__constraints.html" target="_top" xlink:title="This module covers all functions and variables related to the problem of incorporating secondary stru...">
<polygon fill="none" stroke="black" points="172.5,-157 172.5,-187 309.5,-187 309.5,-157 172.5,-157"/>
<text text-anchor="start" x="180.5" y="-175" font-family="Helvetica,sans-Serif" font-size="10.00">Constraining the Secondary</text>
<text text-anchor="middle" x="241" y="-164" font-family="Helvetica,sans-Serif" font-size="10.00"> Structure Recursions</text>
</a>
</g>
</g>
<!-- Node3 -->
<g id="node6" class="node"><title>Node3</title>
<g id="a_node6"><a xlink:href="group__subopt__fold.html" target="_top" xlink:title="Enumerating Suboptimal\l Structures">
<polygon fill="none" stroke="black" points="179.5,-108 179.5,-138 302.5,-138 302.5,-108 179.5,-108"/>
<text text-anchor="start" x="187.5" y="-126" font-family="Helvetica,sans-Serif" font-size="10.00">Enumerating Suboptimal</text>
<text text-anchor="middle" x="241" y="-115" font-family="Helvetica,sans-Serif" font-size="10.00"> Structures</text>
</a>
</g>
</g>
<!-- Node1 -->
<g id="node7" class="node"><title>Node1</title>
<g id="a_node7"><a xlink:href="group__mfe__fold.html" target="_top" xlink:title="This section covers all functions and variables related to the calculation of minimum free energy (MF...">
<polygon fill="none" stroke="black" points="176.5,-59 176.5,-89 305.5,-89 305.5,-59 176.5,-59"/>
<text text-anchor="start" x="184.5" y="-77" font-family="Helvetica,sans-Serif" font-size="10.00">Computing Minimum Free</text>
<text text-anchor="middle" x="241" y="-66" font-family="Helvetica,sans-Serif" font-size="10.00"> Energy (MFE) Structures</text>
</a>
</g>
</g>
<!-- Node0 -->
<g id="node8" class="node"><title>Node0</title>
<polygon fill="#bfbfbf" stroke="black" points="0.5,-184 0.5,-214 131.5,-214 131.5,-184 0.5,-184"/>
<text text-anchor="start" x="8.5" y="-202" font-family="Helvetica,sans-Serif" font-size="10.00">RNA Secondary Structure</text>
<text text-anchor="middle" x="66" y="-191" font-family="Helvetica,sans-Serif" font-size="10.00"> Prediction</text>
</g>
<!-- Node0&#45;&gt;Node5 -->
<g id="edge5" class="edge"><title>Node0&#45;&gt;Node5</title>
<path fill="none" stroke="midnightblue" d="M75.919,-223.842C90.0352,-259.76 120.855,-326.042 168,-364 172.741,-367.817 178.103,-371.07 183.71,-373.837"/>
<polygon fill="midnightblue" stroke="midnightblue" points="79.0575,-222.248 72.2274,-214.149 72.5159,-224.74 79.0575,-222.248"/>
</g>
<!-- Node0&#45;&gt;Node7 -->
<g id="edge7" class="edge"><title>Node0&#45;&gt;Node7</title>
<path fill="none" stroke="midnightblue" d="M81.9328,-222.548C99.5636,-248.583 131.189,-290.123 168,-315 174.688,-319.52 182.276,-323.305 189.957,-326.449"/>
<polygon fill="midnightblue" stroke="midnightblue" points="84.7357,-220.441 76.2946,-214.038 78.9003,-224.308 84.7357,-220.441"/>
</g>
<!-- Node0&#45;&gt;Node2 -->
<g id="edge2" class="edge"><title>Node0&#45;&gt;Node2</title>
<path fill="none" stroke="midnightblue" d="M101.521,-219.261C120.827,-230.306 145.472,-243.939 168,-255 175.208,-258.539 182.917,-262.093 190.515,-265.468"/>
<polygon fill="midnightblue" stroke="midnightblue" points="103.193,-216.184 92.7801,-214.228 99.7,-222.251 103.193,-216.184"/>
</g>
<!-- Node0&#45;&gt;Node6 -->
<g id="edge6" class="edge"><title>Node0&#45;&gt;Node6</title>
<path fill="none" stroke="midnightblue" d="M142.159,-210.73C157.9,-213.187 174.151,-215.723 188.778,-218.006"/>
<polygon fill="midnightblue" stroke="midnightblue" points="142.331,-207.215 131.911,-209.131 141.252,-214.131 142.331,-207.215"/>
</g>
<!-- Node0&#45;&gt;Node8 -->
<g id="edge8" class="edge"><title>Node0&#45;&gt;Node8</title>
<path fill="none" stroke="midnightblue" d="M141.948,-187.303C152.078,-185.722 162.424,-184.107 172.415,-182.548"/>
<polygon fill="midnightblue" stroke="midnightblue" points="141.252,-183.869 131.911,-188.869 142.331,-190.785 141.252,-183.869"/>
</g>
<!-- Node0&#45;&gt;Node3 -->
<g id="edge3" class="edge"><title>Node0&#45;&gt;Node3</title>
<path fill="none" stroke="midnightblue" d="M103.3,-179.191C122.288,-169.21 146.085,-157.289 168,-148 176.163,-144.54 184.984,-141.179 193.561,-138.102"/>
<polygon fill="midnightblue" stroke="midnightblue" points="101.589,-176.137 94.3949,-183.915 104.869,-182.321 101.589,-176.137"/>
</g>
<!-- Node0&#45;&gt;Node1 -->
<g id="edge1" class="edge"><title>Node0&#45;&gt;Node1</title>
<path fill="none" stroke="midnightblue" d="M85.2693,-175.629C103.913,-153.184 134.761,-119.715 168,-99 174.064,-95.2208 180.774,-91.9236 187.586,-89.0732"/>
<polygon fill="midnightblue" stroke="midnightblue" points="82.344,-173.678 78.7417,-183.642 87.7712,-178.099 82.344,-173.678"/>
</g>
<!-- Node4 -->
<g id="node9" class="node"><title>Node4</title>
<g id="a_node9"><a xlink:href="group__cofold.html" target="_top" xlink:title="Predict structures formed by two molecules upon hybridization. ">
<polygon fill="none" stroke="black" points="178.5,0.5 178.5,-40.5 303.5,-40.5 303.5,0.5 178.5,0.5"/>
<text text-anchor="start" x="186.5" y="-28.5" font-family="Helvetica,sans-Serif" font-size="10.00">Calculate Secondary</text>
<text text-anchor="start" x="186.5" y="-17.5" font-family="Helvetica,sans-Serif" font-size="10.00"> Structures of two RNAs</text>
<text text-anchor="middle" x="241" y="-6.5" font-family="Helvetica,sans-Serif" font-size="10.00"> upon Dimerization</text>
</a>
</g>
</g>
<!-- Node0&#45;&gt;Node4 -->
<g id="edge4" class="edge"><title>Node0&#45;&gt;Node4</title>
<path fill="none" stroke="midnightblue" d="M77.9961,-174.532C93.7066,-142.051 125.449,-84.7585 168,-50 172.3,-46.4876 177.069,-43.3308 182.047,-40.5057"/>
<polygon fill="midnightblue" stroke="midnightblue" points="74.7423,-173.226 73.6409,-183.764 81.0731,-176.213 74.7423,-173.226"/>
</g>
</g>
</svg>
