<?xml version="1.0" encoding="UTF-8" standalone="no"?>
<!DOCTYPE svg PUBLIC "-//W3C//DTD SVG 1.1//EN"
 "http://www.w3.org/Graphics/SVG/1.1/DTD/svg11.dtd">
<!-- Generated by graphviz version 2.36.0 (20140111.2315)
 -->
<!-- Title: ViennaRNA/hairpin_loops.h Pages: 1 -->
<svg width="499pt" height="376pt"
 viewBox="0.00 0.00 499.00 376.00" xmlns="http://www.w3.org/2000/svg" xmlns:xlink="http://www.w3.org/1999/xlink">
<g id="graph0" class="graph" transform="scale(1 1) rotate(0) translate(4 372)">
<title>ViennaRNA/hairpin_loops.h</title>
<!-- Node1 -->
<g id="node1" class="node"><title>Node1</title>
<polygon fill="#bfbfbf" stroke="black" points="184.5,-348.5 184.5,-367.5 321.5,-367.5 321.5,-348.5 184.5,-348.5"/>
<text text-anchor="middle" x="253" y="-355.5" font-family="Helvetica,sans-Serif" font-size="10.00">ViennaRNA/hairpin_loops.h</text>
</g>
<!-- Node2 -->
<g id="node2" class="node"><title>Node2</title>
<polygon fill="none" stroke="#bfbfbf" points="72.5,-292.5 72.5,-311.5 119.5,-311.5 119.5,-292.5 72.5,-292.5"/>
<text text-anchor="middle" x="96" y="-299.5" font-family="Helvetica,sans-Serif" font-size="10.00">math.h</text>
</g>
<!-- Node1&#45;&gt;Node2 -->
<g id="edge1" class="edge"><title>Node1&#45;&gt;Node2</title>
<path fill="none" stroke="midnightblue" d="M228.123,-348.444C201.4,-339.252 158.796,-324.599 129.221,-314.426"/>
<polygon fill="midnightblue" stroke="midnightblue" points="130.328,-311.106 119.733,-311.163 128.051,-317.725 130.328,-311.106"/>
</g>
<!-- Node3 -->
<g id="node3" class="node"><title>Node3</title>
<polygon fill="none" stroke="#bfbfbf" points="137.5,-292.5 137.5,-311.5 186.5,-311.5 186.5,-292.5 137.5,-292.5"/>
<text text-anchor="middle" x="162" y="-299.5" font-family="Helvetica,sans-Serif" font-size="10.00">string.h</text>
</g>
<!-- Node1&#45;&gt;Node3 -->
<g id="edge2" class="edge"><title>Node1&#45;&gt;Node3</title>
<path fill="none" stroke="midnightblue" d="M238.379,-348.324C224.051,-339.822 201.987,-326.729 185.251,-316.797"/>
<polygon fill="midnightblue" stroke="midnightblue" points="186.97,-313.748 176.584,-311.655 183.398,-319.768 186.97,-313.748"/>
</g>
<!-- Node4 -->
<g id="node4" class="node"><title>Node4</title>
<g id="a_node4"><a xlink:href="utils_8h.html" target="_top" xlink:title="General utility&#45; and helper&#45;functions used throughout the ViennaRNA Package. ">
<polygon fill="none" stroke="black" points="204,-292.5 204,-311.5 302,-311.5 302,-292.5 204,-292.5"/>
<text text-anchor="middle" x="253" y="-299.5" font-family="Helvetica,sans-Serif" font-size="10.00">ViennaRNA/utils.h</text>
</a>
</g>
</g>
<!-- Node1&#45;&gt;Node4 -->
<g id="edge3" class="edge"><title>Node1&#45;&gt;Node4</title>
<path fill="none" stroke="midnightblue" d="M253,-348.083C253,-341.006 253,-330.861 253,-321.986"/>
<polygon fill="midnightblue" stroke="midnightblue" points="256.5,-321.751 253,-311.751 249.5,-321.751 256.5,-321.751"/>
</g>
<!-- Node6 -->
<g id="node6" class="node"><title>Node6</title>
<g id="a_node6"><a xlink:href="data__structures_8h.html" target="_top" xlink:title="ViennaRNA/data_structures.h">
<polygon fill="none" stroke="black" points="183.5,-168.5 183.5,-187.5 330.5,-187.5 330.5,-168.5 183.5,-168.5"/>
<text text-anchor="middle" x="257" y="-175.5" font-family="Helvetica,sans-Serif" font-size="10.00">ViennaRNA/data_structures.h</text>
</a>
</g>
</g>
<!-- Node1&#45;&gt;Node6 -->
<g id="edge22" class="edge"><title>Node1&#45;&gt;Node6</title>
<path fill="none" stroke="midnightblue" d="M271.015,-348.306C298.812,-333.728 351.038,-301.424 371,-256 376.722,-242.98 379,-235.759 371,-224 359.89,-207.671 341.85,-197.267 323.366,-190.638"/>
<polygon fill="midnightblue" stroke="midnightblue" points="324.285,-187.257 313.693,-187.505 322.128,-193.917 324.285,-187.257"/>
</g>
<!-- Node10 -->
<g id="node10" class="node"><title>Node10</title>
<g id="a_node10"><a xlink:href="params_8h.html" target="_top" xlink:title="ViennaRNA/params.h">
<polygon fill="none" stroke="black" points="373,-112.5 373,-131.5 485,-131.5 485,-112.5 373,-112.5"/>
<text text-anchor="middle" x="429" y="-119.5" font-family="Helvetica,sans-Serif" font-size="10.00">ViennaRNA/params.h</text>
</a>
</g>
</g>
<!-- Node1&#45;&gt;Node10 -->
<g id="edge23" class="edge"><title>Node1&#45;&gt;Node10</title>
<path fill="none" stroke="midnightblue" d="M281.688,-348.407C302.36,-341.161 330.02,-329.196 350,-312 402.765,-266.588 421.027,-180.119 426.7,-141.932"/>
<polygon fill="midnightblue" stroke="midnightblue" points="430.208,-142.11 428.081,-131.731 423.271,-141.171 430.208,-142.11"/>
</g>
<!-- Node5 -->
<g id="node5" class="node"><title>Node5</title>
<polygon fill="none" stroke="#bfbfbf" points="47,-168.5 47,-187.5 93,-187.5 93,-168.5 47,-168.5"/>
<text text-anchor="middle" x="70" y="-175.5" font-family="Helvetica,sans-Serif" font-size="10.00">stdio.h</text>
</g>
<!-- Node4&#45;&gt;Node5 -->
<g id="edge4" class="edge"><title>Node4&#45;&gt;Node5</title>
<path fill="none" stroke="midnightblue" d="M203.929,-292.801C149.773,-283.256 69.01,-267.352 60,-256 46.8143,-239.386 53.6147,-214.107 60.8144,-197.091"/>
<polygon fill="midnightblue" stroke="midnightblue" points="64.1314,-198.258 65.1737,-187.715 57.7839,-195.307 64.1314,-198.258"/>
</g>
<!-- Node4&#45;&gt;Node6 -->
<g id="edge5" class="edge"><title>Node4&#45;&gt;Node6</title>
<path fill="none" stroke="midnightblue" d="M245.849,-292.364C239.227,-283.763 229.843,-269.873 226,-256 222.204,-242.294 221.775,-237.58 226,-224 229.229,-213.622 235.776,-203.521 242.025,-195.527"/>
<polygon fill="midnightblue" stroke="midnightblue" points="244.785,-197.682 248.517,-187.766 239.416,-193.19 244.785,-197.682"/>
</g>
<!-- Node13 -->
<g id="node13" class="node"><title>Node13</title>
<g id="a_node13"><a xlink:href="string__utils_8h.html" target="_top" xlink:title="General utility&#45; and helper&#45;functions for RNA sequence and structure strings used throughout the Vien...">
<polygon fill="none" stroke="black" points="235.5,-230.5 235.5,-249.5 362.5,-249.5 362.5,-230.5 235.5,-230.5"/>
<text text-anchor="middle" x="299" y="-237.5" font-family="Helvetica,sans-Serif" font-size="10.00">ViennaRNA/string_utils.h</text>
</a>
</g>
</g>
<!-- Node4&#45;&gt;Node13 -->
<g id="edge17" class="edge"><title>Node4&#45;&gt;Node13</title>
<path fill="none" stroke="midnightblue" d="M259.591,-292.403C266.491,-283.403 277.502,-269.041 286.134,-257.782"/>
<polygon fill="midnightblue" stroke="midnightblue" points="289.115,-259.646 292.422,-249.581 283.56,-255.387 289.115,-259.646"/>
</g>
<!-- Node14 -->
<g id="node14" class="node"><title>Node14</title>
<g id="a_node14"><a xlink:href="structure__utils_8h.html" target="_top" xlink:title="Various utility&#45; and helper&#45;functions for secondary structure parsing, converting, etc. ">
<polygon fill="none" stroke="black" points="69,-225 69,-255 179,-255 179,-225 69,-225"/>
<text text-anchor="start" x="77" y="-243" font-family="Helvetica,sans-Serif" font-size="10.00">ViennaRNA/structure</text>
<text text-anchor="middle" x="124" y="-232" font-family="Helvetica,sans-Serif" font-size="10.00">_utils.h</text>
</a>
</g>
</g>
<!-- Node4&#45;&gt;Node14 -->
<g id="edge19" class="edge"><title>Node4&#45;&gt;Node14</title>
<path fill="none" stroke="midnightblue" d="M234.517,-292.403C216.066,-283.822 187.133,-270.364 163.498,-259.371"/>
<polygon fill="midnightblue" stroke="midnightblue" points="164.946,-256.185 154.403,-255.141 161.994,-262.532 164.946,-256.185"/>
</g>
<!-- Node7 -->
<g id="node7" class="node"><title>Node7</title>
<g id="a_node7"><a xlink:href="energy__const_8h.html" target="_top" xlink:title="ViennaRNA/energy_const.h">
<polygon fill="none" stroke="black" points="229,-56.5 229,-75.5 367,-75.5 367,-56.5 229,-56.5"/>
<text text-anchor="middle" x="298" y="-63.5" font-family="Helvetica,sans-Serif" font-size="10.00">ViennaRNA/energy_const.h</text>
</a>
</g>
</g>
<!-- Node6&#45;&gt;Node7 -->
<g id="edge6" class="edge"><title>Node6&#45;&gt;Node7</title>
<path fill="none" stroke="midnightblue" d="M264.719,-168.39C271.957,-159.808 282.469,-145.931 288,-132 293.865,-117.226 296.309,-99.298 297.317,-86.0152"/>
<polygon fill="midnightblue" stroke="midnightblue" points="300.828,-85.912 297.884,-75.7344 293.839,-85.5265 300.828,-85.912"/>
</g>
<!-- Node9 -->
<g id="node9" class="node"><title>Node9</title>
<g id="a_node9"><a xlink:href="model_8h.html" target="_top" xlink:title="The model details data structure and its corresponding modifiers. ">
<polygon fill="none" stroke="black" points="385,-56.5 385,-75.5 491,-75.5 491,-56.5 385,-56.5"/>
<text text-anchor="middle" x="438" y="-63.5" font-family="Helvetica,sans-Serif" font-size="10.00">ViennaRNA/model.h</text>
</a>
</g>
</g>
<!-- Node6&#45;&gt;Node9 -->
<g id="edge8" class="edge"><title>Node6&#45;&gt;Node9</title>
<path fill="none" stroke="midnightblue" d="M271.203,-168.368C302.395,-149.412 377.117,-104.001 415.058,-80.9424"/>
<polygon fill="midnightblue" stroke="midnightblue" points="417.135,-83.7759 423.863,-75.5914 413.5,-77.794 417.135,-83.7759"/>
</g>
<!-- Node6&#45;&gt;Node10 -->
<g id="edge9" class="edge"><title>Node6&#45;&gt;Node10</title>
<path fill="none" stroke="midnightblue" d="M279.165,-168.444C306.46,-159.241 353.036,-144.562 387.102,-134.388"/>
<polygon fill="midnightblue" stroke="midnightblue" points="388.2,-137.713 396.794,-131.516 386.211,-131.001 388.2,-137.713"/>
</g>
<!-- Node11 -->
<g id="node11" class="node"><title>Node11</title>
<g id="a_node11"><a xlink:href="dp__matrices_8h.html" target="_top" xlink:title="ViennaRNA/dp_matrices.h">
<polygon fill="none" stroke="black" points="-0.5,-112.5 -0.5,-131.5 132.5,-131.5 132.5,-112.5 -0.5,-112.5"/>
<text text-anchor="middle" x="66" y="-119.5" font-family="Helvetica,sans-Serif" font-size="10.00">ViennaRNA/dp_matrices.h</text>
</a>
</g>
</g>
<!-- Node6&#45;&gt;Node11 -->
<g id="edge13" class="edge"><title>Node6&#45;&gt;Node11</title>
<path fill="none" stroke="midnightblue" d="M221.647,-168.444C187.077,-159.241 134.978,-144.562 100.654,-134.388"/>
<polygon fill="midnightblue" stroke="midnightblue" points="101.626,-131.026 91.043,-131.516 99.6225,-137.733 101.626,-131.026"/>
</g>
<!-- Node12 -->
<g id="node12" class="node"><title>Node12</title>
<g id="a_node12"><a xlink:href="constraints_8h.html" target="_top" xlink:title="ViennaRNA/constraints.h">
<polygon fill="none" stroke="black" points="151,-112.5 151,-131.5 279,-131.5 279,-112.5 151,-112.5"/>
<text text-anchor="middle" x="215" y="-119.5" font-family="Helvetica,sans-Serif" font-size="10.00">ViennaRNA/constraints.h</text>
</a>
</g>
</g>
<!-- Node6&#45;&gt;Node12 -->
<g id="edge15" class="edge"><title>Node6&#45;&gt;Node12</title>
<path fill="none" stroke="midnightblue" d="M244.898,-168.083C237.434,-160.534 228.457,-149.495 222.06,-140.23"/>
<polygon fill="midnightblue" stroke="midnightblue" points="224.991,-138.316 216.675,-131.751 219.082,-142.069 224.991,-138.316"/>
</g>
<!-- Node8 -->
<g id="node8" class="node"><title>Node8</title>
<polygon fill="none" stroke="#bfbfbf" points="274,-0.5 274,-19.5 322,-19.5 322,-0.5 274,-0.5"/>
<text text-anchor="middle" x="298" y="-7.5" font-family="Helvetica,sans-Serif" font-size="10.00">limits.h</text>
</g>
<!-- Node7&#45;&gt;Node8 -->
<g id="edge7" class="edge"><title>Node7&#45;&gt;Node8</title>
<path fill="none" stroke="midnightblue" d="M298,-56.083C298,-49.0059 298,-38.8611 298,-29.9865"/>
<polygon fill="midnightblue" stroke="midnightblue" points="301.5,-29.751 298,-19.7511 294.5,-29.7511 301.5,-29.751"/>
</g>
<!-- Node10&#45;&gt;Node6 -->
<g id="edge11" class="edge"><title>Node10&#45;&gt;Node6</title>
<path fill="none" stroke="midnightblue" d="M406.954,-131.516C379.715,-140.703 333.149,-155.381 299.047,-165.568"/>
<polygon fill="midnightblue" stroke="midnightblue" points="297.936,-162.246 289.343,-168.444 299.925,-168.958 297.936,-162.246"/>
</g>
<!-- Node10&#45;&gt;Node7 -->
<g id="edge10" class="edge"><title>Node10&#45;&gt;Node7</title>
<path fill="none" stroke="midnightblue" d="M408.243,-112.444C386.684,-103.557 352.737,-89.5632 328.206,-79.4514"/>
<polygon fill="midnightblue" stroke="midnightblue" points="329.239,-76.0917 318.66,-75.5164 326.572,-82.5634 329.239,-76.0917"/>
</g>
<!-- Node10&#45;&gt;Node9 -->
<g id="edge12" class="edge"><title>Node10&#45;&gt;Node9</title>
<path fill="none" stroke="midnightblue" d="M430.486,-112.083C431.679,-104.927 433.394,-94.6353 434.885,-85.6911"/>
<polygon fill="midnightblue" stroke="midnightblue" points="438.35,-86.1904 436.541,-75.7511 431.445,-85.0396 438.35,-86.1904"/>
</g>
<!-- Node11&#45;&gt;Node6 -->
<g id="edge14" class="edge"><title>Node11&#45;&gt;Node6</title>
<path fill="none" stroke="midnightblue" d="M101.203,-131.516C135.722,-140.703 187.821,-155.381 222.196,-165.568"/>
<polygon fill="midnightblue" stroke="midnightblue" points="221.241,-168.935 231.824,-168.444 223.244,-162.228 221.241,-168.935"/>
</g>
<!-- Node12&#45;&gt;Node6 -->
<g id="edge16" class="edge"><title>Node12&#45;&gt;Node6</title>
<path fill="none" stroke="midnightblue" d="M226.937,-131.751C234.379,-139.248 243.364,-150.275 249.798,-159.566"/>
<polygon fill="midnightblue" stroke="midnightblue" points="246.902,-161.534 255.231,-168.083 252.804,-157.77 246.902,-161.534"/>
</g>
<!-- Node13&#45;&gt;Node6 -->
<g id="edge18" class="edge"><title>Node13&#45;&gt;Node6</title>
<path fill="none" stroke="midnightblue" d="M292.982,-230.403C286.682,-221.403 276.629,-207.041 268.748,-195.782"/>
<polygon fill="midnightblue" stroke="midnightblue" points="271.608,-193.766 263.006,-187.581 265.874,-197.78 271.608,-193.766"/>
</g>
<!-- Node14&#45;&gt;Node5 -->
<g id="edge20" class="edge"><title>Node14&#45;&gt;Node5</title>
<path fill="none" stroke="midnightblue" d="M111.203,-224.781C103.275,-215.972 93.0635,-204.626 84.7899,-195.433"/>
<polygon fill="midnightblue" stroke="midnightblue" points="87.1487,-192.822 77.8575,-187.731 81.9456,-197.505 87.1487,-192.822"/>
</g>
<!-- Node14&#45;&gt;Node6 -->
<g id="edge21" class="edge"><title>Node14&#45;&gt;Node6</title>
<path fill="none" stroke="midnightblue" d="M155.183,-224.933C177.421,-214.9 207.082,-201.519 228.652,-191.789"/>
<polygon fill="midnightblue" stroke="midnightblue" points="230.261,-194.903 237.937,-187.6 227.382,-188.522 230.261,-194.903"/>
</g>
</g>
</svg>
