<?xml version="1.0" encoding="UTF-8" standalone="no"?>
<!DOCTYPE svg PUBLIC "-//W3C//DTD SVG 1.1//EN"
 "http://www.w3.org/Graphics/SVG/1.1/DTD/svg11.dtd">
<!-- Generated by graphviz version 2.36.0 (20140111.2315)
 -->
<!-- Title: ViennaRNA/interior_loops.h Pages: 1 -->
<!--zoomable 388 -->
<svg id="main" version="1.1" xmlns="http://www.w3.org/2000/svg" xmlns:xlink="http://www.w3.org/1999/xlink" xml:space="preserve" onload="init(evt)">
<style type="text/css"><![CDATA[
.edge:hover path { stroke: red; }
.edge:hover polygon { stroke: red; fill: red; }
]]></style>
<script type="text/javascript"><![CDATA[
var edges = document.getElementsByTagName('g');
if (edges && edges.length) {
  for (var i=0;i<edges.length;i++) {
    if (edges[i].id.substr(0,4)=='edge') {
      edges[i].setAttribute('class','edge');
    }
  }
}
]]></script>
        <defs>
                <circle id="rim" cx="0" cy="0" r="7"/>
                <circle id="rim2" cx="0" cy="0" r="3.5"/>
                <g id="zoomPlus">
                        <use xlink:href="#rim" fill="#404040">
                                <set attributeName="fill" to="#808080" begin="zoomplus.mouseover" end="zoomplus.mouseout"/>
                        </use>
                        <path d="M-4,0h8M0,-4v8" fill="none" stroke="white" stroke-width="1.5" pointer-events="none"/>
                </g>
                <g id="zoomMin">
                        <use xlink:href="#rim" fill="#404040">
                                <set attributeName="fill" to="#808080" begin="zoomminus.mouseover" end="zoomminus.mouseout"/>
                        </use>
                        <path d="M-4,0h8" fill="none" stroke="white" stroke-width="1.5" pointer-events="none"/>
                </g>
                <g id="dirArrow">
                        <path fill="none" stroke="white" stroke-width="1.5" d="M0,-3.0v7 M-2.5,-0.5L0,-3.0L2.5,-0.5"/>
                </g>
               <g id="resetDef">
                       <use xlink:href="#rim2" fill="#404040">
                               <set attributeName="fill" to="#808080" begin="reset.mouseover" end="reset.mouseout"/>
                       </use>
               </g>
        </defs>

<script type="text/javascript">
var viewWidth = 587;
var viewHeight = 388;
var sectionId = 'dynsection-0';
</script>
<script xlink:href="svgpan.js"/>
<svg id="graph" class="graph">
<g id="viewport">
<title>ViennaRNA/interior_loops.h</title>
<!-- Node1 -->
<g id="node1" class="node"><title>Node1</title>
<polygon fill="#bfbfbf" stroke="black" points="334.5,-349 334.5,-379 435.5,-379 435.5,-349 334.5,-349"/>
<text text-anchor="start" x="342.5" y="-367" font-family="Helvetica,sans-Serif" font-size="10.00">ViennaRNA/interior</text>
<text text-anchor="middle" x="385" y="-356" font-family="Helvetica,sans-Serif" font-size="10.00">_loops.h</text>
</g>
<!-- Node2 -->
<g id="node2" class="node"><title>Node2</title>
<g id="a_node2"><a xlink:href="utils_8h.html" target="_top" xlink:title="General utility&#45; and helper&#45;functions used throughout the ViennaRNA Package. ">
<polygon fill="none" stroke="black" points="152,-292.5 152,-311.5 250,-311.5 250,-292.5 152,-292.5"/>
<text text-anchor="middle" x="201" y="-299.5" font-family="Helvetica,sans-Serif" font-size="10.00">ViennaRNA/utils.h</text>
</a>
</g>
</g>
<!-- Node1&#45;&gt;Node2 -->
<g id="edge1" class="edge"><title>Node1&#45;&gt;Node2</title>
<path fill="none" stroke="midnightblue" d="M341.86,-348.933C309.89,-338.508 266.831,-324.467 236.768,-314.663"/>
<polygon fill="midnightblue" stroke="midnightblue" points="237.698,-311.285 227.106,-311.513 235.528,-317.941 237.698,-311.285"/>
</g>
<!-- Node4 -->
<g id="node4" class="node"><title>Node4</title>
<g id="a_node4"><a xlink:href="data__structures_8h.html" target="_top" xlink:title="ViennaRNA/data_structures.h">
<polygon fill="none" stroke="black" points="162.5,-168.5 162.5,-187.5 309.5,-187.5 309.5,-168.5 162.5,-168.5"/>
<text text-anchor="middle" x="236" y="-175.5" font-family="Helvetica,sans-Serif" font-size="10.00">ViennaRNA/data_structures.h</text>
</a>
</g>
</g>
<!-- Node1&#45;&gt;Node4 -->
<g id="edge22" class="edge"><title>Node1&#45;&gt;Node4</title>
<path fill="none" stroke="midnightblue" d="M387.34,-348.914C391.052,-321.508 395.072,-260.508 365,-224 351.395,-207.484 331.36,-197.02 311.115,-190.394"/>
<polygon fill="midnightblue" stroke="midnightblue" points="312.089,-187.032 301.505,-187.525 310.087,-193.739 312.089,-187.032"/>
</g>
<!-- Node8 -->
<g id="node8" class="node"><title>Node8</title>
<g id="a_node8"><a xlink:href="params_8h.html" target="_top" xlink:title="ViennaRNA/params.h">
<polygon fill="none" stroke="black" points="39,-112.5 39,-131.5 151,-131.5 151,-112.5 39,-112.5"/>
<text text-anchor="middle" x="95" y="-119.5" font-family="Helvetica,sans-Serif" font-size="10.00">ViennaRNA/params.h</text>
</a>
</g>
</g>
<!-- Node1&#45;&gt;Node8 -->
<g id="edge23" class="edge"><title>Node1&#45;&gt;Node8</title>
<path fill="none" stroke="midnightblue" d="M334.11,-356.969C284.22,-349.978 206.61,-336.192 143,-312 96.1114,-294.167 70.1792,-299.388 45,-256 37.5329,-243.133 47.373,-175.695 51,-168 56.4213,-156.498 66.0063,-146.154 74.8492,-138.292"/>
<polygon fill="midnightblue" stroke="midnightblue" points="77.1847,-140.902 82.6208,-131.808 72.7002,-135.527 77.1847,-140.902"/>
</g>
<!-- Node10 -->
<g id="node10" class="node"><title>Node10</title>
<g id="a_node10"><a xlink:href="constraints_8h.html" target="_top" xlink:title="ViennaRNA/constraints.h">
<polygon fill="none" stroke="black" points="359,-112.5 359,-131.5 487,-131.5 487,-112.5 359,-112.5"/>
<text text-anchor="middle" x="423" y="-119.5" font-family="Helvetica,sans-Serif" font-size="10.00">ViennaRNA/constraints.h</text>
</a>
</g>
</g>
<!-- Node1&#45;&gt;Node10 -->
<g id="edge24" class="edge"><title>Node1&#45;&gt;Node10</title>
<path fill="none" stroke="midnightblue" d="M390.952,-348.973C394.99,-338.872 400.101,-324.822 403,-312 416.799,-250.967 421.129,-176.643 422.447,-142.212"/>
<polygon fill="midnightblue" stroke="midnightblue" points="425.959,-141.896 422.798,-131.784 418.963,-141.66 425.959,-141.896"/>
</g>
<!-- Node13 -->
<g id="node13" class="node"><title>Node13</title>
<g id="a_node13"><a xlink:href="energy__par_8h_source.html" target="_top" xlink:title="ViennaRNA/energy_par.h">
<polygon fill="none" stroke="black" points="451,-292.5 451,-311.5 579,-311.5 579,-292.5 451,-292.5"/>
<text text-anchor="middle" x="515" y="-299.5" font-family="Helvetica,sans-Serif" font-size="10.00">ViennaRNA/energy_par.h</text>
</a>
</g>
</g>
<!-- Node1&#45;&gt;Node13 -->
<g id="edge20" class="edge"><title>Node1&#45;&gt;Node13</title>
<path fill="none" stroke="midnightblue" d="M415.479,-348.933C437.118,-338.946 465.947,-325.64 487.006,-315.92"/>
<polygon fill="midnightblue" stroke="midnightblue" points="488.754,-318.969 496.367,-311.6 485.82,-312.613 488.754,-318.969"/>
</g>
<!-- Node3 -->
<g id="node3" class="node"><title>Node3</title>
<polygon fill="none" stroke="#bfbfbf" points="60,-168.5 60,-187.5 106,-187.5 106,-168.5 60,-168.5"/>
<text text-anchor="middle" x="83" y="-175.5" font-family="Helvetica,sans-Serif" font-size="10.00">stdio.h</text>
</g>
<!-- Node2&#45;&gt;Node3 -->
<g id="edge2" class="edge"><title>Node2&#45;&gt;Node3</title>
<path fill="none" stroke="midnightblue" d="M151.85,-300.196C118.4,-296.758 76.3,-286.148 54,-256 40.4003,-237.614 55.1516,-212.111 68.113,-195.582"/>
<polygon fill="midnightblue" stroke="midnightblue" points="70.8511,-197.764 74.5682,-187.842 65.4753,-193.28 70.8511,-197.764"/>
</g>
<!-- Node2&#45;&gt;Node4 -->
<g id="edge3" class="edge"><title>Node2&#45;&gt;Node4</title>
<path fill="none" stroke="midnightblue" d="M202.833,-292.379C205.941,-278.062 212.633,-248.528 220,-224 222.687,-215.055 226.107,-205.27 229.094,-197.115"/>
<polygon fill="midnightblue" stroke="midnightblue" points="232.45,-198.135 232.675,-187.542 225.893,-195.682 232.45,-198.135"/>
</g>
<!-- Node11 -->
<g id="node11" class="node"><title>Node11</title>
<g id="a_node11"><a xlink:href="string__utils_8h.html" target="_top" xlink:title="General utility&#45; and helper&#45;functions for RNA sequence and structure strings used throughout the Vien...">
<polygon fill="none" stroke="black" points="229.5,-230.5 229.5,-249.5 356.5,-249.5 356.5,-230.5 229.5,-230.5"/>
<text text-anchor="middle" x="293" y="-237.5" font-family="Helvetica,sans-Serif" font-size="10.00">ViennaRNA/string_utils.h</text>
</a>
</g>
</g>
<!-- Node2&#45;&gt;Node11 -->
<g id="edge15" class="edge"><title>Node2&#45;&gt;Node11</title>
<path fill="none" stroke="midnightblue" d="M214.181,-292.403C229.074,-282.691 253.544,-266.732 271.273,-255.17"/>
<polygon fill="midnightblue" stroke="midnightblue" points="273.379,-257.975 279.843,-249.581 269.555,-252.112 273.379,-257.975"/>
</g>
<!-- Node12 -->
<g id="node12" class="node"><title>Node12</title>
<g id="a_node12"><a xlink:href="structure__utils_8h.html" target="_top" xlink:title="Various utility&#45; and helper&#45;functions for secondary structure parsing, converting, etc. ">
<polygon fill="none" stroke="black" points="63,-225 63,-255 173,-255 173,-225 63,-225"/>
<text text-anchor="start" x="71" y="-243" font-family="Helvetica,sans-Serif" font-size="10.00">ViennaRNA/structure</text>
<text text-anchor="middle" x="118" y="-232" font-family="Helvetica,sans-Serif" font-size="10.00">_utils.h</text>
</a>
</g>
</g>
<!-- Node2&#45;&gt;Node12 -->
<g id="edge17" class="edge"><title>Node2&#45;&gt;Node12</title>
<path fill="none" stroke="midnightblue" d="M189.108,-292.403C177.867,-284.277 160.578,-271.779 145.863,-261.142"/>
<polygon fill="midnightblue" stroke="midnightblue" points="147.716,-258.163 137.561,-255.141 143.615,-263.836 147.716,-258.163"/>
</g>
<!-- Node5 -->
<g id="node5" class="node"><title>Node5</title>
<g id="a_node5"><a xlink:href="energy__const_8h.html" target="_top" xlink:title="ViennaRNA/energy_const.h">
<polygon fill="none" stroke="black" points="262,-56.5 262,-75.5 400,-75.5 400,-56.5 262,-56.5"/>
<text text-anchor="middle" x="331" y="-63.5" font-family="Helvetica,sans-Serif" font-size="10.00">ViennaRNA/energy_const.h</text>
</a>
</g>
</g>
<!-- Node4&#45;&gt;Node5 -->
<g id="edge4" class="edge"><title>Node4&#45;&gt;Node5</title>
<path fill="none" stroke="midnightblue" d="M259.112,-168.429C275.778,-161.133 297.611,-149.095 311,-132 321.455,-118.651 326.474,-99.8242 328.866,-85.8659"/>
<polygon fill="midnightblue" stroke="midnightblue" points="332.338,-86.3049 330.274,-75.9131 325.407,-85.324 332.338,-86.3049"/>
</g>
<!-- Node7 -->
<g id="node7" class="node"><title>Node7</title>
<g id="a_node7"><a xlink:href="model_8h.html" target="_top" xlink:title="The model details data structure and its corresponding modifiers. ">
<polygon fill="none" stroke="black" points="0,-56.5 0,-75.5 106,-75.5 106,-56.5 0,-56.5"/>
<text text-anchor="middle" x="53" y="-63.5" font-family="Helvetica,sans-Serif" font-size="10.00">ViennaRNA/model.h</text>
</a>
</g>
</g>
<!-- Node4&#45;&gt;Node7 -->
<g id="edge6" class="edge"><title>Node4&#45;&gt;Node7</title>
<path fill="none" stroke="midnightblue" d="M162.245,-170.551C110.082,-164.283 46.5868,-152.601 30,-132 18.6856,-117.947 28.6661,-97.9111 38.7887,-83.8079"/>
<polygon fill="midnightblue" stroke="midnightblue" points="41.5588,-85.9473 44.9208,-75.9 36.027,-81.6577 41.5588,-85.9473"/>
</g>
<!-- Node4&#45;&gt;Node8 -->
<g id="edge7" class="edge"><title>Node4&#45;&gt;Node8</title>
<path fill="none" stroke="midnightblue" d="M208.569,-168.444C183.415,-159.557 146.643,-145.563 121.722,-135.451"/>
<polygon fill="midnightblue" stroke="midnightblue" points="122.737,-132.084 112.157,-131.516 120.074,-138.558 122.737,-132.084"/>
</g>
<!-- Node9 -->
<g id="node9" class="node"><title>Node9</title>
<g id="a_node9"><a xlink:href="dp__matrices_8h.html" target="_top" xlink:title="ViennaRNA/dp_matrices.h">
<polygon fill="none" stroke="black" points="169.5,-112.5 169.5,-131.5 302.5,-131.5 302.5,-112.5 169.5,-112.5"/>
<text text-anchor="middle" x="236" y="-119.5" font-family="Helvetica,sans-Serif" font-size="10.00">ViennaRNA/dp_matrices.h</text>
</a>
</g>
</g>
<!-- Node4&#45;&gt;Node9 -->
<g id="edge11" class="edge"><title>Node4&#45;&gt;Node9</title>
<path fill="none" stroke="midnightblue" d="M230.834,-168.083C229.324,-160.927 228.894,-150.635 229.542,-141.691"/>
<polygon fill="midnightblue" stroke="midnightblue" points="233.015,-142.126 230.869,-131.751 226.077,-141.2 233.015,-142.126"/>
</g>
<!-- Node4&#45;&gt;Node10 -->
<g id="edge13" class="edge"><title>Node4&#45;&gt;Node10</title>
<path fill="none" stroke="midnightblue" d="M260.542,-168.444C290.521,-159.201 341.482,-144.436 378.413,-134.257"/>
<polygon fill="midnightblue" stroke="midnightblue" points="379.706,-137.532 388.428,-131.516 377.859,-130.78 379.706,-137.532"/>
</g>
<!-- Node6 -->
<g id="node6" class="node"><title>Node6</title>
<polygon fill="none" stroke="#bfbfbf" points="307,-0.5 307,-19.5 355,-19.5 355,-0.5 307,-0.5"/>
<text text-anchor="middle" x="331" y="-7.5" font-family="Helvetica,sans-Serif" font-size="10.00">limits.h</text>
</g>
<!-- Node5&#45;&gt;Node6 -->
<g id="edge5" class="edge"><title>Node5&#45;&gt;Node6</title>
<path fill="none" stroke="midnightblue" d="M331,-56.083C331,-49.0059 331,-38.8611 331,-29.9865"/>
<polygon fill="midnightblue" stroke="midnightblue" points="334.5,-29.751 331,-19.7511 327.5,-29.7511 334.5,-29.751"/>
</g>
<!-- Node8&#45;&gt;Node4 -->
<g id="edge9" class="edge"><title>Node8&#45;&gt;Node4</title>
<path fill="none" stroke="midnightblue" d="M122.317,-131.516C147.548,-140.427 184.536,-154.504 209.498,-164.638"/>
<polygon fill="midnightblue" stroke="midnightblue" points="208.167,-167.875 218.747,-168.444 210.831,-161.402 208.167,-167.875"/>
</g>
<!-- Node8&#45;&gt;Node5 -->
<g id="edge8" class="edge"><title>Node8&#45;&gt;Node5</title>
<path fill="none" stroke="midnightblue" d="M132.395,-112.444C173.392,-103.063 239.254,-87.9926 283.784,-77.8036"/>
<polygon fill="midnightblue" stroke="midnightblue" points="284.813,-81.1588 293.78,-75.5164 283.251,-74.3352 284.813,-81.1588"/>
</g>
<!-- Node8&#45;&gt;Node7 -->
<g id="edge10" class="edge"><title>Node8&#45;&gt;Node7</title>
<path fill="none" stroke="midnightblue" d="M88.0646,-112.083C82.0708,-104.377 73.2482,-93.0333 65.9524,-83.6531"/>
<polygon fill="midnightblue" stroke="midnightblue" points="68.7086,-81.4958 59.8064,-75.7511 63.1831,-85.7934 68.7086,-81.4958"/>
</g>
<!-- Node9&#45;&gt;Node4 -->
<g id="edge12" class="edge"><title>Node9&#45;&gt;Node4</title>
<path fill="none" stroke="midnightblue" d="M241.131,-131.751C242.657,-138.858 243.104,-149.136 242.472,-158.101"/>
<polygon fill="midnightblue" stroke="midnightblue" points="238.993,-157.713 241.166,-168.083 245.934,-158.622 238.993,-157.713"/>
</g>
<!-- Node10&#45;&gt;Node4 -->
<g id="edge14" class="edge"><title>Node10&#45;&gt;Node4</title>
<path fill="none" stroke="midnightblue" d="M398.588,-131.516C368.67,-140.743 317.719,-155.507 280.748,-165.699"/>
<polygon fill="midnightblue" stroke="midnightblue" points="279.441,-162.428 270.719,-168.444 281.289,-169.179 279.441,-162.428"/>
</g>
<!-- Node11&#45;&gt;Node4 -->
<g id="edge16" class="edge"><title>Node11&#45;&gt;Node4</title>
<path fill="none" stroke="midnightblue" d="M284.833,-230.403C276.114,-221.225 262.096,-206.47 251.311,-195.117"/>
<polygon fill="midnightblue" stroke="midnightblue" points="253.577,-192.42 244.152,-187.581 248.502,-197.241 253.577,-192.42"/>
</g>
<!-- Node12&#45;&gt;Node3 -->
<g id="edge18" class="edge"><title>Node12&#45;&gt;Node3</title>
<path fill="none" stroke="midnightblue" d="M109.705,-224.781C104.777,-216.332 98.4864,-205.548 93.2488,-196.569"/>
<polygon fill="midnightblue" stroke="midnightblue" points="96.1548,-194.605 88.0928,-187.731 90.1083,-198.132 96.1548,-194.605"/>
</g>
<!-- Node12&#45;&gt;Node4 -->
<g id="edge19" class="edge"><title>Node12&#45;&gt;Node4</title>
<path fill="none" stroke="midnightblue" d="M145.666,-224.933C165.129,-215.036 191.002,-201.88 210.069,-192.185"/>
<polygon fill="midnightblue" stroke="midnightblue" points="211.759,-195.252 219.087,-187.6 208.586,-189.013 211.759,-195.252"/>
</g>
<!-- Node13&#45;&gt;Node5 -->
<g id="edge21" class="edge"><title>Node13&#45;&gt;Node5</title>
<path fill="none" stroke="midnightblue" d="M517.219,-292.174C524.073,-262.644 541.805,-166.121 496,-112 483.047,-96.6953 437.839,-85.0146 398.013,-77.3937"/>
<polygon fill="midnightblue" stroke="midnightblue" points="398.497,-73.9239 388.027,-75.5439 397.222,-80.8068 398.497,-73.9239"/>
</g>
</g>
</svg>
        <g id="navigator" transform="translate(0 0)" fill="#404254">
                <rect fill="#f2f5e9" fill-opacity="0.5" stroke="#606060" stroke-width=".5" x="0" y="0" width="60" height="60"/>
                <use id="zoomplus" xlink:href="#zoomPlus" x="17" y="9" onmousedown="handleZoom(evt,'in')"/>
                <use id="zoomminus" xlink:href="#zoomMin" x="42" y="9" onmousedown="handleZoom(evt,'out')"/>
                <use id="reset" xlink:href="#resetDef" x="30" y="36" onmousedown="handleReset()"/>
                <g id="arrowUp" xlink:href="#dirArrow" transform="translate(30 24)" onmousedown="handlePan(0,-1)">
                  <use xlink:href="#rim" fill="#404040">
                        <set attributeName="fill" to="#808080" begin="arrowUp.mouseover" end="arrowUp.mouseout"/>
                  </use>
                  <path fill="none" stroke="white" stroke-width="1.5" d="M0,-3.0v7 M-2.5,-0.5L0,-3.0L2.5,-0.5"/>
                </g>
                <g id="arrowRight" xlink:href="#dirArrow" transform="rotate(90) translate(36 -43)" onmousedown="handlePan(1,0)">
                  <use xlink:href="#rim" fill="#404040">
                        <set attributeName="fill" to="#808080" begin="arrowRight.mouseover" end="arrowRight.mouseout"/>
                  </use>
                  <path fill="none" stroke="white" stroke-width="1.5" d="M0,-3.0v7 M-2.5,-0.5L0,-3.0L2.5,-0.5"/>
                </g>
                <g id="arrowDown" xlink:href="#dirArrow" transform="rotate(180) translate(-30 -48)" onmousedown="handlePan(0,1)">
                  <use xlink:href="#rim" fill="#404040">
                        <set attributeName="fill" to="#808080" begin="arrowDown.mouseover" end="arrowDown.mouseout"/>
                  </use>
                  <path fill="none" stroke="white" stroke-width="1.5" d="M0,-3.0v7 M-2.5,-0.5L0,-3.0L2.5,-0.5"/>
                </g>
                <g id="arrowLeft" xlink:href="#dirArrow" transform="rotate(270) translate(-36 17)" onmousedown="handlePan(-1,0)">
                  <use xlink:href="#rim" fill="#404040">
                        <set attributeName="fill" to="#808080" begin="arrowLeft.mouseover" end="arrowLeft.mouseout"/>
                  </use>
                  <path fill="none" stroke="white" stroke-width="1.5" d="M0,-3.0v7 M-2.5,-0.5L0,-3.0L2.5,-0.5"/>
                </g>
        </g>
        <svg viewBox="0 0 15 15" width="100%" height="30px" preserveAspectRatio="xMaxYMin meet">
         <g id="arrow_out" transform="scale(0.3 0.3)">
          <a xlink:href="interior__loops_8h__incl_org.svg" target="_base">
           <rect id="button" ry="5" rx="5" y="6" x="6" height="38" width="38"
                fill="#f2f5e9" fill-opacity="0.5" stroke="#606060" stroke-width="1.0"/>
           <path id="arrow"
             d="M 11.500037,31.436501 C 11.940474,20.09759 22.043105,11.32322 32.158766,21.979434 L 37.068811,17.246167 C 37.068811,17.246167 37.088388,32 37.088388,32 L 22.160133,31.978069 C 22.160133,31.978069 26.997745,27.140456 26.997745,27.140456 C 18.528582,18.264221 13.291696,25.230495 11.500037,31.436501 z"
             style="fill:#404040;"/>
          </a>
         </g>
        </svg>
</svg>
