<?xml version="1.0" encoding="UTF-8" standalone="no"?>
<!DOCTYPE svg PUBLIC "-//W3C//DTD SVG 1.1//EN"
 "http://www.w3.org/Graphics/SVG/1.1/DTD/svg11.dtd">
<!-- Generated by graphviz version 2.36.0 (20140111.2315)
 -->
<!-- Title: ViennaRNA/loop_energies.h Pages: 1 -->
<!--zoomable 444 -->
<svg id="main" version="1.1" xmlns="http://www.w3.org/2000/svg" xmlns:xlink="http://www.w3.org/1999/xlink" xml:space="preserve" onload="init(evt)">
<style type="text/css"><![CDATA[
.edge:hover path { stroke: red; }
.edge:hover polygon { stroke: red; fill: red; }
]]></style>
<script type="text/javascript"><![CDATA[
var edges = document.getElementsByTagName('g');
if (edges && edges.length) {
  for (var i=0;i<edges.length;i++) {
    if (edges[i].id.substr(0,4)=='edge') {
      edges[i].setAttribute('class','edge');
    }
  }
}
]]></script>
        <defs>
                <circle id="rim" cx="0" cy="0" r="7"/>
                <circle id="rim2" cx="0" cy="0" r="3.5"/>
                <g id="zoomPlus">
                        <use xlink:href="#rim" fill="#404040">
                                <set attributeName="fill" to="#808080" begin="zoomplus.mouseover" end="zoomplus.mouseout"/>
                        </use>
                        <path d="M-4,0h8M0,-4v8" fill="none" stroke="white" stroke-width="1.5" pointer-events="none"/>
                </g>
                <g id="zoomMin">
                        <use xlink:href="#rim" fill="#404040">
                                <set attributeName="fill" to="#808080" begin="zoomminus.mouseover" end="zoomminus.mouseout"/>
                        </use>
                        <path d="M-4,0h8" fill="none" stroke="white" stroke-width="1.5" pointer-events="none"/>
                </g>
                <g id="dirArrow">
                        <path fill="none" stroke="white" stroke-width="1.5" d="M0,-3.0v7 M-2.5,-0.5L0,-3.0L2.5,-0.5"/>
                </g>
               <g id="resetDef">
                       <use xlink:href="#rim2" fill="#404040">
                               <set attributeName="fill" to="#808080" begin="reset.mouseover" end="reset.mouseout"/>
                       </use>
               </g>
        </defs>

<script type="text/javascript">
var viewWidth = 917;
var viewHeight = 444;
var sectionId = 'dynsection-0';
</script>
<script xlink:href="svgpan.js"/>
<svg id="graph" class="graph">
<g id="viewport">
<title>ViennaRNA/loop_energies.h</title>
<!-- Node1 -->
<g id="node1" class="node"><title>Node1</title>
<polygon fill="#bfbfbf" stroke="black" points="171.617,-416.5 171.617,-435.5 311.617,-435.5 311.617,-416.5 171.617,-416.5"/>
<text text-anchor="middle" x="241.617" y="-423.5" font-family="Helvetica,sans-Serif" font-size="10.00">ViennaRNA/loop_energies.h</text>
</g>
<!-- Node2 -->
<g id="node2" class="node"><title>Node2</title>
<g id="a_node2"><a xlink:href="exterior__loops_8h.html" target="_top" xlink:title="Energy evaluation of exterior loops for MFE and partition function calculations. ">
<polygon fill="none" stroke="black" points="118.617,-225 118.617,-255 222.617,-255 222.617,-225 118.617,-225"/>
<text text-anchor="start" x="126.617" y="-243" font-family="Helvetica,sans-Serif" font-size="10.00">ViennaRNA/exterior</text>
<text text-anchor="middle" x="170.617" y="-232" font-family="Helvetica,sans-Serif" font-size="10.00">_loops.h</text>
</a>
</g>
</g>
<!-- Node1&#45;&gt;Node2 -->
<g id="edge1" class="edge"><title>Node1&#45;&gt;Node2</title>
<path fill="none" stroke="midnightblue" d="M236.395,-416.248C231.208,-407.331 223.238,-393.004 217.617,-380 200.588,-340.605 185.617,-292.86 177.37,-264.818"/>
<polygon fill="midnightblue" stroke="midnightblue" points="180.697,-263.723 174.549,-255.094 173.974,-265.673 180.697,-263.723"/>
</g>
<!-- Node10 -->
<g id="node10" class="node"><title>Node10</title>
<g id="a_node10"><a xlink:href="hairpin__loops_8h.html" target="_top" xlink:title="Energy evaluation of hairpin loops for MFE and partition function calculations. ">
<polygon fill="none" stroke="black" points="25.117,-354.5 25.117,-373.5 162.117,-373.5 162.117,-354.5 25.117,-354.5"/>
<text text-anchor="middle" x="93.617" y="-361.5" font-family="Helvetica,sans-Serif" font-size="10.00">ViennaRNA/hairpin_loops.h</text>
</a>
</g>
</g>
<!-- Node1&#45;&gt;Node10 -->
<g id="edge15" class="edge"><title>Node1&#45;&gt;Node10</title>
<path fill="none" stroke="midnightblue" d="M220.412,-416.403C195.245,-406.2 153.077,-389.105 124.338,-377.454"/>
<polygon fill="midnightblue" stroke="midnightblue" points="125.365,-374.094 114.782,-373.581 122.735,-380.581 125.365,-374.094"/>
</g>
<!-- Node17 -->
<g id="node17" class="node"><title>Node17</title>
<g id="a_node17"><a xlink:href="interior__loops_8h.html" target="_top" xlink:title="Energy evaluation of interior loops for MFE and partition function calculations. ">
<polygon fill="none" stroke="black" points="645.117,-349 645.117,-379 746.117,-379 746.117,-349 645.117,-349"/>
<text text-anchor="start" x="653.117" y="-367" font-family="Helvetica,sans-Serif" font-size="10.00">ViennaRNA/interior</text>
<text text-anchor="middle" x="695.617" y="-356" font-family="Helvetica,sans-Serif" font-size="10.00">_loops.h</text>
</a>
</g>
</g>
<!-- Node1&#45;&gt;Node17 -->
<g id="edge28" class="edge"><title>Node1&#45;&gt;Node17</title>
<path fill="none" stroke="midnightblue" d="M306.182,-416.467C393.811,-404.886 549.257,-384.343 634.865,-373.029"/>
<polygon fill="midnightblue" stroke="midnightblue" points="635.495,-376.476 644.95,-371.696 634.578,-369.537 635.495,-376.476"/>
</g>
<!-- Node19 -->
<g id="node19" class="node"><title>Node19</title>
<g id="a_node19"><a xlink:href="multibranch__loops_8h.html" target="_top" xlink:title="Energy evaluation of multibranch loops for MFE and partition function calculations. ">
<polygon fill="none" stroke="black" points="226.617,-349 226.617,-379 348.617,-379 348.617,-349 226.617,-349"/>
<text text-anchor="start" x="234.617" y="-367" font-family="Helvetica,sans-Serif" font-size="10.00">ViennaRNA/multibranch</text>
<text text-anchor="middle" x="287.617" y="-356" font-family="Helvetica,sans-Serif" font-size="10.00">_loops.h</text>
</a>
</g>
</g>
<!-- Node1&#45;&gt;Node19 -->
<g id="edge35" class="edge"><title>Node1&#45;&gt;Node19</title>
<path fill="none" stroke="midnightblue" d="M248.208,-416.403C254.03,-408.809 262.78,-397.396 270.557,-387.252"/>
<polygon fill="midnightblue" stroke="midnightblue" points="273.469,-389.206 276.776,-379.141 267.914,-384.947 273.469,-389.206"/>
</g>
<!-- Node3 -->
<g id="node3" class="node"><title>Node3</title>
<g id="a_node3"><a xlink:href="data__structures_8h.html" target="_top" xlink:title="ViennaRNA/data_structures.h">
<polygon fill="none" stroke="black" points="299.117,-168.5 299.117,-187.5 446.117,-187.5 446.117,-168.5 299.117,-168.5"/>
<text text-anchor="middle" x="372.617" y="-175.5" font-family="Helvetica,sans-Serif" font-size="10.00">ViennaRNA/data_structures.h</text>
</a>
</g>
</g>
<!-- Node2&#45;&gt;Node3 -->
<g id="edge2" class="edge"><title>Node2&#45;&gt;Node3</title>
<path fill="none" stroke="midnightblue" d="M217.977,-224.933C253.38,-214.417 301.169,-200.222 334.208,-190.409"/>
<polygon fill="midnightblue" stroke="midnightblue" points="335.368,-193.715 343.958,-187.513 333.375,-187.005 335.368,-193.715"/>
</g>
<!-- Node7 -->
<g id="node7" class="node"><title>Node7</title>
<g id="a_node7"><a xlink:href="params_8h.html" target="_top" xlink:title="ViennaRNA/params.h">
<polygon fill="none" stroke="black" points="194.617,-112.5 194.617,-131.5 306.617,-131.5 306.617,-112.5 194.617,-112.5"/>
<text text-anchor="middle" x="250.617" y="-119.5" font-family="Helvetica,sans-Serif" font-size="10.00">ViennaRNA/params.h</text>
</a>
</g>
</g>
<!-- Node2&#45;&gt;Node7 -->
<g id="edge14" class="edge"><title>Node2&#45;&gt;Node7</title>
<path fill="none" stroke="midnightblue" d="M180.427,-224.776C195.168,-203.401 222.989,-163.06 238.818,-140.108"/>
<polygon fill="midnightblue" stroke="midnightblue" points="241.816,-141.926 244.612,-131.707 236.054,-137.952 241.816,-141.926"/>
</g>
<!-- Node4 -->
<g id="node4" class="node"><title>Node4</title>
<g id="a_node4"><a xlink:href="energy__const_8h.html" target="_top" xlink:title="ViennaRNA/energy_const.h">
<polygon fill="none" stroke="black" points="321.617,-56.5 321.617,-75.5 459.617,-75.5 459.617,-56.5 321.617,-56.5"/>
<text text-anchor="middle" x="390.617" y="-63.5" font-family="Helvetica,sans-Serif" font-size="10.00">ViennaRNA/energy_const.h</text>
</a>
</g>
</g>
<!-- Node3&#45;&gt;Node4 -->
<g id="edge3" class="edge"><title>Node3&#45;&gt;Node4</title>
<path fill="none" stroke="midnightblue" d="M374.029,-168.368C376.934,-150.617 383.635,-109.666 387.574,-85.5974"/>
<polygon fill="midnightblue" stroke="midnightblue" points="391.05,-86.0254 389.211,-75.5914 384.142,-84.8949 391.05,-86.0254"/>
</g>
<!-- Node6 -->
<g id="node6" class="node"><title>Node6</title>
<g id="a_node6"><a xlink:href="model_8h.html" target="_top" xlink:title="The model details data structure and its corresponding modifiers. ">
<polygon fill="none" stroke="black" points="197.617,-56.5 197.617,-75.5 303.617,-75.5 303.617,-56.5 197.617,-56.5"/>
<text text-anchor="middle" x="250.617" y="-63.5" font-family="Helvetica,sans-Serif" font-size="10.00">ViennaRNA/model.h</text>
</a>
</g>
</g>
<!-- Node3&#45;&gt;Node6 -->
<g id="edge5" class="edge"><title>Node3&#45;&gt;Node6</title>
<path fill="none" stroke="midnightblue" d="M366.033,-168.435C355.816,-155.436 335.174,-130.306 314.617,-112 301.802,-100.588 286.048,-89.4804 273.378,-81.1559"/>
<polygon fill="midnightblue" stroke="midnightblue" points="275.086,-78.0926 264.783,-75.6217 271.296,-83.9781 275.086,-78.0926"/>
</g>
<!-- Node3&#45;&gt;Node7 -->
<g id="edge6" class="edge"><title>Node3&#45;&gt;Node7</title>
<path fill="none" stroke="midnightblue" d="M348.197,-168.444C326.463,-159.675 295.169,-145.935 273.818,-135.858"/>
<polygon fill="midnightblue" stroke="midnightblue" points="275.307,-132.691 264.778,-131.516 272.277,-139.001 275.307,-132.691"/>
</g>
<!-- Node8 -->
<g id="node8" class="node"><title>Node8</title>
<g id="a_node8"><a xlink:href="dp__matrices_8h.html" target="_top" xlink:title="ViennaRNA/dp_matrices.h">
<polygon fill="none" stroke="black" points="401.117,-112.5 401.117,-131.5 534.117,-131.5 534.117,-112.5 401.117,-112.5"/>
<text text-anchor="middle" x="467.617" y="-119.5" font-family="Helvetica,sans-Serif" font-size="10.00">ViennaRNA/dp_matrices.h</text>
</a>
</g>
</g>
<!-- Node3&#45;&gt;Node8 -->
<g id="edge10" class="edge"><title>Node3&#45;&gt;Node8</title>
<path fill="none" stroke="midnightblue" d="M382.766,-168.324C396.065,-159.703 419.263,-146.364 438.148,-136.386"/>
<polygon fill="midnightblue" stroke="midnightblue" points="440.012,-139.362 447.281,-131.655 436.792,-133.146 440.012,-139.362"/>
</g>
<!-- Node9 -->
<g id="node9" class="node"><title>Node9</title>
<g id="a_node9"><a xlink:href="constraints_8h.html" target="_top" xlink:title="ViennaRNA/constraints.h">
<polygon fill="none" stroke="black" points="552.617,-112.5 552.617,-131.5 680.617,-131.5 680.617,-112.5 552.617,-112.5"/>
<text text-anchor="middle" x="616.617" y="-119.5" font-family="Helvetica,sans-Serif" font-size="10.00">ViennaRNA/constraints.h</text>
</a>
</g>
</g>
<!-- Node3&#45;&gt;Node9 -->
<g id="edge12" class="edge"><title>Node3&#45;&gt;Node9</title>
<path fill="none" stroke="midnightblue" d="M406.191,-168.444C446.775,-159.004 515.328,-143.802 563.177,-133.611"/>
<polygon fill="midnightblue" stroke="midnightblue" points="563.999,-137.015 573.055,-131.516 562.547,-130.167 563.999,-137.015"/>
</g>
<!-- Node5 -->
<g id="node5" class="node"><title>Node5</title>
<polygon fill="none" stroke="#bfbfbf" points="366.617,-0.5 366.617,-19.5 414.617,-19.5 414.617,-0.5 366.617,-0.5"/>
<text text-anchor="middle" x="390.617" y="-7.5" font-family="Helvetica,sans-Serif" font-size="10.00">limits.h</text>
</g>
<!-- Node4&#45;&gt;Node5 -->
<g id="edge4" class="edge"><title>Node4&#45;&gt;Node5</title>
<path fill="none" stroke="midnightblue" d="M390.617,-56.083C390.617,-49.0059 390.617,-38.8611 390.617,-29.9865"/>
<polygon fill="midnightblue" stroke="midnightblue" points="394.117,-29.751 390.617,-19.7511 387.117,-29.7511 394.117,-29.751"/>
</g>
<!-- Node7&#45;&gt;Node3 -->
<g id="edge8" class="edge"><title>Node7&#45;&gt;Node3</title>
<path fill="none" stroke="midnightblue" d="M275.28,-131.655C296.899,-140.385 327.847,-153.972 349.111,-163.998"/>
<polygon fill="midnightblue" stroke="midnightblue" points="347.6,-167.155 358.13,-168.324 350.627,-160.844 347.6,-167.155"/>
</g>
<!-- Node7&#45;&gt;Node4 -->
<g id="edge7" class="edge"><title>Node7&#45;&gt;Node4</title>
<path fill="none" stroke="midnightblue" d="M272.8,-112.444C296.045,-103.478 332.766,-89.314 359.032,-79.1827"/>
<polygon fill="midnightblue" stroke="midnightblue" points="360.467,-82.3807 368.537,-75.5164 357.948,-75.8497 360.467,-82.3807"/>
</g>
<!-- Node7&#45;&gt;Node6 -->
<g id="edge9" class="edge"><title>Node7&#45;&gt;Node6</title>
<path fill="none" stroke="midnightblue" d="M250.617,-112.083C250.617,-105.006 250.617,-94.8611 250.617,-85.9865"/>
<polygon fill="midnightblue" stroke="midnightblue" points="254.117,-85.751 250.617,-75.7511 247.117,-85.7511 254.117,-85.751"/>
</g>
<!-- Node8&#45;&gt;Node3 -->
<g id="edge11" class="edge"><title>Node8&#45;&gt;Node3</title>
<path fill="none" stroke="midnightblue" d="M457.502,-131.655C444.219,-140.267 421.025,-153.605 402.133,-163.59"/>
<polygon fill="midnightblue" stroke="midnightblue" points="400.264,-160.616 392.995,-168.324 403.484,-166.831 400.264,-160.616"/>
</g>
<!-- Node9&#45;&gt;Node3 -->
<g id="edge13" class="edge"><title>Node9&#45;&gt;Node3</title>
<path fill="none" stroke="midnightblue" d="M583.215,-131.516C542.711,-140.94 474.167,-156.141 426.26,-166.346"/>
<polygon fill="midnightblue" stroke="midnightblue" points="425.425,-162.945 416.368,-168.444 426.877,-169.793 425.425,-162.945"/>
</g>
<!-- Node10&#45;&gt;Node3 -->
<g id="edge26" class="edge"><title>Node10&#45;&gt;Node3</title>
<path fill="none" stroke="midnightblue" d="M64.7595,-354.495C32.6682,-343.383 -12.6573,-321.775 3.61697,-292 30.4614,-242.886 57.4314,-244.236 109.617,-224 167.233,-201.658 236.219,-190.381 289.079,-184.704"/>
<polygon fill="midnightblue" stroke="midnightblue" points="289.501,-188.18 299.091,-183.675 288.785,-181.216 289.501,-188.18"/>
</g>
<!-- Node10&#45;&gt;Node7 -->
<g id="edge27" class="edge"><title>Node10&#45;&gt;Node7</title>
<path fill="none" stroke="midnightblue" d="M92.3482,-354.435C89.3932,-331.471 84.1147,-267.336 109.617,-224 134.914,-181.012 186.509,-151.368 219.778,-135.798"/>
<polygon fill="midnightblue" stroke="midnightblue" points="221.385,-138.912 229.051,-131.599 218.497,-132.536 221.385,-138.912"/>
</g>
<!-- Node11 -->
<g id="node11" class="node"><title>Node11</title>
<polygon fill="none" stroke="#bfbfbf" points="119.117,-292.5 119.117,-311.5 166.117,-311.5 166.117,-292.5 119.117,-292.5"/>
<text text-anchor="middle" x="142.617" y="-299.5" font-family="Helvetica,sans-Serif" font-size="10.00">math.h</text>
</g>
<!-- Node10&#45;&gt;Node11 -->
<g id="edge16" class="edge"><title>Node10&#45;&gt;Node11</title>
<path fill="none" stroke="midnightblue" d="M100.637,-354.403C108.06,-345.314 119.95,-330.756 129.184,-319.449"/>
<polygon fill="midnightblue" stroke="midnightblue" points="131.995,-321.54 135.609,-311.581 126.573,-317.112 131.995,-321.54"/>
</g>
<!-- Node12 -->
<g id="node12" class="node"><title>Node12</title>
<polygon fill="none" stroke="#bfbfbf" points="13.117,-292.5 13.117,-311.5 62.117,-311.5 62.117,-292.5 13.117,-292.5"/>
<text text-anchor="middle" x="37.617" y="-299.5" font-family="Helvetica,sans-Serif" font-size="10.00">string.h</text>
</g>
<!-- Node10&#45;&gt;Node12 -->
<g id="edge17" class="edge"><title>Node10&#45;&gt;Node12</title>
<path fill="none" stroke="midnightblue" d="M85.5935,-354.403C77.0272,-345.225 63.2555,-330.47 52.6598,-319.117"/>
<polygon fill="midnightblue" stroke="midnightblue" points="55.0074,-316.503 45.6255,-311.581 49.89,-321.279 55.0074,-316.503"/>
</g>
<!-- Node13 -->
<g id="node13" class="node"><title>Node13</title>
<g id="a_node13"><a xlink:href="utils_8h.html" target="_top" xlink:title="General utility&#45; and helper&#45;functions used throughout the ViennaRNA Package. ">
<polygon fill="none" stroke="black" points="369.617,-292.5 369.617,-311.5 467.617,-311.5 467.617,-292.5 369.617,-292.5"/>
<text text-anchor="middle" x="418.617" y="-299.5" font-family="Helvetica,sans-Serif" font-size="10.00">ViennaRNA/utils.h</text>
</a>
</g>
</g>
<!-- Node10&#45;&gt;Node13 -->
<g id="edge18" class="edge"><title>Node10&#45;&gt;Node13</title>
<path fill="none" stroke="midnightblue" d="M139.836,-354.467C198.436,-343.649 299.403,-325.009 362.402,-313.378"/>
<polygon fill="midnightblue" stroke="midnightblue" points="363.359,-316.761 372.557,-311.503 362.088,-309.877 363.359,-316.761"/>
</g>
<!-- Node13&#45;&gt;Node3 -->
<g id="edge20" class="edge"><title>Node13&#45;&gt;Node3</title>
<path fill="none" stroke="midnightblue" d="M392.406,-292.414C375.767,-285.445 355.56,-273.809 345.617,-256 334.78,-236.588 347.377,-212.039 358.749,-195.947"/>
<polygon fill="midnightblue" stroke="midnightblue" points="361.546,-198.05 364.784,-187.963 355.962,-193.829 361.546,-198.05"/>
</g>
<!-- Node14 -->
<g id="node14" class="node"><title>Node14</title>
<polygon fill="none" stroke="#bfbfbf" points="567.617,-168.5 567.617,-187.5 613.617,-187.5 613.617,-168.5 567.617,-168.5"/>
<text text-anchor="middle" x="590.617" y="-175.5" font-family="Helvetica,sans-Serif" font-size="10.00">stdio.h</text>
</g>
<!-- Node13&#45;&gt;Node14 -->
<g id="edge19" class="edge"><title>Node13&#45;&gt;Node14</title>
<path fill="none" stroke="midnightblue" d="M467.839,-296.916C521.103,-291.355 600.952,-279.306 619.617,-256 633.913,-238.15 618.987,-212.512 605.797,-195.808"/>
<polygon fill="midnightblue" stroke="midnightblue" points="608.332,-193.384 599.222,-187.975 602.971,-197.885 608.332,-193.384"/>
</g>
<!-- Node15 -->
<g id="node15" class="node"><title>Node15</title>
<g id="a_node15"><a xlink:href="string__utils_8h.html" target="_top" xlink:title="General utility&#45; and helper&#45;functions for RNA sequence and structure strings used throughout the Vien...">
<polygon fill="none" stroke="black" points="355.117,-230.5 355.117,-249.5 482.117,-249.5 482.117,-230.5 355.117,-230.5"/>
<text text-anchor="middle" x="418.617" y="-237.5" font-family="Helvetica,sans-Serif" font-size="10.00">ViennaRNA/string_utils.h</text>
</a>
</g>
</g>
<!-- Node13&#45;&gt;Node15 -->
<g id="edge21" class="edge"><title>Node13&#45;&gt;Node15</title>
<path fill="none" stroke="midnightblue" d="M418.617,-292.403C418.617,-283.938 418.617,-270.728 418.617,-259.82"/>
<polygon fill="midnightblue" stroke="midnightblue" points="422.117,-259.581 418.617,-249.581 415.117,-259.581 422.117,-259.581"/>
</g>
<!-- Node16 -->
<g id="node16" class="node"><title>Node16</title>
<g id="a_node16"><a xlink:href="structure__utils_8h.html" target="_top" xlink:title="Various utility&#45; and helper&#45;functions for secondary structure parsing, converting, etc. ">
<polygon fill="none" stroke="black" points="500.617,-225 500.617,-255 610.617,-255 610.617,-225 500.617,-225"/>
<text text-anchor="start" x="508.617" y="-243" font-family="Helvetica,sans-Serif" font-size="10.00">ViennaRNA/structure</text>
<text text-anchor="middle" x="555.617" y="-232" font-family="Helvetica,sans-Serif" font-size="10.00">_utils.h</text>
</a>
</g>
</g>
<!-- Node13&#45;&gt;Node16 -->
<g id="edge23" class="edge"><title>Node13&#45;&gt;Node16</title>
<path fill="none" stroke="midnightblue" d="M438.246,-292.403C457.993,-283.755 489.048,-270.155 514.254,-259.115"/>
<polygon fill="midnightblue" stroke="midnightblue" points="515.837,-262.243 523.593,-255.025 513.028,-255.831 515.837,-262.243"/>
</g>
<!-- Node15&#45;&gt;Node3 -->
<g id="edge22" class="edge"><title>Node15&#45;&gt;Node3</title>
<path fill="none" stroke="midnightblue" d="M412.026,-230.403C405.126,-221.403 394.115,-207.041 385.483,-195.782"/>
<polygon fill="midnightblue" stroke="midnightblue" points="388.057,-193.387 379.195,-187.581 382.502,-197.646 388.057,-193.387"/>
</g>
<!-- Node16&#45;&gt;Node3 -->
<g id="edge25" class="edge"><title>Node16&#45;&gt;Node3</title>
<path fill="none" stroke="midnightblue" d="M512.712,-224.933C480.915,-214.508 438.09,-200.467 408.191,-190.663"/>
<polygon fill="midnightblue" stroke="midnightblue" points="409.173,-187.302 398.581,-187.513 406.993,-193.954 409.173,-187.302"/>
</g>
<!-- Node16&#45;&gt;Node14 -->
<g id="edge24" class="edge"><title>Node16&#45;&gt;Node14</title>
<path fill="none" stroke="midnightblue" d="M563.911,-224.781C568.84,-216.332 575.131,-205.548 580.368,-196.569"/>
<polygon fill="midnightblue" stroke="midnightblue" points="583.509,-198.132 585.524,-187.731 577.462,-194.605 583.509,-198.132"/>
</g>
<!-- Node17&#45;&gt;Node3 -->
<g id="edge32" class="edge"><title>Node17&#45;&gt;Node3</title>
<path fill="none" stroke="midnightblue" d="M692.252,-348.873C684.654,-320.271 663.323,-255.555 619.617,-224 593.882,-205.42 517.484,-193.416 456.399,-186.519"/>
<polygon fill="midnightblue" stroke="midnightblue" points="456.673,-183.028 446.35,-185.415 455.908,-189.987 456.673,-183.028"/>
</g>
<!-- Node17&#45;&gt;Node7 -->
<g id="edge33" class="edge"><title>Node17&#45;&gt;Node7</title>
<path fill="none" stroke="midnightblue" d="M695.049,-348.858C692.75,-312.25 681.147,-214.037 622.617,-168 599.105,-149.506 417.343,-134.357 316.87,-127.294"/>
<polygon fill="midnightblue" stroke="midnightblue" points="317.035,-123.797 306.816,-126.595 316.549,-130.78 317.035,-123.797"/>
</g>
<!-- Node17&#45;&gt;Node9 -->
<g id="edge34" class="edge"><title>Node17&#45;&gt;Node9</title>
<path fill="none" stroke="midnightblue" d="M699.557,-348.785C708.113,-314.815 724.991,-227.34 690.617,-168 682.147,-153.378 666.852,-142.922 652.358,-135.792"/>
<polygon fill="midnightblue" stroke="midnightblue" points="653.582,-132.504 643.028,-131.576 650.7,-138.883 653.582,-132.504"/>
</g>
<!-- Node17&#45;&gt;Node13 -->
<g id="edge29" class="edge"><title>Node17&#45;&gt;Node13</title>
<path fill="none" stroke="midnightblue" d="M644.811,-351.995C594.4,-341.076 517.657,-324.453 467.815,-313.657"/>
<polygon fill="midnightblue" stroke="midnightblue" points="468.428,-310.208 457.914,-311.512 466.946,-317.05 468.428,-310.208"/>
</g>
<!-- Node18 -->
<g id="node18" class="node"><title>Node18</title>
<g id="a_node18"><a xlink:href="energy__par_8h_source.html" target="_top" xlink:title="ViennaRNA/energy_par.h">
<polygon fill="none" stroke="black" points="780.617,-168.5 780.617,-187.5 908.617,-187.5 908.617,-168.5 780.617,-168.5"/>
<text text-anchor="middle" x="844.617" y="-175.5" font-family="Helvetica,sans-Serif" font-size="10.00">ViennaRNA/energy_par.h</text>
</a>
</g>
</g>
<!-- Node17&#45;&gt;Node18 -->
<g id="edge30" class="edge"><title>Node17&#45;&gt;Node18</title>
<path fill="none" stroke="midnightblue" d="M720.289,-348.906C734.946,-339.704 753.224,-326.693 766.617,-312 799.411,-276.023 824.975,-224.043 837.031,-196.952"/>
<polygon fill="midnightblue" stroke="midnightblue" points="840.331,-198.142 841.104,-187.575 833.91,-195.353 840.331,-198.142"/>
</g>
<!-- Node18&#45;&gt;Node4 -->
<g id="edge31" class="edge"><title>Node18&#45;&gt;Node4</title>
<path fill="none" stroke="midnightblue" d="M827.91,-168.363C800.021,-154.322 741.879,-126.646 689.617,-112 616.629,-91.5459 530.851,-79.8492 469.933,-73.5382"/>
<polygon fill="midnightblue" stroke="midnightblue" points="469.919,-70.0191 459.618,-72.4964 469.215,-76.9836 469.919,-70.0191"/>
</g>
<!-- Node19&#45;&gt;Node3 -->
<g id="edge37" class="edge"><title>Node19&#45;&gt;Node3</title>
<path fill="none" stroke="midnightblue" d="M291.082,-348.967C297.79,-323.167 313.997,-266.912 337.617,-224 343.214,-213.832 351.027,-203.537 357.852,-195.365"/>
<polygon fill="midnightblue" stroke="midnightblue" points="360.577,-197.565 364.472,-187.712 355.283,-192.985 360.577,-197.565"/>
</g>
<!-- Node19&#45;&gt;Node7 -->
<g id="edge38" class="edge"><title>Node19&#45;&gt;Node7</title>
<path fill="none" stroke="midnightblue" d="M285.413,-348.706C279.045,-307.401 260.621,-187.888 253.486,-141.611"/>
<polygon fill="midnightblue" stroke="midnightblue" points="256.913,-140.865 251.93,-131.515 249.994,-141.932 256.913,-140.865"/>
</g>
<!-- Node19&#45;&gt;Node13 -->
<g id="edge36" class="edge"><title>Node19&#45;&gt;Node13</title>
<path fill="none" stroke="midnightblue" d="M318.331,-348.933C340.235,-338.9 369.45,-325.519 390.695,-315.789"/>
<polygon fill="midnightblue" stroke="midnightblue" points="392.206,-318.946 399.84,-311.6 389.291,-312.582 392.206,-318.946"/>
</g>
</g>
</svg>
        <g id="navigator" transform="translate(0 0)" fill="#404254">
                <rect fill="#f2f5e9" fill-opacity="0.5" stroke="#606060" stroke-width=".5" x="0" y="0" width="60" height="60"/>
                <use id="zoomplus" xlink:href="#zoomPlus" x="17" y="9" onmousedown="handleZoom(evt,'in')"/>
                <use id="zoomminus" xlink:href="#zoomMin" x="42" y="9" onmousedown="handleZoom(evt,'out')"/>
                <use id="reset" xlink:href="#resetDef" x="30" y="36" onmousedown="handleReset()"/>
                <g id="arrowUp" xlink:href="#dirArrow" transform="translate(30 24)" onmousedown="handlePan(0,-1)">
                  <use xlink:href="#rim" fill="#404040">
                        <set attributeName="fill" to="#808080" begin="arrowUp.mouseover" end="arrowUp.mouseout"/>
                  </use>
                  <path fill="none" stroke="white" stroke-width="1.5" d="M0,-3.0v7 M-2.5,-0.5L0,-3.0L2.5,-0.5"/>
                </g>
                <g id="arrowRight" xlink:href="#dirArrow" transform="rotate(90) translate(36 -43)" onmousedown="handlePan(1,0)">
                  <use xlink:href="#rim" fill="#404040">
                        <set attributeName="fill" to="#808080" begin="arrowRight.mouseover" end="arrowRight.mouseout"/>
                  </use>
                  <path fill="none" stroke="white" stroke-width="1.5" d="M0,-3.0v7 M-2.5,-0.5L0,-3.0L2.5,-0.5"/>
                </g>
                <g id="arrowDown" xlink:href="#dirArrow" transform="rotate(180) translate(-30 -48)" onmousedown="handlePan(0,1)">
                  <use xlink:href="#rim" fill="#404040">
                        <set attributeName="fill" to="#808080" begin="arrowDown.mouseover" end="arrowDown.mouseout"/>
                  </use>
                  <path fill="none" stroke="white" stroke-width="1.5" d="M0,-3.0v7 M-2.5,-0.5L0,-3.0L2.5,-0.5"/>
                </g>
                <g id="arrowLeft" xlink:href="#dirArrow" transform="rotate(270) translate(-36 17)" onmousedown="handlePan(-1,0)">
                  <use xlink:href="#rim" fill="#404040">
                        <set attributeName="fill" to="#808080" begin="arrowLeft.mouseover" end="arrowLeft.mouseout"/>
                  </use>
                  <path fill="none" stroke="white" stroke-width="1.5" d="M0,-3.0v7 M-2.5,-0.5L0,-3.0L2.5,-0.5"/>
                </g>
        </g>
        <svg viewBox="0 0 15 15" width="100%" height="30px" preserveAspectRatio="xMaxYMin meet">
         <g id="arrow_out" transform="scale(0.3 0.3)">
          <a xlink:href="loop__energies_8h__incl_org.svg" target="_base">
           <rect id="button" ry="5" rx="5" y="6" x="6" height="38" width="38"
                fill="#f2f5e9" fill-opacity="0.5" stroke="#606060" stroke-width="1.0"/>
           <path id="arrow"
             d="M 11.500037,31.436501 C 11.940474,20.09759 22.043105,11.32322 32.158766,21.979434 L 37.068811,17.246167 C 37.068811,17.246167 37.088388,32 37.088388,32 L 22.160133,31.978069 C 22.160133,31.978069 26.997745,27.140456 26.997745,27.140456 C 18.528582,18.264221 13.291696,25.230495 11.500037,31.436501 z"
             style="fill:#404040;"/>
          </a>
         </g>
        </svg>
</svg>
