<?xml version="1.0" encoding="UTF-8" standalone="no"?>
<!DOCTYPE svg PUBLIC "-//W3C//DTD SVG 1.1//EN"
 "http://www.w3.org/Graphics/SVG/1.1/DTD/svg11.dtd">
<!-- Generated by graphviz version 2.36.0 (20140111.2315)
 -->
<!-- Title: ViennaRNA/mfe.h Pages: 1 -->
<svg width="469pt" height="84pt"
 viewBox="0.00 0.00 469.00 84.00" xmlns="http://www.w3.org/2000/svg" xmlns:xlink="http://www.w3.org/1999/xlink">
<g id="graph0" class="graph" transform="scale(1 1) rotate(0) translate(4 80)">
<title>ViennaRNA/mfe.h</title>
<!-- Node1 -->
<g id="node1" class="node"><title>Node1</title>
<polygon fill="#bfbfbf" stroke="black" points="187,-56.5 187,-75.5 283,-75.5 283,-56.5 187,-56.5"/>
<text text-anchor="middle" x="235" y="-63.5" font-family="Helvetica,sans-Serif" font-size="10.00">ViennaRNA/mfe.h</text>
</g>
<!-- Node2 -->
<g id="node2" class="node"><title>Node2</title>
<g id="a_node2"><a xlink:href="alifold_8h.html" target="_top" xlink:title="compute various properties (consensus MFE structures, partition function, Boltzmann distributed stoch...">
<polygon fill="none" stroke="black" points="-0.5,-0.5 -0.5,-19.5 104.5,-19.5 104.5,-0.5 -0.5,-0.5"/>
<text text-anchor="middle" x="52" y="-7.5" font-family="Helvetica,sans-Serif" font-size="10.00">ViennaRNA/alifold.h</text>
</a>
</g>
</g>
<!-- Node1&#45;&gt;Node2 -->
<g id="edge1" class="edge"><title>Node1&#45;&gt;Node2</title>
<path fill="none" stroke="midnightblue" d="M196.257,-53.5677C161.735,-43.381 111.995,-28.7034 80.8612,-19.5164"/>
<polygon fill="midnightblue" stroke="midnightblue" points="195.421,-56.9702 206.003,-56.4435 197.403,-50.2564 195.421,-56.9702"/>
</g>
<!-- Node3 -->
<g id="node3" class="node"><title>Node3</title>
<g id="a_node3"><a xlink:href="cofold_8h.html" target="_top" xlink:title="MFE version of cofolding routines. ">
<polygon fill="none" stroke="black" points="123,-0.5 123,-19.5 229,-19.5 229,-0.5 123,-0.5"/>
<text text-anchor="middle" x="176" y="-7.5" font-family="Helvetica,sans-Serif" font-size="10.00">ViennaRNA/cofold.h</text>
</a>
</g>
</g>
<!-- Node1&#45;&gt;Node3 -->
<g id="edge2" class="edge"><title>Node1&#45;&gt;Node3</title>
<path fill="none" stroke="midnightblue" d="M218.105,-49.5372C207.585,-39.9087 194.431,-27.8694 185.652,-19.8339"/>
<polygon fill="midnightblue" stroke="midnightblue" points="215.781,-52.1542 225.521,-56.324 220.507,-46.9905 215.781,-52.1542"/>
</g>
<!-- Node4 -->
<g id="node4" class="node"><title>Node4</title>
<g id="a_node4"><a xlink:href="fold_8h.html" target="_top" xlink:title="MFE calculations for single RNA sequences. ">
<polygon fill="none" stroke="black" points="247.5,-0.5 247.5,-19.5 342.5,-19.5 342.5,-0.5 247.5,-0.5"/>
<text text-anchor="middle" x="295" y="-7.5" font-family="Helvetica,sans-Serif" font-size="10.00">ViennaRNA/fold.h</text>
</a>
</g>
</g>
<!-- Node1&#45;&gt;Node4 -->
<g id="edge3" class="edge"><title>Node1&#45;&gt;Node4</title>
<path fill="none" stroke="midnightblue" d="M252.181,-49.5372C262.879,-39.9087 276.256,-27.8694 285.185,-19.8339"/>
<polygon fill="midnightblue" stroke="midnightblue" points="249.732,-47.0327 244.64,-56.324 254.414,-52.2358 249.732,-47.0327"/>
</g>
<!-- Node5 -->
<g id="node5" class="node"><title>Node5</title>
<g id="a_node5"><a xlink:href="Lfold_8h.html" target="_top" xlink:title="Predicting local MFE structures of large sequences. ">
<polygon fill="none" stroke="black" points="360.5,-0.5 360.5,-19.5 461.5,-19.5 461.5,-0.5 360.5,-0.5"/>
<text text-anchor="middle" x="411" y="-7.5" font-family="Helvetica,sans-Serif" font-size="10.00">ViennaRNA/Lfold.h</text>
</a>
</g>
</g>
<!-- Node1&#45;&gt;Node5 -->
<g id="edge4" class="edge"><title>Node1&#45;&gt;Node5</title>
<path fill="none" stroke="midnightblue" d="M272.689,-53.4363C305.872,-43.2551 353.428,-28.664 383.243,-19.5164"/>
<polygon fill="midnightblue" stroke="midnightblue" points="271.421,-50.1642 262.888,-56.4435 273.475,-56.8563 271.421,-50.1642"/>
</g>
</g>
</svg>
