<?xml version="1.0" encoding="UTF-8" standalone="no"?>
<!DOCTYPE svg PUBLIC "-//W3C//DTD SVG 1.1//EN"
 "http://www.w3.org/Graphics/SVG/1.1/DTD/svg11.dtd">
<!-- Generated by graphviz version 2.36.0 (20140111.2315)
 -->
<!-- Title: ViennaRNA/multibranch_loops.h Pages: 1 -->
<svg width="499pt" height="388pt"
 viewBox="0.00 0.00 499.00 388.00" xmlns="http://www.w3.org/2000/svg" xmlns:xlink="http://www.w3.org/1999/xlink">
<g id="graph0" class="graph" transform="scale(1 1) rotate(0) translate(4 384)">
<title>ViennaRNA/multibranch_loops.h</title>
<!-- Node1 -->
<g id="node1" class="node"><title>Node1</title>
<polygon fill="#bfbfbf" stroke="black" points="330,-349 330,-379 452,-379 452,-349 330,-349"/>
<text text-anchor="start" x="338" y="-367" font-family="Helvetica,sans-Serif" font-size="10.00">ViennaRNA/multibranch</text>
<text text-anchor="middle" x="391" y="-356" font-family="Helvetica,sans-Serif" font-size="10.00">_loops.h</text>
</g>
<!-- Node2 -->
<g id="node2" class="node"><title>Node2</title>
<g id="a_node2"><a xlink:href="utils_8h.html" target="_top" xlink:title="General utility&#45; and helper&#45;functions used throughout the ViennaRNA Package. ">
<polygon fill="none" stroke="black" points="158,-292.5 158,-311.5 256,-311.5 256,-292.5 158,-292.5"/>
<text text-anchor="middle" x="207" y="-299.5" font-family="Helvetica,sans-Serif" font-size="10.00">ViennaRNA/utils.h</text>
</a>
</g>
</g>
<!-- Node1&#45;&gt;Node2 -->
<g id="edge1" class="edge"><title>Node1&#45;&gt;Node2</title>
<path fill="none" stroke="midnightblue" d="M347.86,-348.933C315.89,-338.508 272.831,-324.467 242.768,-314.663"/>
<polygon fill="midnightblue" stroke="midnightblue" points="243.698,-311.285 233.106,-311.513 241.528,-317.941 243.698,-311.285"/>
</g>
<!-- Node4 -->
<g id="node4" class="node"><title>Node4</title>
<g id="a_node4"><a xlink:href="data__structures_8h.html" target="_top" xlink:title="ViennaRNA/data_structures.h">
<polygon fill="none" stroke="black" points="183.5,-168.5 183.5,-187.5 330.5,-187.5 330.5,-168.5 183.5,-168.5"/>
<text text-anchor="middle" x="257" y="-175.5" font-family="Helvetica,sans-Serif" font-size="10.00">ViennaRNA/data_structures.h</text>
</a>
</g>
</g>
<!-- Node1&#45;&gt;Node4 -->
<g id="edge20" class="edge"><title>Node1&#45;&gt;Node4</title>
<path fill="none" stroke="midnightblue" d="M393.264,-348.596C396.729,-321.173 400.178,-260.915 371,-224 358.076,-207.649 338.352,-197.223 318.925,-190.581"/>
<polygon fill="midnightblue" stroke="midnightblue" points="319.726,-187.164 309.137,-187.528 317.642,-193.847 319.726,-187.164"/>
</g>
<!-- Node8 -->
<g id="node8" class="node"><title>Node8</title>
<g id="a_node8"><a xlink:href="params_8h.html" target="_top" xlink:title="ViennaRNA/params.h">
<polygon fill="none" stroke="black" points="373,-112.5 373,-131.5 485,-131.5 485,-112.5 373,-112.5"/>
<text text-anchor="middle" x="429" y="-119.5" font-family="Helvetica,sans-Serif" font-size="10.00">ViennaRNA/params.h</text>
</a>
</g>
</g>
<!-- Node1&#45;&gt;Node8 -->
<g id="edge21" class="edge"><title>Node1&#45;&gt;Node8</title>
<path fill="none" stroke="midnightblue" d="M396.952,-348.973C400.99,-338.872 406.101,-324.822 409,-312 422.799,-250.967 427.129,-176.643 428.447,-142.212"/>
<polygon fill="midnightblue" stroke="midnightblue" points="431.959,-141.896 428.798,-131.784 424.963,-141.66 431.959,-141.896"/>
</g>
<!-- Node3 -->
<g id="node3" class="node"><title>Node3</title>
<polygon fill="none" stroke="#bfbfbf" points="47,-168.5 47,-187.5 93,-187.5 93,-168.5 47,-168.5"/>
<text text-anchor="middle" x="70" y="-175.5" font-family="Helvetica,sans-Serif" font-size="10.00">stdio.h</text>
</g>
<!-- Node2&#45;&gt;Node3 -->
<g id="edge2" class="edge"><title>Node2&#45;&gt;Node3</title>
<path fill="none" stroke="midnightblue" d="M157.85,-300.196C124.4,-296.758 82.3,-286.148 60,-256 47.3866,-238.948 54.0558,-213.769 61.0694,-196.895"/>
<polygon fill="midnightblue" stroke="midnightblue" points="64.3399,-198.159 65.3116,-187.609 57.9728,-195.251 64.3399,-198.159"/>
</g>
<!-- Node2&#45;&gt;Node4 -->
<g id="edge3" class="edge"><title>Node2&#45;&gt;Node4</title>
<path fill="none" stroke="midnightblue" d="M208.129,-292.116C210.226,-277.421 215.497,-247.358 226,-224 230.514,-213.961 237.305,-203.777 243.381,-195.643"/>
<polygon fill="midnightblue" stroke="midnightblue" points="246.166,-197.764 249.552,-187.725 240.644,-193.461 246.166,-197.764"/>
</g>
<!-- Node11 -->
<g id="node11" class="node"><title>Node11</title>
<g id="a_node11"><a xlink:href="string__utils_8h.html" target="_top" xlink:title="General utility&#45; and helper&#45;functions for RNA sequence and structure strings used throughout the Vien...">
<polygon fill="none" stroke="black" points="235.5,-230.5 235.5,-249.5 362.5,-249.5 362.5,-230.5 235.5,-230.5"/>
<text text-anchor="middle" x="299" y="-237.5" font-family="Helvetica,sans-Serif" font-size="10.00">ViennaRNA/string_utils.h</text>
</a>
</g>
</g>
<!-- Node2&#45;&gt;Node11 -->
<g id="edge15" class="edge"><title>Node2&#45;&gt;Node11</title>
<path fill="none" stroke="midnightblue" d="M220.181,-292.403C235.074,-282.691 259.544,-266.732 277.273,-255.17"/>
<polygon fill="midnightblue" stroke="midnightblue" points="279.379,-257.975 285.843,-249.581 275.555,-252.112 279.379,-257.975"/>
</g>
<!-- Node12 -->
<g id="node12" class="node"><title>Node12</title>
<g id="a_node12"><a xlink:href="structure__utils_8h.html" target="_top" xlink:title="Various utility&#45; and helper&#45;functions for secondary structure parsing, converting, etc. ">
<polygon fill="none" stroke="black" points="69,-225 69,-255 179,-255 179,-225 69,-225"/>
<text text-anchor="start" x="77" y="-243" font-family="Helvetica,sans-Serif" font-size="10.00">ViennaRNA/structure</text>
<text text-anchor="middle" x="124" y="-232" font-family="Helvetica,sans-Serif" font-size="10.00">_utils.h</text>
</a>
</g>
</g>
<!-- Node2&#45;&gt;Node12 -->
<g id="edge17" class="edge"><title>Node2&#45;&gt;Node12</title>
<path fill="none" stroke="midnightblue" d="M195.108,-292.403C183.867,-284.277 166.578,-271.779 151.863,-261.142"/>
<polygon fill="midnightblue" stroke="midnightblue" points="153.716,-258.163 143.561,-255.141 149.615,-263.836 153.716,-258.163"/>
</g>
<!-- Node5 -->
<g id="node5" class="node"><title>Node5</title>
<g id="a_node5"><a xlink:href="energy__const_8h.html" target="_top" xlink:title="ViennaRNA/energy_const.h">
<polygon fill="none" stroke="black" points="229,-56.5 229,-75.5 367,-75.5 367,-56.5 229,-56.5"/>
<text text-anchor="middle" x="298" y="-63.5" font-family="Helvetica,sans-Serif" font-size="10.00">ViennaRNA/energy_const.h</text>
</a>
</g>
</g>
<!-- Node4&#45;&gt;Node5 -->
<g id="edge4" class="edge"><title>Node4&#45;&gt;Node5</title>
<path fill="none" stroke="midnightblue" d="M264.719,-168.39C271.957,-159.808 282.469,-145.931 288,-132 293.865,-117.226 296.309,-99.298 297.317,-86.0152"/>
<polygon fill="midnightblue" stroke="midnightblue" points="300.828,-85.912 297.884,-75.7344 293.839,-85.5265 300.828,-85.912"/>
</g>
<!-- Node7 -->
<g id="node7" class="node"><title>Node7</title>
<g id="a_node7"><a xlink:href="model_8h.html" target="_top" xlink:title="The model details data structure and its corresponding modifiers. ">
<polygon fill="none" stroke="black" points="385,-56.5 385,-75.5 491,-75.5 491,-56.5 385,-56.5"/>
<text text-anchor="middle" x="438" y="-63.5" font-family="Helvetica,sans-Serif" font-size="10.00">ViennaRNA/model.h</text>
</a>
</g>
</g>
<!-- Node4&#45;&gt;Node7 -->
<g id="edge6" class="edge"><title>Node4&#45;&gt;Node7</title>
<path fill="none" stroke="midnightblue" d="M271.203,-168.368C302.395,-149.412 377.117,-104.001 415.058,-80.9424"/>
<polygon fill="midnightblue" stroke="midnightblue" points="417.135,-83.7759 423.863,-75.5914 413.5,-77.794 417.135,-83.7759"/>
</g>
<!-- Node4&#45;&gt;Node8 -->
<g id="edge7" class="edge"><title>Node4&#45;&gt;Node8</title>
<path fill="none" stroke="midnightblue" d="M279.165,-168.444C306.46,-159.241 353.036,-144.562 387.102,-134.388"/>
<polygon fill="midnightblue" stroke="midnightblue" points="388.2,-137.713 396.794,-131.516 386.211,-131.001 388.2,-137.713"/>
</g>
<!-- Node9 -->
<g id="node9" class="node"><title>Node9</title>
<g id="a_node9"><a xlink:href="dp__matrices_8h.html" target="_top" xlink:title="ViennaRNA/dp_matrices.h">
<polygon fill="none" stroke="black" points="-0.5,-112.5 -0.5,-131.5 132.5,-131.5 132.5,-112.5 -0.5,-112.5"/>
<text text-anchor="middle" x="66" y="-119.5" font-family="Helvetica,sans-Serif" font-size="10.00">ViennaRNA/dp_matrices.h</text>
</a>
</g>
</g>
<!-- Node4&#45;&gt;Node9 -->
<g id="edge11" class="edge"><title>Node4&#45;&gt;Node9</title>
<path fill="none" stroke="midnightblue" d="M221.647,-168.444C187.077,-159.241 134.978,-144.562 100.654,-134.388"/>
<polygon fill="midnightblue" stroke="midnightblue" points="101.626,-131.026 91.043,-131.516 99.6225,-137.733 101.626,-131.026"/>
</g>
<!-- Node10 -->
<g id="node10" class="node"><title>Node10</title>
<g id="a_node10"><a xlink:href="constraints_8h.html" target="_top" xlink:title="ViennaRNA/constraints.h">
<polygon fill="none" stroke="black" points="151,-112.5 151,-131.5 279,-131.5 279,-112.5 151,-112.5"/>
<text text-anchor="middle" x="215" y="-119.5" font-family="Helvetica,sans-Serif" font-size="10.00">ViennaRNA/constraints.h</text>
</a>
</g>
</g>
<!-- Node4&#45;&gt;Node10 -->
<g id="edge13" class="edge"><title>Node4&#45;&gt;Node10</title>
<path fill="none" stroke="midnightblue" d="M244.898,-168.083C237.434,-160.534 228.457,-149.495 222.06,-140.23"/>
<polygon fill="midnightblue" stroke="midnightblue" points="224.991,-138.316 216.675,-131.751 219.082,-142.069 224.991,-138.316"/>
</g>
<!-- Node6 -->
<g id="node6" class="node"><title>Node6</title>
<polygon fill="none" stroke="#bfbfbf" points="274,-0.5 274,-19.5 322,-19.5 322,-0.5 274,-0.5"/>
<text text-anchor="middle" x="298" y="-7.5" font-family="Helvetica,sans-Serif" font-size="10.00">limits.h</text>
</g>
<!-- Node5&#45;&gt;Node6 -->
<g id="edge5" class="edge"><title>Node5&#45;&gt;Node6</title>
<path fill="none" stroke="midnightblue" d="M298,-56.083C298,-49.0059 298,-38.8611 298,-29.9865"/>
<polygon fill="midnightblue" stroke="midnightblue" points="301.5,-29.751 298,-19.7511 294.5,-29.7511 301.5,-29.751"/>
</g>
<!-- Node8&#45;&gt;Node4 -->
<g id="edge9" class="edge"><title>Node8&#45;&gt;Node4</title>
<path fill="none" stroke="midnightblue" d="M406.954,-131.516C379.715,-140.703 333.149,-155.381 299.047,-165.568"/>
<polygon fill="midnightblue" stroke="midnightblue" points="297.936,-162.246 289.343,-168.444 299.925,-168.958 297.936,-162.246"/>
</g>
<!-- Node8&#45;&gt;Node5 -->
<g id="edge8" class="edge"><title>Node8&#45;&gt;Node5</title>
<path fill="none" stroke="midnightblue" d="M408.243,-112.444C386.684,-103.557 352.737,-89.5632 328.206,-79.4514"/>
<polygon fill="midnightblue" stroke="midnightblue" points="329.239,-76.0917 318.66,-75.5164 326.572,-82.5634 329.239,-76.0917"/>
</g>
<!-- Node8&#45;&gt;Node7 -->
<g id="edge10" class="edge"><title>Node8&#45;&gt;Node7</title>
<path fill="none" stroke="midnightblue" d="M430.486,-112.083C431.679,-104.927 433.394,-94.6353 434.885,-85.6911"/>
<polygon fill="midnightblue" stroke="midnightblue" points="438.35,-86.1904 436.541,-75.7511 431.445,-85.0396 438.35,-86.1904"/>
</g>
<!-- Node9&#45;&gt;Node4 -->
<g id="edge12" class="edge"><title>Node9&#45;&gt;Node4</title>
<path fill="none" stroke="midnightblue" d="M101.203,-131.516C135.722,-140.703 187.821,-155.381 222.196,-165.568"/>
<polygon fill="midnightblue" stroke="midnightblue" points="221.241,-168.935 231.824,-168.444 223.244,-162.228 221.241,-168.935"/>
</g>
<!-- Node10&#45;&gt;Node4 -->
<g id="edge14" class="edge"><title>Node10&#45;&gt;Node4</title>
<path fill="none" stroke="midnightblue" d="M226.937,-131.751C234.379,-139.248 243.364,-150.275 249.798,-159.566"/>
<polygon fill="midnightblue" stroke="midnightblue" points="246.902,-161.534 255.231,-168.083 252.804,-157.77 246.902,-161.534"/>
</g>
<!-- Node11&#45;&gt;Node4 -->
<g id="edge16" class="edge"><title>Node11&#45;&gt;Node4</title>
<path fill="none" stroke="midnightblue" d="M292.982,-230.403C286.682,-221.403 276.629,-207.041 268.748,-195.782"/>
<polygon fill="midnightblue" stroke="midnightblue" points="271.608,-193.766 263.006,-187.581 265.874,-197.78 271.608,-193.766"/>
</g>
<!-- Node12&#45;&gt;Node3 -->
<g id="edge18" class="edge"><title>Node12&#45;&gt;Node3</title>
<path fill="none" stroke="midnightblue" d="M111.203,-224.781C103.275,-215.972 93.0635,-204.626 84.7899,-195.433"/>
<polygon fill="midnightblue" stroke="midnightblue" points="87.1487,-192.822 77.8575,-187.731 81.9456,-197.505 87.1487,-192.822"/>
</g>
<!-- Node12&#45;&gt;Node4 -->
<g id="edge19" class="edge"><title>Node12&#45;&gt;Node4</title>
<path fill="none" stroke="midnightblue" d="M155.183,-224.933C177.421,-214.9 207.082,-201.519 228.652,-191.789"/>
<polygon fill="midnightblue" stroke="midnightblue" points="230.261,-194.903 237.937,-187.6 227.382,-188.522 230.261,-194.903"/>
</g>
</g>
</svg>
