<?xml version="1.0" encoding="UTF-8" standalone="no"?>
<!DOCTYPE svg PUBLIC "-//W3C//DTD SVG 1.1//EN"
 "http://www.w3.org/Graphics/SVG/1.1/DTD/svg11.dtd">
<!-- Generated by graphviz version 2.36.0 (20140111.2315)
 -->
<!-- Title: ViennaRNA/part_func.h Pages: 1 -->
<svg width="515pt" height="320pt"
 viewBox="0.00 0.00 515.00 320.00" xmlns="http://www.w3.org/2000/svg" xmlns:xlink="http://www.w3.org/1999/xlink">
<g id="graph0" class="graph" transform="scale(1 1) rotate(0) translate(4 316)">
<title>ViennaRNA/part_func.h</title>
<!-- Node1 -->
<g id="node1" class="node"><title>Node1</title>
<polygon fill="#bfbfbf" stroke="black" points="241,-292.5 241,-311.5 361,-311.5 361,-292.5 241,-292.5"/>
<text text-anchor="middle" x="301" y="-299.5" font-family="Helvetica,sans-Serif" font-size="10.00">ViennaRNA/part_func.h</text>
</g>
<!-- Node2 -->
<g id="node2" class="node"><title>Node2</title>
<g id="a_node2"><a xlink:href="data__structures_8h.html" target="_top" xlink:title="ViennaRNA/data_structures.h">
<polygon fill="none" stroke="black" points="185.5,-168.5 185.5,-187.5 332.5,-187.5 332.5,-168.5 185.5,-168.5"/>
<text text-anchor="middle" x="259" y="-175.5" font-family="Helvetica,sans-Serif" font-size="10.00">ViennaRNA/data_structures.h</text>
</a>
</g>
</g>
<!-- Node1&#45;&gt;Node2 -->
<g id="edge1" class="edge"><title>Node1&#45;&gt;Node2</title>
<path fill="none" stroke="midnightblue" d="M295.793,-292.31C290.666,-283.442 282.909,-269.152 278,-256 270.794,-236.693 265.519,-213.641 262.381,-197.823"/>
<polygon fill="midnightblue" stroke="midnightblue" points="265.772,-196.917 260.476,-187.741 258.894,-198.217 265.772,-196.917"/>
</g>
<!-- Node6 -->
<g id="node6" class="node"><title>Node6</title>
<g id="a_node6"><a xlink:href="params_8h.html" target="_top" xlink:title="ViennaRNA/params.h">
<polygon fill="none" stroke="black" points="373,-112.5 373,-131.5 485,-131.5 485,-112.5 373,-112.5"/>
<text text-anchor="middle" x="429" y="-119.5" font-family="Helvetica,sans-Serif" font-size="10.00">ViennaRNA/params.h</text>
</a>
</g>
</g>
<!-- Node1&#45;&gt;Node6 -->
<g id="edge13" class="edge"><title>Node1&#45;&gt;Node6</title>
<path fill="none" stroke="midnightblue" d="M348.952,-292.498C370.861,-286.127 395.177,-275.076 410,-256 436.037,-222.491 434.663,-169.437 431.688,-141.542"/>
<polygon fill="midnightblue" stroke="midnightblue" points="435.153,-141.048 430.434,-131.562 428.208,-141.92 435.153,-141.048"/>
</g>
<!-- Node9 -->
<g id="node9" class="node"><title>Node9</title>
<g id="a_node9"><a xlink:href="centroid_8h.html" target="_top" xlink:title="Centroid structure computation. ">
<polygon fill="none" stroke="black" points="287,-230.5 287,-249.5 401,-249.5 401,-230.5 287,-230.5"/>
<text text-anchor="middle" x="344" y="-237.5" font-family="Helvetica,sans-Serif" font-size="10.00">ViennaRNA/centroid.h</text>
</a>
</g>
</g>
<!-- Node1&#45;&gt;Node9 -->
<g id="edge14" class="edge"><title>Node1&#45;&gt;Node9</title>
<path fill="none" stroke="midnightblue" d="M307.161,-292.403C313.611,-283.403 323.904,-269.041 331.973,-257.782"/>
<polygon fill="midnightblue" stroke="midnightblue" points="334.87,-259.748 337.851,-249.581 329.18,-255.67 334.87,-259.748"/>
</g>
<!-- Node10 -->
<g id="node10" class="node"><title>Node10</title>
<g id="a_node10"><a xlink:href="boltzmann__sampling_8h.html" target="_top" xlink:title="Boltzmann Sampling of secondary structures from the ensemble. ">
<polygon fill="none" stroke="black" points="115,-225 115,-255 231,-255 231,-225 115,-225"/>
<text text-anchor="start" x="123" y="-243" font-family="Helvetica,sans-Serif" font-size="10.00">ViennaRNA/boltzmann</text>
<text text-anchor="middle" x="173" y="-232" font-family="Helvetica,sans-Serif" font-size="10.00">_sampling.h</text>
</a>
</g>
</g>
<!-- Node1&#45;&gt;Node10 -->
<g id="edge16" class="edge"><title>Node1&#45;&gt;Node10</title>
<path fill="none" stroke="midnightblue" d="M282.661,-292.403C264.434,-283.86 235.897,-270.483 212.503,-259.517"/>
<polygon fill="midnightblue" stroke="midnightblue" points="213.707,-256.216 203.167,-255.141 210.736,-262.554 213.707,-256.216"/>
</g>
<!-- Node3 -->
<g id="node3" class="node"><title>Node3</title>
<g id="a_node3"><a xlink:href="energy__const_8h.html" target="_top" xlink:title="ViennaRNA/energy_const.h">
<polygon fill="none" stroke="black" points="369,-56.5 369,-75.5 507,-75.5 507,-56.5 369,-56.5"/>
<text text-anchor="middle" x="438" y="-63.5" font-family="Helvetica,sans-Serif" font-size="10.00">ViennaRNA/energy_const.h</text>
</a>
</g>
</g>
<!-- Node2&#45;&gt;Node3 -->
<g id="edge2" class="edge"><title>Node2&#45;&gt;Node3</title>
<path fill="none" stroke="midnightblue" d="M272.906,-168.343C292.988,-155.852 331.29,-132.07 364,-112 381.031,-101.55 400.321,-89.8233 414.936,-80.9612"/>
<polygon fill="midnightblue" stroke="midnightblue" points="417.055,-83.7694 423.793,-75.5934 413.427,-77.7828 417.055,-83.7694"/>
</g>
<!-- Node5 -->
<g id="node5" class="node"><title>Node5</title>
<g id="a_node5"><a xlink:href="model_8h.html" target="_top" xlink:title="The model details data structure and its corresponding modifiers. ">
<polygon fill="none" stroke="black" points="245,-56.5 245,-75.5 351,-75.5 351,-56.5 245,-56.5"/>
<text text-anchor="middle" x="298" y="-63.5" font-family="Helvetica,sans-Serif" font-size="10.00">ViennaRNA/model.h</text>
</a>
</g>
</g>
<!-- Node2&#45;&gt;Node5 -->
<g id="edge4" class="edge"><title>Node2&#45;&gt;Node5</title>
<path fill="none" stroke="midnightblue" d="M266.206,-168.302C272.966,-159.654 282.792,-145.73 288,-132 293.637,-117.138 296.101,-99.2173 297.175,-85.96"/>
<polygon fill="midnightblue" stroke="midnightblue" points="300.685,-85.9004 297.806,-75.7042 293.699,-85.4702 300.685,-85.9004"/>
</g>
<!-- Node2&#45;&gt;Node6 -->
<g id="edge5" class="edge"><title>Node2&#45;&gt;Node6</title>
<path fill="none" stroke="midnightblue" d="M280.848,-168.444C307.802,-159.241 353.834,-144.562 387.523,-134.388"/>
<polygon fill="midnightblue" stroke="midnightblue" points="388.534,-137.739 397.109,-131.516 386.525,-131.033 388.534,-137.739"/>
</g>
<!-- Node7 -->
<g id="node7" class="node"><title>Node7</title>
<g id="a_node7"><a xlink:href="dp__matrices_8h.html" target="_top" xlink:title="ViennaRNA/dp_matrices.h">
<polygon fill="none" stroke="black" points="-0.5,-112.5 -0.5,-131.5 132.5,-131.5 132.5,-112.5 -0.5,-112.5"/>
<text text-anchor="middle" x="66" y="-119.5" font-family="Helvetica,sans-Serif" font-size="10.00">ViennaRNA/dp_matrices.h</text>
</a>
</g>
</g>
<!-- Node2&#45;&gt;Node7 -->
<g id="edge9" class="edge"><title>Node2&#45;&gt;Node7</title>
<path fill="none" stroke="midnightblue" d="M223.33,-168.444C188.419,-159.241 135.777,-144.562 101.076,-134.388"/>
<polygon fill="midnightblue" stroke="midnightblue" points="101.94,-130.994 91.3584,-131.516 99.9566,-137.707 101.94,-130.994"/>
</g>
<!-- Node8 -->
<g id="node8" class="node"><title>Node8</title>
<g id="a_node8"><a xlink:href="constraints_8h.html" target="_top" xlink:title="ViennaRNA/constraints.h">
<polygon fill="none" stroke="black" points="151,-112.5 151,-131.5 279,-131.5 279,-112.5 151,-112.5"/>
<text text-anchor="middle" x="215" y="-119.5" font-family="Helvetica,sans-Serif" font-size="10.00">ViennaRNA/constraints.h</text>
</a>
</g>
</g>
<!-- Node2&#45;&gt;Node8 -->
<g id="edge11" class="edge"><title>Node2&#45;&gt;Node8</title>
<path fill="none" stroke="midnightblue" d="M246.568,-168.083C238.825,-160.534 229.438,-149.495 222.698,-140.23"/>
<polygon fill="midnightblue" stroke="midnightblue" points="225.483,-138.098 217,-131.751 219.673,-142.003 225.483,-138.098"/>
</g>
<!-- Node4 -->
<g id="node4" class="node"><title>Node4</title>
<polygon fill="none" stroke="#bfbfbf" points="414,-0.5 414,-19.5 462,-19.5 462,-0.5 414,-0.5"/>
<text text-anchor="middle" x="438" y="-7.5" font-family="Helvetica,sans-Serif" font-size="10.00">limits.h</text>
</g>
<!-- Node3&#45;&gt;Node4 -->
<g id="edge3" class="edge"><title>Node3&#45;&gt;Node4</title>
<path fill="none" stroke="midnightblue" d="M438,-56.083C438,-49.0059 438,-38.8611 438,-29.9865"/>
<polygon fill="midnightblue" stroke="midnightblue" points="441.5,-29.751 438,-19.7511 434.5,-29.7511 441.5,-29.751"/>
</g>
<!-- Node6&#45;&gt;Node2 -->
<g id="edge7" class="edge"><title>Node6&#45;&gt;Node2</title>
<path fill="none" stroke="midnightblue" d="M407.269,-131.516C380.371,-140.703 334.348,-155.381 300.623,-165.568"/>
<polygon fill="midnightblue" stroke="midnightblue" points="299.6,-162.22 291.026,-168.444 301.61,-168.926 299.6,-162.22"/>
</g>
<!-- Node6&#45;&gt;Node3 -->
<g id="edge6" class="edge"><title>Node6&#45;&gt;Node3</title>
<path fill="none" stroke="midnightblue" d="M430.486,-112.083C431.679,-104.927 433.394,-94.6353 434.885,-85.6911"/>
<polygon fill="midnightblue" stroke="midnightblue" points="438.35,-86.1904 436.541,-75.7511 431.445,-85.0396 438.35,-86.1904"/>
</g>
<!-- Node6&#45;&gt;Node5 -->
<g id="edge8" class="edge"><title>Node6&#45;&gt;Node5</title>
<path fill="none" stroke="midnightblue" d="M408.243,-112.444C386.684,-103.557 352.737,-89.5632 328.206,-79.4514"/>
<polygon fill="midnightblue" stroke="midnightblue" points="329.239,-76.0917 318.66,-75.5164 326.572,-82.5634 329.239,-76.0917"/>
</g>
<!-- Node7&#45;&gt;Node2 -->
<g id="edge10" class="edge"><title>Node7&#45;&gt;Node2</title>
<path fill="none" stroke="midnightblue" d="M101.518,-131.516C136.377,-140.703 189.02,-155.381 223.773,-165.568"/>
<polygon fill="midnightblue" stroke="midnightblue" points="222.925,-168.967 233.507,-168.444 224.909,-162.254 222.925,-168.967"/>
</g>
<!-- Node8&#45;&gt;Node2 -->
<g id="edge12" class="edge"><title>Node8&#45;&gt;Node2</title>
<path fill="none" stroke="midnightblue" d="M227.262,-131.751C234.981,-139.248 244.374,-150.275 251.153,-159.566"/>
<polygon fill="midnightblue" stroke="midnightblue" points="248.406,-161.752 256.901,-168.083 254.208,-157.836 248.406,-161.752"/>
</g>
<!-- Node9&#45;&gt;Node2 -->
<g id="edge15" class="edge"><title>Node9&#45;&gt;Node2</title>
<path fill="none" stroke="midnightblue" d="M331.822,-230.403C318.188,-220.78 295.868,-205.024 279.526,-193.489"/>
<polygon fill="midnightblue" stroke="midnightblue" points="281.344,-190.488 271.156,-187.581 277.307,-196.207 281.344,-190.488"/>
</g>
<!-- Node10&#45;&gt;Node2 -->
<g id="edge17" class="edge"><title>Node10&#45;&gt;Node2</title>
<path fill="none" stroke="midnightblue" d="M193.381,-224.781C206.99,-215.286 224.824,-202.843 238.465,-193.327"/>
<polygon fill="midnightblue" stroke="midnightblue" points="240.538,-196.148 246.737,-187.556 236.533,-190.407 240.538,-196.148"/>
</g>
</g>
</svg>
