<?xml version="1.0" encoding="UTF-8" standalone="no"?>
<!DOCTYPE svg PUBLIC "-//W3C//DTD SVG 1.1//EN"
 "http://www.w3.org/Graphics/SVG/1.1/DTD/svg11.dtd">
<!-- Generated by graphviz version 2.36.0 (20140111.2315)
 -->
<!-- Title: ViennaRNA/structure_utils.h Pages: 1 -->
<svg width="539pt" height="220pt"
 viewBox="0.00 0.00 539.00 220.00" xmlns="http://www.w3.org/2000/svg" xmlns:xlink="http://www.w3.org/1999/xlink">
<g id="graph0" class="graph" transform="scale(1 1) rotate(0) translate(4 216)">
<title>ViennaRNA/structure_utils.h</title>
<!-- Node1 -->
<g id="node1" class="node"><title>Node1</title>
<polygon fill="#bfbfbf" stroke="black" points="215,-181 215,-211 325,-211 325,-181 215,-181"/>
<text text-anchor="start" x="223" y="-199" font-family="Helvetica,sans-Serif" font-size="10.00">ViennaRNA/structure</text>
<text text-anchor="middle" x="270" y="-188" font-family="Helvetica,sans-Serif" font-size="10.00">_utils.h</text>
</g>
<!-- Node2 -->
<g id="node2" class="node"><title>Node2</title>
<g id="a_node2"><a xlink:href="utils_8h.html" target="_top" xlink:title="General utility&#45; and helper&#45;functions used throughout the ViennaRNA Package. ">
<polygon fill="none" stroke="black" points="221,-124.5 221,-143.5 319,-143.5 319,-124.5 221,-124.5"/>
<text text-anchor="middle" x="270" y="-131.5" font-family="Helvetica,sans-Serif" font-size="10.00">ViennaRNA/utils.h</text>
</a>
</g>
</g>
<!-- Node1&#45;&gt;Node2 -->
<g id="edge1" class="edge"><title>Node1&#45;&gt;Node2</title>
<path fill="none" stroke="midnightblue" d="M270,-170.586C270,-161.074 270,-150.786 270,-143.731"/>
<polygon fill="midnightblue" stroke="midnightblue" points="266.5,-170.781 270,-180.781 273.5,-170.781 266.5,-170.781"/>
</g>
<!-- Node3 -->
<g id="node3" class="node"><title>Node3</title>
<g id="a_node3"><a xlink:href="hairpin__loops_8h.html" target="_top" xlink:title="Energy evaluation of hairpin loops for MFE and partition function calculations. ">
<polygon fill="none" stroke="black" points="-0.5,-62.5 -0.5,-81.5 136.5,-81.5 136.5,-62.5 -0.5,-62.5"/>
<text text-anchor="middle" x="68" y="-69.5" font-family="Helvetica,sans-Serif" font-size="10.00">ViennaRNA/hairpin_loops.h</text>
</a>
</g>
</g>
<!-- Node2&#45;&gt;Node3 -->
<g id="edge2" class="edge"><title>Node2&#45;&gt;Node3</title>
<path fill="none" stroke="midnightblue" d="M231.305,-121.507C192.05,-109.847 132.188,-92.0658 96.888,-81.5806"/>
<polygon fill="midnightblue" stroke="midnightblue" points="230.476,-124.911 241.058,-124.403 232.469,-118.201 230.476,-124.911"/>
</g>
<!-- Node5 -->
<g id="node5" class="node"><title>Node5</title>
<g id="a_node5"><a xlink:href="interior__loops_8h.html" target="_top" xlink:title="Energy evaluation of interior loops for MFE and partition function calculations. ">
<polygon fill="none" stroke="black" points="154.5,-57 154.5,-87 255.5,-87 255.5,-57 154.5,-57"/>
<text text-anchor="start" x="162.5" y="-75" font-family="Helvetica,sans-Serif" font-size="10.00">ViennaRNA/interior</text>
<text text-anchor="middle" x="205" y="-64" font-family="Helvetica,sans-Serif" font-size="10.00">_loops.h</text>
</a>
</g>
</g>
<!-- Node2&#45;&gt;Node5 -->
<g id="edge4" class="edge"><title>Node2&#45;&gt;Node5</title>
<path fill="none" stroke="midnightblue" d="M253.227,-117.517C243.067,-108.138 230.205,-96.2659 220.319,-87.1408"/>
<polygon fill="midnightblue" stroke="midnightblue" points="250.965,-120.192 260.687,-124.403 255.713,-115.049 250.965,-120.192"/>
</g>
<!-- Node6 -->
<g id="node6" class="node"><title>Node6</title>
<g id="a_node6"><a xlink:href="multibranch__loops_8h.html" target="_top" xlink:title="Energy evaluation of multibranch loops for MFE and partition function calculations. ">
<polygon fill="none" stroke="black" points="274,-57 274,-87 396,-87 396,-57 274,-57"/>
<text text-anchor="start" x="282" y="-75" font-family="Helvetica,sans-Serif" font-size="10.00">ViennaRNA/multibranch</text>
<text text-anchor="middle" x="335" y="-64" font-family="Helvetica,sans-Serif" font-size="10.00">_loops.h</text>
</a>
</g>
</g>
<!-- Node2&#45;&gt;Node6 -->
<g id="edge6" class="edge"><title>Node2&#45;&gt;Node6</title>
<path fill="none" stroke="midnightblue" d="M286.773,-117.517C296.933,-108.138 309.795,-96.2659 319.681,-87.1408"/>
<polygon fill="midnightblue" stroke="midnightblue" points="284.287,-115.049 279.313,-124.403 289.035,-120.192 284.287,-115.049"/>
</g>
<!-- Node7 -->
<g id="node7" class="node"><title>Node7</title>
<g id="a_node7"><a xlink:href="pair__mat_8h_source.html" target="_top" xlink:title="ViennaRNA/pair_mat.h">
<polygon fill="none" stroke="black" points="414.5,-62.5 414.5,-81.5 531.5,-81.5 531.5,-62.5 414.5,-62.5"/>
<text text-anchor="middle" x="473" y="-69.5" font-family="Helvetica,sans-Serif" font-size="10.00">ViennaRNA/pair_mat.h</text>
</a>
</g>
</g>
<!-- Node2&#45;&gt;Node7 -->
<g id="edge8" class="edge"><title>Node2&#45;&gt;Node7</title>
<path fill="none" stroke="midnightblue" d="M308.886,-121.507C348.336,-109.847 408.494,-92.0658 443.969,-81.5806"/>
<polygon fill="midnightblue" stroke="midnightblue" points="307.683,-118.212 299.085,-124.403 309.667,-124.925 307.683,-118.212"/>
</g>
<!-- Node4 -->
<g id="node4" class="node"><title>Node4</title>
<g id="a_node4"><a xlink:href="loop__energies_8h.html" target="_top" xlink:title="Energy evaluation for MFE and partition function calculations. ">
<polygon fill="none" stroke="black" points="135,-0.5 135,-19.5 275,-19.5 275,-0.5 135,-0.5"/>
<text text-anchor="middle" x="205" y="-7.5" font-family="Helvetica,sans-Serif" font-size="10.00">ViennaRNA/loop_energies.h</text>
</a>
</g>
</g>
<!-- Node3&#45;&gt;Node4 -->
<g id="edge3" class="edge"><title>Node3&#45;&gt;Node4</title>
<path fill="none" stroke="midnightblue" d="M96.8286,-58.3743C123.436,-46.7215 162.229,-29.7319 185.408,-19.5806"/>
<polygon fill="midnightblue" stroke="midnightblue" points="95.3847,-55.1857 87.6288,-62.4035 98.1929,-61.5977 95.3847,-55.1857"/>
</g>
<!-- Node5&#45;&gt;Node4 -->
<g id="edge5" class="edge"><title>Node5&#45;&gt;Node4</title>
<path fill="none" stroke="midnightblue" d="M205,-46.5858C205,-37.0743 205,-26.7864 205,-19.7305"/>
<polygon fill="midnightblue" stroke="midnightblue" points="201.5,-46.7808 205,-56.7808 208.5,-46.7809 201.5,-46.7808"/>
</g>
<!-- Node6&#45;&gt;Node4 -->
<g id="edge7" class="edge"><title>Node6&#45;&gt;Node4</title>
<path fill="none" stroke="midnightblue" d="M295.349,-52.6993C271.506,-41.695 242.267,-28.2004 223.633,-19.6"/>
<polygon fill="midnightblue" stroke="midnightblue" points="293.974,-55.9199 304.521,-56.9327 296.908,-49.5642 293.974,-55.9199"/>
</g>
</g>
</svg>
