<?xml version="1.0" encoding="UTF-8" standalone="no"?>
<!DOCTYPE svg PUBLIC "-//W3C//DTD SVG 1.1//EN"
 "http://www.w3.org/Graphics/SVG/1.1/DTD/svg11.dtd">
<!-- Generated by graphviz version 2.36.0 (20140111.2315)
 -->
<!-- Title: LIST Pages: 1 -->
<svg width="128pt" height="118pt"
 viewBox="0.00 0.00 128.00 118.00" xmlns="http://www.w3.org/2000/svg" xmlns:xlink="http://www.w3.org/1999/xlink">
<g id="graph0" class="graph" transform="scale(1 1) rotate(0) translate(4 114)">
<title>LIST</title>
<!-- Node1 -->
<g id="node1" class="node"><title>Node1</title>
<polygon fill="#bfbfbf" stroke="black" points="21,-0.5 21,-19.5 59,-19.5 59,-0.5 21,-0.5"/>
<text text-anchor="middle" x="40" y="-7.5" font-family="Helvetica,sans-Serif" font-size="10.00">LIST</text>
</g>
<!-- Node2 -->
<g id="node2" class="node"><title>Node2</title>
<g id="a_node2"><a xlink:href="structLST__BUCKET.html" target="_top" xlink:title="LST_BUCKET">
<polygon fill="none" stroke="black" points="-0.5,-90.5 -0.5,-109.5 80.5,-109.5 80.5,-90.5 -0.5,-90.5"/>
<text text-anchor="middle" x="40" y="-97.5" font-family="Helvetica,sans-Serif" font-size="10.00">LST_BUCKET</text>
</a>
</g>
</g>
<!-- Node2&#45;&gt;Node1 -->
<g id="edge1" class="edge"><title>Node2&#45;&gt;Node1</title>
<path fill="none" stroke="#9a32cd" stroke-dasharray="5,2" d="M40,-79.9784C40,-61.3096 40,-33.6696 40,-19.7241"/>
<polygon fill="#9a32cd" stroke="#9a32cd" points="36.5001,-80.2405 40,-90.2405 43.5001,-80.2405 36.5001,-80.2405"/>
<text text-anchor="middle" x="52.5" y="-63.5" font-family="Helvetica,sans-Serif" font-size="10.00"> head</text>
<text text-anchor="middle" x="52.5" y="-52.5" font-family="Helvetica,sans-Serif" font-size="10.00">hz</text>
<text text-anchor="middle" x="52.5" y="-41.5" font-family="Helvetica,sans-Serif" font-size="10.00">z</text>
</g>
<!-- Node2&#45;&gt;Node2 -->
<g id="edge2" class="edge"><title>Node2&#45;&gt;Node2</title>
<path fill="none" stroke="#9a32cd" stroke-dasharray="5,2" d="M90.8542,-106.452C95.2517,-105.083 98,-102.933 98,-100 98,-95.1875 90.599,-92.4805 80.6538,-91.8789"/>
<polygon fill="#9a32cd" stroke="#9a32cd" points="89.9575,-103.052 80.6538,-108.121 91.0877,-109.961 89.9575,-103.052"/>
<text text-anchor="middle" x="109" y="-97.5" font-family="Helvetica,sans-Serif" font-size="10.00"> next</text>
</g>
</g>
</svg>
