<?xml version="1.0" encoding="UTF-8" standalone="no"?>
<!DOCTYPE svg PUBLIC "-//W3C//DTD SVG 1.1//EN"
 "http://www.w3.org/Graphics/SVG/1.1/DTD/svg11.dtd">
<!-- Generated by graphviz version 2.36.0 (20140111.2315)
 -->
<!-- Title: TwoDfold_vars Pages: 1 -->
<svg width="564pt" height="242pt"
 viewBox="0.00 0.00 564.00 242.00" xmlns="http://www.w3.org/2000/svg" xmlns:xlink="http://www.w3.org/1999/xlink">
<g id="graph0" class="graph" transform="scale(1 1) rotate(0) translate(4 238)">
<title>TwoDfold_vars</title>
<!-- Node1 -->
<g id="node1" class="node"><title>Node1</title>
<polygon fill="#bfbfbf" stroke="black" points="62.5,-0.5 62.5,-19.5 145.5,-19.5 145.5,-0.5 62.5,-0.5"/>
<text text-anchor="middle" x="104" y="-7.5" font-family="Helvetica,sans-Serif" font-size="10.00">TwoDfold_vars</text>
</g>
<!-- Node2 -->
<g id="node2" class="node"><title>Node2</title>
<g id="a_node2"><a xlink:href="group__fold__compound.html#structvrna__fc__s" target="_top" xlink:title="The most basic data structure required by many functions throughout the RNAlib. ">
<polygon fill="none" stroke="black" points="215.5,-68.5 215.5,-87.5 274.5,-87.5 274.5,-68.5 215.5,-68.5"/>
<text text-anchor="middle" x="245" y="-75.5" font-family="Helvetica,sans-Serif" font-size="10.00">vrna_fc_s</text>
</a>
</g>
</g>
<!-- Node2&#45;&gt;Node1 -->
<g id="edge1" class="edge"><title>Node2&#45;&gt;Node1</title>
<path fill="none" stroke="#9a32cd" stroke-dasharray="5,2" d="M217.301,-64.0346C189.237,-50.898 146.613,-30.9463 122.438,-19.6305"/>
<polygon fill="#9a32cd" stroke="#9a32cd" points="216.026,-67.3021 226.567,-68.3717 218.994,-60.9623 216.026,-67.3021"/>
<text text-anchor="middle" x="217" y="-41.5" font-family="Helvetica,sans-Serif" font-size="10.00"> compatibility</text>
</g>
<!-- Node3 -->
<g id="node3" class="node"><title>Node3</title>
<g id="a_node3"><a xlink:href="group__soft__constraints.html#structvrna__sc__s" target="_top" xlink:title="The soft constraints data structure. ">
<polygon fill="none" stroke="black" points="494,-146.5 494,-165.5 556,-165.5 556,-146.5 494,-146.5"/>
<text text-anchor="middle" x="525" y="-153.5" font-family="Helvetica,sans-Serif" font-size="10.00">vrna_sc_s</text>
</a>
</g>
</g>
<!-- Node3&#45;&gt;Node2 -->
<g id="edge2" class="edge"><title>Node3&#45;&gt;Node2</title>
<path fill="none" stroke="#9a32cd" stroke-dasharray="5,2" d="M509.203,-139.557C496.664,-128.284 478.118,-113.682 459,-106 396.803,-81.0081 316.958,-77.7653 274.554,-78.0756"/>
<polygon fill="#9a32cd" stroke="#9a32cd" points="506.819,-142.12 516.52,-146.379 511.592,-137 506.819,-142.12"/>
<text text-anchor="middle" x="504" y="-120" font-family="Helvetica,sans-Serif" font-size="10.00"> sc</text>
<text text-anchor="middle" x="504" y="-109" font-family="Helvetica,sans-Serif" font-size="10.00">scs</text>
</g>
<!-- Node4 -->
<g id="node4" class="node"><title>Node4</title>
<g id="a_node4"><a xlink:href="group__energy__parameters.html#structvrna__exp__param__s" target="_top" xlink:title="The datastructure that contains temperature scaled Boltzmann weights of the energy parameters...">
<polygon fill="none" stroke="black" points="96.5,-146.5 96.5,-165.5 195.5,-165.5 195.5,-146.5 96.5,-146.5"/>
<text text-anchor="middle" x="146" y="-153.5" font-family="Helvetica,sans-Serif" font-size="10.00">vrna_exp_param_s</text>
</a>
</g>
</g>
<!-- Node4&#45;&gt;Node2 -->
<g id="edge3" class="edge"><title>Node4&#45;&gt;Node2</title>
<path fill="none" stroke="#9a32cd" stroke-dasharray="5,2" d="M156.281,-137.738C163.101,-127.45 172.835,-114.736 184,-106 194.124,-98.0783 206.937,-91.9501 218.204,-87.5494"/>
<polygon fill="#9a32cd" stroke="#9a32cd" points="153.244,-135.993 150.879,-146.321 159.168,-139.722 153.244,-135.993"/>
<text text-anchor="middle" x="212.5" y="-114.5" font-family="Helvetica,sans-Serif" font-size="10.00"> exp_params</text>
</g>
<!-- Node5 -->
<g id="node5" class="node"><title>Node5</title>
<g id="a_node5"><a xlink:href="group__model__details.html#structvrna__md__s" target="_top" xlink:title="The data structure that contains the complete model details used throughout the calculations. ">
<polygon fill="none" stroke="black" points="62.5,-214.5 62.5,-233.5 127.5,-233.5 127.5,-214.5 62.5,-214.5"/>
<text text-anchor="middle" x="95" y="-221.5" font-family="Helvetica,sans-Serif" font-size="10.00">vrna_md_s</text>
</a>
</g>
</g>
<!-- Node5&#45;&gt;Node4 -->
<g id="edge4" class="edge"><title>Node5&#45;&gt;Node4</title>
<path fill="none" stroke="#9a32cd" stroke-dasharray="5,2" d="M108.847,-206.241C111.577,-202.872 114.4,-199.34 117,-196 124.983,-185.747 133.856,-173.717 139.659,-165.757"/>
<polygon fill="#9a32cd" stroke="#9a32cd" points="106.057,-204.124 102.434,-214.08 111.475,-208.556 106.057,-204.124"/>
<text text-anchor="middle" x="158" y="-187.5" font-family="Helvetica,sans-Serif" font-size="10.00"> model_details</text>
</g>
<!-- Node6 -->
<g id="node6" class="node"><title>Node6</title>
<g id="a_node6"><a xlink:href="group__energy__parameters.html#structvrna__param__s" target="_top" xlink:title="The datastructure that contains temperature scaled energy parameters. ">
<polygon fill="none" stroke="black" points="0,-146.5 0,-165.5 78,-165.5 78,-146.5 0,-146.5"/>
<text text-anchor="middle" x="39" y="-153.5" font-family="Helvetica,sans-Serif" font-size="10.00">vrna_param_s</text>
</a>
</g>
</g>
<!-- Node5&#45;&gt;Node6 -->
<g id="edge6" class="edge"><title>Node5&#45;&gt;Node6</title>
<path fill="none" stroke="#9a32cd" stroke-dasharray="5,2" d="M63.8196,-209.287C58.2364,-205.652 52.9484,-201.243 49,-196 42.2717,-187.066 40.0476,-174.065 39.3256,-165.571"/>
<polygon fill="#9a32cd" stroke="#9a32cd" points="62.2701,-212.433 72.6861,-214.372 65.7524,-206.361 62.2701,-212.433"/>
<text text-anchor="middle" x="81" y="-187.5" font-family="Helvetica,sans-Serif" font-size="10.00"> model_details</text>
</g>
<!-- Node6&#45;&gt;Node1 -->
<g id="edge10" class="edge"><title>Node6&#45;&gt;Node1</title>
<path fill="none" stroke="#9a32cd" stroke-dasharray="5,2" d="M47.0351,-137.199C61.0895,-106.063 89.6326,-42.8294 100.067,-19.7137"/>
<polygon fill="#9a32cd" stroke="#9a32cd" points="43.7955,-135.869 42.8714,-146.423 50.1757,-138.749 43.7955,-135.869"/>
<text text-anchor="middle" x="83" y="-75.5" font-family="Helvetica,sans-Serif" font-size="10.00"> P</text>
</g>
<!-- Node6&#45;&gt;Node2 -->
<g id="edge5" class="edge"><title>Node6&#45;&gt;Node2</title>
<path fill="none" stroke="#9a32cd" stroke-dasharray="5,2" d="M59.4802,-140.813C76.1661,-129.854 100.696,-115.072 124,-106 154.086,-94.2878 190.457,-87.0311 215.419,-83.0297"/>
<polygon fill="#9a32cd" stroke="#9a32cd" points="57.4324,-137.972 51.075,-146.448 61.3302,-143.787 57.4324,-137.972"/>
<text text-anchor="middle" x="142" y="-114.5" font-family="Helvetica,sans-Serif" font-size="10.00"> params</text>
</g>
<!-- Node7 -->
<g id="node7" class="node"><title>Node7</title>
<g id="a_node7"><a xlink:href="group__hard__constraints.html#structvrna__hc__s" target="_top" xlink:title="The hard constraints data structure. ">
<polygon fill="none" stroke="black" points="214,-146.5 214,-165.5 276,-165.5 276,-146.5 214,-146.5"/>
<text text-anchor="middle" x="245" y="-153.5" font-family="Helvetica,sans-Serif" font-size="10.00">vrna_hc_s</text>
</a>
</g>
</g>
<!-- Node7&#45;&gt;Node2 -->
<g id="edge7" class="edge"><title>Node7&#45;&gt;Node2</title>
<path fill="none" stroke="#9a32cd" stroke-dasharray="5,2" d="M245,-136.224C245,-120.697 245,-99.3582 245,-87.6165"/>
<polygon fill="#9a32cd" stroke="#9a32cd" points="241.5,-136.282 245,-146.282 248.5,-136.282 241.5,-136.282"/>
<text text-anchor="middle" x="252" y="-114.5" font-family="Helvetica,sans-Serif" font-size="10.00"> hc</text>
</g>
<!-- Node8 -->
<g id="node8" class="node"><title>Node8</title>
<g id="a_node8"><a xlink:href="group__dp__matrices.html#structvrna__mx__mfe__s" target="_top" xlink:title="Minimum Free Energy (MFE) Dynamic Programming (DP) matrices data structure required within the vrna_f...">
<polygon fill="none" stroke="black" points="294,-146.5 294,-165.5 380,-165.5 380,-146.5 294,-146.5"/>
<text text-anchor="middle" x="337" y="-153.5" font-family="Helvetica,sans-Serif" font-size="10.00">vrna_mx_mfe_s</text>
</a>
</g>
</g>
<!-- Node8&#45;&gt;Node2 -->
<g id="edge8" class="edge"><title>Node8&#45;&gt;Node2</title>
<path fill="none" stroke="#9a32cd" stroke-dasharray="5,2" d="M318.514,-139.729C299.559,-124.07 270.748,-100.27 255.43,-87.6165"/>
<polygon fill="#9a32cd" stroke="#9a32cd" points="316.508,-142.611 326.446,-146.282 320.966,-137.215 316.508,-142.611"/>
<text text-anchor="middle" x="322.5" y="-114.5" font-family="Helvetica,sans-Serif" font-size="10.00"> matrices</text>
</g>
<!-- Node9 -->
<g id="node9" class="node"><title>Node9</title>
<g id="a_node9"><a xlink:href="group__dp__matrices.html#structvrna__mx__pf__s" target="_top" xlink:title="Partition function (PF) Dynamic Programming (DP) matrices data structure required within the vrna_fol...">
<polygon fill="none" stroke="black" points="398,-146.5 398,-165.5 476,-165.5 476,-146.5 398,-146.5"/>
<text text-anchor="middle" x="437" y="-153.5" font-family="Helvetica,sans-Serif" font-size="10.00">vrna_mx_pf_s</text>
</a>
</g>
</g>
<!-- Node9&#45;&gt;Node2 -->
<g id="edge9" class="edge"><title>Node9&#45;&gt;Node2</title>
<path fill="none" stroke="#9a32cd" stroke-dasharray="5,2" d="M414.786,-140.946C397.002,-130.183 371.129,-115.6 347,-106 323.341,-96.587 295.303,-89.4359 274.617,-84.8655"/>
<polygon fill="#9a32cd" stroke="#9a32cd" points="413.42,-144.215 423.771,-146.476 417.089,-138.253 413.42,-144.215"/>
<text text-anchor="middle" x="424" y="-114.5" font-family="Helvetica,sans-Serif" font-size="10.00"> exp_matrices</text>
</g>
</g>
</svg>
