<?xml version="1.0" encoding="utf-8" standalone="no"?>
<!DOCTYPE svg PUBLIC "-//W3C//DTD SVG 1.1//EN"
  "http://www.w3.org/Graphics/SVG/1.1/DTD/svg11.dtd">
<!-- Created with matplotlib (http://matplotlib.org/) -->
<svg height="360pt" version="1.1" viewBox="0 0 360 360" width="360pt" xmlns="http://www.w3.org/2000/svg" xmlns:xlink="http://www.w3.org/1999/xlink">
 <defs>
  <style type="text/css">
*{stroke-linecap:butt;stroke-linejoin:round;stroke-miterlimit:100000;}
  </style>
 </defs>
 <g id="figure_1">
  <g id="patch_1">
   <path d="M 0 360 
L 360 360 
L 360 0 
L 0 0 
z
" style="fill:#ffffff;"/>
  </g>
  <g id="axes_1">
   <g id="patch_2">
    <path d="M 45 315 
L 324 315 
L 324 36 
L 45 36 
z
" style="fill:#ffffff;"/>
   </g>
   <g id="PathCollection_1">
    <defs>
     <path d="M 0 1.581139 
C 0.419323 1.581139 0.821528 1.41454 1.118034 1.118034 
C 1.41454 0.821528 1.581139 0.419323 1.581139 0 
C 1.581139 -0.419323 1.41454 -0.821528 1.118034 -1.118034 
C 0.821528 -1.41454 0.419323 -1.581139 0 -1.581139 
C -0.419323 -1.581139 -0.821528 -1.41454 -1.118034 -1.118034 
C -1.41454 -0.821528 -1.581139 -0.419323 -1.581139 0 
C -1.581139 0.419323 -1.41454 0.821528 -1.118034 1.118034 
C -0.821528 1.41454 -0.419323 1.581139 0 1.581139 
z
" id="m3141ac5d71"/>
    </defs>
    <g clip-path="url(#p85aca2708c)">
     <use style="fill:#0000ff;" x="44.5342237062" xlink:href="#m3141ac5d71" y="80.7175218918"/>
     <use style="fill:#0000ff;" x="67.8230383973" xlink:href="#m3141ac5d71" y="80.7167527664"/>
     <use style="fill:#0000ff;" x="91.1118530885" xlink:href="#m3141ac5d71" y="80.7243179521"/>
     <use style="fill:#0000ff;" x="114.40066778" xlink:href="#m3141ac5d71" y="80.7237208449"/>
     <use style="fill:#0000ff;" x="137.689482471" xlink:href="#m3141ac5d71" y="80.718273547"/>
     <use style="fill:#0000ff;" x="160.978297162" xlink:href="#m3141ac5d71" y="80.7198634014"/>
     <use style="fill:#0000ff;" x="184.267111853" xlink:href="#m3141ac5d71" y="80.7172586154"/>
     <use style="fill:#0000ff;" x="207.555926544" xlink:href="#m3141ac5d71" y="80.7184288123"/>
     <use style="fill:#0000ff;" x="230.844741235" xlink:href="#m3141ac5d71" y="80.7170736346"/>
     <use style="fill:#0000ff;" x="254.133555927" xlink:href="#m3141ac5d71" y="80.71701153"/>
     <use style="fill:#0000ff;" x="277.422370618" xlink:href="#m3141ac5d71" y="80.7174183926"/>
     <use style="fill:#0000ff;" x="300.711185309" xlink:href="#m3141ac5d71" y="80.7170498548"/>
    </g>
   </g>
   <g id="patch_3">
    <path d="M 45 315 
L 324 315 
" style="fill:none;stroke:#000000;stroke-linecap:square;stroke-linejoin:miter;"/>
   </g>
   <g id="patch_4">
    <path d="M 45 315 
L 45 36 
" style="fill:none;stroke:#000000;stroke-linecap:square;stroke-linejoin:miter;"/>
   </g>
   <g id="matplotlib.axis_1">
    <g id="xtick_1">
     <g id="text_1">
      <!-- 0 -->
      <defs>
       <path d="M 31.78125 66.40625 
Q 24.171875 66.40625 20.328125 58.90625 
Q 16.5 51.421875 16.5 36.375 
Q 16.5 21.390625 20.328125 13.890625 
Q 24.171875 6.390625 31.78125 6.390625 
Q 39.453125 6.390625 43.28125 13.890625 
Q 47.125 21.390625 47.125 36.375 
Q 47.125 51.421875 43.28125 58.90625 
Q 39.453125 66.40625 31.78125 66.40625 
M 31.78125 74.21875 
Q 44.046875 74.21875 50.515625 64.515625 
Q 56.984375 54.828125 56.984375 36.375 
Q 56.984375 17.96875 50.515625 8.265625 
Q 44.046875 -1.421875 31.78125 -1.421875 
Q 19.53125 -1.421875 13.0625 8.265625 
Q 6.59375 17.96875 6.59375 36.375 
Q 6.59375 54.828125 13.0625 64.515625 
Q 19.53125 74.21875 31.78125 74.21875 
" id="BitstreamVeraSans-Roman-30"/>
      </defs>
      <g transform="translate(41.3529737062 326.5984375)scale(0.1 -0.1)">
       <use xlink:href="#BitstreamVeraSans-Roman-30"/>
      </g>
     </g>
    </g>
    <g id="xtick_2">
     <g id="line2d_1">
      <defs>
       <path d="M 0 0 
L 0 -4 
" id="m25428c5503" style="stroke:#000000;stroke-width:0.5;"/>
      </defs>
      <g>
       <use style="stroke:#000000;stroke-width:0.5;" x="91.1118530885" xlink:href="#m25428c5503" y="315.0"/>
      </g>
     </g>
     <g id="line2d_2">
      <defs>
       <path d="M 0 0 
L 0 4 
" id="mcfe06460b6" style="stroke:#000000;stroke-width:0.5;"/>
      </defs>
      <g>
       <use style="stroke:#000000;stroke-width:0.5;" x="91.1118530885" xlink:href="#mcfe06460b6" y="36.0"/>
      </g>
     </g>
     <g id="text_2">
      <!-- 100 -->
      <defs>
       <path d="M 12.40625 8.296875 
L 28.515625 8.296875 
L 28.515625 63.921875 
L 10.984375 60.40625 
L 10.984375 69.390625 
L 28.421875 72.90625 
L 38.28125 72.90625 
L 38.28125 8.296875 
L 54.390625 8.296875 
L 54.390625 0 
L 12.40625 0 
z
" id="BitstreamVeraSans-Roman-31"/>
      </defs>
      <g transform="translate(81.5681030885 326.5984375)scale(0.1 -0.1)">
       <use xlink:href="#BitstreamVeraSans-Roman-31"/>
       <use x="63.623046875" xlink:href="#BitstreamVeraSans-Roman-30"/>
       <use x="127.24609375" xlink:href="#BitstreamVeraSans-Roman-30"/>
      </g>
     </g>
    </g>
    <g id="xtick_3">
     <g id="line2d_3">
      <g>
       <use style="stroke:#000000;stroke-width:0.5;" x="137.689482471" xlink:href="#m25428c5503" y="315.0"/>
      </g>
     </g>
     <g id="line2d_4">
      <g>
       <use style="stroke:#000000;stroke-width:0.5;" x="137.689482471" xlink:href="#mcfe06460b6" y="36.0"/>
      </g>
     </g>
     <g id="text_3">
      <!-- 200 -->
      <defs>
       <path d="M 19.1875 8.296875 
L 53.609375 8.296875 
L 53.609375 0 
L 7.328125 0 
L 7.328125 8.296875 
Q 12.9375 14.109375 22.625 23.890625 
Q 32.328125 33.6875 34.8125 36.53125 
Q 39.546875 41.84375 41.421875 45.53125 
Q 43.3125 49.21875 43.3125 52.78125 
Q 43.3125 58.59375 39.234375 62.25 
Q 35.15625 65.921875 28.609375 65.921875 
Q 23.96875 65.921875 18.8125 64.3125 
Q 13.671875 62.703125 7.8125 59.421875 
L 7.8125 69.390625 
Q 13.765625 71.78125 18.9375 73 
Q 24.125 74.21875 28.421875 74.21875 
Q 39.75 74.21875 46.484375 68.546875 
Q 53.21875 62.890625 53.21875 53.421875 
Q 53.21875 48.921875 51.53125 44.890625 
Q 49.859375 40.875 45.40625 35.40625 
Q 44.1875 33.984375 37.640625 27.21875 
Q 31.109375 20.453125 19.1875 8.296875 
" id="BitstreamVeraSans-Roman-32"/>
      </defs>
      <g transform="translate(128.145732471 326.5984375)scale(0.1 -0.1)">
       <use xlink:href="#BitstreamVeraSans-Roman-32"/>
       <use x="63.623046875" xlink:href="#BitstreamVeraSans-Roman-30"/>
       <use x="127.24609375" xlink:href="#BitstreamVeraSans-Roman-30"/>
      </g>
     </g>
    </g>
    <g id="xtick_4">
     <g id="line2d_5">
      <g>
       <use style="stroke:#000000;stroke-width:0.5;" x="184.267111853" xlink:href="#m25428c5503" y="315.0"/>
      </g>
     </g>
     <g id="line2d_6">
      <g>
       <use style="stroke:#000000;stroke-width:0.5;" x="184.267111853" xlink:href="#mcfe06460b6" y="36.0"/>
      </g>
     </g>
     <g id="text_4">
      <!-- 300 -->
      <defs>
       <path d="M 40.578125 39.3125 
Q 47.65625 37.796875 51.625 33 
Q 55.609375 28.21875 55.609375 21.1875 
Q 55.609375 10.40625 48.1875 4.484375 
Q 40.765625 -1.421875 27.09375 -1.421875 
Q 22.515625 -1.421875 17.65625 -0.515625 
Q 12.796875 0.390625 7.625 2.203125 
L 7.625 11.71875 
Q 11.71875 9.328125 16.59375 8.109375 
Q 21.484375 6.890625 26.8125 6.890625 
Q 36.078125 6.890625 40.9375 10.546875 
Q 45.796875 14.203125 45.796875 21.1875 
Q 45.796875 27.640625 41.28125 31.265625 
Q 36.765625 34.90625 28.71875 34.90625 
L 20.21875 34.90625 
L 20.21875 43.015625 
L 29.109375 43.015625 
Q 36.375 43.015625 40.234375 45.921875 
Q 44.09375 48.828125 44.09375 54.296875 
Q 44.09375 59.90625 40.109375 62.90625 
Q 36.140625 65.921875 28.71875 65.921875 
Q 24.65625 65.921875 20.015625 65.03125 
Q 15.375 64.15625 9.8125 62.3125 
L 9.8125 71.09375 
Q 15.4375 72.65625 20.34375 73.4375 
Q 25.25 74.21875 29.59375 74.21875 
Q 40.828125 74.21875 47.359375 69.109375 
Q 53.90625 64.015625 53.90625 55.328125 
Q 53.90625 49.265625 50.4375 45.09375 
Q 46.96875 40.921875 40.578125 39.3125 
" id="BitstreamVeraSans-Roman-33"/>
      </defs>
      <g transform="translate(174.723361853 326.5984375)scale(0.1 -0.1)">
       <use xlink:href="#BitstreamVeraSans-Roman-33"/>
       <use x="63.623046875" xlink:href="#BitstreamVeraSans-Roman-30"/>
       <use x="127.24609375" xlink:href="#BitstreamVeraSans-Roman-30"/>
      </g>
     </g>
    </g>
    <g id="xtick_5">
     <g id="line2d_7">
      <g>
       <use style="stroke:#000000;stroke-width:0.5;" x="230.844741235" xlink:href="#m25428c5503" y="315.0"/>
      </g>
     </g>
     <g id="line2d_8">
      <g>
       <use style="stroke:#000000;stroke-width:0.5;" x="230.844741235" xlink:href="#mcfe06460b6" y="36.0"/>
      </g>
     </g>
     <g id="text_5">
      <!-- 400 -->
      <defs>
       <path d="M 37.796875 64.3125 
L 12.890625 25.390625 
L 37.796875 25.390625 
z
M 35.203125 72.90625 
L 47.609375 72.90625 
L 47.609375 25.390625 
L 58.015625 25.390625 
L 58.015625 17.1875 
L 47.609375 17.1875 
L 47.609375 0 
L 37.796875 0 
L 37.796875 17.1875 
L 4.890625 17.1875 
L 4.890625 26.703125 
z
" id="BitstreamVeraSans-Roman-34"/>
      </defs>
      <g transform="translate(221.300991235 326.5984375)scale(0.1 -0.1)">
       <use xlink:href="#BitstreamVeraSans-Roman-34"/>
       <use x="63.623046875" xlink:href="#BitstreamVeraSans-Roman-30"/>
       <use x="127.24609375" xlink:href="#BitstreamVeraSans-Roman-30"/>
      </g>
     </g>
    </g>
    <g id="xtick_6">
     <g id="line2d_9">
      <g>
       <use style="stroke:#000000;stroke-width:0.5;" x="277.422370618" xlink:href="#m25428c5503" y="315.0"/>
      </g>
     </g>
     <g id="line2d_10">
      <g>
       <use style="stroke:#000000;stroke-width:0.5;" x="277.422370618" xlink:href="#mcfe06460b6" y="36.0"/>
      </g>
     </g>
     <g id="text_6">
      <!-- 500 -->
      <defs>
       <path d="M 10.796875 72.90625 
L 49.515625 72.90625 
L 49.515625 64.59375 
L 19.828125 64.59375 
L 19.828125 46.734375 
Q 21.96875 47.46875 24.109375 47.828125 
Q 26.265625 48.1875 28.421875 48.1875 
Q 40.625 48.1875 47.75 41.5 
Q 54.890625 34.8125 54.890625 23.390625 
Q 54.890625 11.625 47.5625 5.09375 
Q 40.234375 -1.421875 26.90625 -1.421875 
Q 22.3125 -1.421875 17.546875 -0.640625 
Q 12.796875 0.140625 7.71875 1.703125 
L 7.71875 11.625 
Q 12.109375 9.234375 16.796875 8.0625 
Q 21.484375 6.890625 26.703125 6.890625 
Q 35.15625 6.890625 40.078125 11.328125 
Q 45.015625 15.765625 45.015625 23.390625 
Q 45.015625 31 40.078125 35.4375 
Q 35.15625 39.890625 26.703125 39.890625 
Q 22.75 39.890625 18.8125 39.015625 
Q 14.890625 38.140625 10.796875 36.28125 
z
" id="BitstreamVeraSans-Roman-35"/>
      </defs>
      <g transform="translate(267.878620618 326.5984375)scale(0.1 -0.1)">
       <use xlink:href="#BitstreamVeraSans-Roman-35"/>
       <use x="63.623046875" xlink:href="#BitstreamVeraSans-Roman-30"/>
       <use x="127.24609375" xlink:href="#BitstreamVeraSans-Roman-30"/>
      </g>
     </g>
    </g>
    <g id="xtick_7">
     <g id="line2d_11">
      <g>
       <use style="stroke:#000000;stroke-width:0.5;" x="324.0" xlink:href="#m25428c5503" y="315.0"/>
      </g>
     </g>
     <g id="line2d_12">
      <g>
       <use style="stroke:#000000;stroke-width:0.5;" x="324.0" xlink:href="#mcfe06460b6" y="36.0"/>
      </g>
     </g>
     <g id="text_7">
      <!-- 600 -->
      <defs>
       <path d="M 33.015625 40.375 
Q 26.375 40.375 22.484375 35.828125 
Q 18.609375 31.296875 18.609375 23.390625 
Q 18.609375 15.53125 22.484375 10.953125 
Q 26.375 6.390625 33.015625 6.390625 
Q 39.65625 6.390625 43.53125 10.953125 
Q 47.40625 15.53125 47.40625 23.390625 
Q 47.40625 31.296875 43.53125 35.828125 
Q 39.65625 40.375 33.015625 40.375 
M 52.59375 71.296875 
L 52.59375 62.3125 
Q 48.875 64.0625 45.09375 64.984375 
Q 41.3125 65.921875 37.59375 65.921875 
Q 27.828125 65.921875 22.671875 59.328125 
Q 17.53125 52.734375 16.796875 39.40625 
Q 19.671875 43.65625 24.015625 45.921875 
Q 28.375 48.1875 33.59375 48.1875 
Q 44.578125 48.1875 50.953125 41.515625 
Q 57.328125 34.859375 57.328125 23.390625 
Q 57.328125 12.15625 50.6875 5.359375 
Q 44.046875 -1.421875 33.015625 -1.421875 
Q 20.359375 -1.421875 13.671875 8.265625 
Q 6.984375 17.96875 6.984375 36.375 
Q 6.984375 53.65625 15.1875 63.9375 
Q 23.390625 74.21875 37.203125 74.21875 
Q 40.921875 74.21875 44.703125 73.484375 
Q 48.484375 72.75 52.59375 71.296875 
" id="BitstreamVeraSans-Roman-36"/>
      </defs>
      <g transform="translate(314.45625 326.5984375)scale(0.1 -0.1)">
       <use xlink:href="#BitstreamVeraSans-Roman-36"/>
       <use x="63.623046875" xlink:href="#BitstreamVeraSans-Roman-30"/>
       <use x="127.24609375" xlink:href="#BitstreamVeraSans-Roman-30"/>
      </g>
     </g>
    </g>
    <g id="text_8">
     <!-- context-length -->
     <defs>
      <path d="M 54.890625 33.015625 
L 54.890625 0 
L 45.90625 0 
L 45.90625 32.71875 
Q 45.90625 40.484375 42.875 44.328125 
Q 39.84375 48.1875 33.796875 48.1875 
Q 26.515625 48.1875 22.3125 43.546875 
Q 18.109375 38.921875 18.109375 30.90625 
L 18.109375 0 
L 9.078125 0 
L 9.078125 54.6875 
L 18.109375 54.6875 
L 18.109375 46.1875 
Q 21.34375 51.125 25.703125 53.5625 
Q 30.078125 56 35.796875 56 
Q 45.21875 56 50.046875 50.171875 
Q 54.890625 44.34375 54.890625 33.015625 
" id="BitstreamVeraSans-Roman-6e"/>
      <path d="M 30.609375 48.390625 
Q 23.390625 48.390625 19.1875 42.75 
Q 14.984375 37.109375 14.984375 27.296875 
Q 14.984375 17.484375 19.15625 11.84375 
Q 23.34375 6.203125 30.609375 6.203125 
Q 37.796875 6.203125 41.984375 11.859375 
Q 46.1875 17.53125 46.1875 27.296875 
Q 46.1875 37.015625 41.984375 42.703125 
Q 37.796875 48.390625 30.609375 48.390625 
M 30.609375 56 
Q 42.328125 56 49.015625 48.375 
Q 55.71875 40.765625 55.71875 27.296875 
Q 55.71875 13.875 49.015625 6.21875 
Q 42.328125 -1.421875 30.609375 -1.421875 
Q 18.84375 -1.421875 12.171875 6.21875 
Q 5.515625 13.875 5.515625 27.296875 
Q 5.515625 40.765625 12.171875 48.375 
Q 18.84375 56 30.609375 56 
" id="BitstreamVeraSans-Roman-6f"/>
      <path d="M 9.421875 75.984375 
L 18.40625 75.984375 
L 18.40625 0 
L 9.421875 0 
z
" id="BitstreamVeraSans-Roman-6c"/>
      <path d="M 4.890625 31.390625 
L 31.203125 31.390625 
L 31.203125 23.390625 
L 4.890625 23.390625 
z
" id="BitstreamVeraSans-Roman-2d"/>
      <path d="M 54.890625 54.6875 
L 35.109375 28.078125 
L 55.90625 0 
L 45.3125 0 
L 29.390625 21.484375 
L 13.484375 0 
L 2.875 0 
L 24.125 28.609375 
L 4.6875 54.6875 
L 15.28125 54.6875 
L 29.78125 35.203125 
L 44.28125 54.6875 
z
" id="BitstreamVeraSans-Roman-78"/>
      <path d="M 56.203125 29.59375 
L 56.203125 25.203125 
L 14.890625 25.203125 
Q 15.484375 15.921875 20.484375 11.0625 
Q 25.484375 6.203125 34.421875 6.203125 
Q 39.59375 6.203125 44.453125 7.46875 
Q 49.3125 8.734375 54.109375 11.28125 
L 54.109375 2.78125 
Q 49.265625 0.734375 44.1875 -0.34375 
Q 39.109375 -1.421875 33.890625 -1.421875 
Q 20.796875 -1.421875 13.15625 6.1875 
Q 5.515625 13.8125 5.515625 26.8125 
Q 5.515625 40.234375 12.765625 48.109375 
Q 20.015625 56 32.328125 56 
Q 43.359375 56 49.78125 48.890625 
Q 56.203125 41.796875 56.203125 29.59375 
M 47.21875 32.234375 
Q 47.125 39.59375 43.09375 43.984375 
Q 39.0625 48.390625 32.421875 48.390625 
Q 24.90625 48.390625 20.390625 44.140625 
Q 15.875 39.890625 15.1875 32.171875 
z
" id="BitstreamVeraSans-Roman-65"/>
      <path d="M 18.3125 70.21875 
L 18.3125 54.6875 
L 36.8125 54.6875 
L 36.8125 47.703125 
L 18.3125 47.703125 
L 18.3125 18.015625 
Q 18.3125 11.328125 20.140625 9.421875 
Q 21.96875 7.515625 27.59375 7.515625 
L 36.8125 7.515625 
L 36.8125 0 
L 27.59375 0 
Q 17.1875 0 13.234375 3.875 
Q 9.28125 7.765625 9.28125 18.015625 
L 9.28125 47.703125 
L 2.6875 47.703125 
L 2.6875 54.6875 
L 9.28125 54.6875 
L 9.28125 70.21875 
z
" id="BitstreamVeraSans-Roman-74"/>
      <path d="M 45.40625 27.984375 
Q 45.40625 37.75 41.375 43.109375 
Q 37.359375 48.484375 30.078125 48.484375 
Q 22.859375 48.484375 18.828125 43.109375 
Q 14.796875 37.75 14.796875 27.984375 
Q 14.796875 18.265625 18.828125 12.890625 
Q 22.859375 7.515625 30.078125 7.515625 
Q 37.359375 7.515625 41.375 12.890625 
Q 45.40625 18.265625 45.40625 27.984375 
M 54.390625 6.78125 
Q 54.390625 -7.171875 48.1875 -13.984375 
Q 42 -20.796875 29.203125 -20.796875 
Q 24.46875 -20.796875 20.265625 -20.09375 
Q 16.0625 -19.390625 12.109375 -17.921875 
L 12.109375 -9.1875 
Q 16.0625 -11.328125 19.921875 -12.34375 
Q 23.78125 -13.375 27.78125 -13.375 
Q 36.625 -13.375 41.015625 -8.765625 
Q 45.40625 -4.15625 45.40625 5.171875 
L 45.40625 9.625 
Q 42.625 4.78125 38.28125 2.390625 
Q 33.9375 0 27.875 0 
Q 17.828125 0 11.671875 7.65625 
Q 5.515625 15.328125 5.515625 27.984375 
Q 5.515625 40.671875 11.671875 48.328125 
Q 17.828125 56 27.875 56 
Q 33.9375 56 38.28125 53.609375 
Q 42.625 51.21875 45.40625 46.390625 
L 45.40625 54.6875 
L 54.390625 54.6875 
z
" id="BitstreamVeraSans-Roman-67"/>
      <path d="M 48.78125 52.59375 
L 48.78125 44.1875 
Q 44.96875 46.296875 41.140625 47.34375 
Q 37.3125 48.390625 33.40625 48.390625 
Q 24.65625 48.390625 19.8125 42.84375 
Q 14.984375 37.3125 14.984375 27.296875 
Q 14.984375 17.28125 19.8125 11.734375 
Q 24.65625 6.203125 33.40625 6.203125 
Q 37.3125 6.203125 41.140625 7.25 
Q 44.96875 8.296875 48.78125 10.40625 
L 48.78125 2.09375 
Q 45.015625 0.34375 40.984375 -0.53125 
Q 36.96875 -1.421875 32.421875 -1.421875 
Q 20.0625 -1.421875 12.78125 6.34375 
Q 5.515625 14.109375 5.515625 27.296875 
Q 5.515625 40.671875 12.859375 48.328125 
Q 20.21875 56 33.015625 56 
Q 37.15625 56 41.109375 55.140625 
Q 45.0625 54.296875 48.78125 52.59375 
" id="BitstreamVeraSans-Roman-63"/>
      <path d="M 54.890625 33.015625 
L 54.890625 0 
L 45.90625 0 
L 45.90625 32.71875 
Q 45.90625 40.484375 42.875 44.328125 
Q 39.84375 48.1875 33.796875 48.1875 
Q 26.515625 48.1875 22.3125 43.546875 
Q 18.109375 38.921875 18.109375 30.90625 
L 18.109375 0 
L 9.078125 0 
L 9.078125 75.984375 
L 18.109375 75.984375 
L 18.109375 46.1875 
Q 21.34375 51.125 25.703125 53.5625 
Q 30.078125 56 35.796875 56 
Q 45.21875 56 50.046875 50.171875 
Q 54.890625 44.34375 54.890625 33.015625 
" id="BitstreamVeraSans-Roman-68"/>
     </defs>
     <g transform="translate(147.82578125 341.2765625)scale(0.1 -0.1)">
      <use xlink:href="#BitstreamVeraSans-Roman-63"/>
      <use x="54.98046875" xlink:href="#BitstreamVeraSans-Roman-6f"/>
      <use x="116.162109375" xlink:href="#BitstreamVeraSans-Roman-6e"/>
      <use x="179.541015625" xlink:href="#BitstreamVeraSans-Roman-74"/>
      <use x="218.75" xlink:href="#BitstreamVeraSans-Roman-65"/>
      <use x="280.2578125" xlink:href="#BitstreamVeraSans-Roman-78"/>
      <use x="339.4375" xlink:href="#BitstreamVeraSans-Roman-74"/>
      <use x="378.646484375" xlink:href="#BitstreamVeraSans-Roman-2d"/>
      <use x="414.73046875" xlink:href="#BitstreamVeraSans-Roman-6c"/>
      <use x="442.513671875" xlink:href="#BitstreamVeraSans-Roman-65"/>
      <use x="504.037109375" xlink:href="#BitstreamVeraSans-Roman-6e"/>
      <use x="567.416015625" xlink:href="#BitstreamVeraSans-Roman-67"/>
      <use x="630.892578125" xlink:href="#BitstreamVeraSans-Roman-74"/>
      <use x="670.1015625" xlink:href="#BitstreamVeraSans-Roman-68"/>
     </g>
    </g>
   </g>
   <g id="matplotlib.axis_2">
    <g id="ytick_1">
     <g id="line2d_13">
      <defs>
       <path d="M 0 0 
L 4 0 
" id="m849adc9666" style="stroke:#000000;stroke-width:0.5;"/>
      </defs>
      <g>
       <use style="stroke:#000000;stroke-width:0.5;" x="45.0" xlink:href="#m849adc9666" y="315.0"/>
      </g>
     </g>
     <g id="line2d_14">
      <defs>
       <path d="M 0 0 
L -4 0 
" id="mfa5a7479f3" style="stroke:#000000;stroke-width:0.5;"/>
      </defs>
      <g>
       <use style="stroke:#000000;stroke-width:0.5;" x="324.0" xlink:href="#mfa5a7479f3" y="315.0"/>
      </g>
     </g>
     <g id="text_9">
      <!-- $\mathdefault{10^{-5}}$ -->
      <g transform="translate(19.9 317.9703125)scale(0.1 -0.1)">
       <use transform="translate(0.0 0.715625)" xlink:href="#BitstreamVeraSans-Roman-31"/>
       <use transform="translate(63.623046875 0.715625)" xlink:href="#BitstreamVeraSans-Roman-30"/>
       <use transform="translate(132.75859375 47.965625)scale(0.7)" xlink:href="#BitstreamVeraSans-Roman-2d"/>
       <use transform="translate(158.017382812 47.965625)scale(0.7)" xlink:href="#BitstreamVeraSans-Roman-35"/>
      </g>
     </g>
    </g>
    <g id="ytick_2">
     <g id="line2d_15">
      <g>
       <use style="stroke:#000000;stroke-width:0.5;" x="45.0" xlink:href="#m849adc9666" y="268.142654241"/>
      </g>
     </g>
     <g id="line2d_16">
      <g>
       <use style="stroke:#000000;stroke-width:0.5;" x="324.0" xlink:href="#mfa5a7479f3" y="268.142654241"/>
      </g>
     </g>
     <g id="text_10">
      <!-- $\mathdefault{10^{-4}}$ -->
      <g transform="translate(19.9 271.112966741)scale(0.1 -0.1)">
       <use transform="translate(0.0 0.715625)" xlink:href="#BitstreamVeraSans-Roman-31"/>
       <use transform="translate(63.623046875 0.715625)" xlink:href="#BitstreamVeraSans-Roman-30"/>
       <use transform="translate(132.75859375 47.965625)scale(0.7)" xlink:href="#BitstreamVeraSans-Roman-2d"/>
       <use transform="translate(158.017382812 47.965625)scale(0.7)" xlink:href="#BitstreamVeraSans-Roman-34"/>
      </g>
     </g>
    </g>
    <g id="ytick_3">
     <g id="line2d_17">
      <g>
       <use style="stroke:#000000;stroke-width:0.5;" x="45.0" xlink:href="#m849adc9666" y="221.285308481"/>
      </g>
     </g>
     <g id="line2d_18">
      <g>
       <use style="stroke:#000000;stroke-width:0.5;" x="324.0" xlink:href="#mfa5a7479f3" y="221.285308481"/>
      </g>
     </g>
     <g id="text_11">
      <!-- $\mathdefault{10^{-3}}$ -->
      <g transform="translate(19.9 224.305620981)scale(0.1 -0.1)">
       <use transform="translate(0.0 0.796875)" xlink:href="#BitstreamVeraSans-Roman-31"/>
       <use transform="translate(63.623046875 0.796875)" xlink:href="#BitstreamVeraSans-Roman-30"/>
       <use transform="translate(132.75859375 48.046875)scale(0.7)" xlink:href="#BitstreamVeraSans-Roman-2d"/>
       <use transform="translate(158.017382812 48.046875)scale(0.7)" xlink:href="#BitstreamVeraSans-Roman-33"/>
      </g>
     </g>
    </g>
    <g id="ytick_4">
     <g id="line2d_19">
      <g>
       <use style="stroke:#000000;stroke-width:0.5;" x="45.0" xlink:href="#m849adc9666" y="174.427962722"/>
      </g>
     </g>
     <g id="line2d_20">
      <g>
       <use style="stroke:#000000;stroke-width:0.5;" x="324.0" xlink:href="#mfa5a7479f3" y="174.427962722"/>
      </g>
     </g>
     <g id="text_12">
      <!-- $\mathdefault{10^{-2}}$ -->
      <g transform="translate(19.9 177.448275222)scale(0.1 -0.1)">
       <use transform="translate(0.0 0.796875)" xlink:href="#BitstreamVeraSans-Roman-31"/>
       <use transform="translate(63.623046875 0.796875)" xlink:href="#BitstreamVeraSans-Roman-30"/>
       <use transform="translate(132.75859375 48.046875)scale(0.7)" xlink:href="#BitstreamVeraSans-Roman-2d"/>
       <use transform="translate(158.017382812 48.046875)scale(0.7)" xlink:href="#BitstreamVeraSans-Roman-32"/>
      </g>
     </g>
    </g>
    <g id="ytick_5">
     <g id="line2d_21">
      <g>
       <use style="stroke:#000000;stroke-width:0.5;" x="45.0" xlink:href="#m849adc9666" y="127.570616962"/>
      </g>
     </g>
     <g id="line2d_22">
      <g>
       <use style="stroke:#000000;stroke-width:0.5;" x="324.0" xlink:href="#mfa5a7479f3" y="127.570616962"/>
      </g>
     </g>
     <g id="text_13">
      <!-- $\mathdefault{10^{-1}}$ -->
      <g transform="translate(19.9 130.540929462)scale(0.1 -0.1)">
       <use transform="translate(0.0 0.715625)" xlink:href="#BitstreamVeraSans-Roman-31"/>
       <use transform="translate(63.623046875 0.715625)" xlink:href="#BitstreamVeraSans-Roman-30"/>
       <use transform="translate(132.75859375 47.965625)scale(0.7)" xlink:href="#BitstreamVeraSans-Roman-2d"/>
       <use transform="translate(158.017382812 47.965625)scale(0.7)" xlink:href="#BitstreamVeraSans-Roman-31"/>
      </g>
     </g>
    </g>
    <g id="ytick_6">
     <g id="line2d_23">
      <g>
       <use style="stroke:#000000;stroke-width:0.5;" x="45.0" xlink:href="#m849adc9666" y="80.7132712031"/>
      </g>
     </g>
     <g id="line2d_24">
      <g>
       <use style="stroke:#000000;stroke-width:0.5;" x="324.0" xlink:href="#mfa5a7479f3" y="80.7132712031"/>
      </g>
     </g>
     <g id="text_14">
      <!-- $\mathdefault{10^{0}}$ -->
      <g transform="translate(22.4 83.7335837031)scale(0.1 -0.1)">
       <use transform="translate(0.0 0.796875)" xlink:href="#BitstreamVeraSans-Roman-31"/>
       <use transform="translate(63.623046875 0.796875)" xlink:href="#BitstreamVeraSans-Roman-30"/>
       <use transform="translate(132.75859375 48.046875)scale(0.7)" xlink:href="#BitstreamVeraSans-Roman-30"/>
      </g>
     </g>
    </g>
    <g id="ytick_7">
     <g id="line2d_25">
      <defs>
       <path d="M 0 0 
L 2 0 
" id="m2d40337b01" style="stroke:#000000;stroke-width:0.5;"/>
      </defs>
      <g>
       <use style="stroke:#000000;stroke-width:0.5;" x="45.0" xlink:href="#m2d40337b01" y="300.894533409"/>
      </g>
     </g>
     <g id="line2d_26">
      <defs>
       <path d="M 0 0 
L -2 0 
" id="mc570e0305b" style="stroke:#000000;stroke-width:0.5;"/>
      </defs>
      <g>
       <use style="stroke:#000000;stroke-width:0.5;" x="324.0" xlink:href="#mc570e0305b" y="300.894533409"/>
      </g>
     </g>
    </g>
    <g id="ytick_8">
     <g id="line2d_27">
      <g>
       <use style="stroke:#000000;stroke-width:0.5;" x="45.0" xlink:href="#m2d40337b01" y="292.643364398"/>
      </g>
     </g>
     <g id="line2d_28">
      <g>
       <use style="stroke:#000000;stroke-width:0.5;" x="324.0" xlink:href="#mc570e0305b" y="292.643364398"/>
      </g>
     </g>
    </g>
    <g id="ytick_9">
     <g id="line2d_29">
      <g>
       <use style="stroke:#000000;stroke-width:0.5;" x="45.0" xlink:href="#m2d40337b01" y="286.789066818"/>
      </g>
     </g>
     <g id="line2d_30">
      <g>
       <use style="stroke:#000000;stroke-width:0.5;" x="324.0" xlink:href="#mc570e0305b" y="286.789066818"/>
      </g>
     </g>
    </g>
    <g id="ytick_10">
     <g id="line2d_31">
      <g>
       <use style="stroke:#000000;stroke-width:0.5;" x="45.0" xlink:href="#m2d40337b01" y="282.248120831"/>
      </g>
     </g>
     <g id="line2d_32">
      <g>
       <use style="stroke:#000000;stroke-width:0.5;" x="324.0" xlink:href="#mc570e0305b" y="282.248120831"/>
      </g>
     </g>
    </g>
    <g id="ytick_11">
     <g id="line2d_33">
      <g>
       <use style="stroke:#000000;stroke-width:0.5;" x="45.0" xlink:href="#m2d40337b01" y="278.537897808"/>
      </g>
     </g>
     <g id="line2d_34">
      <g>
       <use style="stroke:#000000;stroke-width:0.5;" x="324.0" xlink:href="#mc570e0305b" y="278.537897808"/>
      </g>
     </g>
    </g>
    <g id="ytick_12">
     <g id="line2d_35">
      <g>
       <use style="stroke:#000000;stroke-width:0.5;" x="45.0" xlink:href="#m2d40337b01" y="275.400948938"/>
      </g>
     </g>
     <g id="line2d_36">
      <g>
       <use style="stroke:#000000;stroke-width:0.5;" x="324.0" xlink:href="#mc570e0305b" y="275.400948938"/>
      </g>
     </g>
    </g>
    <g id="ytick_13">
     <g id="line2d_37">
      <g>
       <use style="stroke:#000000;stroke-width:0.5;" x="45.0" xlink:href="#m2d40337b01" y="272.683600228"/>
      </g>
     </g>
     <g id="line2d_38">
      <g>
       <use style="stroke:#000000;stroke-width:0.5;" x="324.0" xlink:href="#mc570e0305b" y="272.683600228"/>
      </g>
     </g>
    </g>
    <g id="ytick_14">
     <g id="line2d_39">
      <g>
       <use style="stroke:#000000;stroke-width:0.5;" x="45.0" xlink:href="#m2d40337b01" y="270.286728797"/>
      </g>
     </g>
     <g id="line2d_40">
      <g>
       <use style="stroke:#000000;stroke-width:0.5;" x="324.0" xlink:href="#mc570e0305b" y="270.286728797"/>
      </g>
     </g>
    </g>
    <g id="ytick_15">
     <g id="line2d_41">
      <g>
       <use style="stroke:#000000;stroke-width:0.5;" x="45.0" xlink:href="#m2d40337b01" y="254.03718765"/>
      </g>
     </g>
     <g id="line2d_42">
      <g>
       <use style="stroke:#000000;stroke-width:0.5;" x="324.0" xlink:href="#mc570e0305b" y="254.03718765"/>
      </g>
     </g>
    </g>
    <g id="ytick_16">
     <g id="line2d_43">
      <g>
       <use style="stroke:#000000;stroke-width:0.5;" x="45.0" xlink:href="#m2d40337b01" y="245.786018639"/>
      </g>
     </g>
     <g id="line2d_44">
      <g>
       <use style="stroke:#000000;stroke-width:0.5;" x="324.0" xlink:href="#mc570e0305b" y="245.786018639"/>
      </g>
     </g>
    </g>
    <g id="ytick_17">
     <g id="line2d_45">
      <g>
       <use style="stroke:#000000;stroke-width:0.5;" x="45.0" xlink:href="#m2d40337b01" y="239.931721059"/>
      </g>
     </g>
     <g id="line2d_46">
      <g>
       <use style="stroke:#000000;stroke-width:0.5;" x="324.0" xlink:href="#mc570e0305b" y="239.931721059"/>
      </g>
     </g>
    </g>
    <g id="ytick_18">
     <g id="line2d_47">
      <g>
       <use style="stroke:#000000;stroke-width:0.5;" x="45.0" xlink:href="#m2d40337b01" y="235.390775072"/>
      </g>
     </g>
     <g id="line2d_48">
      <g>
       <use style="stroke:#000000;stroke-width:0.5;" x="324.0" xlink:href="#mc570e0305b" y="235.390775072"/>
      </g>
     </g>
    </g>
    <g id="ytick_19">
     <g id="line2d_49">
      <g>
       <use style="stroke:#000000;stroke-width:0.5;" x="45.0" xlink:href="#m2d40337b01" y="231.680552048"/>
      </g>
     </g>
     <g id="line2d_50">
      <g>
       <use style="stroke:#000000;stroke-width:0.5;" x="324.0" xlink:href="#mc570e0305b" y="231.680552048"/>
      </g>
     </g>
    </g>
    <g id="ytick_20">
     <g id="line2d_51">
      <g>
       <use style="stroke:#000000;stroke-width:0.5;" x="45.0" xlink:href="#m2d40337b01" y="228.543603179"/>
      </g>
     </g>
     <g id="line2d_52">
      <g>
       <use style="stroke:#000000;stroke-width:0.5;" x="324.0" xlink:href="#mc570e0305b" y="228.543603179"/>
      </g>
     </g>
    </g>
    <g id="ytick_21">
     <g id="line2d_53">
      <g>
       <use style="stroke:#000000;stroke-width:0.5;" x="45.0" xlink:href="#m2d40337b01" y="225.826254468"/>
      </g>
     </g>
     <g id="line2d_54">
      <g>
       <use style="stroke:#000000;stroke-width:0.5;" x="324.0" xlink:href="#mc570e0305b" y="225.826254468"/>
      </g>
     </g>
    </g>
    <g id="ytick_22">
     <g id="line2d_55">
      <g>
       <use style="stroke:#000000;stroke-width:0.5;" x="45.0" xlink:href="#m2d40337b01" y="223.429383038"/>
      </g>
     </g>
     <g id="line2d_56">
      <g>
       <use style="stroke:#000000;stroke-width:0.5;" x="324.0" xlink:href="#mc570e0305b" y="223.429383038"/>
      </g>
     </g>
    </g>
    <g id="ytick_23">
     <g id="line2d_57">
      <g>
       <use style="stroke:#000000;stroke-width:0.5;" x="45.0" xlink:href="#m2d40337b01" y="207.17984189"/>
      </g>
     </g>
     <g id="line2d_58">
      <g>
       <use style="stroke:#000000;stroke-width:0.5;" x="324.0" xlink:href="#mc570e0305b" y="207.17984189"/>
      </g>
     </g>
    </g>
    <g id="ytick_24">
     <g id="line2d_59">
      <g>
       <use style="stroke:#000000;stroke-width:0.5;" x="45.0" xlink:href="#m2d40337b01" y="198.92867288"/>
      </g>
     </g>
     <g id="line2d_60">
      <g>
       <use style="stroke:#000000;stroke-width:0.5;" x="324.0" xlink:href="#mc570e0305b" y="198.92867288"/>
      </g>
     </g>
    </g>
    <g id="ytick_25">
     <g id="line2d_61">
      <g>
       <use style="stroke:#000000;stroke-width:0.5;" x="45.0" xlink:href="#m2d40337b01" y="193.0743753"/>
      </g>
     </g>
     <g id="line2d_62">
      <g>
       <use style="stroke:#000000;stroke-width:0.5;" x="324.0" xlink:href="#mc570e0305b" y="193.0743753"/>
      </g>
     </g>
    </g>
    <g id="ytick_26">
     <g id="line2d_63">
      <g>
       <use style="stroke:#000000;stroke-width:0.5;" x="45.0" xlink:href="#m2d40337b01" y="188.533429313"/>
      </g>
     </g>
     <g id="line2d_64">
      <g>
       <use style="stroke:#000000;stroke-width:0.5;" x="324.0" xlink:href="#mc570e0305b" y="188.533429313"/>
      </g>
     </g>
    </g>
    <g id="ytick_27">
     <g id="line2d_65">
      <g>
       <use style="stroke:#000000;stroke-width:0.5;" x="45.0" xlink:href="#m2d40337b01" y="184.823206289"/>
      </g>
     </g>
     <g id="line2d_66">
      <g>
       <use style="stroke:#000000;stroke-width:0.5;" x="324.0" xlink:href="#mc570e0305b" y="184.823206289"/>
      </g>
     </g>
    </g>
    <g id="ytick_28">
     <g id="line2d_67">
      <g>
       <use style="stroke:#000000;stroke-width:0.5;" x="45.0" xlink:href="#m2d40337b01" y="181.68625742"/>
      </g>
     </g>
     <g id="line2d_68">
      <g>
       <use style="stroke:#000000;stroke-width:0.5;" x="324.0" xlink:href="#mc570e0305b" y="181.68625742"/>
      </g>
     </g>
    </g>
    <g id="ytick_29">
     <g id="line2d_69">
      <g>
       <use style="stroke:#000000;stroke-width:0.5;" x="45.0" xlink:href="#m2d40337b01" y="178.968908709"/>
      </g>
     </g>
     <g id="line2d_70">
      <g>
       <use style="stroke:#000000;stroke-width:0.5;" x="324.0" xlink:href="#mc570e0305b" y="178.968908709"/>
      </g>
     </g>
    </g>
    <g id="ytick_30">
     <g id="line2d_71">
      <g>
       <use style="stroke:#000000;stroke-width:0.5;" x="45.0" xlink:href="#m2d40337b01" y="176.572037278"/>
      </g>
     </g>
     <g id="line2d_72">
      <g>
       <use style="stroke:#000000;stroke-width:0.5;" x="324.0" xlink:href="#mc570e0305b" y="176.572037278"/>
      </g>
     </g>
    </g>
    <g id="ytick_31">
     <g id="line2d_73">
      <g>
       <use style="stroke:#000000;stroke-width:0.5;" x="45.0" xlink:href="#m2d40337b01" y="160.322496131"/>
      </g>
     </g>
     <g id="line2d_74">
      <g>
       <use style="stroke:#000000;stroke-width:0.5;" x="324.0" xlink:href="#mc570e0305b" y="160.322496131"/>
      </g>
     </g>
    </g>
    <g id="ytick_32">
     <g id="line2d_75">
      <g>
       <use style="stroke:#000000;stroke-width:0.5;" x="45.0" xlink:href="#m2d40337b01" y="152.07132712"/>
      </g>
     </g>
     <g id="line2d_76">
      <g>
       <use style="stroke:#000000;stroke-width:0.5;" x="324.0" xlink:href="#mc570e0305b" y="152.07132712"/>
      </g>
     </g>
    </g>
    <g id="ytick_33">
     <g id="line2d_77">
      <g>
       <use style="stroke:#000000;stroke-width:0.5;" x="45.0" xlink:href="#m2d40337b01" y="146.21702954"/>
      </g>
     </g>
     <g id="line2d_78">
      <g>
       <use style="stroke:#000000;stroke-width:0.5;" x="324.0" xlink:href="#mc570e0305b" y="146.21702954"/>
      </g>
     </g>
    </g>
    <g id="ytick_34">
     <g id="line2d_79">
      <g>
       <use style="stroke:#000000;stroke-width:0.5;" x="45.0" xlink:href="#m2d40337b01" y="141.676083553"/>
      </g>
     </g>
     <g id="line2d_80">
      <g>
       <use style="stroke:#000000;stroke-width:0.5;" x="324.0" xlink:href="#mc570e0305b" y="141.676083553"/>
      </g>
     </g>
    </g>
    <g id="ytick_35">
     <g id="line2d_81">
      <g>
       <use style="stroke:#000000;stroke-width:0.5;" x="45.0" xlink:href="#m2d40337b01" y="137.96586053"/>
      </g>
     </g>
     <g id="line2d_82">
      <g>
       <use style="stroke:#000000;stroke-width:0.5;" x="324.0" xlink:href="#mc570e0305b" y="137.96586053"/>
      </g>
     </g>
    </g>
    <g id="ytick_36">
     <g id="line2d_83">
      <g>
       <use style="stroke:#000000;stroke-width:0.5;" x="45.0" xlink:href="#m2d40337b01" y="134.82891166"/>
      </g>
     </g>
     <g id="line2d_84">
      <g>
       <use style="stroke:#000000;stroke-width:0.5;" x="324.0" xlink:href="#mc570e0305b" y="134.82891166"/>
      </g>
     </g>
    </g>
    <g id="ytick_37">
     <g id="line2d_85">
      <g>
       <use style="stroke:#000000;stroke-width:0.5;" x="45.0" xlink:href="#m2d40337b01" y="132.11156295"/>
      </g>
     </g>
     <g id="line2d_86">
      <g>
       <use style="stroke:#000000;stroke-width:0.5;" x="324.0" xlink:href="#mc570e0305b" y="132.11156295"/>
      </g>
     </g>
    </g>
    <g id="ytick_38">
     <g id="line2d_87">
      <g>
       <use style="stroke:#000000;stroke-width:0.5;" x="45.0" xlink:href="#m2d40337b01" y="129.714691519"/>
      </g>
     </g>
     <g id="line2d_88">
      <g>
       <use style="stroke:#000000;stroke-width:0.5;" x="324.0" xlink:href="#mc570e0305b" y="129.714691519"/>
      </g>
     </g>
    </g>
    <g id="ytick_39">
     <g id="line2d_89">
      <g>
       <use style="stroke:#000000;stroke-width:0.5;" x="45.0" xlink:href="#m2d40337b01" y="113.465150372"/>
      </g>
     </g>
     <g id="line2d_90">
      <g>
       <use style="stroke:#000000;stroke-width:0.5;" x="324.0" xlink:href="#mc570e0305b" y="113.465150372"/>
      </g>
     </g>
    </g>
    <g id="ytick_40">
     <g id="line2d_91">
      <g>
       <use style="stroke:#000000;stroke-width:0.5;" x="45.0" xlink:href="#m2d40337b01" y="105.213981361"/>
      </g>
     </g>
     <g id="line2d_92">
      <g>
       <use style="stroke:#000000;stroke-width:0.5;" x="324.0" xlink:href="#mc570e0305b" y="105.213981361"/>
      </g>
     </g>
    </g>
    <g id="ytick_41">
     <g id="line2d_93">
      <g>
       <use style="stroke:#000000;stroke-width:0.5;" x="45.0" xlink:href="#m2d40337b01" y="99.3596837809"/>
      </g>
     </g>
     <g id="line2d_94">
      <g>
       <use style="stroke:#000000;stroke-width:0.5;" x="324.0" xlink:href="#mc570e0305b" y="99.3596837809"/>
      </g>
     </g>
    </g>
    <g id="ytick_42">
     <g id="line2d_95">
      <g>
       <use style="stroke:#000000;stroke-width:0.5;" x="45.0" xlink:href="#m2d40337b01" y="94.8187377939"/>
      </g>
     </g>
     <g id="line2d_96">
      <g>
       <use style="stroke:#000000;stroke-width:0.5;" x="324.0" xlink:href="#mc570e0305b" y="94.8187377939"/>
      </g>
     </g>
    </g>
    <g id="ytick_43">
     <g id="line2d_97">
      <g>
       <use style="stroke:#000000;stroke-width:0.5;" x="45.0" xlink:href="#m2d40337b01" y="91.1085147702"/>
      </g>
     </g>
     <g id="line2d_98">
      <g>
       <use style="stroke:#000000;stroke-width:0.5;" x="324.0" xlink:href="#mc570e0305b" y="91.1085147702"/>
      </g>
     </g>
    </g>
    <g id="ytick_44">
     <g id="line2d_99">
      <g>
       <use style="stroke:#000000;stroke-width:0.5;" x="45.0" xlink:href="#m2d40337b01" y="87.971565901"/>
      </g>
     </g>
     <g id="line2d_100">
      <g>
       <use style="stroke:#000000;stroke-width:0.5;" x="324.0" xlink:href="#mc570e0305b" y="87.971565901"/>
      </g>
     </g>
    </g>
    <g id="ytick_45">
     <g id="line2d_101">
      <g>
       <use style="stroke:#000000;stroke-width:0.5;" x="45.0" xlink:href="#m2d40337b01" y="85.2542171902"/>
      </g>
     </g>
     <g id="line2d_102">
      <g>
       <use style="stroke:#000000;stroke-width:0.5;" x="324.0" xlink:href="#mc570e0305b" y="85.2542171902"/>
      </g>
     </g>
    </g>
    <g id="ytick_46">
     <g id="line2d_103">
      <g>
       <use style="stroke:#000000;stroke-width:0.5;" x="45.0" xlink:href="#m2d40337b01" y="82.8573457594"/>
      </g>
     </g>
     <g id="line2d_104">
      <g>
       <use style="stroke:#000000;stroke-width:0.5;" x="324.0" xlink:href="#mc570e0305b" y="82.8573457594"/>
      </g>
     </g>
    </g>
    <g id="ytick_47">
     <g id="line2d_105">
      <g>
       <use style="stroke:#000000;stroke-width:0.5;" x="45.0" xlink:href="#m2d40337b01" y="66.6078046123"/>
      </g>
     </g>
     <g id="line2d_106">
      <g>
       <use style="stroke:#000000;stroke-width:0.5;" x="324.0" xlink:href="#mc570e0305b" y="66.6078046123"/>
      </g>
     </g>
    </g>
    <g id="ytick_48">
     <g id="line2d_107">
      <g>
       <use style="stroke:#000000;stroke-width:0.5;" x="45.0" xlink:href="#m2d40337b01" y="58.3566356015"/>
      </g>
     </g>
     <g id="line2d_108">
      <g>
       <use style="stroke:#000000;stroke-width:0.5;" x="324.0" xlink:href="#mc570e0305b" y="58.3566356015"/>
      </g>
     </g>
    </g>
    <g id="ytick_49">
     <g id="line2d_109">
      <g>
       <use style="stroke:#000000;stroke-width:0.5;" x="45.0" xlink:href="#m2d40337b01" y="52.5023380216"/>
      </g>
     </g>
     <g id="line2d_110">
      <g>
       <use style="stroke:#000000;stroke-width:0.5;" x="324.0" xlink:href="#mc570e0305b" y="52.5023380216"/>
      </g>
     </g>
    </g>
    <g id="ytick_50">
     <g id="line2d_111">
      <g>
       <use style="stroke:#000000;stroke-width:0.5;" x="45.0" xlink:href="#m2d40337b01" y="47.9613920345"/>
      </g>
     </g>
     <g id="line2d_112">
      <g>
       <use style="stroke:#000000;stroke-width:0.5;" x="324.0" xlink:href="#mc570e0305b" y="47.9613920345"/>
      </g>
     </g>
    </g>
    <g id="ytick_51">
     <g id="line2d_113">
      <g>
       <use style="stroke:#000000;stroke-width:0.5;" x="45.0" xlink:href="#m2d40337b01" y="44.2511690108"/>
      </g>
     </g>
     <g id="line2d_114">
      <g>
       <use style="stroke:#000000;stroke-width:0.5;" x="324.0" xlink:href="#mc570e0305b" y="44.2511690108"/>
      </g>
     </g>
    </g>
    <g id="ytick_52">
     <g id="line2d_115">
      <g>
       <use style="stroke:#000000;stroke-width:0.5;" x="45.0" xlink:href="#m2d40337b01" y="41.1142201416"/>
      </g>
     </g>
     <g id="line2d_116">
      <g>
       <use style="stroke:#000000;stroke-width:0.5;" x="324.0" xlink:href="#mc570e0305b" y="41.1142201416"/>
      </g>
     </g>
    </g>
    <g id="ytick_53">
     <g id="line2d_117">
      <g>
       <use style="stroke:#000000;stroke-width:0.5;" x="45.0" xlink:href="#m2d40337b01" y="38.3968714308"/>
      </g>
     </g>
     <g id="line2d_118">
      <g>
       <use style="stroke:#000000;stroke-width:0.5;" x="324.0" xlink:href="#mc570e0305b" y="38.3968714308"/>
      </g>
     </g>
    </g>
    <g id="ytick_54">
     <g id="line2d_119">
      <g>
       <use style="stroke:#000000;stroke-width:0.5;" x="45.0" xlink:href="#m2d40337b01" y="36.0"/>
      </g>
     </g>
     <g id="line2d_120">
      <g>
       <use style="stroke:#000000;stroke-width:0.5;" x="324.0" xlink:href="#mc570e0305b" y="36.0"/>
      </g>
     </g>
    </g>
    <g id="text_15">
     <!-- Probability -->
     <defs>
      <path d="M 41.109375 46.296875 
Q 39.59375 47.171875 37.8125 47.578125 
Q 36.03125 48 33.890625 48 
Q 26.265625 48 22.1875 43.046875 
Q 18.109375 38.09375 18.109375 28.8125 
L 18.109375 0 
L 9.078125 0 
L 9.078125 54.6875 
L 18.109375 54.6875 
L 18.109375 46.1875 
Q 20.953125 51.171875 25.484375 53.578125 
Q 30.03125 56 36.53125 56 
Q 37.453125 56 38.578125 55.875 
Q 39.703125 55.765625 41.0625 55.515625 
z
" id="BitstreamVeraSans-Roman-72"/>
      <path d="M 19.671875 64.796875 
L 19.671875 37.40625 
L 32.078125 37.40625 
Q 38.96875 37.40625 42.71875 40.96875 
Q 46.484375 44.53125 46.484375 51.125 
Q 46.484375 57.671875 42.71875 61.234375 
Q 38.96875 64.796875 32.078125 64.796875 
z
M 9.8125 72.90625 
L 32.078125 72.90625 
Q 44.34375 72.90625 50.609375 67.359375 
Q 56.890625 61.8125 56.890625 51.125 
Q 56.890625 40.328125 50.609375 34.8125 
Q 44.34375 29.296875 32.078125 29.296875 
L 19.671875 29.296875 
L 19.671875 0 
L 9.8125 0 
z
" id="BitstreamVeraSans-Roman-50"/>
      <path d="M 9.421875 54.6875 
L 18.40625 54.6875 
L 18.40625 0 
L 9.421875 0 
z
M 9.421875 75.984375 
L 18.40625 75.984375 
L 18.40625 64.59375 
L 9.421875 64.59375 
z
" id="BitstreamVeraSans-Roman-69"/>
      <path d="M 32.171875 -5.078125 
Q 28.375 -14.84375 24.75 -17.8125 
Q 21.140625 -20.796875 15.09375 -20.796875 
L 7.90625 -20.796875 
L 7.90625 -13.28125 
L 13.1875 -13.28125 
Q 16.890625 -13.28125 18.9375 -11.515625 
Q 21 -9.765625 23.484375 -3.21875 
L 25.09375 0.875 
L 2.984375 54.6875 
L 12.5 54.6875 
L 29.59375 11.921875 
L 46.6875 54.6875 
L 56.203125 54.6875 
z
" id="BitstreamVeraSans-Roman-79"/>
      <path d="M 34.28125 27.484375 
Q 23.390625 27.484375 19.1875 25 
Q 14.984375 22.515625 14.984375 16.5 
Q 14.984375 11.71875 18.140625 8.90625 
Q 21.296875 6.109375 26.703125 6.109375 
Q 34.1875 6.109375 38.703125 11.40625 
Q 43.21875 16.703125 43.21875 25.484375 
L 43.21875 27.484375 
z
M 52.203125 31.203125 
L 52.203125 0 
L 43.21875 0 
L 43.21875 8.296875 
Q 40.140625 3.328125 35.546875 0.953125 
Q 30.953125 -1.421875 24.3125 -1.421875 
Q 15.921875 -1.421875 10.953125 3.296875 
Q 6 8.015625 6 15.921875 
Q 6 25.140625 12.171875 29.828125 
Q 18.359375 34.515625 30.609375 34.515625 
L 43.21875 34.515625 
L 43.21875 35.40625 
Q 43.21875 41.609375 39.140625 45 
Q 35.0625 48.390625 27.6875 48.390625 
Q 23 48.390625 18.546875 47.265625 
Q 14.109375 46.140625 10.015625 43.890625 
L 10.015625 52.203125 
Q 14.9375 54.109375 19.578125 55.046875 
Q 24.21875 56 28.609375 56 
Q 40.484375 56 46.34375 49.84375 
Q 52.203125 43.703125 52.203125 31.203125 
" id="BitstreamVeraSans-Roman-61"/>
      <path d="M 48.6875 27.296875 
Q 48.6875 37.203125 44.609375 42.84375 
Q 40.53125 48.484375 33.40625 48.484375 
Q 26.265625 48.484375 22.1875 42.84375 
Q 18.109375 37.203125 18.109375 27.296875 
Q 18.109375 17.390625 22.1875 11.75 
Q 26.265625 6.109375 33.40625 6.109375 
Q 40.53125 6.109375 44.609375 11.75 
Q 48.6875 17.390625 48.6875 27.296875 
M 18.109375 46.390625 
Q 20.953125 51.265625 25.265625 53.625 
Q 29.59375 56 35.59375 56 
Q 45.5625 56 51.78125 48.09375 
Q 58.015625 40.1875 58.015625 27.296875 
Q 58.015625 14.40625 51.78125 6.484375 
Q 45.5625 -1.421875 35.59375 -1.421875 
Q 29.59375 -1.421875 25.265625 0.953125 
Q 20.953125 3.328125 18.109375 8.203125 
L 18.109375 0 
L 9.078125 0 
L 9.078125 75.984375 
L 18.109375 75.984375 
z
" id="BitstreamVeraSans-Roman-62"/>
     </defs>
     <g transform="translate(12.8203125 202.1265625)rotate(-90.0)scale(0.1 -0.1)">
      <use xlink:href="#BitstreamVeraSans-Roman-50"/>
      <use x="60.287109375" xlink:href="#BitstreamVeraSans-Roman-72"/>
      <use x="101.369140625" xlink:href="#BitstreamVeraSans-Roman-6f"/>
      <use x="162.55078125" xlink:href="#BitstreamVeraSans-Roman-62"/>
      <use x="226.02734375" xlink:href="#BitstreamVeraSans-Roman-61"/>
      <use x="287.306640625" xlink:href="#BitstreamVeraSans-Roman-62"/>
      <use x="350.783203125" xlink:href="#BitstreamVeraSans-Roman-69"/>
      <use x="378.56640625" xlink:href="#BitstreamVeraSans-Roman-6c"/>
      <use x="406.349609375" xlink:href="#BitstreamVeraSans-Roman-69"/>
      <use x="434.1328125" xlink:href="#BitstreamVeraSans-Roman-74"/>
      <use x="473.341796875" xlink:href="#BitstreamVeraSans-Roman-79"/>
     </g>
    </g>
   </g>
   <g id="legend_1">
    <g id="patch_5">
     <path d="M 233.004375 63.21375 
L 318 63.21375 
L 318 42 
L 233.004375 42 
z
" style="fill:#ffffff;stroke:#000000;stroke-linejoin:miter;"/>
    </g>
    <g id="PathCollection_2">
     <path d="M 241.404375 54.349264 
C 241.823698 54.349264 242.225903 54.182665 242.522409 53.886159 
C 242.818915 53.589653 242.985514 53.187448 242.985514 52.768125 
C 242.985514 52.348802 242.818915 51.946597 242.522409 51.650091 
C 242.225903 51.353585 241.823698 51.186986 241.404375 51.186986 
C 240.985052 51.186986 240.582847 51.353585 240.286341 51.650091 
C 239.989835 51.946597 239.823236 52.348802 239.823236 52.768125 
C 239.823236 53.187448 239.989835 53.589653 240.286341 53.886159 
C 240.582847 54.182665 240.985052 54.349264 241.404375 54.349264 
z
" style="fill:#0000ff;"/>
     <path d="M 249.804375 53.299264 
C 250.223698 53.299264 250.625903 53.132665 250.922409 52.836159 
C 251.218915 52.539653 251.385514 52.137448 251.385514 51.718125 
C 251.385514 51.298802 251.218915 50.896597 250.922409 50.600091 
C 250.625903 50.303585 250.223698 50.136986 249.804375 50.136986 
C 249.385052 50.136986 248.982847 50.303585 248.686341 50.600091 
C 248.389835 50.896597 248.223236 51.298802 248.223236 51.718125 
C 248.223236 52.137448 248.389835 52.539653 248.686341 52.836159 
C 248.982847 53.132665 249.385052 53.299264 249.804375 53.299264 
z
" style="fill:#0000ff;"/>
     <path d="M 258.204375 54.874264 
C 258.623698 54.874264 259.025903 54.707665 259.322409 54.411159 
C 259.618915 54.114653 259.785514 53.712448 259.785514 53.293125 
C 259.785514 52.873802 259.618915 52.471597 259.322409 52.175091 
C 259.025903 51.878585 258.623698 51.711986 258.204375 51.711986 
C 257.785052 51.711986 257.382847 51.878585 257.086341 52.175091 
C 256.789835 52.471597 256.623236 52.873802 256.623236 53.293125 
C 256.623236 53.712448 256.789835 54.114653 257.086341 54.411159 
C 257.382847 54.707665 257.785052 54.874264 258.204375 54.874264 
z
" style="fill:#0000ff;"/>
    </g>
    <g id="text_16">
     <!-- extend -->
     <defs>
      <path d="M 45.40625 46.390625 
L 45.40625 75.984375 
L 54.390625 75.984375 
L 54.390625 0 
L 45.40625 0 
L 45.40625 8.203125 
Q 42.578125 3.328125 38.25 0.953125 
Q 33.9375 -1.421875 27.875 -1.421875 
Q 17.96875 -1.421875 11.734375 6.484375 
Q 5.515625 14.40625 5.515625 27.296875 
Q 5.515625 40.1875 11.734375 48.09375 
Q 17.96875 56 27.875 56 
Q 33.9375 56 38.25 53.625 
Q 42.578125 51.265625 45.40625 46.390625 
M 14.796875 27.296875 
Q 14.796875 17.390625 18.875 11.75 
Q 22.953125 6.109375 30.078125 6.109375 
Q 37.203125 6.109375 41.296875 11.75 
Q 45.40625 17.390625 45.40625 27.296875 
Q 45.40625 37.203125 41.296875 42.84375 
Q 37.203125 48.484375 30.078125 48.484375 
Q 22.953125 48.484375 18.875 42.84375 
Q 14.796875 37.203125 14.796875 27.296875 
" id="BitstreamVeraSans-Roman-64"/>
     </defs>
     <g transform="translate(271.404375 55.918125)scale(0.12 -0.12)">
      <use xlink:href="#BitstreamVeraSans-Roman-65"/>
      <use x="61.5078125" xlink:href="#BitstreamVeraSans-Roman-78"/>
      <use x="120.6875" xlink:href="#BitstreamVeraSans-Roman-74"/>
      <use x="159.896484375" xlink:href="#BitstreamVeraSans-Roman-65"/>
      <use x="221.419921875" xlink:href="#BitstreamVeraSans-Roman-6e"/>
      <use x="284.798828125" xlink:href="#BitstreamVeraSans-Roman-64"/>
     </g>
    </g>
   </g>
  </g>
  <g id="text_17">
   <!-- tRNA-Log- -extend -->
   <defs>
    <path d="M 44.390625 34.1875 
Q 47.5625 33.109375 50.5625 29.59375 
Q 53.5625 26.078125 56.59375 19.921875 
L 66.609375 0 
L 56 0 
L 46.6875 18.703125 
Q 43.0625 26.03125 39.671875 28.421875 
Q 36.28125 30.8125 30.421875 30.8125 
L 19.671875 30.8125 
L 19.671875 0 
L 9.8125 0 
L 9.8125 72.90625 
L 32.078125 72.90625 
Q 44.578125 72.90625 50.734375 67.671875 
Q 56.890625 62.453125 56.890625 51.90625 
Q 56.890625 45.015625 53.6875 40.46875 
Q 50.484375 35.9375 44.390625 34.1875 
M 19.671875 64.796875 
L 19.671875 38.921875 
L 32.078125 38.921875 
Q 39.203125 38.921875 42.84375 42.21875 
Q 46.484375 45.515625 46.484375 51.90625 
Q 46.484375 58.296875 42.84375 61.546875 
Q 39.203125 64.796875 32.078125 64.796875 
z
" id="BitstreamVeraSans-Roman-52"/>
    <path d="M 9.8125 72.90625 
L 19.671875 72.90625 
L 19.671875 8.296875 
L 55.171875 8.296875 
L 55.171875 0 
L 9.8125 0 
z
" id="BitstreamVeraSans-Roman-4c"/>
    <path d="M 9.8125 72.90625 
L 23.09375 72.90625 
L 55.421875 11.921875 
L 55.421875 72.90625 
L 64.984375 72.90625 
L 64.984375 0 
L 51.703125 0 
L 19.390625 60.984375 
L 19.390625 0 
L 9.8125 0 
z
" id="BitstreamVeraSans-Roman-4e"/>
    <path d="M 34.1875 63.1875 
L 20.796875 26.90625 
L 47.609375 26.90625 
z
M 28.609375 72.90625 
L 39.796875 72.90625 
L 67.578125 0 
L 57.328125 0 
L 50.6875 18.703125 
L 17.828125 18.703125 
L 11.1875 0 
L 0.78125 0 
z
" id="BitstreamVeraSans-Roman-41"/>
   </defs>
   <g transform="translate(135.5609375 21.9984375)scale(0.1 -0.1)">
    <use xlink:href="#BitstreamVeraSans-Roman-74"/>
    <use x="39.208984375" xlink:href="#BitstreamVeraSans-Roman-52"/>
    <use x="108.69140625" xlink:href="#BitstreamVeraSans-Roman-4e"/>
    <use x="183.49609375" xlink:href="#BitstreamVeraSans-Roman-41"/>
    <use x="251.873046875" xlink:href="#BitstreamVeraSans-Roman-2d"/>
    <use x="287.95703125" xlink:href="#BitstreamVeraSans-Roman-4c"/>
    <use x="343.654296875" xlink:href="#BitstreamVeraSans-Roman-6f"/>
    <use x="404.8359375" xlink:href="#BitstreamVeraSans-Roman-67"/>
    <use x="468.3125" xlink:href="#BitstreamVeraSans-Roman-2d"/>
    <use x="504.396484375" xlink:href="#BitstreamVeraSans-Roman-2d"/>
    <use x="540.48046875" xlink:href="#BitstreamVeraSans-Roman-65"/>
    <use x="601.98828125" xlink:href="#BitstreamVeraSans-Roman-78"/>
    <use x="661.16796875" xlink:href="#BitstreamVeraSans-Roman-74"/>
    <use x="700.376953125" xlink:href="#BitstreamVeraSans-Roman-65"/>
    <use x="761.900390625" xlink:href="#BitstreamVeraSans-Roman-6e"/>
    <use x="825.279296875" xlink:href="#BitstreamVeraSans-Roman-64"/>
   </g>
  </g>
 </g>
 <defs>
  <clipPath id="p85aca2708c">
   <rect height="279.0" width="279.0" x="45.0" y="36.0"/>
  </clipPath>
 </defs>
</svg>
